<svg xmlns="http://www.w3.org/2000/svg">
<defs>
<font id="Virage-Semibold" horiz-adv-x="1320" >
  <font-face 
    font-family="."
    font-weight="600"
    font-stretch="normal"
    units-per-em="2048"
    panose-1="0 0 0 0 0 0 0 0 0 0"
    ascent="1638"
    descent="-410"
    x-height="1126"
    cap-height="1638"
    bbox="-164 -538 2803 2594"
    underline-thickness="164"
    underline-position="-358"
    unicode-range="U+0020-FB02"
  />
<missing-glyph horiz-adv-x="813" 
d="M532 -10q-110 0 -155 39v86q0 20 -1 65.5t-1 67.5q0 36 -9 72t-18 56t-26 54q-48 90 -48 148t35 165q37 108 41 181l-26 -2q-51 -48 -99 -48q-25 0 -46.5 12.5t-28.5 37.5q30 43 77 88h-176v637h481v-467q79 -25 146 -68q16 -45 16 -117q4 -68 15 -108q35 -57 53 -103
q0 -63 -33 -329q-43 -404 -41 -449q-64 -18 -156 -18zM174 920q13 -25 51 -25q43 0 80 41q5 3 5 15.5t-5 21.5l17 8q11 -18 4 -41q60 6 123 23l22 47l21 -9l-23 -45q77 -55 121 -96l-12 -16q-40 37 -121 96q-63 -43 -97 -96q3 -20 13 -41q21 24 47 35q29 -12 86 -56
q9 -7 29.5 -21.5t31.5 -23.5l-12 -16q-14 9 -61 45q-61 43 -74 49q-37 -19 -55 -65q21 -33 94 -84q80 -59 98 -95l-16 -8q-14 25 -47 51q4 -32 0 -47l-21 4q9 37 -10 66l-23 16q-2 -21 -22 -69q-35 -80 -35 -129h-21q0 61 35 137q31 63 19 80q-54 38 -76 78q12 24 20 36
q-9 15 -10 19q-3 -11 -10 -33.5t-10 -34.5q-35 -101 -35 -159q0 -57 45 -138q18 -34 27.5 -56.5t18.5 -60t9 -75.5q0 -22 1 -67.5t1 -65.5v-76q44 -29 135 -29q71 0 136 15q2 79 41 434q32 294 32 323q-73 172 -256 291q-114 -9 -213 -45q-73 -75 -98 -108zM309 1133
q-2 -26 14 -41t50 -15q71 15 116 17q115 -75 191 -166q-2 11 -3 22t-1.5 24.5t-1.5 20.5q0 65 -12 107q-75 46 -177 72q-19 0 -82 -19q-63 -20 -94 -22zM367 879q21 30 57 57q-27 -7 -53 -10q0 -5 -0.5 -10.5t-1.5 -16t-2 -20.5zM442 217l13 16q30 -24 75 -24q34 0 52 14
l12 -16q-22 -19 -64 -19q-43 0 -88 29z" />
    <glyph glyph-name="fi" unicode="fi" horiz-adv-x="1486" 
d="M257 0v879h-226v247h226v157q0 83 25.5 157.5t75.5 124.5q96 94 308 94h187v-248h-218q-27 0 -44 -17t-17 -43v-225h328v-247h-328v-879h-317zM1034 1402v141q0 44 25.5 69.5t69.5 25.5h159q44 0 69.5 -25.5t25.5 -69.5v-141q0 -44 -25.5 -69.5t-69.5 -25.5h-159
q-44 0 -69.5 25.5t-25.5 69.5zM1051 0v1126h317v-1126h-317z" />
    <glyph glyph-name="fl" unicode="fl" horiz-adv-x="1506" 
d="M257 0v879h-226v247h226v157q0 83 25.5 157.5t75.5 124.5q96 94 308 94h187v-248h-218q-27 0 -44 -17t-17 -43v-225h328v-247h-328v-879h-317zM1061 0v1638h317v-1638h-317z" />
    <glyph glyph-name=".notdef" horiz-adv-x="813" 
d="M532 -10q-110 0 -155 39v86q0 20 -1 65.5t-1 67.5q0 36 -9 72t-18 56t-26 54q-48 90 -48 148t35 165q37 108 41 181l-26 -2q-51 -48 -99 -48q-25 0 -46.5 12.5t-28.5 37.5q30 43 77 88h-176v637h481v-467q79 -25 146 -68q16 -45 16 -117q4 -68 15 -108q35 -57 53 -103
q0 -63 -33 -329q-43 -404 -41 -449q-64 -18 -156 -18zM174 920q13 -25 51 -25q43 0 80 41q5 3 5 15.5t-5 21.5l17 8q11 -18 4 -41q60 6 123 23l22 47l21 -9l-23 -45q77 -55 121 -96l-12 -16q-40 37 -121 96q-63 -43 -97 -96q3 -20 13 -41q21 24 47 35q29 -12 86 -56
q9 -7 29.5 -21.5t31.5 -23.5l-12 -16q-14 9 -61 45q-61 43 -74 49q-37 -19 -55 -65q21 -33 94 -84q80 -59 98 -95l-16 -8q-14 25 -47 51q4 -32 0 -47l-21 4q9 37 -10 66l-23 16q-2 -21 -22 -69q-35 -80 -35 -129h-21q0 61 35 137q31 63 19 80q-54 38 -76 78q12 24 20 36
q-9 15 -10 19q-3 -11 -10 -33.5t-10 -34.5q-35 -101 -35 -159q0 -57 45 -138q18 -34 27.5 -56.5t18.5 -60t9 -75.5q0 -22 1 -67.5t1 -65.5v-76q44 -29 135 -29q71 0 136 15q2 79 41 434q32 294 32 323q-73 172 -256 291q-114 -9 -213 -45q-73 -75 -98 -108zM309 1133
q-2 -26 14 -41t50 -15q71 15 116 17q115 -75 191 -166q-2 11 -3 22t-1.5 24.5t-1.5 20.5q0 65 -12 107q-75 46 -177 72q-19 0 -82 -19q-63 -20 -94 -22zM367 879q21 30 57 57q-27 -7 -53 -10q0 -5 -0.5 -10.5t-1.5 -16t-2 -20.5zM442 217l13 16q30 -24 75 -24q34 0 52 14
l12 -16q-22 -19 -64 -19q-43 0 -88 29z" />
    <glyph glyph-name=".null" horiz-adv-x="0" 
 />
    <glyph glyph-name="nonmarkingreturn" horiz-adv-x="682" 
 />
    <glyph glyph-name="space" unicode=" " horiz-adv-x="471" 
 />
    <glyph glyph-name="exclam" unicode="!" horiz-adv-x="586" 
d="M151 506l-17 323v809h318v-809l-17 -323h-284zM118 0v332h350v-332h-350z" />
    <glyph glyph-name="quotedbl" unicode="&#x22;" horiz-adv-x="1009" 
d="M167 981l-49 326v331h337v-331l-49 -326h-239zM554 1307v331h337v-331l-49 -326h-239z" />
    <glyph glyph-name="numbersign" unicode="#" horiz-adv-x="1589" 
d="M219 0l75 430h-233v266h277l43 246h-320v266h364l75 430h303l-75 -430h266l75 430h302l-76 -430h233v-266h-277l-44 -246h321v-266h-365l-76 -430h-300l75 430h-265l-75 -430h-303zM641 696h265l44 246h-266z" />
    <glyph glyph-name="dollar" unicode="$" horiz-adv-x="1481" 
d="M673 -164v141q-286 20 -443 177q-65 65 -105.5 155.5t-42.5 192.5v20h322v-93q0 -75 44.5 -119.5t119.5 -44.5h105v420l-202 70q-171 60 -261 163.5t-90 244.5v21q0 82 35.5 164.5t101.5 148.5q148 148 416 165v140h134v-140q262 -18 414 -169q139 -139 157 -342v-21
h-322v79q0 76 -44.5 120t-119.5 44h-85v-409l223 -77q182 -62 275.5 -166.5t93.5 -244.5v-12q0 -176 -137 -313q-161 -161 -455 -176v-139h-134zM447 1172q0 -85 83 -112l143 -49v362h-82q-66 0 -105 -38.5t-39 -104.5v-58zM807 265h121q66 0 104.5 39t38.5 105v55
q0 43 -19 69.5t-63 41.5l-182 63v-373z" />
    <glyph glyph-name="percent" unicode="%" horiz-adv-x="1329" 
d="M458 921q-161 0 -258 102q-51 50 -77 119t-26 141v21q0 71 26 139t77 120q101 101 258 101q156 0 259 -101q102 -105 102 -259v-21q0 -72 -26 -141t-76 -119q-100 -102 -259 -102zM97 578v178l1135 305v-178zM327 1257q0 -57 36 -93t93 -36h4q57 0 93.5 36t36.5 93v70
q0 58 -36.5 93.5t-93.5 35.5h-4q-57 0 -93 -35.5t-36 -93.5v-70zM510 337v20q0 71 26 139.5t76 119.5q102 102 258 102q159 0 259 -102q103 -103 103 -259v-20q0 -72 -26 -141.5t-77 -118.5q-100 -103 -259 -103q-158 0 -258 103q-50 49 -76 118.5t-26 141.5zM739 313
q0 -57 36.5 -94t92.5 -37h4q56 0 93 37t37 94v66q0 58 -36.5 94.5t-93.5 36.5h-4q-56 0 -92.5 -36.5t-36.5 -94.5v-66z" />
    <glyph glyph-name="ampersand" unicode="&#x26;" horiz-adv-x="1709" 
d="M729 -26q-333 0 -510 177q-66 66 -101.5 147t-35.5 163v20q0 123 77 217.5t210 141.5l23 8q-191 110 -191 315v21q0 82 35.5 164.5t101.5 148.5q165 167 480 167q311 0 484 -171q64 -65 106 -153.5t51 -188.5v-21h-322v79q0 76 -44.5 120t-119.5 44h-301
q-66 0 -105 -38.5t-39 -104.5v-58q0 -42 19 -69.5t64 -42.5l500 -173q150 -52 238 -126.5t88 -140.5v-4l200 201v-362l-157 -158v-41h168v-256h-486v120l-12 -12q-62 -62 -170.5 -98t-250.5 -36zM410 411q0 -67 38.5 -106.5t104.5 -39.5h371q89 0 142 51l86 87v61
q0 83 -82 111l-309 107l-269 -93q-44 -16 -63 -42t-19 -70v-66z" />
    <glyph glyph-name="quotesingle" unicode="'" horiz-adv-x="572" 
d="M167 981l-49 326v331h337v-331l-49 -326h-239z" />
    <glyph glyph-name="parenleft" unicode="(" horiz-adv-x="771" 
d="M380 -90q-278 273 -278 864v82q0 591 278 864h330v-18q-131 -134 -200.5 -307.5t-69.5 -374.5v-410q0 -201 69.5 -374t200.5 -305v-21h-330z" />
    <glyph glyph-name="parenright" unicode=")" horiz-adv-x="771" 
d="M391 1720q278 -273 278 -864v-82q0 -591 -278 -864h-330v18q131 134 200.5 307.5t69.5 374.5v410q0 201 -69.5 374t-200.5 305v21h330z" />
    <glyph glyph-name="asterisk" unicode="*" horiz-adv-x="952" 
d="M376 881l15 225l-192 -123l-102 174l225 103l-225 102l102 174l192 -124l-15 226h201l-16 -226l193 124l101 -174l-224 -102l224 -103l-101 -174l-193 123l16 -225h-201z" />
    <glyph glyph-name="plus" unicode="+" horiz-adv-x="1204" 
d="M468 223v431h-431v269h431v431h268v-431h431v-269h-431v-431h-268z" />
    <glyph glyph-name="comma" unicode="," horiz-adv-x="604" 
d="M217 -326l-4 4v322h-95v297q0 15 9.5 25t25.5 10h137q92 0 144 -53.5t52 -152.5v-113q0 -164 -93 -259q-74 -74 -176 -80z" />
    <glyph glyph-name="hyphen" unicode="-" horiz-adv-x="952" 
d="M123 650v248h706v-248h-706z" />
    <glyph glyph-name="period" unicode="." horiz-adv-x="586" 
d="M118 0v332h350v-332h-350z" />
    <glyph glyph-name="slash" unicode="/" horiz-adv-x="1325" 
d="M61 -90l852 1810h351l-852 -1810h-351z" />
    <glyph glyph-name="zero" unicode="0" horiz-adv-x="1607" 
d="M804 -26q-291 0 -489 198q-213 214 -213 637v20q0 424 213 637q198 198 489 198q289 0 487 -198q213 -212 213 -637v-20q0 -424 -213 -637q-198 -198 -487 -198zM461 513q0 -115 66.5 -181.5t181.5 -66.5h189q115 0 181.5 66.5t66.5 181.5v612q0 115 -66.5 181.5
t-181.5 66.5h-189q-115 0 -181.5 -66.5t-66.5 -181.5v-612z" />
    <glyph glyph-name="one" unicode="1" horiz-adv-x="725" 
d="M260 0v1341h-250v21l190 276h397v-1638h-337z" />
    <glyph glyph-name="two" unicode="2" horiz-adv-x="1412" 
d="M102 185q0 226 88 365.5t304 246.5l398 195q85 42 85 126v113q0 63 -39 102.5t-103 39.5h-257q-66 0 -107 -41t-41 -106v-59h-343v21q16 197 140 321q155 155 481 155q321 0 483 -162q139 -139 139 -325v-21q0 -131 -93 -248.5t-282 -210.5l-442 -217q-64 -31 -92 -76.5
t-29 -114.5h922v-289h-1212v185z" />
    <glyph glyph-name="three" unicode="3" horiz-adv-x="1455" 
d="M729 -26q-333 0 -502 167q-58 59 -96.5 136t-48.5 158v21h343v-37q0 -71 41 -112.5t113 -41.5h273q75 0 121.5 46.5t46.5 121.5v108q0 66 -40.5 106.5t-107.5 40.5h-310v279h271q66 0 106.5 40.5t40.5 106.5v112q0 66 -40.5 106.5t-106.5 40.5h-250q-72 0 -113 -41
t-41 -112v-37h-343v20q22 169 145 294q169 167 491 167q305 0 471 -166q140 -140 140 -322v-21q0 -185 -142 -302v-9q83 -65 132.5 -151t49.5 -182v-21q0 -89 -42 -180t-118 -167q-84 -84 -198.5 -126.5t-285.5 -42.5z" />
    <glyph glyph-name="four" unicode="4" horiz-adv-x="1478" 
d="M885 0v391h-824v297l677 950h484v-958h189v-289h-189v-391h-337zM390 680h495v305l7 412h-4l-498 -713v-4z" />
    <glyph glyph-name="five" unicode="5" horiz-adv-x="1450" 
d="M737 -26q-340 0 -511 169q-59 59 -94 136.5t-40 155.5v21h343v-37q0 -70 42 -112t112 -42h247q79 0 129 50t50 129v172q0 79 -50 129.5t-129 50.5h-308q-31 0 -51 -20t-20 -52v-10h-322v924h1128v-288h-801v-342l68 38q120 40 252 40q271 0 432 -161q77 -77 118 -178.5
t41 -204.5v-21q0 -105 -40.5 -202.5t-117.5 -174.5q-170 -170 -478 -170z" />
    <glyph glyph-name="six" unicode="6" horiz-adv-x="1533" 
d="M806 -26q-316 0 -493 179q-211 209 -211 664v21q0 238 48 388.5t152 254.5q185 183 503 183t484 -168q56 -56 94.5 -129t52.5 -143v-21h-338v17q0 70 -41.5 111.5t-112.5 41.5h-232q-116 0 -186 -69t-70 -187v-189l70 54q131 76 317 76q295 0 459 -162q149 -149 149 -352
v-21q0 -100 -40.5 -199t-118.5 -177q-173 -173 -486 -173zM460 490q0 -102 61.5 -163.5t163.5 -61.5h212q93 0 149 56t56 149v102q0 93 -56 149t-149 56h-212q-101 0 -163 -62t-62 -163v-62z" />
    <glyph glyph-name="seven" unicode="7" horiz-adv-x="1336" 
d="M236 0v20l618 1187l83 139v4h-876v288h1214v-290l-704 -1348h-335z" />
    <glyph glyph-name="eight" unicode="8" horiz-adv-x="1520" 
d="M760 -26q-346 0 -517 171q-63 63 -102 147.5t-39 167.5v20q0 102 58 194.5t157 149.5v4q-85 60 -139 151t-54 189v21q0 78 38 160.5t96 140.5q80 80 208 127t294 47q165 0 293 -47t209 -127q57 -58 95.5 -141t38.5 -160v-21q0 -98 -54.5 -189t-139.5 -151v-4
q99 -57 157 -149.5t58 -194.5v-20q0 -83 -39 -167.5t-102 -147.5q-173 -171 -516 -171zM461 403q0 -63 40 -103t103 -40h311q63 0 103.5 40t40.5 103v153q0 63 -40.5 103t-103.5 40h-311q-63 0 -103 -40t-40 -103v-153zM468 1090q0 -63 40 -103.5t103 -40.5h297
q63 0 103.5 40.5t40.5 103.5v144q0 63 -41 103.5t-104 40.5h-296q-63 0 -103 -40t-40 -103v-145z" />
    <glyph glyph-name="nine" unicode="9" horiz-adv-x="1533" 
d="M727 1664q315 0 493 -178q211 -209 211 -665v-20q0 -238 -48 -388.5t-152 -254.5q-184 -184 -503 -184q-316 0 -484 168q-56 56 -94.5 129.5t-52.5 143.5v20h338v-16q0 -71 41.5 -112.5t112.5 -41.5h232q115 0 185.5 69.5t70.5 186.5v190l-70 -55q-130 -75 -317 -75
q-296 0 -459 161q-149 151 -149 353v20q0 100 40.5 199t118.5 177q172 173 486 173zM431 1066q0 -93 56 -149t149 -56h212q101 0 163 62t62 163v62q0 102 -61.5 163.5t-163.5 61.5h-212q-93 0 -149 -56t-56 -149v-102z" />
    <glyph glyph-name="colon" unicode=":" horiz-adv-x="586" 
d="M118 0v332h350v-332h-350zM118 695v332h350v-332h-350z" />
    <glyph glyph-name="semicolon" unicode=";" horiz-adv-x="586" 
d="M217 -326l-4 4v322h-95v297q0 15 9.5 25t25.5 10h137q92 0 144 -53.5t52 -152.5v-113q0 -164 -93 -259q-74 -74 -176 -80zM118 695v332h350v-332h-350z" />
    <glyph glyph-name="less" unicode="&#x3c;" horiz-adv-x="952" 
d="M829 1054v-250l-498 -232v-4l498 -231v-250h-20l-686 328v311l686 328h20z" />
    <glyph glyph-name="equal" unicode="=" horiz-adv-x="1225" 
d="M49 936v258h1127v-258h-1127zM49 383v258h1127v-258h-1127z" />
    <glyph glyph-name="greater" unicode="&#x3e;" horiz-adv-x="952" 
d="M123 87v250l499 231v4l-499 232v250h20l686 -328v-311l-686 -328h-20z" />
    <glyph glyph-name="question" unicode="?" horiz-adv-x="1356" 
d="M513 608q0 129 62 222t187 133l137 43q31 10 49 36t18 61v151q0 61 -36.5 97.5t-96.5 36.5h-295q-61 0 -97.5 -36.5t-36.5 -97.5v-39h-322v21q6 71 40 144.5t93 131.5q69 70 189 111t281 41q156 0 278 -40.5t194 -113.5q65 -65 98.5 -147.5t33.5 -165.5v-51
q0 -130 -83 -240t-212 -151l-117 -37q-48 -15 -48 -67v-186h-316v143zM499 0v332h350v-332h-350z" />
    <glyph glyph-name="at" unicode="@" horiz-adv-x="2114" 
d="M1060 -26q-263 0 -441.5 57t-297.5 178q-219 216 -219 590v20q0 392 219 611q115 115 292.5 174.5t443.5 59.5q497 0 743 -246q211 -210 211 -536v-21q0 -252 -133 -385q-122 -122 -299 -122q-84 0 -148 31t-119 100l-12 15l-19 -31q-115 -115 -296 -115q-210 0 -337 127
q-63 63 -95.5 148.5t-32.5 169.5v20q0 84 32.5 169.5t95.5 148.5q129 127 337 127q140 0 239 -79l40 -24v82h286v-596q0 -67 73 -67h74q40 0 64.5 23t24.5 72v282q0 232 -135.5 367t-366.5 135h-455q-231 0 -366 -135t-135 -367v-276q0 -231 135 -366.5t366 -135.5h617v-205
h-386zM822 712q0 -52 30.5 -82.5t82.5 -30.5h206q51 0 81.5 30.5t30.5 82.5v194q0 52 -30.5 82.5t-81.5 30.5h-205q-52 0 -83 -30.5t-31 -83.5v-193z" />
    <glyph glyph-name="A" unicode="A" horiz-adv-x="1657" 
d="M61 0v20l539 1618h458l537 -1618v-20h-344l-111 333h-669l-113 -333h-297zM564 622h483l-154 465l-85 263h-4l-86 -263z" />
    <glyph glyph-name="B" unicode="B" horiz-adv-x="1514" 
d="M128 0v1638h740q128 0 234 -40.5t179 -113.5q60 -61 94 -137.5t34 -151.5v-20q0 -95 -49.5 -181.5t-135.5 -136.5v-4q97 -57 153 -149.5t56 -203.5v-21q0 -86 -37.5 -174t-101.5 -152q-151 -153 -439 -153h-727zM465 273h486q56 0 89.5 33.5t33.5 89.5v176
q0 56 -33.5 89.5t-89.5 33.5h-486v-422zM465 969h470q56 0 89.5 33.5t33.5 89.5v150q0 56 -33.5 89.5t-89.5 33.5h-470v-396z" />
    <glyph glyph-name="C" unicode="C" horiz-adv-x="1670" 
d="M867 -26q-328 0 -536 208q-229 229 -229 627v20q0 400 229 627q208 208 536 208q164 0 297.5 -53.5t227.5 -147.5q78 -78 128.5 -183t62.5 -218v-21h-333v71q0 122 -72 191.5t-198 69.5h-238q-130 0 -205.5 -75.5t-75.5 -205.5v-545q0 -131 75.5 -206.5t205.5 -75.5h238
q126 0 198 69.5t72 191.5v71h333v-20q-12 -114 -61 -217.5t-128 -182.5q-203 -203 -527 -203z" />
    <glyph glyph-name="D" unicode="D" horiz-adv-x="1682" 
d="M128 0v1638h668q365 0 564 -197q108 -108 164 -268t56 -344v-20q0 -184 -55.5 -343.5t-162.5 -265.5q-202 -200 -566 -200h-668zM465 289h475q130 0 206 75.5t76 205.5v498q0 130 -76 206t-206 76h-475v-1061z" />
    <glyph glyph-name="E" unicode="E" horiz-adv-x="1304" 
d="M128 0v1638h1089v-288h-752v-382h702v-279h-702v-400h752v-289h-1089z" />
    <glyph glyph-name="F" unicode="F" horiz-adv-x="1241" 
d="M128 0v1638h1026v-288h-689v-463h668v-289h-668v-598h-337z" />
    <glyph glyph-name="G" unicode="G" horiz-adv-x="1698" 
d="M865 -26q-335 0 -537 202q-114 114 -170 279t-56 354v20q0 189 56 354.5t170 278.5q202 202 537 202q166 0 301 -52t229 -146q78 -78 127.5 -184.5t59.5 -205.5v-20h-341v56q0 121 -72.5 191t-197.5 70h-229q-129 0 -205 -76t-76 -205v-545q0 -129 76 -205.5t205 -76.5
h250q125 0 198 70.5t73 190.5v67h-389v278h721v-157q0 -160 -52.5 -305.5t-143.5 -236.5q-94 -94 -230 -146t-304 -52z" />
    <glyph glyph-name="H" unicode="H" horiz-adv-x="1565" 
d="M128 0v1638h337v-644h635v644h337v-1638h-337v685h-635v-685h-337z" />
    <glyph glyph-name="I" unicode="I" horiz-adv-x="593" 
d="M128 0v1638h337v-1638h-337z" />
    <glyph glyph-name="J" unicode="J" horiz-adv-x="1328" 
d="M653 -26q-264 0 -424 158q-62 62 -102 146t-50 176v20h344v-86q0 -56 34.5 -90.5t90.5 -34.5h203q56 0 90 34t34 91v962h-604v288h941v-1112q0 -251 -143 -394q-158 -158 -414 -158z" />
    <glyph glyph-name="K" unicode="K" horiz-adv-x="1599" 
d="M128 0v1638h337v-660h4l636 660h392v-20l-751 -751l792 -847v-20h-411l-658 717h-4v-717h-337z" />
    <glyph glyph-name="L" unicode="L" horiz-adv-x="1289" 
d="M128 0v1638h337v-1349h763v-289h-1100z" />
    <glyph glyph-name="M" unicode="M" horiz-adv-x="2054" 
d="M128 0v1638h455l446 -1179h4l447 1179h446v-1638h-333v562l11 600h-5l-433 -1162h-322l-433 1162h-4l10 -600v-562h-289z" />
    <glyph glyph-name="N" unicode="N" horiz-adv-x="1565" 
d="M128 0v1638h289l724 -1096h4l-18 760v336h310v-1638h-289l-724 1097h-4l17 -760v-337h-309z" />
    <glyph glyph-name="O" unicode="O" horiz-adv-x="1755" 
d="M878 -26q-336 0 -545 209q-111 111 -171 270t-60 356v20q0 197 60 356t171 270q209 209 545 209q335 0 544 -209q111 -111 171 -270t60 -356v-20q0 -197 -60 -356t-171 -270q-209 -209 -544 -209zM461 547q0 -129 76 -205.5t205 -76.5h271q129 0 205 76.5t76 205.5v545
q0 129 -76 205t-205 76h-271q-129 0 -205 -76t-76 -205v-545z" />
    <glyph glyph-name="P" unicode="P" horiz-adv-x="1504" 
d="M128 0v1638h636q151 0 275 -44t205 -126q80 -79 124 -192t44 -238v-20q0 -125 -43.5 -240.5t-119.5 -190.5q-164 -165 -485 -165h-299v-422h-337zM465 706h450q65 0 104.5 39t39.5 104v357q0 65 -39.5 104.5t-104.5 39.5h-450v-644z" />
    <glyph glyph-name="Q" unicode="Q" horiz-adv-x="1755" 
d="M883 -251v225h-5q-336 0 -545 209q-111 111 -171 270t-60 356v20q0 197 60 356t171 270q209 209 545 209q335 0 544 -209q111 -111 171 -270t60 -356v-20q0 -197 -60 -356t-171 -270q-110 -111 -259 -163h389v-271h-669zM461 547q0 -129 76 -205.5t205 -76.5h271
q129 0 205 76.5t76 205.5v545q0 129 -76 205t-205 76h-271q-129 0 -205 -76t-76 -205v-545z" />
    <glyph glyph-name="R" unicode="R" horiz-adv-x="1516" 
d="M128 0v1638h705q125 0 232.5 -41.5t183.5 -117.5q72 -72 111.5 -164t39.5 -186v-20q0 -98 -42.5 -192t-115.5 -167q-76 -77 -173 -119l-49 -10l115 -139l314 -457v-25h-372l-359 568h-253v-568h-337zM465 845h454q55 0 88.5 34t33.5 89v259q0 55 -33.5 89t-88.5 34h-454
v-505z" />
    <glyph glyph-name="S" unicode="S" horiz-adv-x="1481" 
d="M752 -26q-168 0 -302 47t-220 133q-65 65 -105.5 155.5t-42.5 192.5v20h322v-93q0 -75 44.5 -119.5t119.5 -44.5h360q66 0 104.5 39t38.5 105v55q0 43 -19 69.5t-63 41.5l-518 180q-171 60 -261 163.5t-90 244.5v21q0 82 35.5 164.5t101.5 148.5q167 167 480 167
q311 0 484 -171q139 -139 157 -342v-21h-322v79q0 76 -44.5 120t-119.5 44h-301q-66 0 -105 -38.5t-39 -104.5v-58q0 -85 83 -112l500 -173q182 -62 275.5 -166.5t93.5 -244.5v-12q0 -176 -137 -313q-177 -177 -510 -177z" />
    <glyph glyph-name="T" unicode="T" horiz-adv-x="1439" 
d="M551 0v1350h-490v288h1316v-288h-489v-1350h-337z" />
    <glyph glyph-name="U" unicode="U" horiz-adv-x="1519" 
d="M769 -26q-311 0 -479 167q-82 80 -127 201t-45 259v1037h337v-1211q0 -75 44 -119.5t119 -44.5h308q75 0 119.5 44.5t44.5 119.5v1211h311v-1037q0 -143 -42 -267t-117 -199q-162 -161 -473 -161z" />
    <glyph glyph-name="V" unicode="V" horiz-adv-x="1599" 
d="M599 0l-538 1618v20h345l413 -1270h4l418 1270h297v-20l-539 -1618h-400z" />
    <glyph glyph-name="W" unicode="W" horiz-adv-x="2541" 
d="M599 0l-538 1618v20h345l381 -1172h5l385 1172h244l383 -1172h4l384 1172h287v-20l-539 -1618h-325l-342 1010h-4l-344 -1010h-326z" />
    <glyph glyph-name="X" unicode="X" horiz-adv-x="1612" 
d="M72 0v20l500 799l-500 799v20h372l382 -638h4l382 638h328v-20l-501 -799l501 -799v-20h-373l-382 638h-4l-382 -638h-327z" />
    <glyph glyph-name="Y" unicode="Y" horiz-adv-x="1599" 
d="M633 0l-1 603l-571 1015v20h365l395 -717h4l393 717h320v-20l-569 -1012l1 -606h-337z" />
    <glyph glyph-name="Z" unicode="Z" horiz-adv-x="1361" 
d="M92 0v282l793 1068l-2 4l-131 -4h-660v288h1177v-280l-793 -1069l2 -4l149 4h642v-289h-1177z" />
    <glyph glyph-name="bracketleft" unicode="[" horiz-adv-x="771" 
d="M118 -90v1810h599v-309h-261v-1192h261v-309h-599z" />
    <glyph glyph-name="backslash" unicode="\" horiz-adv-x="1325" 
d="M913 -90l-852 1810h351l852 -1810h-351z" />
    <glyph glyph-name="bracketright" unicode="]" horiz-adv-x="771" 
d="M653 1720v-1810h-599v309h261v1192h-261v309h599z" />
    <glyph glyph-name="asciicircum" unicode="^" 
d="M263 1264v20l271 354h251l272 -354v-20h-285l-110 176h-5l-115 -176h-279z" />
    <glyph glyph-name="underscore" unicode="_" horiz-adv-x="1237" 
d="M123 -248v248h991v-248h-991z" />
    <glyph glyph-name="grave" unicode="`" 
d="M824 1264h-241l-336 348v26h379l198 -348v-26z" />
    <glyph glyph-name="a" unicode="a" horiz-adv-x="1238" 
d="M503 -26q-104 0 -191 32.5t-144 88.5q-43 44 -69.5 101t-26.5 116v21q0 52 23 104t64 93q91 93 262 114l397 48v151q0 28 -16.5 44.5t-44.5 16.5h-287q-28 0 -44.5 -16.5t-16.5 -44.5v-55h-303v21q23 128 108 213q130 130 401 130t399 -128q116 -116 116 -340v-684h-302
v91l-98 -75q-107 -42 -227 -42zM399 282q0 -28 17 -45t45 -17h296q28 0 44.5 17t16.5 45v196l-362 -44q-26 -3 -41.5 -19t-15.5 -39v-94z" />
    <glyph glyph-name="b" unicode="b" horiz-adv-x="1371" 
d="M758 -26q-118 0 -231 53l-92 64l1 -91h-308v1638h317v-512l-10 -91l92 65q115 52 231 52q101 0 195 -36t166 -108q82 -82 123.5 -196.5t41.5 -238.5v-20q0 -124 -41.5 -238.5t-123.5 -195.5q-144 -145 -361 -145zM438 364q0 -56 34 -89.5t89 -33.5h269q56 0 89.5 33.5
t33.5 89.5v399q0 55 -33.5 89t-89.5 34h-269q-55 0 -89 -34t-34 -89v-399z" />
    <glyph glyph-name="c" unicode="c" horiz-adv-x="1291" 
d="M664 -26q-121 0 -230 41.5t-186 118.5q-79 79 -120 190t-41 229v20q0 118 41 229.5t120 189.5q76 77 185.5 118.5t230.5 41.5q123 0 229 -42t183 -120q60 -60 98 -139.5t46 -159.5v-20h-318v92q0 55 -34 89t-89 34h-238q-56 0 -89.5 -33.5t-33.5 -89.5v-399
q0 -56 33.5 -89.5t89.5 -33.5h238q55 0 89 33.5t34 89.5v92h318v-21q-8 -79 -46 -159t-98 -140q-77 -78 -183.5 -120t-228.5 -42z" />
    <glyph glyph-name="d" unicode="d" horiz-adv-x="1371" 
d="M613 -26q-217 0 -361 145q-82 81 -123.5 195.5t-41.5 238.5v20q0 124 41.5 238.5t123.5 196.5q72 72 166 108t195 36q116 0 231 -52l92 -65l-10 91v512h317v-1638h-308l1 91l-92 -64q-113 -53 -231 -53zM418 364q0 -56 34 -89.5t89 -33.5h269q56 0 89.5 33.5t33.5 89.5
v399q0 55 -33.5 89t-89.5 34h-269q-55 0 -89 -34t-34 -89v-399z" />
    <glyph glyph-name="e" unicode="e" horiz-adv-x="1308" 
d="M660 -26q-127 0 -233 41t-179 115q-77 75 -119 187t-42 236v20q0 124 41.5 235.5t118.5 186.5q72 74 178 115.5t234 41.5q246 0 400 -156q162 -162 162 -431q0 -50 -6 -86h-807v-134q0 -55 33.5 -89t88.5 -34h256q49 0 78.5 29.5t29.5 78.5v31h312v-12
q-44 -126 -133 -215q-160 -160 -413 -160zM408 692h500v89q0 55 -34 89t-89 34h-255q-55 0 -88.5 -34t-33.5 -89v-89z" />
    <glyph glyph-name="f" unicode="f" horiz-adv-x="933" 
d="M257 0v879h-226v247h226v157q0 83 25.5 157.5t75.5 124.5q96 94 308 94h187v-248h-218q-27 0 -44 -17t-17 -43v-225h328v-247h-328v-879h-317z" />
    <glyph glyph-name="g" unicode="g" horiz-adv-x="1361" 
d="M682 -435q-270 0 -416 146q-102 103 -124 228v20h318v-36q0 -41 25.5 -66.5t66.5 -25.5h270q47 0 75.5 28t28.5 75v199l8 60l-90 -66q-111 -52 -231 -52q-224 0 -371 148q-155 154 -155 380v21q0 106 39 205t116 176q147 147 371 147q116 0 231 -52l92 -65l-5 91h312
v-1007q0 -265 -145 -410q-144 -144 -416 -144zM418 464q0 -57 33 -90t90 -33h269q57 0 90 33t33 90v299q0 57 -33 90t-90 33h-269q-57 0 -90 -33t-33 -90v-299z" />
    <glyph glyph-name="h" unicode="h" horiz-adv-x="1305" 
d="M128 0v1638h307v-601l114 71q86 44 194 44q91 0 176 -33.5t147 -95.5q131 -131 131 -360v-663h-317v773q0 51 -31 82t-82 31h-209q-51 0 -82 -31t-31 -82v-773h-317z" />
    <glyph glyph-name="i" unicode="i" horiz-adv-x="553" 
d="M118 0v1126h317v-1126h-317zM101 1402v141q0 44 26 69.5t70 25.5h158q44 0 70 -25.5t26 -69.5v-141q0 -44 -26 -69.5t-70 -25.5h-158q-44 0 -70 25.5t-26 69.5z" />
    <glyph glyph-name="j" unicode="j" horiz-adv-x="553" 
d="M-23 -410v267h43q44 0 71 26.5t27 70.5v1172h317v-1088q0 -213 -123 -336q-110 -112 -294 -112h-41zM101 1402v141q0 44 26 69.5t70 25.5h158q44 0 70 -25.5t26 -69.5v-141q0 -44 -26 -69.5t-70 -25.5h-158q-44 0 -70 25.5t-26 69.5z" />
    <glyph glyph-name="k" unicode="k" horiz-adv-x="1292" 
d="M128 0v1638h317v-946h5l435 434h341v-20l-504 -489l504 -597v-20h-364l-412 502h-5v-502h-317z" />
    <glyph glyph-name="l" unicode="l" horiz-adv-x="573" 
d="M128 0v1638h317v-1638h-317z" />
    <glyph glyph-name="m" unicode="m" horiz-adv-x="1974" 
d="M118 0v1126h307v-75l78 57q86 44 193 44q91 0 176.5 -33.5t147.5 -95.5l23 -28l76 58q133 99 294 99q91 0 176 -33.5t147 -95.5q131 -131 131 -360v-663h-318v773q0 51 -31 82t-81 31h-173q-50 0 -81.5 -31t-31.5 -82v-773h-317v773q0 51 -31.5 82t-81.5 31h-173
q-50 0 -81.5 -31t-31.5 -82v-773h-317z" />
    <glyph glyph-name="n" unicode="n" horiz-adv-x="1274" 
d="M118 0v1126h307v-86l93 68q86 44 195 44q90 0 175 -33.5t147 -95.5q131 -131 131 -360v-663h-317v773q0 51 -31.5 82t-81.5 31h-188q-50 0 -81.5 -31t-31.5 -82v-773h-317z" />
    <glyph glyph-name="o" unicode="o" 
d="M659 -26q-120 0 -227.5 42t-182.5 117q-79 79 -120.5 191t-41.5 229v20q0 117 41.5 229t120.5 191q75 76 182 117.5t228 41.5q122 0 229.5 -41.5t182.5 -117.5q79 -79 120.5 -191t41.5 -229v-20q0 -117 -41.5 -229t-120.5 -191q-75 -76 -182.5 -117.5t-229.5 -41.5z
M418 364q0 -56 33.5 -89.5t89.5 -33.5h238q56 0 89.5 33.5t33.5 89.5v399q0 56 -33.5 89.5t-89.5 33.5h-238q-56 0 -89.5 -33.5t-33.5 -89.5v-399z" />
    <glyph glyph-name="p" unicode="p" horiz-adv-x="1361" 
d="M118 -410v1536h312l-5 -91l92 65q115 52 228 52q103 0 197.5 -37t166.5 -109q82 -82 123.5 -195.5t41.5 -237.5v-20q0 -124 -41.5 -237.5t-123.5 -194.5q-72 -72 -166.5 -109.5t-197.5 -37.5q-115 0 -228 53l-92 64l10 -91v-410h-317zM433 364q0 -56 33.5 -89.5
t89.5 -33.5h264q56 0 89.5 33.5t33.5 89.5v399q0 56 -33.5 89.5t-89.5 33.5h-264q-56 0 -89.5 -33.5t-33.5 -89.5v-399z" />
    <glyph glyph-name="q" unicode="q" horiz-adv-x="1361" 
d="M926 -410v410l10 91l-92 -64q-113 -53 -229 -53q-102 0 -196.5 37.5t-166.5 109.5q-82 81 -123.5 194.5t-41.5 237.5v20q0 124 41.5 237.5t123.5 195.5q72 72 166.5 109t196.5 37q114 0 229 -52l92 -65l-5 91h312v-1536h-317zM418 364q0 -56 33.5 -89.5t89.5 -33.5h264
q56 0 89.5 33.5t33.5 89.5v399q0 56 -33.5 89.5t-89.5 33.5h-264q-56 0 -89.5 -33.5t-33.5 -89.5v-399z" />
    <glyph glyph-name="r" unicode="r" horiz-adv-x="923" 
d="M118 0v1126h307v-118l119 90q99 44 216 44h106v-248h-328q-46 0 -74.5 -28t-28.5 -74v-792h-317z" />
    <glyph glyph-name="s" unicode="s" horiz-adv-x="1167" 
d="M588 -26q-137 0 -241.5 36t-164.5 96q-43 43 -69.5 103t-30.5 120v12h285v-29q0 -37 22.5 -59.5t59.5 -22.5h279q27 0 43 16.5t16 43.5v28q0 44 -49 60l-389 129q-118 39 -185 112t-67 167v25q0 120 93 213q128 128 384 128q126 0 228 -35.5t164 -97.5q45 -45 73 -105.5
t36 -113.5v-13h-284v27q0 37 -22.5 59.5t-59.5 22.5h-258q-26 0 -42.5 -16t-16.5 -42v-30q0 -42 48 -60l413 -140q110 -37 169.5 -105.5t59.5 -153.5v-28q0 -56 -27.5 -115.5t-70.5 -103.5q-60 -59 -161.5 -93.5t-234.5 -34.5z" />
    <glyph glyph-name="t" unicode="t" horiz-adv-x="984" 
d="M691 0q-129 0 -205.5 21t-124.5 69q-50 51 -72 127t-22 201v461h-236v247h236v367h318v-367h338v-247h-338v-549q0 -37 22.5 -59.5t59.5 -22.5h191v-248h-167z" />
    <glyph glyph-name="u" unicode="u" horiz-adv-x="1274" 
d="M1156 1126v-1126h-307v86l-93 -68q-90 -44 -195 -44q-90 0 -175 33.5t-147 95.5q-131 131 -131 361v662h317v-773q0 -50 31.5 -81t81.5 -31h188q50 0 81.5 31t31.5 81v773h317z" />
    <glyph glyph-name="v" unicode="v" horiz-adv-x="1200" 
d="M413 0l-367 1106v20h320l255 -823h4l264 823h265v-20l-368 -1106h-373z" />
    <glyph glyph-name="w" unicode="w" horiz-adv-x="1986" 
d="M413 0l-367 1106v20h320l245 -798h4l254 798h299l247 -798h4l255 798h265v-20l-367 -1106h-354l-238 700h-4l-242 -700h-321z" />
    <glyph glyph-name="x" unicode="x" horiz-adv-x="1234" 
d="M51 0v20l348 543l-348 543v20h349l243 -399h3l242 399h295v-20l-348 -543l348 -543v-20h-349l-243 399h-3l-243 -399h-294z" />
    <glyph glyph-name="y" unicode="y" horiz-adv-x="1200" 
d="M113 -420v248h300q48 0 60 40l44 132h-104l-367 1106v20h320l255 -824h4l264 824h265v-20l-409 -1232q-46 -141 -113 -208q-87 -86 -248 -86h-271z" />
    <glyph glyph-name="z" unicode="z" horiz-adv-x="1184" 
d="M104 0v261l619 601l-115 -4h-506v268h979v-250l-629 -612l114 4h515v-268h-977z" />
    <glyph glyph-name="braceleft" unicode="{" horiz-adv-x="771" 
d="M349 -90q-108 90 -136.5 226t29.5 272l81 186q11 28 -1 46.5t-40 18.5h-195v312h195q28 0 40 18.5t1 46.5l-81 187q-58 135 -29 271.5t136 225.5h366v-24l-166 -179q-60 -63 -30 -144l108 -266q34 -84 14 -170t-83 -120v-4q63 -34 83 -120t-14 -170l-108 -266
q-30 -80 30 -143l166 -180v-24h-366z" />
    <glyph glyph-name="bar" unicode="|" horiz-adv-x="573" 
d="M128 -410v2048h317v-2048h-317z" />
    <glyph glyph-name="braceright" unicode="}" horiz-adv-x="771" 
d="M422 1720q107 -89 136 -225.5t-29 -271.5l-80 -187q-12 -28 0 -46.5t40 -18.5h195v-312h-195q-28 0 -40 -18.5t0 -46.5l80 -186q58 -136 29.5 -272t-136.5 -226h-366v24l166 180q60 63 30 143l-108 266q-34 84 -14 170t83 120v4q-63 34 -83 120t14 170l108 266
q30 81 -30 144l-166 179v24h366z" />
    <glyph glyph-name="asciitilde" unicode="~" 
d="M906 1316q-46 0 -128 15l-181 37q-45 10 -74 10q-17 0 -27 -10t-10 -27v-13h-212v131q0 62 37.5 98.5t102.5 36.5q46 0 128 -15l181 -37q45 -10 74 -10q17 0 27 10t10 27v13h212v-131q0 -62 -37.5 -98.5t-102.5 -36.5z" />
    <glyph glyph-name="uni00A0" unicode="&#xa0;" horiz-adv-x="471" 
 />
    <glyph glyph-name="exclamdown" unicode="&#xa1;" horiz-adv-x="586" 
d="M435 621l17 -324v-809h-318v809l17 324h284zM118 795v331h350v-331h-350z" />
    <glyph glyph-name="cent" unicode="&#xa2;" horiz-adv-x="1291" 
d="M500 0v249q-155 37 -259 141q-79 79 -120 190t-41 229v20q0 118 41 229.5t120 189.5q104 104 259 141v249h317v-250q152 -39 252 -142q61 -61 98.5 -140t44.5 -159v-20h-317v92q0 55 -33.5 89t-89.5 34h-238q-56 0 -89.5 -33.5t-33.5 -89.5v-399q0 -56 33.5 -89.5
t89.5 -33.5h238q56 0 89.5 33.5t33.5 89.5v92h317v-21q-7 -79 -45 -159t-98 -140q-102 -104 -252 -142v-250h-317z" />
    <glyph glyph-name="sterling" unicode="&#xa3;" horiz-adv-x="1427" 
d="M110 0v310h146q38 0 59.5 21.5t21.5 59.5v148h-172v204h172v11q0 31 -20 50l-140 140q-95 97 -95 230v20q0 177 130 307q83 83 201 123t287 40q324 0 489 -165q142 -142 157 -348v-21h-318v25q0 77 -65.5 138t-153.5 61h-236q-79 0 -125.5 -43.5t-46.5 -109.5v-35
q0 -48 36 -85l130 -130q42 -41 61.5 -89t19.5 -119h206v-204h-206v-68q0 -102 -57 -161h417v182h317v-492h-1215z" />
    <glyph glyph-name="currency" unicode="&#xa4;" horiz-adv-x="1485" 
d="M227 141l-166 164l246 246q-71 110 -71 242v20q0 134 75 248l-243 244l165 163l249 -248q119 68 259 68q141 0 261 -68l249 248l166 -163l-246 -246q76 -112 76 -246v-20q0 -131 -70 -241l246 -247l-166 -164l-247 248q-125 -74 -269 -74q-140 0 -267 73zM509 757
q0 -78 54 -130.5t135 -52.5h86q81 0 135.5 52.5t54.5 130.5v91q0 76 -54.5 128.5t-135.5 52.5h-86q-81 0 -135 -52.5t-54 -128.5v-91z" />
    <glyph glyph-name="yen" unicode="&#xa5;" horiz-adv-x="1599" 
d="M361 221v148h271v86h-271v147h271v1l-571 1015v20h365l395 -717h4l393 717h320v-20l-569 -1012v-4h273v-147h-273v-86h273v-148h-272v-221h-337v221h-272z" />
    <glyph glyph-name="brokenbar" unicode="&#xa6;" horiz-adv-x="573" 
d="M128 860v778h317v-778h-317zM128 -410v779h317v-779h-317z" />
    <glyph glyph-name="section" unicode="&#xa7;" horiz-adv-x="1460" 
d="M724 -435q-278 0 -402 126q-94 93 -98 240v21h303v-30q0 -42 27 -68.5t70 -26.5h230q66 0 66 65v49q0 39 -42 63l-550 307q-246 138 -246 369v20q0 147 105 252q76 76 211 111q-158 117 -158 259v20q0 116 89 204q118 118 388 118q271 0 392 -121q49 -48 77.5 -113
t31.5 -120v-21h-302v56q0 26 -15.5 41.5t-41.5 15.5h-267q-21 0 -34 -13t-13 -34v-31q0 -28 30 -49l555 -347q135 -85 191.5 -171t56.5 -193v-21q0 -67 -27.5 -136.5t-74.5 -116.5q-77 -77 -199 -96q73 -49 110.5 -108.5t37.5 -146.5v-12q0 -66 -26.5 -130t-73.5 -110
q-120 -122 -401 -122zM387 665q0 -42 16.5 -67t58.5 -48l283 -156h220q50 0 79 29.5t29 79.5v63q0 41 -19.5 67t-63.5 53l-287 193h-155q-74 0 -117.5 -41t-43.5 -112v-61z" />
    <glyph glyph-name="dieresis" unicode="&#xa8;" 
d="M790 1307q-40 0 -62 22t-22 62v163q0 40 22 62t62 22h108q39 0 61.5 -22t22.5 -62v-163q0 -40 -22.5 -62t-61.5 -22h-108zM337 1391v163q0 40 22.5 62t61.5 22h108q40 0 62 -22t22 -62v-163q0 -40 -22 -62t-62 -22h-108q-39 0 -61.5 22t-22.5 62z" />
    <glyph glyph-name="copyright" unicode="&#xa9;" horiz-adv-x="1331" 
d="M666 443q-279 0 -435 154q-86 87 -128 189.5t-42 256.5v21q0 154 42 257t128 189q154 154 435 154q280 0 434 -154q86 -86 128 -189t42 -257v-21q0 -154 -42 -256.5t-128 -189.5q-156 -154 -434 -154zM160 982q0 -193 135 -319.5t334 -126.5h73q199 0 334 126.5
t135 319.5v143q0 193 -135 320t-334 127h-73q-198 0 -333.5 -127t-135.5 -320v-143zM327 1043v21q0 70 24 134t69 109q94 92 247 92q70 0 137 -24.5t110 -67.5q73 -71 84 -190h-192v13q0 44 -31 73t-79 29h-62q-50 0 -82.5 -32t-32.5 -82v-129q0 -50 32.5 -82.5t82.5 -32.5
h62q48 0 79 29.5t31 73.5v12h192q-11 -117 -84 -190q-42 -43 -109 -66.5t-138 -23.5q-156 0 -247 91q-93 92 -93 243z" />
    <glyph glyph-name="ordfeminine" unicode="&#xaa;" 
d="M123 169v192h1084v-192h-1084zM108 824v21q0 52 23 104t64 93q91 93 262 114l397 48v151q0 28 -17 44.5t-44 16.5h-287q-28 0 -45 -16.5t-17 -44.5v-55h-302v21q23 130 108 213q130 130 401 130t399 -128q116 -116 116 -340v-684h-302v91l-98 -75q-107 -42 -227 -42
q-104 0 -191 32.5t-144 88.5q-43 44 -69.5 101t-26.5 116zM435 794q0 -28 17 -45t45 -17h296q27 0 44 17t17 45v196l-362 -44q-26 -3 -41.5 -19t-15.5 -39v-94z" />
    <glyph glyph-name="guillemotleft" unicode="&#xab;" horiz-adv-x="1143" 
d="M825 98l-321 473v21l321 473h256v-21l-314 -462l314 -463v-21h-256zM61 571v21l322 473h256v-21l-315 -462l315 -463v-21h-256z" />
    <glyph glyph-name="uni00AD" unicode="&#xad;" horiz-adv-x="952" 
d="M123 650v248h706v-248h-706z" />
    <glyph glyph-name="registered" unicode="&#xae;" horiz-adv-x="1331" 
d="M666 443q-279 0 -435 154q-86 87 -128 189.5t-42 256.5v21q0 154 42 257t128 189q154 154 435 154q280 0 434 -154q86 -86 128 -189t42 -257v-21q0 -154 -42 -256.5t-128 -189.5q-156 -154 -434 -154zM160 982q0 -193 135 -319.5t334 -126.5h73q199 0 334 126.5
t135 319.5v143q0 193 -135 320t-334 127h-73q-198 0 -333.5 -127t-135.5 -320v-143zM384 707v666h270q179 0 257 -80q70 -70 70 -179v-20q0 -53 -19.5 -101t-50.5 -79q-23 -23 -51 -37l107 -170h-217l-75 128h-7h-95v-128h-189zM573 998h167q20 0 32 12t12 32v113
q0 20 -12 32t-32 12h-167v-201z" />
    <glyph glyph-name="macron" unicode="&#xaf;" 
d="M340 1339v213h639v-213h-639z" />
    <glyph glyph-name="degree" unicode="&#xb0;" horiz-adv-x="1042" 
d="M521 795q-180 0 -307 127q-127 125 -127 307q0 180 127 307t307 127q182 0 307 -127q127 -127 127 -307q0 -182 -127 -307q-125 -127 -307 -127zM374 1184q0 -43 30 -73t72 -30h90q43 0 73 30t30 73v90q0 42 -30 72t-73 30h-90q-42 0 -72 -30t-30 -72v-90z" />
    <glyph glyph-name="acute" unicode="&#xb4;" 
d="M552 1264v26l199 348h378v-26l-335 -348h-242z" />
    <glyph glyph-name="paragraph" unicode="&#xb6;" horiz-adv-x="1388" 
d="M584 634q-134 0 -247 66t-179 179t-66 247v21q0 133 66 246.5t179 179t247 65.5h311v-2048h-237v1044h-74zM1024 -410v2048h236v-2048h-236z" />
    <glyph glyph-name="periodcentered" unicode="&#xb7;" horiz-adv-x="586" 
d="M118 490v332h350v-332h-350z" />
    <glyph glyph-name="cedilla" unicode="&#xb8;" horiz-adv-x="1291" 
d="M392 -410v171h275q12 0 19.5 8t7.5 20v27q0 12 -7.5 19.5t-19.5 7.5h-167v177h317v-67h24q83 0 132 -48.5t49 -131.5q0 -84 -49 -133.5t-132 -49.5h-449z" />
    <glyph glyph-name="ordmasculine" unicode="&#xba;" 
d="M123 169v192h1084v-192h-1084zM92 1065v20q0 117 41.5 229t120.5 191q75 76 182.5 117.5t228.5 41.5q122 0 229 -41.5t182 -117.5q79 -79 120.5 -191t41.5 -229v-20q0 -117 -41.5 -229t-120.5 -191q-75 -76 -182.5 -117.5t-228.5 -41.5t-228.5 42t-182.5 117
q-79 79 -120.5 191t-41.5 229zM423 876q0 -56 33.5 -89.5t89.5 -33.5h238q56 0 89.5 33.5t33.5 89.5v399q0 56 -33.5 89.5t-89.5 33.5h-238q-56 0 -89.5 -33.5t-33.5 -89.5v-399z" />
    <glyph glyph-name="guillemotright" unicode="&#xbb;" horiz-adv-x="1143" 
d="M317 1065l322 -473v-21l-322 -473h-256v21l315 463l-315 462v21h256zM504 98v21l314 463l-314 462v21h256l321 -473v-21l-321 -473h-256z" />
    <glyph glyph-name="questiondown" unicode="&#xbf;" horiz-adv-x="1356" 
d="M843 518q0 -129 -62 -222t-187 -132l-137 -43q-31 -10 -49 -36t-18 -61v-152q0 -61 36 -97t97 -36h295q61 0 97 36t36 97v39h323v-21q-6 -70 -40 -143.5t-93 -132.5q-70 -70 -190 -111t-280 -41q-156 0 -278 41t-194 113q-65 65 -98.5 148t-33.5 165v52q0 130 82.5 240
t211.5 151l118 37q47 14 47 66v187h317v-144zM507 795v331h350v-331h-350z" />
    <glyph glyph-name="Agrave" unicode="&#xc0;" horiz-adv-x="1657" 
d="M61 0v20l539 1618h458l537 -1618v-20h-344l-111 333h-669l-113 -333h-297zM466 1834v242h20l703 -119v-223h-21zM564 622h483l-154 465l-85 263h-4l-86 -263z" />
    <glyph glyph-name="Aacute" unicode="&#xc1;" horiz-adv-x="1657" 
d="M61 0v20l539 1618h458l537 -1618v-20h-344l-111 333h-669l-113 -333h-297zM466 1734v223l702 119h21v-242l-703 -100h-20zM564 622h483l-154 465l-85 263h-4l-86 -263z" />
    <glyph glyph-name="Acircumflex" unicode="&#xc2;" horiz-adv-x="1657" 
d="M61 0v20l539 1618h458l537 -1618v-20h-344l-111 333h-669l-113 -333h-297zM443 1739v221l379 97h13l378 -97v-221h-14l-371 95l-370 -95h-15zM564 622h483l-154 465l-85 263h-4l-86 -263z" />
    <glyph glyph-name="Atilde" unicode="&#xc3;" horiz-adv-x="1657" 
d="M61 0v20l539 1618h458l537 -1618v-20h-344l-111 333h-669l-113 -333h-297zM430 1764v131q0 63 37 99.5t102 36.5q41 0 128 -16l182 -37q43 -10 73 -10q37 0 37 37v13h212v-131q0 -63 -37 -99t-102 -36q-46 0 -128 15l-181 37q-50 11 -74 11q-17 0 -27 -10t-10 -27v-14
h-212zM564 622h483l-154 465l-85 263h-4l-86 -263z" />
    <glyph glyph-name="Adieresis" unicode="&#xc4;" horiz-adv-x="1657" 
d="M61 0v20l539 1618h458l537 -1618v-20h-344l-111 333h-669l-113 -333h-297zM507 1833v164q0 39 22.5 61.5t61.5 22.5h108q40 0 62 -22.5t22 -61.5v-164q0 -39 -22 -61.5t-62 -22.5h-108q-39 0 -61.5 22.5t-22.5 61.5zM564 622h483l-154 465l-85 263h-4l-86 -263zM876 1833
v164q0 39 22 61.5t61 22.5h109q39 0 61.5 -22.5t22.5 -61.5v-164q0 -39 -22.5 -61.5t-61.5 -22.5h-109q-39 0 -61 22.5t-22 61.5z" />
    <glyph glyph-name="Aring" unicode="&#xc5;" horiz-adv-x="1657" 
d="M61 0v20l539 1618h458l537 -1618v-20h-344l-111 333h-669l-113 -333h-297zM486 1949q0 102 48 150q30 30 96 45t198 15t198.5 -15t96.5 -45q47 -47 47 -150q0 -104 -47 -151q-30 -30 -96 -44.5t-199 -14.5q-132 0 -198.5 14.5t-95.5 44.5q-48 48 -48 151zM564 622h483
l-154 465l-85 263h-4l-86 -263zM727 1938q0 -23 13.5 -36.5t36.5 -13.5h106q22 0 35.5 13.5t13.5 36.5v27q0 23 -13 36.5t-36 13.5h-106q-23 0 -36.5 -13.5t-13.5 -36.5v-27z" />
    <glyph glyph-name="AE" unicode="&#xc6;" horiz-adv-x="2274" 
d="M61 0v20l823 1618h1303v-288h-751v-382h702v-279h-702v-400h751v-289h-1088v318h-512l-164 -318h-362zM745 636h354v693h-5l-115 -242z" />
    <glyph glyph-name="Ccedilla" unicode="&#xc7;" horiz-adv-x="1670" 
d="M597 -410v171h274q13 0 20.5 8t7.5 20v27q0 12 -7.5 19.5t-20.5 7.5h-166v145q-222 42 -374 194q-229 229 -229 627v20q0 400 229 627q208 208 536 208q164 0 297.5 -53.5t227.5 -147.5q78 -78 128.5 -183t62.5 -218v-21h-333v71q0 122 -72 191.5t-198 69.5h-238
q-130 0 -205.5 -75.5t-75.5 -205.5v-545q0 -131 75.5 -206.5t205.5 -75.5h238q126 0 198 69.5t72 191.5v71h333v-20q-12 -114 -61 -217.5t-128 -182.5q-150 -150 -372 -190v-34h24q83 0 132 -48.5t49 -131.5q0 -84 -49 -133.5t-132 -49.5h-449z" />
    <glyph glyph-name="Egrave" unicode="&#xc8;" horiz-adv-x="1304" 
d="M128 0v1638h1089v-288h-752v-382h702v-279h-702v-400h752v-289h-1089zM310 1834v242h21l702 -119v-223h-20z" />
    <glyph glyph-name="Eacute" unicode="&#xc9;" horiz-adv-x="1304" 
d="M128 0v1638h1089v-288h-752v-382h702v-279h-702v-400h752v-289h-1089zM310 1734v223l703 119h20v-242l-702 -100h-21z" />
    <glyph glyph-name="Ecircumflex" unicode="&#xca;" horiz-adv-x="1304" 
d="M128 0v1638h1089v-288h-752v-382h702v-279h-702v-400h752v-289h-1089zM288 1739v221l379 97h12l379 -97v-221h-15l-370 95l-371 -95h-14z" />
    <glyph glyph-name="Edieresis" unicode="&#xcb;" horiz-adv-x="1304" 
d="M128 0v1638h1089v-288h-752v-382h702v-279h-702v-400h752v-289h-1089zM351 1833v164q0 39 22.5 61.5t61.5 22.5h109q39 0 61.5 -22.5t22.5 -61.5v-164q0 -39 -22.5 -61.5t-61.5 -22.5h-109q-39 0 -61.5 22.5t-22.5 61.5zM720 1833v164q0 39 22.5 61.5t61.5 22.5h108
q40 0 62 -22.5t22 -61.5v-164q0 -39 -22 -61.5t-62 -22.5h-108q-39 0 -61.5 22.5t-22.5 61.5z" />
    <glyph glyph-name="Igrave" unicode="&#xcc;" horiz-adv-x="593" 
d="M128 0v1638h337v-1638h-337zM-65 1834v242h21l702 -119v-223h-20z" />
    <glyph glyph-name="Iacute" unicode="&#xcd;" horiz-adv-x="593" 
d="M128 0v1638h337v-1638h-337zM-65 1734v223l703 119h20v-242l-702 -100h-21z" />
    <glyph glyph-name="Icircumflex" unicode="&#xce;" horiz-adv-x="593" 
d="M128 0v1638h337v-1638h-337zM-87 1739v221l379 97h12l379 -97v-221h-14l-371 95l-371 -95h-14z" />
    <glyph glyph-name="Idieresis" unicode="&#xcf;" horiz-adv-x="593" 
d="M128 0v1638h337v-1638h-337zM-24 1833v164q0 39 22.5 61.5t61.5 22.5h109q39 0 61.5 -22.5t22.5 -61.5v-164q0 -39 -22.5 -61.5t-61.5 -22.5h-109q-39 0 -61.5 22.5t-22.5 61.5zM345 1833v164q0 39 22.5 61.5t61.5 22.5h109q39 0 61.5 -22.5t22.5 -61.5v-164
q0 -39 -22.5 -61.5t-61.5 -22.5h-109q-39 0 -61.5 22.5t-22.5 61.5z" />
    <glyph glyph-name="Eth" unicode="&#xd0;" horiz-adv-x="1682" 
d="M128 0v705h-128v256h128v677h668q365 0 564 -197q108 -108 164 -268t56 -344v-20q0 -184 -55.5 -343.5t-162.5 -265.5q-202 -200 -566 -200h-668zM465 289h475q130 0 206 75.5t76 205.5v498q0 130 -76 206t-206 76h-475v-389h396v-256h-396v-416z" />
    <glyph glyph-name="Ntilde" unicode="&#xd1;" horiz-adv-x="1565" 
d="M128 0v1638h289l724 -1096h4l-18 760v336h310v-1638h-289l-724 1097h-4l17 -760v-337h-309zM403 1764v131q0 63 37.5 99.5t102.5 36.5q41 0 128 -16l181 -37q45 -10 74 -10q17 0 27 10t10 27v13h212v-131q0 -62 -37.5 -98.5t-102.5 -36.5q-46 0 -128 15l-181 37
q-50 11 -74 11q-16 0 -26.5 -10.5t-10.5 -26.5v-14h-212z" />
    <glyph glyph-name="Ograve" unicode="&#xd2;" horiz-adv-x="1755" 
d="M878 -26q-336 0 -545 209q-111 111 -171 270t-60 356v20q0 197 60 356t171 270q209 209 545 209q335 0 544 -209q111 -111 171 -270t60 -356v-20q0 -197 -60 -356t-171 -270q-209 -209 -544 -209zM461 547q0 -129 76 -205.5t205 -76.5h271q129 0 205 76.5t76 205.5v545
q0 129 -76 205t-205 76h-271q-129 0 -205 -76t-76 -205v-545zM515 1834v242h21l702 -119v-223h-20z" />
    <glyph glyph-name="Oacute" unicode="&#xd3;" horiz-adv-x="1755" 
d="M878 -26q-336 0 -545 209q-111 111 -171 270t-60 356v20q0 197 60 356t171 270q209 209 545 209q335 0 544 -209q111 -111 171 -270t60 -356v-20q0 -197 -60 -356t-171 -270q-209 -209 -544 -209zM461 547q0 -129 76 -205.5t205 -76.5h271q129 0 205 76.5t76 205.5v545
q0 129 -76 205t-205 76h-271q-129 0 -205 -76t-76 -205v-545zM515 1734v223l703 119h20v-242l-702 -100h-21z" />
    <glyph glyph-name="Ocircumflex" unicode="&#xd4;" horiz-adv-x="1755" 
d="M878 -26q-336 0 -545 209q-111 111 -171 270t-60 356v20q0 197 60 356t171 270q209 209 545 209q335 0 544 -209q111 -111 171 -270t60 -356v-20q0 -197 -60 -356t-171 -270q-209 -209 -544 -209zM461 547q0 -129 76 -205.5t205 -76.5h271q129 0 205 76.5t76 205.5v545
q0 129 -76 205t-205 76h-271q-129 0 -205 -76t-76 -205v-545zM493 1739v221l378 97h13l379 -97v-221h-15l-370 95l-371 -95h-14z" />
    <glyph glyph-name="Otilde" unicode="&#xd5;" horiz-adv-x="1755" 
d="M878 -26q-336 0 -545 209q-111 111 -171 270t-60 356v20q0 197 60 356t171 270q209 209 545 209q335 0 544 -209q111 -111 171 -270t60 -356v-20q0 -197 -60 -356t-171 -270q-209 -209 -544 -209zM461 547q0 -129 76 -205.5t205 -76.5h271q129 0 205 76.5t76 205.5v545
q0 129 -76 205t-205 76h-271q-129 0 -205 -76t-76 -205v-545zM479 1764v131q0 63 37 99.5t102 36.5q41 0 128 -16l182 -37q43 -10 73 -10q37 0 37 37v13h212v-131q0 -63 -37 -99t-102 -36q-46 0 -128 15l-181 37q-50 11 -74 11q-16 0 -26.5 -10.5t-10.5 -26.5v-14h-212z" />
    <glyph glyph-name="Odieresis" unicode="&#xd6;" horiz-adv-x="1755" 
d="M878 -26q-336 0 -545 209q-111 111 -171 270t-60 356v20q0 197 60 356t171 270q209 209 545 209q335 0 544 -209q111 -111 171 -270t60 -356v-20q0 -197 -60 -356t-171 -270q-209 -209 -544 -209zM461 547q0 -129 76 -205.5t205 -76.5h271q129 0 205 76.5t76 205.5v545
q0 129 -76 205t-205 76h-271q-129 0 -205 -76t-76 -205v-545zM555 1833v164q0 39 22.5 61.5t61.5 22.5h109q39 0 61 -22.5t22 -61.5v-164q0 -39 -22 -61.5t-61 -22.5h-109q-39 0 -61.5 22.5t-22.5 61.5zM924 1833v164q0 39 22 61.5t62 22.5h108q39 0 61.5 -22.5t22.5 -61.5
v-164q0 -39 -22.5 -61.5t-61.5 -22.5h-108q-40 0 -62 22.5t-22 61.5z" />
    <glyph glyph-name="multiply" unicode="&#xd7;" horiz-adv-x="1204" 
d="M259 88l-186 186l343 343l-343 344l186 186l343 -343l343 343l187 -186l-344 -344l344 -343l-187 -186l-343 343z" />
    <glyph glyph-name="Oslash" unicode="&#xd8;" horiz-adv-x="1755" 
d="M878 -26q-336 0 -545 209q-111 111 -171 270t-60 356v20q0 197 60 356t171 270q209 209 545 209q335 0 544 -209q111 -111 171 -270t60 -356v-20q0 -197 -60 -356t-171 -270q-209 -209 -544 -209zM461 675l808 547q-32 72 -98 111.5t-158 39.5h-271q-129 0 -205 -76
t-76 -205v-417zM486 418q31 -73 97.5 -113t158.5 -40h271q129 0 205 76.5t76 205.5v419z" />
    <glyph glyph-name="Ugrave" unicode="&#xd9;" horiz-adv-x="1519" 
d="M769 -26q-311 0 -479 167q-82 80 -127 201t-45 259v1037h337v-1211q0 -75 44 -119.5t119 -44.5h308q75 0 119.5 44.5t44.5 119.5v1211h311v-1037q0 -143 -42 -267t-117 -199q-162 -161 -473 -161zM410 1834v242h20l703 -119v-223h-21z" />
    <glyph glyph-name="Uacute" unicode="&#xda;" horiz-adv-x="1519" 
d="M769 -26q-311 0 -479 167q-82 80 -127 201t-45 259v1037h337v-1211q0 -75 44 -119.5t119 -44.5h308q75 0 119.5 44.5t44.5 119.5v1211h311v-1037q0 -143 -42 -267t-117 -199q-162 -161 -473 -161zM410 1734v223l702 119h21v-242l-703 -100h-20z" />
    <glyph glyph-name="Ucircumflex" unicode="&#xdb;" horiz-adv-x="1519" 
d="M769 -26q-311 0 -479 167q-82 80 -127 201t-45 259v1037h337v-1211q0 -75 44 -119.5t119 -44.5h308q75 0 119.5 44.5t44.5 119.5v1211h311v-1037q0 -143 -42 -267t-117 -199q-162 -161 -473 -161zM387 1739v221l379 97h12l379 -97v-221h-14l-371 95l-371 -95h-14z" />
    <glyph glyph-name="Udieresis" unicode="&#xdc;" horiz-adv-x="1519" 
d="M769 -26q-311 0 -479 167q-82 80 -127 201t-45 259v1037h337v-1211q0 -75 44 -119.5t119 -44.5h308q75 0 119.5 44.5t44.5 119.5v1211h311v-1037q0 -143 -42 -267t-117 -199q-162 -161 -473 -161zM450 1833v164q0 39 22 61.5t62 22.5h108q39 0 61.5 -22.5t22.5 -61.5
v-164q0 -39 -22.5 -61.5t-61.5 -22.5h-108q-40 0 -62 22.5t-22 61.5zM818 1833v164q0 39 22.5 61.5t61.5 22.5h109q39 0 61.5 -22.5t22.5 -61.5v-164q0 -39 -22.5 -61.5t-61.5 -22.5h-109q-39 0 -61.5 22.5t-22.5 61.5z" />
    <glyph glyph-name="Yacute" unicode="&#xdd;" horiz-adv-x="1599" 
d="M633 0l-1 603l-571 1015v20h365l395 -717h4l393 717h320v-20l-569 -1012l1 -606h-337zM460 1734v223l702 119h21v-242l-703 -100h-20z" />
    <glyph glyph-name="Thorn" unicode="&#xde;" horiz-adv-x="1504" 
d="M128 0v1638h337v-163h299q151 0 275 -44.5t205 -125.5q80 -80 124 -193t44 -238v-20q0 -125 -43.5 -240.5t-119.5 -190.5q-164 -165 -485 -165h-299v-258h-337zM465 542h450q65 0 104.5 39t39.5 104v357q0 65 -39.5 104.5t-104.5 39.5h-450v-644z" />
    <glyph glyph-name="germandbls" unicode="&#xdf;" horiz-adv-x="1518" 
d="M128 1139q9 105 49 199t104 158q166 168 480 168q311 0 488 -179q143 -143 143 -314v-20q0 -90 -52 -173.5t-143 -130.5v-9q115 -57 177 -149.5t62 -199.5v-20q0 -90 -37 -175.5t-103 -151.5q-168 -168 -519 -168h-205v313h377q64 0 101 37t37 101v118q0 64 -37 101
t-101 37h-377v293h333q64 0 101 37t37 101v101q0 64 -37 101.5t-101 37.5h-296q-64 0 -101 -37.5t-37 -101.5v-1623h-343v1549z" />
    <glyph glyph-name="agrave" unicode="&#xe0;" horiz-adv-x="1238" 
d="M503 -26q-104 0 -191 32.5t-144 88.5q-43 44 -69.5 101t-26.5 116v21q0 52 23 104t64 93q91 93 262 114l397 48v151q0 28 -16.5 44.5t-44.5 16.5h-287q-28 0 -44.5 -16.5t-16.5 -44.5v-55h-303v21q23 128 108 213q130 130 401 130t399 -128q116 -116 116 -340v-684h-302
v91l-98 -75q-107 -42 -227 -42zM186 1612v26h379l199 -348v-26h-242zM399 282q0 -28 17 -45t45 -17h296q28 0 44.5 17t16.5 45v196l-362 -44q-26 -3 -41.5 -19t-15.5 -39v-94z" />
    <glyph glyph-name="aacute" unicode="&#xe1;" horiz-adv-x="1238" 
d="M503 -26q-104 0 -191 32.5t-144 88.5q-43 44 -69.5 101t-26.5 116v21q0 52 23 104t64 93q91 93 262 114l397 48v151q0 28 -16.5 44.5t-44.5 16.5h-287q-28 0 -44.5 -16.5t-16.5 -44.5v-55h-303v21q23 128 108 213q130 130 401 130t399 -128q116 -116 116 -340v-684h-302
v91l-98 -75q-107 -42 -227 -42zM399 282q0 -28 17 -45t45 -17h296q28 0 44.5 17t16.5 45v196l-362 -44q-26 -3 -41.5 -19t-15.5 -39v-94zM502 1264v26l198 348h379v-26l-336 -348h-241z" />
    <glyph glyph-name="acircumflex" unicode="&#xe2;" horiz-adv-x="1238" 
d="M503 -26q-104 0 -191 32.5t-144 88.5q-43 44 -69.5 101t-26.5 116v21q0 52 23 104t64 93q91 93 262 114l397 48v151q0 28 -16.5 44.5t-44.5 16.5h-287q-28 0 -44.5 -16.5t-16.5 -44.5v-55h-303v21q23 128 108 213q130 130 401 130t399 -128q116 -116 116 -340v-684h-302
v91l-98 -75q-107 -42 -227 -42zM229 1264v20l271 354h252l271 -354v-20h-285l-110 176h-4l-116 -176h-279zM399 282q0 -28 17 -45t45 -17h296q28 0 44.5 17t16.5 45v196l-362 -44q-26 -3 -41.5 -19t-15.5 -39v-94z" />
    <glyph glyph-name="atilde" unicode="&#xe3;" horiz-adv-x="1238" 
d="M503 -26q-104 0 -191 32.5t-144 88.5q-43 44 -69.5 101t-26.5 116v21q0 52 23 104t64 93q91 93 262 114l397 48v151q0 28 -16.5 44.5t-44.5 16.5h-287q-28 0 -44.5 -16.5t-16.5 -44.5v-55h-303v21q23 128 108 213q130 130 401 130t399 -128q116 -116 116 -340v-684h-302
v91l-98 -75q-107 -42 -227 -42zM241 1328v131q0 63 37 99t102 36q46 0 128 -15l181 -37q45 -10 74 -10q17 0 27 10t10 27v13h212v-131q0 -62 -37.5 -98.5t-102.5 -36.5q-45 0 -128 15l-181 37q-43 10 -74 10q-17 0 -26.5 -10t-9.5 -27v-13h-212zM399 282q0 -28 17 -45
t45 -17h296q28 0 44.5 17t16.5 45v196l-362 -44q-26 -3 -41.5 -19t-15.5 -39v-94z" />
    <glyph glyph-name="adieresis" unicode="&#xe4;" horiz-adv-x="1238" 
d="M503 -26q-104 0 -191 32.5t-144 88.5q-43 44 -69.5 101t-26.5 116v21q0 52 23 104t64 93q91 93 262 114l397 48v151q0 28 -16.5 44.5t-44.5 16.5h-287q-28 0 -44.5 -16.5t-16.5 -44.5v-55h-303v21q23 128 108 213q130 130 401 130t399 -128q116 -116 116 -340v-684h-302
v91l-98 -75q-107 -42 -227 -42zM304 1391v163q0 40 22.5 62t61.5 22h109q39 0 61.5 -22t22.5 -62v-163q0 -40 -22.5 -62t-61.5 -22h-109q-39 0 -61.5 22t-22.5 62zM399 282q0 -28 17 -45t45 -17h296q28 0 44.5 17t16.5 45v196l-362 -44q-26 -3 -41.5 -19t-15.5 -39v-94z
M673 1391v163q0 40 22.5 62t61.5 22h108q40 0 62 -22t22 -62v-163q0 -40 -22 -62t-62 -22h-108q-39 0 -61.5 22t-22.5 62z" />
    <glyph glyph-name="aring" unicode="&#xe5;" horiz-adv-x="1238" 
d="M503 -26q-104 0 -191 32.5t-144 88.5q-43 44 -69.5 101t-26.5 116v21q0 52 23 104t64 93q91 93 262 114l397 48v151q0 28 -16.5 44.5t-44.5 16.5h-287q-28 0 -44.5 -16.5t-16.5 -44.5v-55h-303v21q23 128 108 213q130 130 401 130t399 -128q116 -116 116 -340v-684h-302
v91l-98 -75q-107 -42 -227 -42zM300 1454q0 99 52 151q61 59 275 59q213 0 274 -59q52 -52 52 -151q0 -100 -52 -151q-60 -60 -274 -60q-215 0 -275 60q-52 51 -52 151zM399 282q0 -28 17 -45t45 -17h296q28 0 44.5 17t16.5 45v196l-362 -44q-26 -3 -41.5 -19t-15.5 -39v-94
zM522 1441q0 -23 13 -36t35 -13h114q22 0 34.5 13t12.5 36v26q0 23 -12.5 36t-34.5 13h-114q-22 0 -35 -13.5t-13 -35.5v-26z" />
    <glyph glyph-name="ae" unicode="&#xe6;" horiz-adv-x="2033" 
d="M546 0q-283 0 -378 95q-96 98 -96 226v4q0 120 87 205q91 93 262 114l397 48v151q0 28 -16.5 44.5t-44.5 16.5h-287q-28 0 -44.5 -16.5t-16.5 -44.5v-55h-303v5q6 57 33 119t75 110q104 104 396 104h772q272 0 402 -130q162 -162 162 -431q0 -50 -6 -86h-807v-134
q0 -55 33.5 -89t88.5 -34h256q49 0 78.5 29.5t29.5 78.5v31h312v-12q-44 -126 -133 -215q-134 -134 -421 -134h-831zM399 282q0 -28 17 -45t45 -17h296q28 0 44.5 17t16.5 45v196l-362 -44q-26 -3 -41.5 -19t-15.5 -39v-94zM1133 692h500v89q0 55 -33.5 89t-89.5 34h-255
q-55 0 -88.5 -34t-33.5 -89v-89z" />
    <glyph glyph-name="ccedilla" unicode="&#xe7;" horiz-adv-x="1291" 
d="M399 -410v171h275q12 0 19.5 8t7.5 20v27q0 12 -7.5 19.5t-19.5 7.5h-167v150q-155 37 -259 141q-79 79 -120 190t-41 229v20q0 118 41 229.5t120 189.5q76 77 185.5 118.5t230.5 41.5q123 0 229 -42t183 -120q60 -60 98 -139.5t46 -159.5v-20h-318v92q0 55 -34 89
t-89 34h-238q-56 0 -89.5 -33.5t-33.5 -89.5v-399q0 -56 33.5 -89.5t89.5 -33.5h238q55 0 89 33.5t34 89.5v92h318v-21q-8 -79 -46 -159t-98 -140q-102 -104 -252 -142v-41h24q83 0 132 -48.5t49 -131.5q0 -84 -49 -133.5t-132 -49.5h-449z" />
    <glyph glyph-name="egrave" unicode="&#xe8;" horiz-adv-x="1308" 
d="M660 -26q-127 0 -233 41t-179 115q-77 75 -119 187t-42 236v20q0 124 41.5 235.5t118.5 186.5q72 74 178 115.5t234 41.5q246 0 400 -156q162 -162 162 -431q0 -50 -6 -86h-807v-134q0 -55 33.5 -89t88.5 -34h256q49 0 78.5 29.5t29.5 78.5v31h312v-12
q-44 -126 -133 -215q-160 -160 -413 -160zM220 1612v26h379l199 -348v-26h-242zM408 692h500v89q0 55 -34 89t-89 34h-255q-55 0 -88.5 -34t-33.5 -89v-89z" />
    <glyph glyph-name="eacute" unicode="&#xe9;" horiz-adv-x="1308" 
d="M660 -26q-127 0 -233 41t-179 115q-77 75 -119 187t-42 236v20q0 124 41.5 235.5t118.5 186.5q72 74 178 115.5t234 41.5q246 0 400 -156q162 -162 162 -431q0 -50 -6 -86h-807v-134q0 -55 33.5 -89t88.5 -34h256q49 0 78.5 29.5t29.5 78.5v31h312v-12
q-44 -126 -133 -215q-160 -160 -413 -160zM408 692h500v89q0 55 -34 89t-89 34h-255q-55 0 -88.5 -34t-33.5 -89v-89zM536 1264v26l198 348h379v-26l-336 -348h-241z" />
    <glyph glyph-name="ecircumflex" unicode="&#xea;" horiz-adv-x="1308" 
d="M660 -26q-127 0 -233 41t-179 115q-77 75 -119 187t-42 236v20q0 124 41.5 235.5t118.5 186.5q72 74 178 115.5t234 41.5q246 0 400 -156q162 -162 162 -431q0 -50 -6 -86h-807v-134q0 -55 33.5 -89t88.5 -34h256q49 0 78.5 29.5t29.5 78.5v31h312v-12
q-44 -126 -133 -215q-160 -160 -413 -160zM263 1264v20l271 354h251l272 -354v-20h-285l-110 176h-5l-115 -176h-279zM408 692h500v89q0 55 -34 89t-89 34h-255q-55 0 -88.5 -34t-33.5 -89v-89z" />
    <glyph glyph-name="edieresis" unicode="&#xeb;" horiz-adv-x="1308" 
d="M660 -26q-127 0 -233 41t-179 115q-77 75 -119 187t-42 236v20q0 124 41.5 235.5t118.5 186.5q72 74 178 115.5t234 41.5q246 0 400 -156q162 -162 162 -431q0 -50 -6 -86h-807v-134q0 -55 33.5 -89t88.5 -34h256q49 0 78.5 29.5t29.5 78.5v31h312v-12
q-44 -126 -133 -215q-160 -160 -413 -160zM338 1391v163q0 40 22.5 62t61.5 22h108q40 0 62 -22t22 -62v-163q0 -40 -22 -62t-62 -22h-108q-39 0 -61.5 22t-22.5 62zM408 692h500v89q0 55 -34 89t-89 34h-255q-55 0 -88.5 -34t-33.5 -89v-89zM707 1391v163q0 40 22 62t62 22
h108q39 0 61.5 -22t22.5 -62v-163q0 -40 -22.5 -62t-61.5 -22h-108q-40 0 -62 22t-22 62z" />
    <glyph glyph-name="igrave" unicode="&#xec;" horiz-adv-x="553" 
d="M118 0v1126h317v-1126h-317zM-164 1612v26h379l199 -348v-26h-242z" />
    <glyph glyph-name="iacute" unicode="&#xed;" horiz-adv-x="553" 
d="M118 0v1126h317v-1126h-317zM152 1264v26l198 348h379v-26l-336 -348h-241z" />
    <glyph glyph-name="icircumflex" unicode="&#xee;" horiz-adv-x="553" 
d="M118 0v1126h317v-1126h-317zM-121 1264v20l271 354h251l272 -354v-20h-285l-110 176h-5l-115 -176h-279z" />
    <glyph glyph-name="idieresis" unicode="&#xef;" horiz-adv-x="553" 
d="M118 0v1126h317v-1126h-317zM-46 1391v163q0 40 22.5 62t61.5 22h108q40 0 62 -22t22 -62v-163q0 -40 -22 -62t-62 -22h-108q-39 0 -61.5 22t-22.5 62zM323 1391v163q0 40 22 62t62 22h108q39 0 61.5 -22t22.5 -62v-163q0 -40 -22.5 -62t-61.5 -22h-108q-40 0 -62 22
t-22 62z" />
    <glyph glyph-name="eth" unicode="&#xf0;" 
d="M659 -26q-120 0 -227.5 42t-182.5 117q-79 79 -120.5 191t-41.5 229v20q0 124 41.5 238.5t123.5 196.5q72 72 166 108t195 36q88 0 172 -28l46 -17l-88 102l-83 106h-395v188h247l-98 125v10h365l100 -135h277v-188h-140q217 -313 217 -686v-37q0 -139 -43.5 -260.5
t-122.5 -200.5q-157 -157 -408 -157zM418 364q0 -56 33.5 -89.5t89.5 -33.5h238q56 0 89.5 33.5t33.5 89.5v399q0 55 -34 89t-89 34h-238q-55 0 -89 -34t-34 -89v-399z" />
    <glyph glyph-name="ntilde" unicode="&#xf1;" horiz-adv-x="1274" 
d="M118 0v1126h307v-86l93 68q86 44 195 44q90 0 175 -33.5t147 -95.5q131 -131 131 -360v-663h-317v773q0 51 -31.5 82t-81.5 31h-188q-50 0 -81.5 -31t-31.5 -82v-773h-317zM252 1328v131q0 63 37 99t102 36q46 0 128 -15l181 -37q45 -10 74 -10q37 0 37 37v13h212v-131
q0 -63 -37 -99t-102 -36q-46 0 -128 15l-182 37q-43 10 -73 10q-37 0 -37 -37v-13h-212z" />
    <glyph glyph-name="ograve" unicode="&#xf2;" 
d="M659 -26q-120 0 -227.5 42t-182.5 117q-79 79 -120.5 191t-41.5 229v20q0 117 41.5 229t120.5 191q75 76 182 117.5t228 41.5q122 0 229.5 -41.5t182.5 -117.5q79 -79 120.5 -191t41.5 -229v-20q0 -117 -41.5 -229t-120.5 -191q-75 -76 -182.5 -117.5t-229.5 -41.5z
M220 1612v26h379l199 -348v-26h-242zM418 364q0 -56 33.5 -89.5t89.5 -33.5h238q56 0 89.5 33.5t33.5 89.5v399q0 56 -33.5 89.5t-89.5 33.5h-238q-56 0 -89.5 -33.5t-33.5 -89.5v-399z" />
    <glyph glyph-name="oacute" unicode="&#xf3;" 
d="M659 -26q-120 0 -227.5 42t-182.5 117q-79 79 -120.5 191t-41.5 229v20q0 117 41.5 229t120.5 191q75 76 182 117.5t228 41.5q122 0 229.5 -41.5t182.5 -117.5q79 -79 120.5 -191t41.5 -229v-20q0 -117 -41.5 -229t-120.5 -191q-75 -76 -182.5 -117.5t-229.5 -41.5z
M418 364q0 -56 33.5 -89.5t89.5 -33.5h238q56 0 89.5 33.5t33.5 89.5v399q0 56 -33.5 89.5t-89.5 33.5h-238q-56 0 -89.5 -33.5t-33.5 -89.5v-399zM536 1264v26l198 348h379v-26l-336 -348h-241z" />
    <glyph glyph-name="ocircumflex" unicode="&#xf4;" 
d="M659 -26q-120 0 -227.5 42t-182.5 117q-79 79 -120.5 191t-41.5 229v20q0 117 41.5 229t120.5 191q75 76 182 117.5t228 41.5q122 0 229.5 -41.5t182.5 -117.5q79 -79 120.5 -191t41.5 -229v-20q0 -117 -41.5 -229t-120.5 -191q-75 -76 -182.5 -117.5t-229.5 -41.5z
M263 1264v20l271 354h251l272 -354v-20h-285l-110 176h-5l-115 -176h-279zM418 364q0 -56 33.5 -89.5t89.5 -33.5h238q56 0 89.5 33.5t33.5 89.5v399q0 56 -33.5 89.5t-89.5 33.5h-238q-56 0 -89.5 -33.5t-33.5 -89.5v-399z" />
    <glyph glyph-name="otilde" unicode="&#xf5;" 
d="M659 -26q-120 0 -227.5 42t-182.5 117q-79 79 -120.5 191t-41.5 229v20q0 117 41.5 229t120.5 191q75 76 182 117.5t228 41.5q122 0 229.5 -41.5t182.5 -117.5q79 -79 120.5 -191t41.5 -229v-20q0 -117 -41.5 -229t-120.5 -191q-75 -76 -182.5 -117.5t-229.5 -41.5z
M274 1328v131q0 62 37.5 98.5t102.5 36.5q46 0 128 -15l181 -37q45 -10 74 -10q17 0 27 10t10 27v13h212v-131q0 -62 -37.5 -98.5t-102.5 -36.5q-46 0 -128 15l-181 37q-45 10 -74 10q-17 0 -27 -10t-10 -27v-13h-212zM418 364q0 -56 33.5 -89.5t89.5 -33.5h238
q56 0 89.5 33.5t33.5 89.5v399q0 56 -33.5 89.5t-89.5 33.5h-238q-56 0 -89.5 -33.5t-33.5 -89.5v-399z" />
    <glyph glyph-name="odieresis" unicode="&#xf6;" 
d="M659 -26q-120 0 -227.5 42t-182.5 117q-79 79 -120.5 191t-41.5 229v20q0 117 41.5 229t120.5 191q75 76 182 117.5t228 41.5q122 0 229.5 -41.5t182.5 -117.5q79 -79 120.5 -191t41.5 -229v-20q0 -117 -41.5 -229t-120.5 -191q-75 -76 -182.5 -117.5t-229.5 -41.5z
M338 1391v163q0 40 22.5 62t61.5 22h108q40 0 62 -22t22 -62v-163q0 -40 -22 -62t-62 -22h-108q-39 0 -61.5 22t-22.5 62zM418 364q0 -56 33.5 -89.5t89.5 -33.5h238q56 0 89.5 33.5t33.5 89.5v399q0 56 -33.5 89.5t-89.5 33.5h-238q-56 0 -89.5 -33.5t-33.5 -89.5v-399z
M707 1391v163q0 40 22 62t62 22h108q39 0 61.5 -22t22.5 -62v-163q0 -40 -22.5 -62t-61.5 -22h-108q-40 0 -62 22t-22 62z" />
    <glyph glyph-name="oslash" unicode="&#xf8;" 
d="M659 -26q-120 0 -227.5 42t-182.5 117q-79 79 -120.5 191t-41.5 229v20q0 117 41.5 229t120.5 191q75 76 182 117.5t228 41.5q122 0 229.5 -41.5t182.5 -117.5q79 -79 120.5 -191t41.5 -229v-20q0 -117 -41.5 -229t-120.5 -191q-75 -76 -182.5 -117.5t-229.5 -41.5z
M418 530l482 261q-8 44 -40 69.5t-81 25.5h-238q-56 0 -89.5 -33.5t-33.5 -89.5v-233zM420 336q8 -44 40 -69.5t81 -25.5h238q56 0 89.5 33.5t33.5 89.5v232z" />
    <glyph glyph-name="ugrave" unicode="&#xf9;" horiz-adv-x="1274" 
d="M1156 1126v-1126h-307v86l-93 -68q-90 -44 -195 -44q-90 0 -175 33.5t-147 95.5q-131 131 -131 361v662h317v-773q0 -50 31.5 -81t81.5 -31h188q50 0 81.5 31t31.5 81v773h317zM198 1612v26h379l198 -348v-26h-241z" />
    <glyph glyph-name="uacute" unicode="&#xfa;" horiz-adv-x="1274" 
d="M1156 1126v-1126h-307v86l-93 -68q-90 -44 -195 -44q-90 0 -175 33.5t-147 95.5q-131 131 -131 361v662h317v-773q0 -50 31.5 -81t81.5 -31h188q50 0 81.5 31t31.5 81v773h317zM513 1264v26l199 348h379v-26l-336 -348h-242z" />
    <glyph glyph-name="ucircumflex" unicode="&#xfb;" horiz-adv-x="1274" 
d="M1156 1126v-1126h-307v86l-93 -68q-90 -44 -195 -44q-90 0 -175 33.5t-147 95.5q-131 131 -131 361v662h317v-773q0 -50 31.5 -81t81.5 -31h188q50 0 81.5 31t31.5 81v773h317zM241 1264v20l270 354h252l271 -354v-20h-284l-111 176h-4l-116 -176h-278z" />
    <glyph glyph-name="udieresis" unicode="&#xfc;" horiz-adv-x="1274" 
d="M1156 1126v-1126h-307v86l-93 -68q-90 -44 -195 -44q-90 0 -175 33.5t-147 95.5q-131 131 -131 361v662h317v-773q0 -50 31.5 -81t81.5 -31h188q50 0 81.5 31t31.5 81v773h317zM315 1391v163q0 40 22.5 62t61.5 22h109q39 0 61.5 -22t22.5 -62v-163q0 -40 -22.5 -62
t-61.5 -22h-109q-39 0 -61.5 22t-22.5 62zM684 1391v163q0 40 22.5 62t61.5 22h109q39 0 61.5 -22t22.5 -62v-163q0 -40 -22.5 -62t-61.5 -22h-109q-39 0 -61.5 22t-22.5 62z" />
    <glyph glyph-name="yacute" unicode="&#xfd;" horiz-adv-x="1200" 
d="M113 -420v248h300q48 0 60 40l44 132h-104l-367 1106v20h320l255 -824h4l264 824h265v-20l-409 -1232q-46 -141 -113 -208q-87 -86 -248 -86h-271zM511 1264v26l199 348h379v-26l-336 -348h-242z" />
    <glyph glyph-name="thorn" unicode="&#xfe;" horiz-adv-x="1361" 
d="M118 -410v2048h312v-512l-5 -91l92 65q115 52 228 52q103 0 197.5 -37t166.5 -109q82 -82 123.5 -195.5t41.5 -237.5v-20q0 -124 -41.5 -237.5t-123.5 -194.5q-72 -72 -166.5 -109.5t-197.5 -37.5q-115 0 -228 53l-92 64l10 -91v-410h-317zM433 364q0 -56 33.5 -89.5
t89.5 -33.5h264q56 0 89.5 33.5t33.5 89.5v399q0 56 -33.5 89.5t-89.5 33.5h-264q-56 0 -89.5 -33.5t-33.5 -89.5v-399z" />
    <glyph glyph-name="ydieresis" unicode="&#xff;" horiz-adv-x="1200" 
d="M113 -420v248h300q48 0 60 40l44 132h-104l-367 1106v20h320l255 -824h4l264 824h265v-20l-409 -1232q-46 -141 -113 -208q-87 -86 -248 -86h-271zM313 1391v163q0 40 22.5 62t61.5 22h109q39 0 61.5 -22t22.5 -62v-163q0 -40 -22.5 -62t-61.5 -22h-109q-39 0 -61.5 22
t-22.5 62zM682 1391v163q0 40 22.5 62t61.5 22h108q40 0 62 -22t22 -62v-163q0 -40 -22 -62t-62 -22h-108q-39 0 -61.5 22t-22.5 62z" />
    <glyph glyph-name="Amacron" unicode="&#x100;" horiz-adv-x="1657" 
d="M61 0v20l539 1618h458l537 -1618v-20h-344l-111 333h-669l-113 -333h-297zM510 1774v213h639v-213h-639zM564 622h483l-154 465l-85 263h-4l-86 -263z" />
    <glyph glyph-name="amacron" unicode="&#x101;" horiz-adv-x="1238" 
d="M503 -26q-104 0 -191 32.5t-144 88.5q-43 44 -69.5 101t-26.5 116v21q0 52 23 104t64 93q91 93 262 114l397 48v151q0 28 -16.5 44.5t-44.5 16.5h-287q-28 0 -44.5 -16.5t-16.5 -44.5v-55h-303v21q23 128 108 213q130 130 401 130t399 -128q116 -116 116 -340v-684h-302
v91l-98 -75q-107 -42 -227 -42zM307 1339v213h639v-213h-639zM399 282q0 -28 17 -45t45 -17h296q28 0 44.5 17t16.5 45v196l-362 -44q-26 -3 -41.5 -19t-15.5 -39v-94z" />
    <glyph glyph-name="Abreve" unicode="&#x102;" horiz-adv-x="1657" 
d="M61 0v20l539 1618h458l537 -1618v-20h-344l-111 333h-669l-113 -333h-297zM474 1805v212h12q148 -74 342 -74q196 0 342 74h13v-212q-134 -62 -355 -62q-220 0 -354 62zM564 622h483l-154 465l-85 263h-4l-86 -263z" />
    <glyph glyph-name="abreve" unicode="&#x103;" horiz-adv-x="1238" 
d="M503 -26q-104 0 -191 32.5t-144 88.5q-43 44 -69.5 101t-26.5 116v21q0 52 23 104t64 93q91 93 262 114l397 48v151q0 28 -16.5 44.5t-44.5 16.5h-287q-28 0 -44.5 -16.5t-16.5 -44.5v-55h-303v21q23 128 108 213q130 130 401 130t399 -128q116 -116 116 -340v-684h-302
v91l-98 -75q-107 -42 -227 -42zM262 1590v48h256v-82q0 -48 27 -75.5t77 -27.5h10q49 0 76 27.5t27 75.5v82h256v-48q0 -155 -97.5 -251t-266.5 -96t-267 96t-98 251zM399 282q0 -28 17 -45t45 -17h296q28 0 44.5 17t16.5 45v196l-362 -44q-26 -3 -41.5 -19t-15.5 -39v-94z
" />
    <glyph glyph-name="Aogonek" unicode="&#x104;" horiz-adv-x="1657" 
d="M61 0v20l539 1618h458l537 -1618v-20h1l-51 -67q-21 -25 -21 -59v-28q0 -21 12 -33t32 -12h86v-211h-197q-116 0 -183 63.5t-67 164.5q0 79 56 147l26 35h-38l-111 333h-669l-113 -333h-297zM564 622h483l-154 465l-85 263h-4l-86 -263z" />
    <glyph glyph-name="aogonek" unicode="&#x105;" horiz-adv-x="1238" 
d="M503 -26q-104 0 -191 32.5t-144 88.5q-43 44 -69.5 101t-26.5 116v21q0 52 23 104t64 93q91 93 262 114l397 48v151q0 28 -16.5 44.5t-44.5 16.5h-287q-28 0 -44.5 -16.5t-16.5 -44.5v-55h-303v21q23 128 108 213q130 130 401 130t399 -128q116 -116 116 -340v-684
l-51 -67q-21 -25 -21 -59v-28q0 -21 12 -33t32 -12h86v-211h-197q-116 0 -183 63.5t-67 164.5q0 79 56 147l26 35h5v91l-98 -75q-107 -42 -227 -42zM399 282q0 -28 17 -45t45 -17h296q28 0 44.5 17t16.5 45v196l-362 -44q-26 -3 -41.5 -19t-15.5 -39v-94z" />
    <glyph glyph-name="Cacute" unicode="&#x106;" horiz-adv-x="1670" 
d="M867 -26q-328 0 -536 208q-229 229 -229 627v20q0 400 229 627q208 208 536 208q164 0 297.5 -53.5t227.5 -147.5q78 -78 128.5 -183t62.5 -218v-21h-333v71q0 122 -72 191.5t-198 69.5h-238q-130 0 -205.5 -75.5t-75.5 -205.5v-545q0 -131 75.5 -206.5t205.5 -75.5h238
q126 0 198 69.5t72 191.5v71h333v-20q-12 -114 -61 -217.5t-128 -182.5q-203 -203 -527 -203zM505 1734v223l702 119h21v-242l-703 -100h-20z" />
    <glyph glyph-name="cacute" unicode="&#x107;" horiz-adv-x="1291" 
d="M664 -26q-121 0 -230 41.5t-186 118.5q-79 79 -120 190t-41 229v20q0 118 41 229.5t120 189.5q76 77 185.5 118.5t230.5 41.5q123 0 229 -42t183 -120q60 -60 98 -139.5t46 -159.5v-20h-318v92q0 55 -34 89t-89 34h-238q-56 0 -89.5 -33.5t-33.5 -89.5v-399
q0 -56 33.5 -89.5t89.5 -33.5h238q55 0 89 33.5t34 89.5v92h318v-21q-8 -79 -46 -159t-98 -140q-77 -78 -183.5 -120t-228.5 -42zM541 1264v26l198 348h379v-26l-336 -348h-241z" />
    <glyph glyph-name="Ccircumflex" unicode="&#x108;" horiz-adv-x="1670" 
d="M867 -26q-328 0 -536 208q-229 229 -229 627v20q0 400 229 627q208 208 536 208q164 0 297.5 -53.5t227.5 -147.5q78 -78 128.5 -183t62.5 -218v-21h-333v71q0 122 -72 191.5t-198 69.5h-238q-130 0 -205.5 -75.5t-75.5 -205.5v-545q0 -131 75.5 -206.5t205.5 -75.5h238
q126 0 198 69.5t72 191.5v71h333v-20q-12 -114 -61 -217.5t-128 -182.5q-203 -203 -527 -203zM482 1739v221l379 97h12l379 -97v-221h-14l-371 95l-370 -95h-15z" />
    <glyph glyph-name="ccircumflex" unicode="&#x109;" horiz-adv-x="1291" 
d="M664 -26q-121 0 -230 41.5t-186 118.5q-79 79 -120 190t-41 229v20q0 118 41 229.5t120 189.5q76 77 185.5 118.5t230.5 41.5q123 0 229 -42t183 -120q60 -60 98 -139.5t46 -159.5v-20h-318v92q0 55 -34 89t-89 34h-238q-56 0 -89.5 -33.5t-33.5 -89.5v-399
q0 -56 33.5 -89.5t89.5 -33.5h238q55 0 89 33.5t34 89.5v92h318v-21q-8 -79 -46 -159t-98 -140q-77 -78 -183.5 -120t-228.5 -42zM268 1264v20l271 354h252l271 -354v-20h-285l-110 176h-4l-116 -176h-279z" />
    <glyph glyph-name="Cdotaccent" unicode="&#x10a;" horiz-adv-x="1670" 
d="M867 -26q-328 0 -536 208q-229 229 -229 627v20q0 400 229 627q208 208 536 208q164 0 297.5 -53.5t227.5 -147.5q78 -78 128.5 -183t62.5 -218v-21h-333v71q0 122 -72 191.5t-198 69.5h-238q-130 0 -205.5 -75.5t-75.5 -205.5v-545q0 -131 75.5 -206.5t205.5 -75.5h238
q126 0 198 69.5t72 191.5v71h333v-20q-12 -114 -61 -217.5t-128 -182.5q-203 -203 -527 -203zM693 1844v142q0 44 25.5 69.5t69.5 25.5h159q44 0 69.5 -25.5t25.5 -69.5v-142q0 -44 -25.5 -69.5t-69.5 -25.5h-159q-44 0 -69.5 25.5t-25.5 69.5z" />
    <glyph glyph-name="cdotaccent" unicode="&#x10b;" horiz-adv-x="1291" 
d="M664 -26q-121 0 -230 41.5t-186 118.5q-79 79 -120 190t-41 229v20q0 118 41 229.5t120 189.5q76 77 185.5 118.5t230.5 41.5q123 0 229 -42t183 -120q60 -60 98 -139.5t46 -159.5v-20h-318v92q0 55 -34 89t-89 34h-238q-56 0 -89.5 -33.5t-33.5 -89.5v-399
q0 -56 33.5 -89.5t89.5 -33.5h238q55 0 89 33.5t34 89.5v92h318v-21q-8 -79 -46 -159t-98 -140q-77 -78 -183.5 -120t-228.5 -42zM490 1402v141q0 44 26 69.5t70 25.5h158q44 0 70 -25.5t26 -69.5v-141q0 -44 -26 -69.5t-70 -25.5h-158q-44 0 -70 25.5t-26 69.5z" />
    <glyph glyph-name="Ccaron" unicode="&#x10c;" horiz-adv-x="1670" 
d="M867 -26q-328 0 -536 208q-229 229 -229 627v20q0 400 229 627q208 208 536 208q164 0 297.5 -53.5t227.5 -147.5q78 -78 128.5 -183t62.5 -218v-21h-333v71q0 122 -72 191.5t-198 69.5h-238q-130 0 -205.5 -75.5t-75.5 -205.5v-545q0 -131 75.5 -206.5t205.5 -75.5h238
q126 0 198 69.5t72 191.5v71h333v-20q-12 -114 -61 -217.5t-128 -182.5q-203 -203 -527 -203zM483 1835v221h15l370 -95l371 95h14v-221l-379 -97h-12z" />
    <glyph glyph-name="ccaron" unicode="&#x10d;" horiz-adv-x="1291" 
d="M664 -26q-121 0 -230 41.5t-186 118.5q-79 79 -120 190t-41 229v20q0 118 41 229.5t120 189.5q76 77 185.5 118.5t230.5 41.5q123 0 229 -42t183 -120q60 -60 98 -139.5t46 -159.5v-20h-318v92q0 55 -34 89t-89 34h-238q-56 0 -89.5 -33.5t-33.5 -89.5v-399
q0 -56 33.5 -89.5t89.5 -33.5h238q55 0 89 33.5t34 89.5v92h318v-21q-8 -79 -46 -159t-98 -140q-77 -78 -183.5 -120t-228.5 -42zM268 1618v20h285l111 -176h4l115 176h279v-20l-270 -354h-252z" />
    <glyph glyph-name="Dcaron" unicode="&#x10e;" horiz-adv-x="1682" 
d="M128 0v1638h668q365 0 564 -197q108 -108 164 -268t56 -344v-20q0 -184 -55.5 -343.5t-162.5 -265.5q-202 -200 -566 -200h-668zM375 1835v221h14l371 -95l370 95h15v-221l-379 -97h-12zM465 289h475q130 0 206 75.5t76 205.5v498q0 130 -76 206t-206 76h-475v-1061z" />
    <glyph glyph-name="dcaron" unicode="&#x10f;" horiz-adv-x="1371" 
d="M613 -26q-217 0 -361 145q-82 81 -123.5 195.5t-41.5 238.5v20q0 124 41.5 238.5t123.5 196.5q72 72 166 108t195 36q116 0 231 -52l92 -65l-10 91v512h317v-1638h-308l1 91l-92 -64q-113 -53 -231 -53zM418 364q0 -56 34 -89.5t89 -33.5h269q56 0 89.5 33.5t33.5 89.5
v399q0 55 -33.5 89t-89.5 34h-269q-55 0 -89 -34t-34 -89v-399zM1338 1264v374h360v-20l-136 -354h-224z" />
    <glyph glyph-name="Dcroat" unicode="&#x110;" horiz-adv-x="1682" 
d="M128 0v705h-128v256h128v677h668q365 0 564 -197q108 -108 164 -268t56 -344v-20q0 -184 -55.5 -343.5t-162.5 -265.5q-202 -200 -566 -200h-668zM465 289h475q130 0 206 75.5t76 205.5v498q0 130 -76 206t-206 76h-475v-389h396v-256h-396v-416z" />
    <glyph glyph-name="dcroat" unicode="&#x111;" horiz-adv-x="1371" 
d="M613 -26q-217 0 -361 145q-82 81 -123.5 195.5t-41.5 238.5v20q0 124 41.5 238.5t123.5 196.5q72 72 166 108t195 36q116 0 231 -52l92 -65l-10 91v130h-267v240h267v142h317v-142h137v-240h-137v-1256h-308l1 91l-92 -64q-113 -53 -231 -53zM418 364q0 -56 34 -89.5
t89 -33.5h269q56 0 89.5 33.5t33.5 89.5v399q0 55 -33.5 89t-89.5 34h-269q-55 0 -89 -34t-34 -89v-399z" />
    <glyph glyph-name="Emacron" unicode="&#x112;" horiz-adv-x="1304" 
d="M128 0v1638h1089v-288h-752v-382h702v-279h-702v-400h752v-289h-1089zM354 1774v213h639v-213h-639z" />
    <glyph glyph-name="emacron" unicode="&#x113;" horiz-adv-x="1308" 
d="M660 -26q-127 0 -233 41t-179 115q-77 75 -119 187t-42 236v20q0 124 41.5 235.5t118.5 186.5q72 74 178 115.5t234 41.5q246 0 400 -156q162 -162 162 -431q0 -50 -6 -86h-807v-134q0 -55 33.5 -89t88.5 -34h256q49 0 78.5 29.5t29.5 78.5v31h312v-12
q-44 -126 -133 -215q-160 -160 -413 -160zM341 1339v213h639v-213h-639zM408 692h500v89q0 55 -34 89t-89 34h-255q-55 0 -88.5 -34t-33.5 -89v-89z" />
    <glyph glyph-name="Ebreve" unicode="&#x114;" horiz-adv-x="1304" 
d="M128 0v1638h1089v-288h-752v-382h702v-279h-702v-400h752v-289h-1089zM318 1805v212h13q146 -74 342 -74t342 74h12v-212q-134 -62 -354 -62q-221 0 -355 62z" />
    <glyph glyph-name="ebreve" unicode="&#x115;" horiz-adv-x="1308" 
d="M660 -26q-127 0 -233 41t-179 115q-77 75 -119 187t-42 236v20q0 124 41.5 235.5t118.5 186.5q72 74 178 115.5t234 41.5q246 0 400 -156q162 -162 162 -431q0 -50 -6 -86h-807v-134q0 -55 33.5 -89t88.5 -34h256q49 0 78.5 29.5t29.5 78.5v31h312v-12
q-44 -126 -133 -215q-160 -160 -413 -160zM296 1590v48h256v-82q0 -48 27 -75.5t76 -27.5h11q49 0 76 27.5t27 75.5v82h256v-48q0 -155 -98 -251t-267 -96t-266.5 96t-97.5 251zM408 692h500v89q0 55 -34 89t-89 34h-255q-55 0 -88.5 -34t-33.5 -89v-89z" />
    <glyph glyph-name="Edotaccent" unicode="&#x116;" horiz-adv-x="1304" 
d="M128 0v1638h1089v-288h-752v-382h702v-279h-702v-400h752v-289h-1089zM499 1844v142q0 44 25.5 69.5t69.5 25.5h159q43 0 69 -25.5t26 -69.5v-142q0 -44 -26 -69.5t-69 -25.5h-159q-44 0 -69.5 25.5t-25.5 69.5z" />
    <glyph glyph-name="edotaccent" unicode="&#x117;" horiz-adv-x="1308" 
d="M660 -26q-127 0 -233 41t-179 115q-77 75 -119 187t-42 236v20q0 124 41.5 235.5t118.5 186.5q72 74 178 115.5t234 41.5q246 0 400 -156q162 -162 162 -431q0 -50 -6 -86h-807v-134q0 -55 33.5 -89t88.5 -34h256q49 0 78.5 29.5t29.5 78.5v31h312v-12
q-44 -126 -133 -215q-160 -160 -413 -160zM408 692h500v89q0 55 -34 89t-89 34h-255q-55 0 -88.5 -34t-33.5 -89v-89zM485 1402v141q0 44 26 69.5t70 25.5h158q44 0 70 -25.5t26 -69.5v-141q0 -44 -26 -69.5t-70 -25.5h-158q-44 0 -70 25.5t-26 69.5z" />
    <glyph glyph-name="Eogonek" unicode="&#x118;" horiz-adv-x="1304" 
d="M128 0v1638h1089v-288h-752v-382h702v-279h-702v-400h752v-289h1l-52 -67q-21 -25 -21 -59v-28q0 -21 12 -33t32 -12h86v-211h-197q-116 0 -183 63.5t-67 164.5q0 79 56 147l26 35h-782z" />
    <glyph glyph-name="eogonek" unicode="&#x119;" horiz-adv-x="1308" 
d="M698 -408q-115 0 -182 63.5t-67 164.5q0 80 55 147l16 21q-164 34 -272 142q-77 75 -119 187t-42 236v20q0 124 41.5 235.5t118.5 186.5q72 74 178 115.5t234 41.5q246 0 400 -156q162 -162 162 -431q0 -50 -6 -86h-807v-134q0 -55 33.5 -89t88.5 -34h256q49 0 78.5 29.5
t29.5 78.5v31h312v-12q-44 -126 -133 -215q-100 -100 -239 -138l-48 -61q-21 -25 -21 -59v-28q0 -21 12 -33t32 -12h86v-211h-197zM408 692h500v89q0 55 -34 89t-89 34h-255q-55 0 -88.5 -34t-33.5 -89v-89z" />
    <glyph glyph-name="Ecaron" unicode="&#x11a;" horiz-adv-x="1304" 
d="M128 0v1638h1089v-288h-752v-382h702v-279h-702v-400h752v-289h-1089zM289 1835v221h14l371 -95l370 95h15v-221l-379 -97h-12z" />
    <glyph glyph-name="ecaron" unicode="&#x11b;" horiz-adv-x="1308" 
d="M660 -26q-127 0 -233 41t-179 115q-77 75 -119 187t-42 236v20q0 124 41.5 235.5t118.5 186.5q72 74 178 115.5t234 41.5q246 0 400 -156q162 -162 162 -431q0 -50 -6 -86h-807v-134q0 -55 33.5 -89t88.5 -34h256q49 0 78.5 29.5t29.5 78.5v31h312v-12
q-44 -126 -133 -215q-160 -160 -413 -160zM263 1618v20h285l110 -176h5l115 176h279v-20l-271 -354h-251zM408 692h500v89q0 55 -34 89t-89 34h-255q-55 0 -88.5 -34t-33.5 -89v-89z" />
    <glyph glyph-name="Gcircumflex" unicode="&#x11c;" horiz-adv-x="1698" 
d="M865 -26q-335 0 -537 202q-114 114 -170 279t-56 354v20q0 189 56 354.5t170 278.5q202 202 537 202q166 0 301 -52t229 -146q78 -78 127.5 -184.5t59.5 -205.5v-20h-341v56q0 121 -72.5 191t-197.5 70h-229q-129 0 -205 -76t-76 -205v-545q0 -129 76 -205.5t205 -76.5
h250q125 0 198 70.5t73 190.5v67h-389v278h721v-157q0 -160 -52.5 -305.5t-143.5 -236.5q-94 -94 -230 -146t-304 -52zM458 1739v221l379 97h12l379 -97v-221h-15l-370 95l-371 -95h-14z" />
    <glyph glyph-name="gcircumflex" unicode="&#x11d;" horiz-adv-x="1361" 
d="M682 -435q-270 0 -416 146q-102 103 -124 228v20h318v-36q0 -41 25.5 -66.5t66.5 -25.5h270q47 0 75.5 28t28.5 75v199l8 60l-90 -66q-111 -52 -231 -52q-224 0 -371 148q-155 154 -155 380v21q0 106 39 205t116 176q147 147 371 147q116 0 231 -52l92 -65l-5 91h312
v-1007q0 -265 -145 -410q-144 -144 -416 -144zM296 1264v20l270 354h252l272 -354v-20h-285l-111 176h-4l-116 -176h-278zM418 464q0 -57 33 -90t90 -33h269q57 0 90 33t33 90v299q0 57 -33 90t-90 33h-269q-57 0 -90 -33t-33 -90v-299z" />
    <glyph glyph-name="Gbreve" unicode="&#x11e;" horiz-adv-x="1698" 
d="M865 -26q-335 0 -537 202q-114 114 -170 279t-56 354v20q0 189 56 354.5t170 278.5q202 202 537 202q166 0 301 -52t229 -146q78 -78 127.5 -184.5t59.5 -205.5v-20h-341v56q0 121 -72.5 191t-197.5 70h-229q-129 0 -205 -76t-76 -205v-545q0 -129 76 -205.5t205 -76.5
h250q125 0 198 70.5t73 190.5v67h-389v278h721v-157q0 -160 -52.5 -305.5t-143.5 -236.5q-94 -94 -230 -146t-304 -52zM488 1805v212h13q146 -74 342 -74q194 0 342 74h12v-212q-134 -62 -354 -62q-221 0 -355 62z" />
    <glyph glyph-name="gbreve" unicode="&#x11f;" horiz-adv-x="1361" 
d="M682 -435q-270 0 -416 146q-102 103 -124 228v20h318v-36q0 -41 25.5 -66.5t66.5 -25.5h270q47 0 75.5 28t28.5 75v199l8 60l-90 -66q-111 -52 -231 -52q-224 0 -371 148q-155 154 -155 380v21q0 106 39 205t116 176q147 147 371 147q116 0 231 -52l92 -65l-5 91h312
v-1007q0 -265 -145 -410q-144 -144 -416 -144zM329 1590v48h256v-82q0 -48 27 -75.5t76 -27.5h10q50 0 77 27.5t27 75.5v82h256v-48q0 -155 -98 -251t-267 -96t-266.5 96t-97.5 251zM418 464q0 -57 33 -90t90 -33h269q57 0 90 33t33 90v299q0 57 -33 90t-90 33h-269
q-57 0 -90 -33t-33 -90v-299z" />
    <glyph glyph-name="Gdotaccent" unicode="&#x120;" horiz-adv-x="1698" 
d="M865 -26q-335 0 -537 202q-114 114 -170 279t-56 354v20q0 189 56 354.5t170 278.5q202 202 537 202q166 0 301 -52t229 -146q78 -78 127.5 -184.5t59.5 -205.5v-20h-341v56q0 121 -72.5 191t-197.5 70h-229q-129 0 -205 -76t-76 -205v-545q0 -129 76 -205.5t205 -76.5
h250q125 0 198 70.5t73 190.5v67h-389v278h721v-157q0 -160 -52.5 -305.5t-143.5 -236.5q-94 -94 -230 -146t-304 -52zM669 1844v142q0 44 25.5 69.5t69.5 25.5h159q43 0 69 -25.5t26 -69.5v-142q0 -44 -26 -69.5t-69 -25.5h-159q-44 0 -69.5 25.5t-25.5 69.5z" />
    <glyph glyph-name="gdotaccent" unicode="&#x121;" horiz-adv-x="1361" 
d="M682 -435q-270 0 -416 146q-102 103 -124 228v20h318v-36q0 -41 25.5 -66.5t66.5 -25.5h270q47 0 75.5 28t28.5 75v199l8 60l-90 -66q-111 -52 -231 -52q-224 0 -371 148q-155 154 -155 380v21q0 106 39 205t116 176q147 147 371 147q116 0 231 -52l92 -65l-5 91h312
v-1007q0 -265 -145 -410q-144 -144 -416 -144zM418 464q0 -57 33 -90t90 -33h269q57 0 90 33t33 90v299q0 57 -33 90t-90 33h-269q-57 0 -90 -33t-33 -90v-299zM518 1402v141q0 44 25.5 69.5t69.5 25.5h159q44 0 69.5 -25.5t25.5 -69.5v-141q0 -44 -25.5 -69.5t-69.5 -25.5
h-159q-44 0 -69.5 25.5t-25.5 69.5z" />
    <glyph glyph-name="uni0122" unicode="&#x122;" horiz-adv-x="1698" 
d="M865 -26q-335 0 -537 202q-114 114 -170 279t-56 354v20q0 189 56 354.5t170 278.5q202 202 537 202q166 0 301 -52t229 -146q78 -78 127.5 -184.5t59.5 -205.5v-20h-341v56q0 121 -72.5 191t-197.5 70h-229q-129 0 -205 -76t-76 -205v-545q0 -129 76 -205.5t205 -76.5
h250q125 0 198 70.5t73 190.5v67h-389v278h721v-157q0 -160 -52.5 -305.5t-143.5 -236.5q-94 -94 -230 -146t-304 -52zM624 -435v20l30 309h377v-21l-153 -308h-254z" />
    <glyph glyph-name="uni0123" unicode="&#x123;" horiz-adv-x="1361" 
d="M682 -435q-270 0 -416 146q-102 103 -124 228v20h318v-36q0 -41 25.5 -66.5t66.5 -25.5h270q47 0 75.5 28t28.5 75v199l8 60l-90 -66q-111 -52 -231 -52q-224 0 -371 148q-155 154 -155 380v21q0 106 39 205t116 176q147 147 371 147q116 0 231 -52l92 -65l-5 91h312
v-1007q0 -265 -145 -410q-144 -144 -416 -144zM418 464q0 -57 33 -90t90 -33h269q57 0 90 33t33 90v299q0 57 -33 90t-90 33h-269q-57 0 -90 -33t-33 -90v-299zM528 1264v20l144 354h202v-20l-41 -354h-305z" />
    <glyph glyph-name="Hcircumflex" unicode="&#x124;" horiz-adv-x="1565" 
d="M128 0v1638h337v-644h635v644h337v-1638h-337v685h-635v-685h-337zM398 1739v221l379 97h13l378 -97v-221h-14l-371 95l-370 -95h-15z" />
    <glyph glyph-name="hcircumflex" unicode="&#x125;" horiz-adv-x="1305" 
d="M128 0v1638h307v-601l114 71q86 44 194 44q91 0 176 -33.5t147 -95.5q131 -131 131 -360v-663h-317v773q0 51 -31 82t-82 31h-209q-51 0 -82 -31t-31 -82v-773h-317zM123 1739v221l379 97h12l379 -97v-221h-14l-371 95l-371 -95h-14z" />
    <glyph glyph-name="Hbar" unicode="&#x126;" horiz-adv-x="1565" 
d="M128 0v1163h-122v267h122v208h337v-208h635v208h337v-208h122v-267h-122v-1163h-337v685h-635v-685h-337zM465 994h635v169h-635v-169z" />
    <glyph glyph-name="hbar" unicode="&#x127;" horiz-adv-x="1305" 
d="M128 0v1256h-120v240h120v142h307v-142h294v-240h-294v-219l114 71q86 44 194 44q91 0 176 -33.5t147 -95.5q131 -131 131 -360v-663h-317v773q0 51 -31 82t-82 31h-209q-51 0 -82 -31t-31 -82v-773h-317z" />
    <glyph glyph-name="Itilde" unicode="&#x128;" horiz-adv-x="593" 
d="M128 0v1638h337v-1638h-337zM-100 1764v131q0 63 37 99.5t102 36.5q41 0 128 -16l181 -37q45 -10 74 -10q17 0 27 10t10 27v13h212v-131q0 -62 -37.5 -98.5t-102.5 -36.5q-45 0 -128 15l-181 37q-48 11 -74 11q-16 0 -26 -10t-10 -27v-14h-212z" />
    <glyph glyph-name="itilde" unicode="&#x129;" horiz-adv-x="553" 
d="M118 0v1126h317v-1126h-317zM-110 1328v131q0 62 37.5 98.5t102.5 36.5q46 0 128 -15l181 -37q45 -10 74 -10q17 0 27 10t10 27v13h212v-131q0 -62 -37.5 -98.5t-102.5 -36.5q-46 0 -128 15l-181 37q-45 10 -74 10q-17 0 -27 -10t-10 -27v-13h-212z" />
    <glyph glyph-name="Imacron" unicode="&#x12a;" horiz-adv-x="593" 
d="M128 0v1638h337v-1638h-337zM-20 1774v213h638v-213h-638z" />
    <glyph glyph-name="imacron" unicode="&#x12b;" horiz-adv-x="553" 
d="M118 0v1126h317v-1126h-317zM-43 1339v213h639v-213h-639z" />
    <glyph glyph-name="Ibreve" unicode="&#x12c;" horiz-adv-x="593" 
d="M128 0v1638h337v-1638h-337zM-56 1805v212h12q146 -74 342 -74t342 74h12v-212q-134 -62 -354 -62t-354 62z" />
    <glyph glyph-name="ibreve" unicode="&#x12d;" horiz-adv-x="553" 
d="M118 0v1126h317v-1126h-317zM-88 1590v48h256v-82q0 -48 27 -75.5t76 -27.5h11q49 0 76 27.5t27 75.5v82h256v-48q0 -155 -98 -251t-267 -96t-266.5 96t-97.5 251z" />
    <glyph glyph-name="Iogonek" unicode="&#x12e;" horiz-adv-x="593" 
d="M128 0v1638h337v-1638h1l-51 -67q-22 -25 -22 -59v-28q0 -21 12 -33t32 -12h86v-211h-196q-116 0 -183 63.5t-67 164.5q0 80 55 147l27 35h-31z" />
    <glyph glyph-name="iogonek" unicode="&#x12f;" horiz-adv-x="553" 
d="M118 0v1126h317v-1126l-51 -67q-22 -26 -22 -59v-28q0 -21 12.5 -33t32.5 -12h86v-211h-197q-116 0 -183 63.5t-67 164.5q0 78 55 147l27 35h-10zM101 1402v141q0 44 26 69.5t70 25.5h158q44 0 70 -25.5t26 -69.5v-141q0 -44 -26 -69.5t-70 -25.5h-158q-44 0 -70 25.5
t-26 69.5z" />
    <glyph glyph-name="Idotaccent" unicode="&#x130;" horiz-adv-x="593" 
d="M128 0v1638h337v-1638h-337zM124 1844v142q0 44 26 69.5t69 25.5h159q44 0 69.5 -25.5t25.5 -69.5v-142q0 -44 -25.5 -69.5t-69.5 -25.5h-159q-43 0 -69 25.5t-26 69.5z" />
    <glyph glyph-name="dotlessi" unicode="&#x131;" horiz-adv-x="553" 
d="M118 0v1126h317v-1126h-317z" />
    <glyph glyph-name="IJ" unicode="&#x132;" horiz-adv-x="1921" 
d="M128 0v1638h337v-1638h-337zM670 454v20h344v-86q0 -56 34.5 -90.5t90.5 -34.5h202q57 0 91 34t34 91v962h-604v288h941v-1112q0 -251 -143 -394q-160 -158 -414 -158q-264 0 -424 158q-62 62 -102 146t-50 176z" />
    <glyph glyph-name="ij" unicode="&#x133;" horiz-adv-x="1106" 
d="M118 0v1126h317v-1126h-317zM101 1402v141q0 44 26 69.5t70 25.5h158q44 0 70 -25.5t26 -69.5v-141q0 -44 -26 -69.5t-70 -25.5h-158q-44 0 -70 25.5t-26 69.5zM530 -410v267h43q44 0 71 26.5t27 70.5v1172h317v-1088q0 -213 -123 -336q-110 -112 -294 -112h-41z
M654 1402v141q0 44 26 69.5t70 25.5h158q44 0 70 -25.5t26 -69.5v-141q0 -44 -26 -69.5t-70 -25.5h-158q-44 0 -70 25.5t-26 69.5z" />
    <glyph glyph-name="Jcircumflex" unicode="&#x134;" horiz-adv-x="1328" 
d="M653 -26q-264 0 -424 158q-62 62 -102 146t-50 176v20h344v-86q0 -56 34.5 -90.5t90.5 -34.5h203q56 0 90 34t34 91v962h-604v288h941v-1112q0 -251 -143 -394q-158 -158 -414 -158zM361 1739v221l379 97h13l379 -97v-221h-15l-371 95l-370 -95h-15z" />
    <glyph glyph-name="jcircumflex" unicode="&#x135;" horiz-adv-x="553" 
d="M-23 -410v267h43q44 0 71 26.5t27 70.5v1172h317v-1088q0 -213 -123 -336q-110 -112 -294 -112h-41zM-121 1264v20l271 354h251l272 -354v-20h-285l-110 176h-5l-115 -176h-279z" />
    <glyph glyph-name="uni0136" unicode="&#x136;" horiz-adv-x="1599" 
d="M128 0v1638h337v-660h4l636 660h392v-20l-751 -751l792 -847v-20h-411l-658 717h-4v-717h-337zM548 -435v20l31 309h376v-21l-153 -308h-254z" />
    <glyph glyph-name="uni0137" unicode="&#x137;" horiz-adv-x="1292" 
d="M128 0v1638h317v-946h5l435 434h341v-20l-504 -489l504 -597v-20h-364l-412 502h-5v-502h-317zM427 -435v20l31 309h377v-21l-154 -308h-254z" />
    <glyph glyph-name="Lacute" unicode="&#x139;" horiz-adv-x="1289" 
d="M128 0v1638h337v-1349h763v-289h-1100zM-8 1734v223l702 119h21v-242l-703 -100h-20z" />
    <glyph glyph-name="lacute" unicode="&#x13a;" horiz-adv-x="573" 
d="M128 0v1638h317v-1638h-317zM-76 1734v223l703 119h20v-242l-702 -100h-21z" />
    <glyph glyph-name="uni013B" unicode="&#x13b;" horiz-adv-x="1289" 
d="M128 0v1638h337v-1349h763v-289h-1100zM478 -435v20l31 309h377v-21l-154 -308h-254z" />
    <glyph glyph-name="uni013C" unicode="&#x13c;" horiz-adv-x="573" 
d="M128 0v1638h317v-1638h-317zM68 -435v20l30 309h377v-21l-153 -308h-254z" />
    <glyph glyph-name="Lcaron" unicode="&#x13d;" horiz-adv-x="1289" 
d="M128 0v1638h337v-1349h763v-289h-1100zM659 1264v374h360v-20l-136 -354h-224z" />
    <glyph glyph-name="lcaron" unicode="&#x13e;" horiz-adv-x="573" 
d="M128 0v1638h317v-1638h-317zM524 1264v374h360v-20l-136 -354h-224z" />
    <glyph glyph-name="Ldot" unicode="&#x13f;" horiz-adv-x="1289" 
d="M128 0v1638h337v-1349h763v-289h-1100zM663 762v332h350v-332h-350z" />
    <glyph glyph-name="ldot" unicode="&#x140;" horiz-adv-x="939" 
d="M128 0v1638h317v-1638h-317zM548 655v353h330v-353h-330z" />
    <glyph glyph-name="Lslash" unicode="&#x141;" horiz-adv-x="1289" 
d="M128 0v677l-139 -56v272l139 56v689h337v-614l345 138v-272l-345 -139v-462h763v-289h-1100z" />
    <glyph glyph-name="lslash" unicode="&#x142;" horiz-adv-x="573" 
d="M128 0v662l-108 -49v245l108 48v732h317v-646l108 47v-244l-108 -49v-746h-317z" />
    <glyph glyph-name="Nacute" unicode="&#x143;" horiz-adv-x="1565" 
d="M128 0v1638h289l724 -1096h4l-18 760v336h310v-1638h-289l-724 1097h-4l17 -760v-337h-309zM438 1734v223l703 119h20v-242l-702 -100h-21z" />
    <glyph glyph-name="nacute" unicode="&#x144;" horiz-adv-x="1274" 
d="M118 0v1126h307v-86l93 68q86 44 195 44q90 0 175 -33.5t147 -95.5q131 -131 131 -360v-663h-317v773q0 51 -31.5 82t-81.5 31h-188q-50 0 -81.5 -31t-31.5 -82v-773h-317zM513 1264v26l199 348h379v-26l-336 -348h-242z" />
    <glyph glyph-name="uni0145" unicode="&#x145;" horiz-adv-x="1565" 
d="M128 0v1638h289l724 -1096h4l-18 760v336h310v-1638h-289l-724 1097h-4l17 -760v-337h-309zM542 -435v20l30 309h377v-21l-153 -308h-254z" />
    <glyph glyph-name="uni0146" unicode="&#x146;" horiz-adv-x="1274" 
d="M118 0v1126h307v-86l93 68q86 44 195 44q90 0 175 -33.5t147 -95.5q131 -131 131 -360v-663h-317v773q0 51 -31.5 82t-81.5 31h-188q-50 0 -81.5 -31t-31.5 -82v-773h-317zM421 -435v20l31 309h376v-21l-153 -308h-254z" />
    <glyph glyph-name="Ncaron" unicode="&#x147;" horiz-adv-x="1565" 
d="M128 0v1638h289l724 -1096h4l-18 760v336h310v-1638h-289l-724 1097h-4l17 -760v-337h-309zM416 1835v221h14l371 -95l370 95h15v-221l-379 -97h-12z" />
    <glyph glyph-name="ncaron" unicode="&#x148;" horiz-adv-x="1274" 
d="M118 0v1126h307v-86l93 68q86 44 195 44q90 0 175 -33.5t147 -95.5q131 -131 131 -360v-663h-317v773q0 51 -31.5 82t-81.5 31h-188q-50 0 -81.5 -31t-31.5 -82v-773h-317zM242 1618v20h284l111 -176h4l116 176h278v-20l-270 -354h-252z" />
    <glyph glyph-name="napostrophe" unicode="&#x149;" horiz-adv-x="1274" 
d="M118 0v1126h307v-86l93 68q86 44 195 44q90 0 175 -33.5t147 -95.5q131 -131 131 -360v-663h-317v773q0 51 -31.5 82t-81.5 31h-188q-50 0 -81.5 -31t-31.5 -82v-773h-317zM1 1264v374h359v-20l-136 -354h-223z" />
    <glyph glyph-name="Eng" unicode="&#x14a;" horiz-adv-x="1565" 
d="M128 0v1638h289l724 -1096h4l-18 760v336h310v-1669q0 -195 -94 -288q-90 -91 -257 -91h-165v272h150q35 0 56 20.5t21 56.5v61l-724 1097h-4l17 -760v-337h-309z" />
    <glyph glyph-name="eng" unicode="&#x14b;" horiz-adv-x="1274" 
d="M118 0v1126h307v-86l93 68q86 44 195 44q90 0 175 -33.5t147 -95.5q131 -131 131 -360v-694q0 -194 -94 -287q-90 -92 -256 -92h-104v272h70q67 0 67 66v845q0 51 -31.5 82t-81.5 31h-188q-50 0 -81.5 -31t-31.5 -82v-773h-317z" />
    <glyph glyph-name="Omacron" unicode="&#x14c;" horiz-adv-x="1755" 
d="M878 -26q-336 0 -545 209q-111 111 -171 270t-60 356v20q0 197 60 356t171 270q209 209 545 209q335 0 544 -209q111 -111 171 -270t60 -356v-20q0 -197 -60 -356t-171 -270q-209 -209 -544 -209zM461 547q0 -129 76 -205.5t205 -76.5h271q129 0 205 76.5t76 205.5v545
q0 129 -76 205t-205 76h-271q-129 0 -205 -76t-76 -205v-545zM558 1774v213h639v-213h-639z" />
    <glyph glyph-name="omacron" unicode="&#x14d;" 
d="M659 -26q-120 0 -227.5 42t-182.5 117q-79 79 -120.5 191t-41.5 229v20q0 117 41.5 229t120.5 191q75 76 182 117.5t228 41.5q122 0 229.5 -41.5t182.5 -117.5q79 -79 120.5 -191t41.5 -229v-20q0 -117 -41.5 -229t-120.5 -191q-75 -76 -182.5 -117.5t-229.5 -41.5z
M341 1339v213h639v-213h-639zM418 364q0 -56 33.5 -89.5t89.5 -33.5h238q56 0 89.5 33.5t33.5 89.5v399q0 56 -33.5 89.5t-89.5 33.5h-238q-56 0 -89.5 -33.5t-33.5 -89.5v-399z" />
    <glyph glyph-name="Obreve" unicode="&#x14e;" horiz-adv-x="1755" 
d="M878 -26q-336 0 -545 209q-111 111 -171 270t-60 356v20q0 197 60 356t171 270q209 209 545 209q335 0 544 -209q111 -111 171 -270t60 -356v-20q0 -197 -60 -356t-171 -270q-209 -209 -544 -209zM461 547q0 -129 76 -205.5t205 -76.5h271q129 0 205 76.5t76 205.5v545
q0 129 -76 205t-205 76h-271q-129 0 -205 -76t-76 -205v-545zM523 1805v212h13q146 -74 342 -74q194 0 342 74h12v-212q-134 -62 -354 -62q-221 0 -355 62z" />
    <glyph glyph-name="obreve" unicode="&#x14f;" 
d="M659 -26q-120 0 -227.5 42t-182.5 117q-79 79 -120.5 191t-41.5 229v20q0 117 41.5 229t120.5 191q75 76 182 117.5t228 41.5q122 0 229.5 -41.5t182.5 -117.5q79 -79 120.5 -191t41.5 -229v-20q0 -117 -41.5 -229t-120.5 -191q-75 -76 -182.5 -117.5t-229.5 -41.5z
M296 1590v48h256v-82q0 -48 27 -75.5t76 -27.5h11q49 0 76 27.5t27 75.5v82h256v-48q0 -155 -98 -251t-267 -96t-266.5 96t-97.5 251zM418 364q0 -56 33.5 -89.5t89.5 -33.5h238q56 0 89.5 33.5t33.5 89.5v399q0 56 -33.5 89.5t-89.5 33.5h-238q-56 0 -89.5 -33.5
t-33.5 -89.5v-399z" />
    <glyph glyph-name="Ohungarumlaut" unicode="&#x150;" horiz-adv-x="1755" 
d="M878 -26q-336 0 -545 209q-111 111 -171 270t-60 356v20q0 197 60 356t171 270q209 209 545 209q335 0 544 -209q111 -111 171 -270t60 -356v-20q0 -197 -60 -356t-171 -270q-209 -209 -544 -209zM461 547q0 -129 76 -205.5t205 -76.5h271q129 0 205 76.5t76 205.5v545
q0 129 -76 205t-205 76h-271q-129 0 -205 -76t-76 -205v-545zM549 1749v371h299v-26l-71 -345h-228zM951 1749v371h299v-26l-70 -345h-229z" />
    <glyph glyph-name="ohungarumlaut" unicode="&#x151;" 
d="M659 -26q-120 0 -227.5 42t-182.5 117q-79 79 -120.5 191t-41.5 229v20q0 117 41.5 229t120.5 191q75 76 182 117.5t228 41.5q122 0 229.5 -41.5t182.5 -117.5q79 -79 120.5 -191t41.5 -229v-20q0 -117 -41.5 -229t-120.5 -191q-75 -76 -182.5 -117.5t-229.5 -41.5z
M327 1264v374h299v-26l-71 -348h-228zM418 364q0 -56 33.5 -89.5t89.5 -33.5h238q56 0 89.5 33.5t33.5 89.5v399q0 56 -33.5 89.5t-89.5 33.5h-238q-56 0 -89.5 -33.5t-33.5 -89.5v-399zM729 1264v374h299v-26l-71 -348h-228z" />
    <glyph glyph-name="OE" unicode="&#x152;" horiz-adv-x="2393" 
d="M887 0q-364 0 -566 200q-108 107 -163.5 267.5t-55.5 349.5v4q0 189 56 350.5t165 269.5q199 197 564 197h1419v-288h-752v-382h703v-279h-703v-400h752v-289h-1419zM461 570q0 -130 75.5 -205.5t205.5 -75.5h476v1061h-476q-130 0 -205.5 -76t-75.5 -206v-498z" />
    <glyph glyph-name="oe" unicode="&#x153;" horiz-adv-x="2128" 
d="M625 0q-243 0 -376 133q-79 79 -120.5 191t-41.5 229v20q0 117 41.5 229t120.5 191q132 133 376 133h889q236 0 365 -130q162 -161 162 -431q0 -46 -5 -86h-810v-134q0 -55 34 -89t89 -34h258q48 0 77.5 29.5t29.5 78.5v31h312v-12q-44 -126 -133 -215
q-134 -134 -377 -134h-891zM418 364q0 -56 33.5 -89.5t89.5 -33.5h240q56 0 89.5 33.5t33.5 89.5v399q0 56 -33.5 89.5t-89.5 33.5h-240q-56 0 -89.5 -33.5t-33.5 -89.5v-399zM1226 692h503v89q0 55 -34 89t-89 34h-257q-55 0 -89 -34t-34 -89v-89z" />
    <glyph glyph-name="Racute" unicode="&#x154;" horiz-adv-x="1516" 
d="M128 0v1638h705q125 0 232.5 -41.5t183.5 -117.5q72 -72 111.5 -164t39.5 -186v-20q0 -98 -42.5 -192t-115.5 -167q-76 -77 -173 -119l-49 -10l115 -139l314 -457v-25h-372l-359 568h-253v-568h-337zM337 1734v223l702 119h21v-242l-703 -100h-20zM465 845h454
q55 0 88.5 34t33.5 89v259q0 55 -33.5 89t-88.5 34h-454v-505z" />
    <glyph glyph-name="racute" unicode="&#x155;" horiz-adv-x="923" 
d="M118 0v1126h307v-118l119 90q99 44 216 44h106v-248h-328q-46 0 -74.5 -28t-28.5 -74v-792h-317zM384 1264v26l199 348h379v-26l-336 -348h-242z" />
    <glyph glyph-name="uni0156" unicode="&#x156;" horiz-adv-x="1516" 
d="M128 0v1638h705q125 0 232.5 -41.5t183.5 -117.5q72 -72 111.5 -164t39.5 -186v-20q0 -98 -42.5 -192t-115.5 -167q-76 -77 -173 -119l-49 -10l115 -139l314 -457v-25h-372l-359 568h-253v-568h-337zM465 845h454q55 0 88.5 34t33.5 89v259q0 55 -33.5 89t-88.5 34h-454
v-505zM542 -435v20l30 309h377v-21l-153 -308h-254z" />
    <glyph glyph-name="uni0157" unicode="&#x157;" horiz-adv-x="923" 
d="M118 0v1126h307v-118l119 90q99 44 216 44h106v-248h-328q-46 0 -74.5 -28t-28.5 -74v-792h-317zM216 -435v20l31 309h377v-21l-154 -308h-254z" />
    <glyph glyph-name="Rcaron" unicode="&#x158;" horiz-adv-x="1516" 
d="M128 0v1638h705q125 0 232.5 -41.5t183.5 -117.5q72 -72 111.5 -164t39.5 -186v-20q0 -98 -42.5 -192t-115.5 -167q-76 -77 -173 -119l-49 -10l115 -139l314 -457v-25h-372l-359 568h-253v-568h-337zM315 1835v221h15l370 -95l371 95h14v-221l-378 -97h-13zM465 845h454
q55 0 88.5 34t33.5 89v259q0 55 -33.5 89t-88.5 34h-454v-505z" />
    <glyph glyph-name="rcaron" unicode="&#x159;" horiz-adv-x="923" 
d="M118 0v1126h307v-118l119 90q99 44 216 44h106v-248h-328q-46 0 -74.5 -28t-28.5 -74v-792h-317zM113 1618v20h284l111 -176h4l116 176h278v-20l-270 -354h-252z" />
    <glyph glyph-name="Sacute" unicode="&#x15a;" horiz-adv-x="1481" 
d="M752 -26q-168 0 -302 47t-220 133q-65 65 -105.5 155.5t-42.5 192.5v20h322v-93q0 -75 44.5 -119.5t119.5 -44.5h360q66 0 104.5 39t38.5 105v55q0 43 -19 69.5t-63 41.5l-518 180q-171 60 -261 163.5t-90 244.5v21q0 82 35.5 164.5t101.5 148.5q167 167 480 167
q311 0 484 -171q139 -139 157 -342v-21h-322v79q0 76 -44.5 120t-119.5 44h-301q-66 0 -105 -38.5t-39 -104.5v-58q0 -85 83 -112l500 -173q182 -62 275.5 -166.5t93.5 -244.5v-12q0 -176 -137 -313q-177 -177 -510 -177zM379 1734v223l702 119h21v-242l-703 -100h-20z" />
    <glyph glyph-name="sacute" unicode="&#x15b;" horiz-adv-x="1167" 
d="M588 -26q-137 0 -241.5 36t-164.5 96q-43 43 -69.5 103t-30.5 120v12h285v-29q0 -37 22.5 -59.5t59.5 -22.5h279q27 0 43 16.5t16 43.5v28q0 44 -49 60l-389 129q-118 39 -185 112t-67 167v25q0 120 93 213q128 128 384 128q126 0 228 -35.5t164 -97.5q45 -45 73 -105.5
t36 -113.5v-13h-284v27q0 37 -22.5 59.5t-59.5 22.5h-258q-26 0 -42.5 -16t-16.5 -42v-30q0 -42 48 -60l413 -140q110 -37 169.5 -105.5t59.5 -153.5v-28q0 -56 -27.5 -115.5t-70.5 -103.5q-60 -59 -161.5 -93.5t-234.5 -34.5zM460 1264v26l198 348h379v-26l-336 -348h-241z
" />
    <glyph glyph-name="Scircumflex" unicode="&#x15c;" horiz-adv-x="1481" 
d="M752 -26q-168 0 -302 47t-220 133q-65 65 -105.5 155.5t-42.5 192.5v20h322v-93q0 -75 44.5 -119.5t119.5 -44.5h360q66 0 104.5 39t38.5 105v55q0 43 -19 69.5t-63 41.5l-518 180q-171 60 -261 163.5t-90 244.5v21q0 82 35.5 164.5t101.5 148.5q167 167 480 167
q311 0 484 -171q139 -139 157 -342v-21h-322v79q0 76 -44.5 120t-119.5 44h-301q-66 0 -105 -38.5t-39 -104.5v-58q0 -85 83 -112l500 -173q182 -62 275.5 -166.5t93.5 -244.5v-12q0 -176 -137 -313q-177 -177 -510 -177zM356 1739v221l379 97h13l378 -97v-221h-14l-371 95
l-370 -95h-15z" />
    <glyph glyph-name="scircumflex" unicode="&#x15d;" horiz-adv-x="1167" 
d="M588 -26q-137 0 -241.5 36t-164.5 96q-43 43 -69.5 103t-30.5 120v12h285v-29q0 -37 22.5 -59.5t59.5 -22.5h279q27 0 43 16.5t16 43.5v28q0 44 -49 60l-389 129q-118 39 -185 112t-67 167v25q0 120 93 213q128 128 384 128q126 0 228 -35.5t164 -97.5q45 -45 73 -105.5
t36 -113.5v-13h-284v27q0 37 -22.5 59.5t-59.5 22.5h-258q-26 0 -42.5 -16t-16.5 -42v-30q0 -42 48 -60l413 -140q110 -37 169.5 -105.5t59.5 -153.5v-28q0 -56 -27.5 -115.5t-70.5 -103.5q-60 -59 -161.5 -93.5t-234.5 -34.5zM187 1264v20l271 354h252l271 -354v-20h-285
l-110 176h-4l-116 -176h-279z" />
    <glyph glyph-name="Scedilla" unicode="&#x15e;" horiz-adv-x="1481" 
d="M474 -410v171h275q12 0 19.5 8t7.5 20v27q0 12 -7.5 19.5t-19.5 7.5h-167v145q-222 36 -352 166q-65 65 -105.5 155.5t-42.5 192.5v20h322v-93q0 -75 44.5 -119.5t119.5 -44.5h360q66 0 104.5 39t38.5 105v55q0 43 -19 69.5t-63 41.5l-518 180q-171 60 -261 163.5
t-90 244.5v21q0 82 35.5 164.5t101.5 148.5q167 167 480 167q311 0 484 -171q139 -139 157 -342v-21h-322v79q0 76 -44.5 120t-119.5 44h-301q-66 0 -105 -38.5t-39 -104.5v-58q0 -85 83 -112l500 -173q182 -62 275.5 -166.5t93.5 -244.5v-12q0 -176 -137 -313
q-134 -134 -363 -167v-31h24q83 0 132 -48.5t49 -131.5q0 -84 -49 -133.5t-132 -49.5h-449z" />
    <glyph glyph-name="scedilla" unicode="&#x15f;" horiz-adv-x="1167" 
d="M314 -410v171h275q12 0 19.5 8t7.5 20v27q0 12 -7.5 19.5t-19.5 7.5h-167v147q-154 32 -240 116q-43 43 -69.5 103t-30.5 120v12h285v-29q0 -37 22.5 -59.5t59.5 -22.5h279q27 0 43 16.5t16 43.5v28q0 44 -49 60l-389 129q-118 39 -185 112t-67 167v25q0 120 93 213
q128 128 384 128q126 0 228 -35.5t164 -97.5q45 -45 73 -105.5t36 -113.5v-13h-284v27q0 37 -22.5 59.5t-59.5 22.5h-258q-26 0 -42.5 -16t-16.5 -42v-30q0 -42 48 -60l413 -140q110 -37 169.5 -105.5t59.5 -153.5v-28q0 -56 -27.5 -115.5t-70.5 -103.5q-86 -86 -245 -115
v-34h24q83 0 132 -48.5t49 -131.5q0 -84 -49 -133.5t-132 -49.5h-449z" />
    <glyph glyph-name="Scaron" unicode="&#x160;" horiz-adv-x="1481" 
d="M752 -26q-168 0 -302 47t-220 133q-65 65 -105.5 155.5t-42.5 192.5v20h322v-93q0 -75 44.5 -119.5t119.5 -44.5h360q66 0 104.5 39t38.5 105v55q0 43 -19 69.5t-63 41.5l-518 180q-171 60 -261 163.5t-90 244.5v21q0 82 35.5 164.5t101.5 148.5q167 167 480 167
q311 0 484 -171q139 -139 157 -342v-21h-322v79q0 76 -44.5 120t-119.5 44h-301q-66 0 -105 -38.5t-39 -104.5v-58q0 -85 83 -112l500 -173q182 -62 275.5 -166.5t93.5 -244.5v-12q0 -176 -137 -313q-177 -177 -510 -177zM356 1835v221h15l370 -95l371 95h14v-221l-378 -97
h-13z" />
    <glyph glyph-name="scaron" unicode="&#x161;" horiz-adv-x="1167" 
d="M588 -26q-137 0 -241.5 36t-164.5 96q-43 43 -69.5 103t-30.5 120v12h285v-29q0 -37 22.5 -59.5t59.5 -22.5h279q27 0 43 16.5t16 43.5v28q0 44 -49 60l-389 129q-118 39 -185 112t-67 167v25q0 120 93 213q128 128 384 128q126 0 228 -35.5t164 -97.5q45 -45 73 -105.5
t36 -113.5v-13h-284v27q0 37 -22.5 59.5t-59.5 22.5h-258q-26 0 -42.5 -16t-16.5 -42v-30q0 -42 48 -60l413 -140q110 -37 169.5 -105.5t59.5 -153.5v-28q0 -56 -27.5 -115.5t-70.5 -103.5q-60 -59 -161.5 -93.5t-234.5 -34.5zM188 1618v20h285l111 -176h4l115 176h279v-20
l-270 -354h-252z" />
    <glyph glyph-name="uni0162" unicode="&#x162;" horiz-adv-x="1439" 
d="M551 0v1350h-490v288h1316v-288h-489v-1350h-18v-47h24q84 0 132.5 -48.5t48.5 -131.5q0 -84 -48.5 -133.5t-132.5 -49.5h-449v171h275q12 0 20 8t8 20v27q0 12 -8 19.5t-20 7.5h-167v157h-2z" />
    <glyph glyph-name="uni0163" unicode="&#x163;" horiz-adv-x="984" 
d="M415 -410v171h274q13 0 20.5 8t7.5 20v27q0 12 -7.5 19.5t-20.5 7.5h-167v170q-102 20 -161 77q-50 51 -72 127t-22 201v461h-236v247h236v367h318v-367h338v-247h-338v-549q0 -37 22.5 -59.5t59.5 -22.5h191v-248h-18v-47h23q84 0 132.5 -48.5t48.5 -131.5
q0 -84 -48.5 -133.5t-132.5 -49.5h-448z" />
    <glyph glyph-name="Tcaron" unicode="&#x164;" horiz-adv-x="1439" 
d="M551 0v1350h-490v288h1316v-288h-489v-1350h-337zM336 1835v221h14l371 -95l371 95h14v-221l-379 -97h-12z" />
    <glyph glyph-name="tcaron" unicode="&#x165;" horiz-adv-x="984" 
d="M691 0q-129 0 -205.5 21t-124.5 69q-50 51 -72 127t-22 201v461h-236v247h236v367h318v-367h338v-247h-338v-549q0 -37 22.5 -59.5t59.5 -22.5h191v-248h-167zM701 1264v374h360v-20l-136 -354h-224z" />
    <glyph glyph-name="Tbar" unicode="&#x166;" horiz-adv-x="1439" 
d="M551 0v705h-262v256h262v389h-490v288h1316v-288h-489v-389h262v-256h-262v-705h-337z" />
    <glyph glyph-name="tbar" unicode="&#x167;" horiz-adv-x="984" 
d="M691 0q-129 0 -205.5 21t-124.5 69q-50 51 -72 127t-22 201v79h-217v188h217v194h-236v247h236v367h318v-367h338v-247h-338v-194h295v-188h-295v-167q0 -37 22.5 -59.5t59.5 -22.5h191v-248h-167z" />
    <glyph glyph-name="Utilde" unicode="&#x168;" horiz-adv-x="1519" 
d="M769 -26q-311 0 -479 167q-82 80 -127 201t-45 259v1037h337v-1211q0 -75 44 -119.5t119 -44.5h308q75 0 119.5 44.5t44.5 119.5v1211h311v-1037q0 -143 -42 -267t-117 -199q-162 -161 -473 -161zM375 1764v131q0 63 37 99.5t102 36.5q41 0 128 -16l181 -37
q45 -10 74 -10q37 0 37 37v13h212v-131q0 -63 -37 -99t-102 -36q-46 0 -128 15l-182 37q-48 11 -73 11q-17 0 -27 -10t-10 -27v-14h-212z" />
    <glyph glyph-name="utilde" unicode="&#x169;" horiz-adv-x="1274" 
d="M1156 1126v-1126h-307v86l-93 -68q-90 -44 -195 -44q-90 0 -175 33.5t-147 95.5q-131 131 -131 361v662h317v-773q0 -50 31.5 -81t81.5 -31h188q50 0 81.5 31t31.5 81v773h317zM252 1328v131q0 63 37 99t102 36q46 0 128 -15l181 -37q45 -10 74 -10q37 0 37 37v13h212
v-131q0 -63 -37 -99t-102 -36q-46 0 -128 15l-182 37q-43 10 -73 10q-37 0 -37 -37v-13h-212z" />
    <glyph glyph-name="Umacron" unicode="&#x16a;" horiz-adv-x="1519" 
d="M769 -26q-311 0 -479 167q-82 80 -127 201t-45 259v1037h337v-1211q0 -75 44 -119.5t119 -44.5h308q75 0 119.5 44.5t44.5 119.5v1211h311v-1037q0 -143 -42 -267t-117 -199q-162 -161 -473 -161zM453 1774v213h639v-213h-639z" />
    <glyph glyph-name="umacron" unicode="&#x16b;" horiz-adv-x="1274" 
d="M1156 1126v-1126h-307v86l-93 -68q-90 -44 -195 -44q-90 0 -175 33.5t-147 95.5q-131 131 -131 361v662h317v-773q0 -50 31.5 -81t81.5 -31h188q50 0 81.5 31t31.5 81v773h317zM318 1339v213h639v-213h-639z" />
    <glyph glyph-name="Ubreve" unicode="&#x16c;" horiz-adv-x="1519" 
d="M769 -26q-311 0 -479 167q-82 80 -127 201t-45 259v1037h337v-1211q0 -75 44 -119.5t119 -44.5h308q75 0 119.5 44.5t44.5 119.5v1211h311v-1037q0 -143 -42 -267t-117 -199q-162 -161 -473 -161zM418 1805v212h12q146 -74 342 -74t342 74h12v-212q-134 -62 -354 -62
t-354 62z" />
    <glyph glyph-name="ubreve" unicode="&#x16d;" horiz-adv-x="1274" 
d="M1156 1126v-1126h-307v86l-93 -68q-90 -44 -195 -44q-90 0 -175 33.5t-147 95.5q-131 131 -131 361v662h317v-773q0 -50 31.5 -81t81.5 -31h188q50 0 81.5 31t31.5 81v773h317zM273 1590v48h256v-82q0 -48 27 -75.5t77 -27.5h10q50 0 76.5 27t26.5 76v82h256v-48
q0 -155 -97.5 -251t-266.5 -96t-267 96t-98 251z" />
    <glyph glyph-name="Uring" unicode="&#x16e;" horiz-adv-x="1519" 
d="M769 -26q-311 0 -479 167q-82 80 -127 201t-45 259v1037h337v-1211q0 -75 44 -119.5t119 -44.5h308q75 0 119.5 44.5t44.5 119.5v1211h311v-1037q0 -143 -42 -267t-117 -199q-162 -161 -473 -161zM430 1949q0 103 47 150q30 30 96.5 45t198.5 15t198.5 -15t96.5 -45
q47 -47 47 -150q0 -104 -47 -151q-30 -30 -96.5 -44.5t-198.5 -14.5t-198.5 14.5t-96.5 44.5q-47 47 -47 151zM671 1938q0 -23 13.5 -36.5t36.5 -13.5h105q23 0 36.5 13.5t13.5 36.5v27q0 23 -13.5 36.5t-36.5 13.5h-105q-23 0 -36.5 -13.5t-13.5 -36.5v-27z" />
    <glyph glyph-name="uring" unicode="&#x16f;" horiz-adv-x="1274" 
d="M1156 1126v-1126h-307v86l-93 -68q-90 -44 -195 -44q-90 0 -175 33.5t-147 95.5q-131 131 -131 361v662h317v-773q0 -50 31.5 -81t81.5 -31h188q50 0 81.5 31t31.5 81v773h317zM311 1454q0 98 53 151q59 59 274 59q213 0 274 -59q53 -53 53 -151q0 -99 -53 -151
q-60 -60 -274 -60q-216 0 -274 60q-53 52 -53 151zM534 1441q0 -23 12.5 -36t35.5 -13h113q22 0 34.5 13t12.5 36v26q0 23 -12.5 36t-34.5 13h-113q-22 0 -35 -13t-13 -36v-26z" />
    <glyph glyph-name="Uhungarumlaut" unicode="&#x170;" horiz-adv-x="1519" 
d="M769 -26q-311 0 -479 167q-82 80 -127 201t-45 259v1037h337v-1211q0 -75 44 -119.5t119 -44.5h308q75 0 119.5 44.5t44.5 119.5v1211h311v-1037q0 -143 -42 -267t-117 -199q-162 -161 -473 -161zM443 1749v371h299v-26l-70 -345h-229zM846 1749v371h299v-26l-71 -345
h-228z" />
    <glyph glyph-name="uhungarumlaut" unicode="&#x171;" horiz-adv-x="1274" 
d="M1156 1126v-1126h-307v86l-93 -68q-90 -44 -195 -44q-90 0 -175 33.5t-147 95.5q-131 131 -131 361v662h317v-773q0 -50 31.5 -81t81.5 -31h188q50 0 81.5 31t31.5 81v773h317zM304 1264v374h299v-26l-71 -348h-228zM707 1264v374h299v-26l-71 -348h-228z" />
    <glyph glyph-name="Uogonek" unicode="&#x172;" horiz-adv-x="1519" 
d="M790 -410q-116 0 -183 63.5t-67 164.5q0 80 55 147l17 22q-201 35 -322 154q-82 80 -127 201t-45 259v1037h337v-1211q0 -75 44 -119.5t119 -44.5h308q75 0 119.5 44.5t44.5 119.5v1211h311v-1037q0 -143 -42 -267t-117 -199q-121 -120 -325 -150l-39 -52
q-22 -25 -22 -59v-28q0 -21 12 -33t32 -12h86v-211h-196z" />
    <glyph glyph-name="uogonek" unicode="&#x173;" horiz-adv-x="1274" 
d="M1156 1126v-1126l-51 -67q-22 -26 -22 -59v-28q0 -21 12 -33t32 -12h86v-211h-196q-116 0 -183 63.5t-67 164.5q0 80 55 147l27 35v86l-93 -68q-90 -44 -195 -44q-90 0 -175 33.5t-147 95.5q-131 131 -131 361v662h317v-773q0 -50 31.5 -81t81.5 -31h188q50 0 81.5 31
t31.5 81v773h317z" />
    <glyph glyph-name="Wcircumflex" unicode="&#x174;" horiz-adv-x="2541" 
d="M599 0l-538 1618v20h345l381 -1172h5l385 1172h244l383 -1172h4l384 1172h287v-20l-539 -1618h-325l-342 1010h-4l-344 -1010h-326zM912 1739v221l379 97h13l378 -97v-221h-14l-371 95l-370 -95h-15z" />
    <glyph glyph-name="wcircumflex" unicode="&#x175;" horiz-adv-x="1986" 
d="M413 0l-367 1106v20h320l245 -798h4l254 798h299l247 -798h4l255 798h265v-20l-367 -1106h-354l-238 700h-4l-242 -700h-321zM605 1264v20l271 354h251l272 -354v-20h-285l-110 176h-5l-115 -176h-279z" />
    <glyph glyph-name="Ycircumflex" unicode="&#x176;" horiz-adv-x="1599" 
d="M633 0l-1 603l-571 1015v20h365l395 -717h4l393 717h320v-20l-569 -1012l1 -606h-337zM437 1739v221l379 97h12l379 -97v-221h-14l-371 95l-370 -95h-15z" />
    <glyph glyph-name="ycircumflex" unicode="&#x177;" horiz-adv-x="1200" 
d="M113 -420v248h300q48 0 60 40l44 132h-104l-367 1106v20h320l255 -824h4l264 824h265v-20l-409 -1232q-46 -141 -113 -208q-87 -86 -248 -86h-271zM239 1264v20l270 354h252l271 -354v-20h-284l-111 176h-4l-116 -176h-278z" />
    <glyph glyph-name="Ydieresis" unicode="&#x178;" horiz-adv-x="1599" 
d="M633 0l-1 603l-571 1015v20h365l395 -717h4l393 717h320v-20l-569 -1012l1 -606h-337zM501 1833v164q0 39 22 61.5t62 22.5h108q39 0 61.5 -22.5t22.5 -61.5v-164q0 -39 -22.5 -61.5t-61.5 -22.5h-108q-40 0 -62 22.5t-22 61.5zM869 1833v164q0 39 22.5 61.5t61.5 22.5
h109q39 0 61.5 -22.5t22.5 -61.5v-164q0 -39 -22.5 -61.5t-61.5 -22.5h-109q-39 0 -61.5 22.5t-22.5 61.5z" />
    <glyph glyph-name="Zacute" unicode="&#x179;" horiz-adv-x="1361" 
d="M92 0v282l793 1068l-2 4l-131 -4h-660v288h1177v-280l-793 -1069l2 -4l149 4h642v-289h-1177zM318 1734v223l703 119h20v-242l-702 -100h-21z" />
    <glyph glyph-name="zacute" unicode="&#x17a;" horiz-adv-x="1184" 
d="M104 0v261l619 601l-115 -4h-506v268h979v-250l-629 -612l114 4h515v-268h-977zM467 1264v26l199 348h378v-26l-335 -348h-242z" />
    <glyph glyph-name="Zdotaccent" unicode="&#x17b;" horiz-adv-x="1361" 
d="M92 0v282l793 1068l-2 4l-131 -4h-660v288h1177v-280l-793 -1069l2 -4l149 4h642v-289h-1177zM507 1844v142q0 44 25.5 69.5t69.5 25.5h159q43 0 69 -25.5t26 -69.5v-142q0 -44 -26 -69.5t-69 -25.5h-159q-44 0 -69.5 25.5t-25.5 69.5z" />
    <glyph glyph-name="zdotaccent" unicode="&#x17c;" horiz-adv-x="1184" 
d="M104 0v261l619 601l-115 -4h-506v268h979v-250l-629 -612l114 4h515v-268h-977zM417 1402v141q0 44 25.5 69.5t69.5 25.5h159q44 0 69.5 -25.5t25.5 -69.5v-141q0 -44 -25.5 -69.5t-69.5 -25.5h-159q-44 0 -69.5 25.5t-25.5 69.5z" />
    <glyph glyph-name="Zcaron" unicode="&#x17d;" horiz-adv-x="1361" 
d="M92 0v282l793 1068l-2 4l-131 -4h-660v288h1177v-280l-793 -1069l2 -4l149 4h642v-289h-1177zM297 1835v221h14l371 -95l371 95h14v-221l-379 -97h-12z" />
    <glyph glyph-name="zcaron" unicode="&#x17e;" horiz-adv-x="1184" 
d="M104 0v261l619 601l-115 -4h-506v268h979v-250l-629 -612l114 4h515v-268h-977zM195 1618v20h284l111 -176h4l116 176h278v-20l-270 -354h-252z" />
    <glyph glyph-name="florin" unicode="&#x192;" horiz-adv-x="1057" 
d="M56 0v266h195q42 0 68 26t26 68v345h-289v286h289v272q0 190 96 286q89 89 254 89h256v-266h-194q-43 0 -68.5 -26t-25.5 -68v-287h337v-286h-337v-329q0 -190 -97 -287q-89 -89 -254 -89h-256z" />
    <glyph glyph-name="uni01CD" unicode="&#x1cd;" horiz-adv-x="1657" 
d="M61 0v20l539 1618h458l537 -1618v-20h-344l-111 333h-669l-113 -333h-297zM444 1835v221h15l370 -95l371 95h14v-221l-378 -97h-13zM564 622h483l-154 465l-85 263h-4l-86 -263z" />
    <glyph glyph-name="uni01CE" unicode="&#x1ce;" horiz-adv-x="1238" 
d="M503 -26q-104 0 -191 32.5t-144 88.5q-43 44 -69.5 101t-26.5 116v21q0 52 23 104t64 93q91 93 262 114l397 48v151q0 28 -16.5 44.5t-44.5 16.5h-287q-28 0 -44.5 -16.5t-16.5 -44.5v-55h-303v21q23 128 108 213q130 130 401 130t399 -128q116 -116 116 -340v-684h-302
v91l-98 -75q-107 -42 -227 -42zM229 1618v20h285l111 -176h4l115 176h279v-20l-270 -354h-252zM399 282q0 -28 17 -45t45 -17h296q28 0 44.5 17t16.5 45v196l-362 -44q-26 -3 -41.5 -19t-15.5 -39v-94z" />
    <glyph glyph-name="uni01CF" unicode="&#x1cf;" horiz-adv-x="593" 
d="M128 0v1638h337v-1638h-337zM-86 1835v221h14l371 -95l371 95h14v-221l-379 -97h-12z" />
    <glyph glyph-name="uni01D0" unicode="&#x1d0;" horiz-adv-x="553" 
d="M118 0v1126h317v-1126h-317zM-121 1618v20h285l110 -176h5l115 176h279v-20l-271 -354h-251z" />
    <glyph glyph-name="uni01D1" unicode="&#x1d1;" horiz-adv-x="1755" 
d="M878 -26q-336 0 -545 209q-111 111 -171 270t-60 356v20q0 197 60 356t171 270q209 209 545 209q335 0 544 -209q111 -111 171 -270t60 -356v-20q0 -197 -60 -356t-171 -270q-209 -209 -544 -209zM461 547q0 -129 76 -205.5t205 -76.5h271q129 0 205 76.5t76 205.5v545
q0 129 -76 205t-205 76h-271q-129 0 -205 -76t-76 -205v-545zM494 1835v221h14l371 -95l370 95h15v-221l-379 -97h-13z" />
    <glyph glyph-name="uni01D2" unicode="&#x1d2;" 
d="M659 -26q-120 0 -227.5 42t-182.5 117q-79 79 -120.5 191t-41.5 229v20q0 117 41.5 229t120.5 191q75 76 182 117.5t228 41.5q122 0 229.5 -41.5t182.5 -117.5q79 -79 120.5 -191t41.5 -229v-20q0 -117 -41.5 -229t-120.5 -191q-75 -76 -182.5 -117.5t-229.5 -41.5z
M263 1618v20h285l110 -176h5l115 176h279v-20l-271 -354h-251zM418 364q0 -56 33.5 -89.5t89.5 -33.5h238q56 0 89.5 33.5t33.5 89.5v399q0 56 -33.5 89.5t-89.5 33.5h-238q-56 0 -89.5 -33.5t-33.5 -89.5v-399z" />
    <glyph glyph-name="uni01D3" unicode="&#x1d3;" horiz-adv-x="1519" 
d="M769 -26q-311 0 -479 167q-82 80 -127 201t-45 259v1037h337v-1211q0 -75 44 -119.5t119 -44.5h308q75 0 119.5 44.5t44.5 119.5v1211h311v-1037q0 -143 -42 -267t-117 -199q-162 -161 -473 -161zM387 1835v221h14l371 -95l371 95h14v-221l-379 -97h-12z" />
    <glyph glyph-name="uni01D4" unicode="&#x1d4;" horiz-adv-x="1274" 
d="M1156 1126v-1126h-307v86l-93 -68q-90 -44 -195 -44q-90 0 -175 33.5t-147 95.5q-131 131 -131 361v662h317v-773q0 -50 31.5 -81t81.5 -31h188q50 0 81.5 31t31.5 81v773h317zM242 1618v20h284l111 -176h4l116 176h278v-20l-270 -354h-252z" />
    <glyph glyph-name="uni01D5" unicode="&#x1d5;" horiz-adv-x="1519" 
d="M769 -26q-311 0 -479 167q-82 80 -127 201t-45 259v1037h337v-1211q0 -75 44 -119.5t119 -44.5h308q75 0 119.5 44.5t44.5 119.5v1211h311v-1037q0 -143 -42 -267t-117 -199q-162 -161 -473 -161zM450 1833v164q0 39 22 61.5t62 22.5h108q39 0 61.5 -22.5t22.5 -61.5
v-164q0 -39 -22.5 -61.5t-61.5 -22.5h-108q-40 0 -62 22.5t-22 61.5zM453 2216v213h639v-213h-639zM818 1833v164q0 39 22.5 61.5t61.5 22.5h109q39 0 61.5 -22.5t22.5 -61.5v-164q0 -39 -22.5 -61.5t-61.5 -22.5h-109q-39 0 -61.5 22.5t-22.5 61.5z" />
    <glyph glyph-name="uni01D6" unicode="&#x1d6;" horiz-adv-x="1274" 
d="M1156 1126v-1126h-307v86l-93 -68q-90 -44 -195 -44q-90 0 -175 33.5t-147 95.5q-131 131 -131 361v662h317v-773q0 -50 31.5 -81t81.5 -31h188q50 0 81.5 31t31.5 81v773h317zM315 1391v163q0 40 22.5 62t61.5 22h109q39 0 61.5 -22t22.5 -62v-163q0 -40 -22.5 -62
t-61.5 -22h-109q-39 0 -61.5 22t-22.5 62zM319 1774v213h639v-213h-639zM684 1391v163q0 40 22.5 62t61.5 22h109q39 0 61.5 -22t22.5 -62v-163q0 -40 -22.5 -62t-61.5 -22h-109q-39 0 -61.5 22t-22.5 62z" />
    <glyph glyph-name="uni01D7" unicode="&#x1d7;" horiz-adv-x="1519" 
d="M769 -26q-311 0 -479 167q-82 80 -127 201t-45 259v1037h337v-1211q0 -75 44 -119.5t119 -44.5h308q75 0 119.5 44.5t44.5 119.5v1211h311v-1037q0 -143 -42 -267t-117 -199q-162 -161 -473 -161zM410 2176v223l702 119h21v-242l-703 -100h-20zM450 1833v164
q0 39 22 61.5t62 22.5h108q39 0 61.5 -22.5t22.5 -61.5v-164q0 -39 -22.5 -61.5t-61.5 -22.5h-108q-40 0 -62 22.5t-22 61.5zM818 1833v164q0 39 22.5 61.5t61.5 22.5h109q39 0 61.5 -22.5t22.5 -61.5v-164q0 -39 -22.5 -61.5t-61.5 -22.5h-109q-39 0 -61.5 22.5t-22.5 61.5
z" />
    <glyph glyph-name="uni01D8" unicode="&#x1d8;" horiz-adv-x="1274" 
d="M1156 1126v-1126h-307v86l-93 -68q-90 -44 -195 -44q-90 0 -175 33.5t-147 95.5q-131 131 -131 361v662h317v-773q0 -50 31.5 -81t81.5 -31h188q50 0 81.5 31t31.5 81v773h317zM275 1734v223l703 119h20v-242l-702 -100h-21zM315 1391v163q0 40 22.5 62t61.5 22h109
q39 0 61.5 -22t22.5 -62v-163q0 -40 -22.5 -62t-61.5 -22h-109q-39 0 -61.5 22t-22.5 62zM684 1391v163q0 40 22.5 62t61.5 22h109q39 0 61.5 -22t22.5 -62v-163q0 -40 -22.5 -62t-61.5 -22h-109q-39 0 -61.5 22t-22.5 62z" />
    <glyph glyph-name="uni01D9" unicode="&#x1d9;" horiz-adv-x="1519" 
d="M769 -26q-311 0 -479 167q-82 80 -127 201t-45 259v1037h337v-1211q0 -75 44 -119.5t119 -44.5h308q75 0 119.5 44.5t44.5 119.5v1211h311v-1037q0 -143 -42 -267t-117 -199q-162 -161 -473 -161zM387 2277v222h14l371 -96l371 96h14v-222l-379 -97h-12zM450 1833v164
q0 39 22 61.5t62 22.5h108q39 0 61.5 -22.5t22.5 -61.5v-164q0 -39 -22.5 -61.5t-61.5 -22.5h-108q-40 0 -62 22.5t-22 61.5zM818 1833v164q0 39 22.5 61.5t61.5 22.5h109q39 0 61.5 -22.5t22.5 -61.5v-164q0 -39 -22.5 -61.5t-61.5 -22.5h-109q-39 0 -61.5 22.5t-22.5 61.5
z" />
    <glyph glyph-name="uni01DA" unicode="&#x1da;" horiz-adv-x="1274" 
d="M1156 1126v-1126h-307v86l-93 -68q-90 -44 -195 -44q-90 0 -175 33.5t-147 95.5q-131 131 -131 361v662h317v-773q0 -50 31.5 -81t81.5 -31h188q50 0 81.5 31t31.5 81v773h317zM254 1835v221h14l371 -95l371 95h14v-221l-379 -97h-12zM315 1391v163q0 40 22.5 62t61.5 22
h109q39 0 61.5 -22t22.5 -62v-163q0 -40 -22.5 -62t-61.5 -22h-109q-39 0 -61.5 22t-22.5 62zM684 1391v163q0 40 22.5 62t61.5 22h109q39 0 61.5 -22t22.5 -62v-163q0 -40 -22.5 -62t-61.5 -22h-109q-39 0 -61.5 22t-22.5 62z" />
    <glyph glyph-name="uni01DB" unicode="&#x1db;" horiz-adv-x="1519" 
d="M769 -26q-311 0 -479 167q-82 80 -127 201t-45 259v1037h337v-1211q0 -75 44 -119.5t119 -44.5h308q75 0 119.5 44.5t44.5 119.5v1211h311v-1037q0 -143 -42 -267t-117 -199q-162 -161 -473 -161zM410 2276v242h20l703 -119v-223h-21zM450 1833v164q0 39 22 61.5t62 22.5
h108q39 0 61.5 -22.5t22.5 -61.5v-164q0 -39 -22.5 -61.5t-61.5 -22.5h-108q-40 0 -62 22.5t-22 61.5zM818 1833v164q0 39 22.5 61.5t61.5 22.5h109q39 0 61.5 -22.5t22.5 -61.5v-164q0 -39 -22.5 -61.5t-61.5 -22.5h-109q-39 0 -61.5 22.5t-22.5 61.5z" />
    <glyph glyph-name="uni01DC" unicode="&#x1dc;" horiz-adv-x="1274" 
d="M1156 1126v-1126h-307v86l-93 -68q-90 -44 -195 -44q-90 0 -175 33.5t-147 95.5q-131 131 -131 361v662h317v-773q0 -50 31.5 -81t81.5 -31h188q50 0 81.5 31t31.5 81v773h317zM275 1834v242h21l702 -119v-223h-20zM315 1391v163q0 40 22.5 62t61.5 22h109q39 0 61.5 -22
t22.5 -62v-163q0 -40 -22.5 -62t-61.5 -22h-109q-39 0 -61.5 22t-22.5 62zM684 1391v163q0 40 22.5 62t61.5 22h109q39 0 61.5 -22t22.5 -62v-163q0 -40 -22.5 -62t-61.5 -22h-109q-39 0 -61.5 22t-22.5 62z" />
    <glyph glyph-name="Gcaron" unicode="&#x1e6;" horiz-adv-x="1698" 
d="M865 -26q-335 0 -537 202q-114 114 -170 279t-56 354v20q0 189 56 354.5t170 278.5q202 202 537 202q166 0 301 -52t229 -146q78 -78 127.5 -184.5t59.5 -205.5v-20h-341v56q0 121 -72.5 191t-197.5 70h-229q-129 0 -205 -76t-76 -205v-545q0 -129 76 -205.5t205 -76.5
h250q125 0 198 70.5t73 190.5v67h-389v278h721v-157q0 -160 -52.5 -305.5t-143.5 -236.5q-94 -94 -230 -146t-304 -52zM459 1835v221h14l371 -95l370 95h15v-221l-379 -97h-12z" />
    <glyph glyph-name="gcaron" unicode="&#x1e7;" horiz-adv-x="1361" 
d="M682 -435q-270 0 -416 146q-102 103 -124 228v20h318v-36q0 -41 25.5 -66.5t66.5 -25.5h270q47 0 75.5 28t28.5 75v199l8 60l-90 -66q-111 -52 -231 -52q-224 0 -371 148q-155 154 -155 380v21q0 106 39 205t116 176q147 147 371 147q116 0 231 -52l92 -65l-5 91h312
v-1007q0 -265 -145 -410q-144 -144 -416 -144zM297 1618v20h285l110 -176h4l116 176h279v-20l-271 -354h-252zM418 464q0 -57 33 -90t90 -33h269q57 0 90 33t33 90v299q0 57 -33 90t-90 33h-269q-57 0 -90 -33t-33 -90v-299z" />
    <glyph glyph-name="uni01EA" unicode="&#x1ea;" horiz-adv-x="1755" 
d="M1013 265q129 0 205 76.5t76 205.5v545q0 129 -76 205t-205 76h-271q-129 0 -205 -76t-76 -205v-545q0 -129 76 -205.5t205 -76.5h271zM102 809v20q0 197 60 356t171 270q209 209 545 209q335 0 544 -209q111 -111 171 -270t60 -356v-20q0 -197 -60 -356t-171 -270
q-148 -148 -363 -192l-44 -58q-22 -25 -22 -59v-28q0 -21 12 -33t32 -12h86v-211h-196q-116 0 -183 63.5t-67 164.5q0 80 55 147l14 18q-248 35 -413 200q-111 111 -171 270t-60 356z" />
    <glyph glyph-name="uni01EB" unicode="&#x1eb;" 
d="M779 241q56 0 89.5 33.5t33.5 89.5v399q0 56 -33.5 89.5t-89.5 33.5h-238q-56 0 -89.5 -33.5t-33.5 -89.5v-399q0 -56 33.5 -89.5t89.5 -33.5h238zM87 553v20q0 117 41.5 229t120.5 191q75 76 182 117.5t228 41.5q122 0 229.5 -41.5t182.5 -117.5q79 -79 120.5 -191
t41.5 -229v-20q0 -117 -41.5 -229t-120.5 -191q-94 -96 -238 -136l-50 -64q-21 -25 -21 -59v-28q0 -21 12 -33t32 -12h86v-211h-197q-116 0 -183 63.5t-67 164.5q0 79 56 147l18 24q-163 37 -270 144q-79 79 -120.5 191t-41.5 229z" />
    <glyph glyph-name="Aringacute" unicode="&#x1fa;" horiz-adv-x="1657" 
d="M61 0v20l539 1618h458l537 -1618v-20h-344l-111 333h-669l-113 -333h-297zM466 2252v223l702 119h21v-242l-703 -100h-20zM486 1949q0 102 48 150q30 30 96 45t198 15t198.5 -15t96.5 -45q47 -47 47 -150q0 -104 -47 -151q-30 -30 -96 -44.5t-199 -14.5
q-132 0 -198.5 14.5t-95.5 44.5q-48 48 -48 151zM564 622h483l-154 465l-85 263h-4l-86 -263zM727 1938q0 -23 13.5 -36.5t36.5 -13.5h106q22 0 35.5 13.5t13.5 36.5v27q0 23 -13 36.5t-36 13.5h-106q-23 0 -36.5 -13.5t-13.5 -36.5v-27z" />
    <glyph glyph-name="aringacute" unicode="&#x1fb;" horiz-adv-x="1238" 
d="M503 -26q-104 0 -191 32.5t-144 88.5q-43 44 -69.5 101t-26.5 116v21q0 52 23 104t64 93q91 93 262 114l397 48v151q0 28 -16.5 44.5t-44.5 16.5h-287q-28 0 -44.5 -16.5t-16.5 -44.5v-55h-303v21q23 128 108 213q130 130 401 130t399 -128q116 -116 116 -340v-684h-302
v91l-98 -75q-107 -42 -227 -42zM264 1744v223l703 119h20v-242l-702 -100h-21zM300 1454q0 99 52 151q61 59 275 59q213 0 274 -59q52 -52 52 -151q0 -100 -52 -151q-60 -60 -274 -60q-215 0 -275 60q-52 51 -52 151zM399 282q0 -28 17 -45t45 -17h296q28 0 44.5 17t16.5 45
v196l-362 -44q-26 -3 -41.5 -19t-15.5 -39v-94zM522 1441q0 -23 13 -36t35 -13h114q22 0 34.5 13t12.5 36v26q0 23 -12.5 36t-34.5 13h-114q-22 0 -35 -13.5t-13 -35.5v-26z" />
    <glyph glyph-name="AEacute" unicode="&#x1fc;" horiz-adv-x="2274" 
d="M61 0v20l823 1618h1303v-288h-751v-382h702v-279h-702v-400h751v-289h-1088v318h-512l-164 -318h-362zM745 636h354v693h-5l-115 -242zM1078 1734v223l703 119h20v-242l-702 -100h-21z" />
    <glyph glyph-name="aeacute" unicode="&#x1fd;" horiz-adv-x="2033" 
d="M546 0q-283 0 -378 95q-96 98 -96 226v4q0 120 87 205q91 93 262 114l397 48v151q0 28 -16.5 44.5t-44.5 16.5h-287q-28 0 -44.5 -16.5t-16.5 -44.5v-55h-303v5q6 57 33 119t75 110q104 104 396 104h772q272 0 402 -130q162 -162 162 -431q0 -50 -6 -86h-807v-134
q0 -55 33.5 -89t88.5 -34h256q49 0 78.5 29.5t29.5 78.5v31h312v-12q-44 -126 -133 -215q-134 -134 -421 -134h-831zM399 282q0 -28 17 -45t45 -17h296q28 0 44.5 17t16.5 45v196l-362 -44q-26 -3 -41.5 -19t-15.5 -39v-94zM878 1264v26l198 348h379v-26l-336 -348h-241z
M1133 692h500v89q0 55 -33.5 89t-89.5 34h-255q-55 0 -88.5 -34t-33.5 -89v-89z" />
    <glyph glyph-name="Oslashacute" unicode="&#x1fe;" horiz-adv-x="1755" 
d="M878 -26q-336 0 -545 209q-111 111 -171 270t-60 356v20q0 197 60 356t171 270q209 209 545 209q335 0 544 -209q111 -111 171 -270t60 -356v-20q0 -197 -60 -356t-171 -270q-209 -209 -544 -209zM461 675l808 547q-32 72 -98 111.5t-158 39.5h-271q-129 0 -205 -76
t-76 -205v-417zM486 418q31 -73 97.5 -113t158.5 -40h271q129 0 205 76.5t76 205.5v419zM515 1734v223l703 119h20v-242l-702 -100h-21z" />
    <glyph glyph-name="oslashacute" unicode="&#x1ff;" 
d="M659 -26q-120 0 -227.5 42t-182.5 117q-79 79 -120.5 191t-41.5 229v20q0 117 41.5 229t120.5 191q75 76 182 117.5t228 41.5q122 0 229.5 -41.5t182.5 -117.5q79 -79 120.5 -191t41.5 -229v-20q0 -117 -41.5 -229t-120.5 -191q-75 -76 -182.5 -117.5t-229.5 -41.5z
M418 530l482 261q-8 44 -40 69.5t-81 25.5h-238q-56 0 -89.5 -33.5t-33.5 -89.5v-233zM420 336q8 -44 40 -69.5t81 -25.5h238q56 0 89.5 33.5t33.5 89.5v232zM536 1264v26l198 348h379v-26l-336 -348h-241z" />
    <glyph glyph-name="uni0218" unicode="&#x218;" horiz-adv-x="1481" 
d="M752 -26q-168 0 -302 47t-220 133q-65 65 -105.5 155.5t-42.5 192.5v20h322v-93q0 -75 44.5 -119.5t119.5 -44.5h360q66 0 104.5 39t38.5 105v55q0 43 -19 69.5t-63 41.5l-518 180q-171 60 -261 163.5t-90 244.5v21q0 82 35.5 164.5t101.5 148.5q167 167 480 167
q311 0 484 -171q139 -139 157 -342v-21h-322v79q0 76 -44.5 120t-119.5 44h-301q-66 0 -105 -38.5t-39 -104.5v-58q0 -85 83 -112l500 -173q182 -62 275.5 -166.5t93.5 -244.5v-12q0 -176 -137 -313q-177 -177 -510 -177zM525 -435v20l31 309h377v-21l-154 -308h-254z" />
    <glyph glyph-name="uni0219" unicode="&#x219;" horiz-adv-x="1167" 
d="M588 -26q-137 0 -241.5 36t-164.5 96q-43 43 -69.5 103t-30.5 120v12h285v-29q0 -37 22.5 -59.5t59.5 -22.5h279q27 0 43 16.5t16 43.5v28q0 44 -49 60l-389 129q-118 39 -185 112t-67 167v25q0 120 93 213q128 128 384 128q126 0 228 -35.5t164 -97.5q45 -45 73 -105.5
t36 -113.5v-13h-284v27q0 37 -22.5 59.5t-59.5 22.5h-258q-26 0 -42.5 -16t-16.5 -42v-30q0 -42 48 -60l413 -140q110 -37 169.5 -105.5t59.5 -153.5v-28q0 -56 -27.5 -115.5t-70.5 -103.5q-60 -59 -161.5 -93.5t-234.5 -34.5zM366 -435v20l30 309h377v-21l-153 -308h-254z
" />
    <glyph glyph-name="uni021A" unicode="&#x21a;" horiz-adv-x="1439" 
d="M551 0v1350h-490v288h1316v-288h-489v-1350h-337zM497 -435v20l30 309h377v-21l-153 -308h-254z" />
    <glyph glyph-name="uni021B" unicode="&#x21b;" horiz-adv-x="984" 
d="M691 0q-129 0 -205.5 21t-124.5 69q-50 51 -72 127t-22 201v461h-236v247h236v367h318v-367h338v-247h-338v-549q0 -37 22.5 -59.5t59.5 -22.5h191v-248h-167zM466 -435v20l31 309h376v-21l-153 -308h-254z" />
    <glyph glyph-name="uni0232" unicode="&#x232;" horiz-adv-x="1599" 
d="M633 0l-1 603l-571 1015v20h365l395 -717h4l393 717h320v-20l-569 -1012l1 -606h-337zM504 1774v213h639v-213h-639z" />
    <glyph glyph-name="uni0233" unicode="&#x233;" horiz-adv-x="1200" 
d="M113 -420v248h300q48 0 60 40l44 132h-104l-367 1106v20h320l255 -824h4l264 824h265v-20l-409 -1232q-46 -141 -113 -208q-87 -86 -248 -86h-271zM316 1339v213h639v-213h-639z" />
    <glyph glyph-name="uni0237" unicode="&#x237;" horiz-adv-x="553" 
d="M-23 -410v267h43q44 0 71 26.5t27 70.5v1172h317v-1088q0 -213 -123 -336q-110 -112 -294 -112h-41z" />
    <glyph glyph-name="circumflex" unicode="&#x2c6;" 
d="M263 1264v20l271 354h251l272 -354v-20h-285l-110 176h-5l-115 -176h-279z" />
    <glyph glyph-name="caron" unicode="&#x2c7;" 
d="M1057 1638v-20l-271 -354h-251l-272 354v20h285l110 -176h5l115 176h279z" />
    <glyph glyph-name="breve" unicode="&#x2d8;" 
d="M677 1243q-169 0 -267 96t-98 251v48h256v-82q0 -48 27 -75.5t77 -27.5h10q50 0 76.5 27t26.5 76v82h256v-48q0 -155 -97.5 -251t-266.5 -96z" />
    <glyph glyph-name="dotaccent" unicode="&#x2d9;" 
d="M590 1307q-44 0 -69.5 25.5t-25.5 69.5v141q0 44 25.5 69.5t69.5 25.5h159q44 0 69.5 -25.5t25.5 -69.5v-141q0 -44 -25.5 -69.5t-69.5 -25.5h-159z" />
    <glyph glyph-name="ring" unicode="&#x2da;" 
d="M687 1243q-214 0 -274 60q-53 52 -53 151q0 98 53 151q61 59 274 59q214 0 275 -59q52 -53 52 -151q0 -99 -52 -151q-60 -60 -275 -60zM583 1441q0 -23 12.5 -36t35.5 -13h113q22 0 35 13t13 36v26q0 22 -13 35.5t-35 13.5h-113q-22 0 -35 -13t-13 -36v-26z" />
    <glyph glyph-name="ogonek" unicode="&#x2db;" 
d="M566 -410q-116 0 -183 63.5t-67 164.5q0 79 56 147l26 35h308l-52 -67q-21 -25 -21 -59v-28q0 -21 12 -33t32 -12h86v-211h-197z" />
    <glyph glyph-name="tilde" unicode="&#x2dc;" 
d="M906 1316q-46 0 -128 15l-181 37q-45 10 -74 10q-17 0 -27 -10t-10 -27v-13h-212v131q0 62 37.5 98.5t102.5 36.5q46 0 128 -15l181 -37q45 -10 74 -10q17 0 27 10t10 27v13h212v-131q0 -62 -37.5 -98.5t-102.5 -36.5z" />
    <glyph glyph-name="hungarumlaut" unicode="&#x2dd;" 
d="M745 1264v374h299v-26l-70 -348h-229zM343 1264v374h299v-26l-71 -348h-228z" />
    <glyph glyph-name="Wgrave" unicode="&#x1e80;" horiz-adv-x="2541" 
d="M599 0l-538 1618v20h345l381 -1172h5l385 1172h244l383 -1172h4l384 1172h287v-20l-539 -1618h-325l-342 1010h-4l-344 -1010h-326zM935 1834v242h20l703 -119v-223h-21z" />
    <glyph glyph-name="wgrave" unicode="&#x1e81;" horiz-adv-x="1986" 
d="M413 0l-367 1106v20h320l245 -798h4l254 798h299l247 -798h4l255 798h265v-20l-367 -1106h-354l-238 700h-4l-242 -700h-321zM562 1612v26h379l199 -348v-26h-242z" />
    <glyph glyph-name="Wacute" unicode="&#x1e82;" horiz-adv-x="2541" 
d="M599 0l-538 1618v20h345l381 -1172h5l385 1172h244l383 -1172h4l384 1172h287v-20l-539 -1618h-325l-342 1010h-4l-344 -1010h-326zM935 1734v223l702 119h21v-242l-703 -100h-20z" />
    <glyph glyph-name="wacute" unicode="&#x1e83;" horiz-adv-x="1986" 
d="M413 0l-367 1106v20h320l245 -798h4l254 798h299l247 -798h4l255 798h265v-20l-367 -1106h-354l-238 700h-4l-242 -700h-321zM878 1264v26l198 348h379v-26l-336 -348h-241z" />
    <glyph glyph-name="Wdieresis" unicode="&#x1e84;" horiz-adv-x="2541" 
d="M599 0l-538 1618v20h345l381 -1172h5l385 1172h244l383 -1172h4l384 1172h287v-20l-539 -1618h-325l-342 1010h-4l-344 -1010h-326zM976 1833v164q0 39 22.5 61.5t61.5 22.5h108q40 0 62 -22.5t22 -61.5v-164q0 -39 -22 -61.5t-62 -22.5h-108q-39 0 -61.5 22.5
t-22.5 61.5zM1345 1833v164q0 39 22 61.5t61 22.5h109q39 0 61.5 -22.5t22.5 -61.5v-164q0 -39 -22.5 -61.5t-61.5 -22.5h-109q-39 0 -61 22.5t-22 61.5z" />
    <glyph glyph-name="wdieresis" unicode="&#x1e85;" horiz-adv-x="1986" 
d="M413 0l-367 1106v20h320l245 -798h4l254 798h299l247 -798h4l255 798h265v-20l-367 -1106h-354l-238 700h-4l-242 -700h-321zM680 1391v163q0 40 22.5 62t61.5 22h108q40 0 62 -22t22 -62v-163q0 -40 -22 -62t-62 -22h-108q-39 0 -61.5 22t-22.5 62zM1049 1391v163
q0 40 22 62t62 22h108q39 0 61.5 -22t22.5 -62v-163q0 -40 -22.5 -62t-61.5 -22h-108q-40 0 -62 22t-22 62z" />
    <glyph glyph-name="uni1EA0" unicode="&#x1ea0;" horiz-adv-x="1657" 
d="M61 0v20l539 1618h458l537 -1618v-20h-344l-111 333h-669l-113 -333h-297zM564 622h483l-154 465l-85 263h-4l-86 -263zM636 -343v141q0 44 25.5 70t69.5 26h159q44 0 69.5 -26t25.5 -70v-141q0 -43 -25.5 -69t-69.5 -26h-159q-43 0 -69 26t-26 69z" />
    <glyph glyph-name="uni1EA1" unicode="&#x1ea1;" horiz-adv-x="1238" 
d="M503 -26q-104 0 -191 32.5t-144 88.5q-43 44 -69.5 101t-26.5 116v21q0 52 23 104t64 93q91 93 262 114l397 48v151q0 28 -16.5 44.5t-44.5 16.5h-287q-28 0 -44.5 -16.5t-16.5 -44.5v-55h-303v21q23 128 108 213q130 130 401 130t399 -128q116 -116 116 -340v-684h-302
v91l-98 -75q-107 -42 -227 -42zM399 282q0 -28 17 -45t45 -17h296q28 0 44.5 17t16.5 45v196l-362 -44q-26 -3 -41.5 -19t-15.5 -39v-94zM435 -343v141q0 44 25.5 70t69.5 26h159q44 0 69.5 -26t25.5 -70v-141q0 -44 -25.5 -69.5t-69.5 -25.5h-159q-44 0 -69.5 26t-25.5 69z
" />
    <glyph glyph-name="uni1EB8" unicode="&#x1eb8;" horiz-adv-x="1304" 
d="M128 0v1638h1089v-288h-752v-382h702v-279h-702v-400h752v-289h-1089zM486 -343v141q0 44 26 70t70 26h158q44 0 70 -26t26 -70v-141q0 -44 -26 -69.5t-70 -25.5h-158q-44 0 -70 25.5t-26 69.5z" />
    <glyph glyph-name="uni1EB9" unicode="&#x1eb9;" horiz-adv-x="1308" 
d="M660 -26q-127 0 -233 41t-179 115q-77 75 -119 187t-42 236v20q0 124 41.5 235.5t118.5 186.5q72 74 178 115.5t234 41.5q246 0 400 -156q162 -162 162 -431q0 -50 -6 -86h-807v-134q0 -55 33.5 -89t88.5 -34h256q49 0 78.5 29.5t29.5 78.5v31h312v-12
q-44 -126 -133 -215q-160 -160 -413 -160zM408 692h500v89q0 55 -34 89t-89 34h-255q-55 0 -88.5 -34t-33.5 -89v-89zM480 -343v141q0 44 25.5 70t69.5 26h159q44 0 69.5 -26t25.5 -70v-141q0 -44 -25.5 -69.5t-69.5 -25.5h-159q-43 0 -69 26t-26 69z" />
    <glyph glyph-name="uni1EBC" unicode="&#x1ebc;" horiz-adv-x="1304" 
d="M128 0v1638h1089v-288h-752v-382h702v-279h-702v-400h752v-289h-1089zM274 1764v131q0 63 37.5 99.5t102.5 36.5q41 0 128 -16l181 -37q45 -10 74 -10q17 0 27 10t10 27v13h212v-131q0 -62 -37.5 -98.5t-102.5 -36.5q-46 0 -128 15l-181 37q-49 11 -74 11
q-17 0 -27 -10.5t-10 -26.5v-14h-212z" />
    <glyph glyph-name="uni1EBD" unicode="&#x1ebd;" horiz-adv-x="1308" 
d="M660 -26q-127 0 -233 41t-179 115q-77 75 -119 187t-42 236v20q0 124 41.5 235.5t118.5 186.5q72 74 178 115.5t234 41.5q246 0 400 -156q162 -162 162 -431q0 -50 -6 -86h-807v-134q0 -55 33.5 -89t88.5 -34h256q49 0 78.5 29.5t29.5 78.5v31h312v-12
q-44 -126 -133 -215q-160 -160 -413 -160zM274 1328v131q0 62 37.5 98.5t102.5 36.5q46 0 128 -15l181 -37q45 -10 74 -10q17 0 27 10t10 27v13h212v-131q0 -62 -37.5 -98.5t-102.5 -36.5q-46 0 -128 15l-181 37q-45 10 -74 10q-17 0 -27 -10t-10 -27v-13h-212zM408 692h500
v89q0 55 -34 89t-89 34h-255q-55 0 -88.5 -34t-33.5 -89v-89z" />
    <glyph glyph-name="uni1ECA" unicode="&#x1eca;" horiz-adv-x="593" 
d="M128 0v1638h337v-1638h-337zM118 -343v141q0 44 25.5 70t69.5 26h159q44 0 69.5 -26t25.5 -70v-141q0 -43 -25.5 -69t-69.5 -26h-159q-43 0 -69 26t-26 69z" />
    <glyph glyph-name="uni1ECB" unicode="&#x1ecb;" horiz-adv-x="553" 
d="M118 0v1126h317v-1126h-317zM95 -343v141q0 44 25.5 70t69.5 26h159q44 0 69.5 -26t25.5 -70v-141q0 -44 -25.5 -69.5t-69.5 -25.5h-159q-44 0 -69.5 26t-25.5 69zM101 1402v141q0 44 26 69.5t70 25.5h158q44 0 70 -25.5t26 -69.5v-141q0 -44 -26 -69.5t-70 -25.5h-158
q-44 0 -70 25.5t-26 69.5z" />
    <glyph glyph-name="uni1ECC" unicode="&#x1ecc;" horiz-adv-x="1755" 
d="M878 -26q-336 0 -545 209q-111 111 -171 270t-60 356v20q0 197 60 356t171 270q209 209 545 209q335 0 544 -209q111 -111 171 -270t60 -356v-20q0 -197 -60 -356t-171 -270q-209 -209 -544 -209zM461 547q0 -129 76 -205.5t205 -76.5h271q129 0 205 76.5t76 205.5v545
q0 129 -76 205t-205 76h-271q-129 0 -205 -76t-76 -205v-545zM697 -343v141q0 44 26 70t70 26h158q44 0 70 -26t26 -70v-141q0 -44 -26 -69.5t-70 -25.5h-158q-44 0 -70 25.5t-26 69.5z" />
    <glyph glyph-name="uni1ECD" unicode="&#x1ecd;" 
d="M659 -26q-120 0 -227.5 42t-182.5 117q-79 79 -120.5 191t-41.5 229v20q0 117 41.5 229t120.5 191q75 76 182 117.5t228 41.5q122 0 229.5 -41.5t182.5 -117.5q79 -79 120.5 -191t41.5 -229v-20q0 -117 -41.5 -229t-120.5 -191q-75 -76 -182.5 -117.5t-229.5 -41.5z
M418 364q0 -56 33.5 -89.5t89.5 -33.5h238q56 0 89.5 33.5t33.5 89.5v399q0 56 -33.5 89.5t-89.5 33.5h-238q-56 0 -89.5 -33.5t-33.5 -89.5v-399zM480 -343v141q0 44 25.5 70t69.5 26h159q44 0 69.5 -26t25.5 -70v-141q0 -44 -25.5 -69.5t-69.5 -25.5h-159q-43 0 -69 26
t-26 69z" />
    <glyph glyph-name="uni1EE4" unicode="&#x1ee4;" horiz-adv-x="1519" 
d="M769 -26q-311 0 -479 167q-82 80 -127 201t-45 259v1037h337v-1211q0 -75 44 -119.5t119 -44.5h308q75 0 119.5 44.5t44.5 119.5v1211h311v-1037q0 -143 -42 -267t-117 -199q-162 -161 -473 -161zM587 -343v141q0 44 25.5 70t69.5 26h159q44 0 69.5 -26t25.5 -70v-141
q0 -43 -26 -69t-69 -26h-159q-44 0 -69.5 26t-25.5 69z" />
    <glyph glyph-name="uni1EE5" unicode="&#x1ee5;" horiz-adv-x="1274" 
d="M1156 1126v-1126h-307v86l-93 -68q-90 -44 -195 -44q-90 0 -175 33.5t-147 95.5q-131 131 -131 361v662h317v-773q0 -50 31.5 -81t81.5 -31h188q50 0 81.5 31t31.5 81v773h317zM468 -343v141q0 44 25.5 70t69.5 26h159q44 0 69.5 -26t25.5 -70v-141q0 -43 -25.5 -69
t-69.5 -26h-159q-43 0 -69 26t-26 69z" />
    <glyph glyph-name="Ygrave" unicode="&#x1ef2;" horiz-adv-x="1599" 
d="M633 0l-1 603l-571 1015v20h365l395 -717h4l393 717h320v-20l-569 -1012l1 -606h-337zM460 1834v242h20l703 -119v-223h-21z" />
    <glyph glyph-name="ygrave" unicode="&#x1ef3;" horiz-adv-x="1200" 
d="M113 -420v248h300q48 0 60 40l44 132h-104l-367 1106v20h320l255 -824h4l264 824h265v-20l-409 -1232q-46 -141 -113 -208q-87 -86 -248 -86h-271zM196 1612v26h378l199 -348v-26h-242z" />
    <glyph glyph-name="uni1EF8" unicode="&#x1ef8;" horiz-adv-x="1599" 
d="M633 0l-1 603l-571 1015v20h365l395 -717h4l393 717h320v-20l-569 -1012l1 -606h-337zM424 1764v131q0 63 37 99.5t102 36.5q41 0 128 -16l181 -37q45 -10 74 -10q37 0 37 37v13h212v-131q0 -63 -37 -99t-102 -36q-46 0 -128 15l-182 37q-48 11 -73 11q-17 0 -27 -10
t-10 -27v-14h-212z" />
    <glyph glyph-name="uni1EF9" unicode="&#x1ef9;" horiz-adv-x="1200" 
d="M113 -420v248h300q48 0 60 40l44 132h-104l-367 1106v20h320l255 -824h4l264 824h265v-20l-409 -1232q-46 -141 -113 -208q-87 -86 -248 -86h-271zM250 1328v131q0 63 37 99t102 36q46 0 128 -15l181 -37q45 -10 74 -10q37 0 37 37v13h212v-131q0 -63 -37 -99t-102 -36
q-46 0 -128 15l-182 37q-43 10 -73 10q-37 0 -37 -37v-13h-212z" />
    <glyph glyph-name="endash" unicode="&#x2013;" horiz-adv-x="1237" 
d="M123 650v248h991v-248h-991z" />
    <glyph glyph-name="emdash" unicode="&#x2014;" horiz-adv-x="1679" 
d="M123 650v248h1433v-248h-1433z" />
    <glyph glyph-name="quoteleft" unicode="&#x2018;" horiz-adv-x="604" 
d="M387 1638l4 -4v-321h95v-297q0 -16 -9.5 -25.5t-24.5 -9.5h-138q-91 0 -143.5 53.5t-52.5 152.5v112q0 165 93 260q72 72 176 79z" />
    <glyph glyph-name="quoteright" unicode="&#x2019;" horiz-adv-x="604" 
d="M217 981l-4 4v322h-95v297q0 15 9.5 24.5t25.5 9.5h137q92 0 144 -53t52 -152v-113q0 -82 -25.5 -149.5t-67.5 -109.5q-74 -74 -176 -80z" />
    <glyph glyph-name="quotesinglbase" unicode="&#x201a;" horiz-adv-x="604" 
d="M217 -326l-4 4v322h-95v297q0 15 9.5 25t25.5 10h137q92 0 144 -53.5t52 -152.5v-113q0 -164 -93 -259q-74 -74 -176 -80z" />
    <glyph glyph-name="quotedblleft" unicode="&#x201c;" horiz-adv-x="1061" 
d="M844 1638l4 -4v-321h95v-297q0 -16 -9.5 -25.5t-25.5 -9.5h-137q-92 0 -144.5 53.5t-52.5 152.5v112q0 82 25.5 149.5t68.5 110.5q73 73 176 79zM118 1187v112q0 165 93 260q72 72 176 79l4 -4v-321h95v-297q0 -16 -9.5 -25.5t-24.5 -9.5h-138q-91 0 -143.5 53.5
t-52.5 152.5z" />
    <glyph glyph-name="quotedblright" unicode="&#x201d;" horiz-adv-x="1061" 
d="M217 981l-4 4v322h-95v297q0 15 9.5 24.5t25.5 9.5h137q92 0 144 -53t52 -152v-113q0 -82 -25.5 -149.5t-67.5 -109.5q-74 -74 -176 -80zM574 1307v297q0 15 10 24.5t25 9.5h137q92 0 144.5 -53.5t52.5 -151.5v-113q0 -82 -25.5 -149.5t-67.5 -109.5q-73 -73 -176 -80
l-4 4v322h-96z" />
    <glyph glyph-name="quotedblbase" unicode="&#x201e;" horiz-adv-x="1061" 
d="M674 -326l-4 4v322h-96v297q0 15 10 25t25 10h137q92 0 144.5 -53.5t52.5 -152.5v-113q0 -164 -93 -259q-73 -73 -176 -80zM118 0v297q0 15 9.5 25t25.5 10h137q92 0 144 -53.5t52 -152.5v-113q0 -164 -93 -259q-74 -74 -176 -80l-4 4v322h-95z" />
    <glyph glyph-name="dagger" unicode="&#x2020;" horiz-adv-x="1114" 
d="M397 110v896h-336v286h336v346h318v-346h338v-286h-338v-896h-318z" />
    <glyph glyph-name="daggerdbl" unicode="&#x2021;" horiz-adv-x="1114" 
d="M397 110v346h-336v286h336v264h-336v286h336v346h318v-346h338v-286h-338v-264h338v-286h-338v-346h-318z" />
    <glyph glyph-name="bullet" unicode="&#x2022;" horiz-adv-x="722" 
d="M361 398q-113 0 -193.5 80.5t-80.5 193.5t80.5 193.5t193.5 80.5t193.5 -80.5t80.5 -193.5t-80.5 -193.5t-193.5 -80.5z" />
    <glyph glyph-name="ellipsis" unicode="&#x2026;" horiz-adv-x="1550" 
d="M600 0v332h350v-332h-350zM118 0v332h350v-332h-350zM1082 0v332h351v-332h-351z" />
    <glyph glyph-name="perthousand" unicode="&#x2030;" horiz-adv-x="2130" 
d="M458 921q-161 0 -258 102q-51 50 -77 119t-26 141v21q0 71 26 139t77 120q101 101 258 101q156 0 259 -101q102 -105 102 -259v-21q0 -72 -26 -141t-76 -119q-100 -102 -259 -102zM97 578v178l1135 305v-178zM327 1260q0 -58 36.5 -95t92.5 -37h4q57 0 93.5 37t36.5 95
v65q0 58 -36.5 94.5t-93.5 36.5h-4q-57 0 -93 -36.5t-36 -94.5v-65zM510 337v20q0 71 26 139.5t76 119.5q102 102 258 102q159 0 259 -102q103 -103 103 -259v-20q0 -72 -26 -141.5t-77 -118.5q-100 -103 -259 -103q-158 0 -258 103q-50 49 -76 118.5t-26 141.5zM739 313
q0 -57 36.5 -94t92.5 -37h4q56 0 93 37t37 94v66q0 58 -36.5 94.5t-93.5 36.5h-4q-56 0 -92.5 -36.5t-36.5 -94.5v-66zM1311 337v20q0 157 102 259t258 102q159 0 259 -102q103 -103 103 -259v-20q0 -72 -26 -141.5t-77 -118.5q-100 -103 -259 -103q-158 0 -258 103
q-50 49 -76 118t-26 142zM1540 313q0 -58 36.5 -94.5t92.5 -36.5h4q57 0 93.5 37t36.5 94v66q0 58 -36.5 94.5t-93.5 36.5h-4q-57 0 -93 -36.5t-36 -94.5v-66z" />
    <glyph glyph-name="guilsinglleft" unicode="&#x2039;" horiz-adv-x="700" 
d="M383 98l-322 473v21l322 473h256v-21l-315 -462l315 -463v-21h-256z" />
    <glyph glyph-name="guilsinglright" unicode="&#x203a;" horiz-adv-x="700" 
d="M317 1065l322 -473v-21l-322 -473h-256v21l315 463l-315 462v21h256z" />
    <glyph glyph-name="fraction" unicode="&#x2044;" horiz-adv-x="1325" 
d="M61 -90l852 1810h351l-852 -1810h-351z" />
    <glyph glyph-name="Euro" unicode="&#x20ac;" horiz-adv-x="1670" 
d="M34 613v138h69q-1 19 -1 58v20q0 40 1 59h-69v137h84q45 264 213 431q208 208 536 208q164 0 297.5 -53.5t227.5 -147.5q78 -78 128.5 -183t62.5 -218v-21h-333v71q0 122 -72 191.5t-198 69.5h-238q-130 0 -205.5 -75.5t-75.5 -205.5v-67h454v-137h-454v-137h454v-138
h-454v-66q0 -131 75.5 -206.5t205.5 -75.5h238q126 0 198 69.5t72 191.5v71h333v-20q-12 -114 -61 -217.5t-128 -182.5q-203 -203 -527 -203q-328 0 -536 208q-166 166 -213 431h-84z" />
    <glyph glyph-name="uni2113" unicode="&#x2113;" horiz-adv-x="1101" 
d="M553 -26q-103 0 -190 34t-146 93q-97 97 -122 252l-94 -51v278l86 47v565q0 101 34 192t96 153q59 59 145.5 93t190.5 34q204 0 330 -126q62 -62 96.5 -152.5t34.5 -197.5v-21q0 -315 -281 -468l-325 -176v-178q0 -55 33.5 -89t88.5 -34h42q52 0 85 34t33 89v127h324v-21
q0 -220 -131 -351q-128 -126 -330 -126zM408 802l196 107q86 48 86 158v226q0 55 -33 89t-85 34h-42q-55 0 -88.5 -34t-33.5 -89v-491z" />
    <glyph glyph-name="uni2116" unicode="&#x2116;" horiz-adv-x="2885" 
d="M128 0v1638h289l724 -1096h4l-18 760v336h310v-1638h-289l-724 1097h-4l17 -760v-337h-309zM1657 1065v20q0 117 41.5 229t120.5 191q75 76 182 117.5t228 41.5q122 0 229.5 -41.5t182.5 -117.5q78 -79 120 -191t42 -229v-20q0 -116 -42 -228t-120 -192
q-75 -76 -182.5 -117.5t-229.5 -41.5q-121 0 -228 42t-182 117q-79 79 -120.5 191t-41.5 229zM1688 169v192h1084v-192h-1084zM1988 876q0 -56 33 -89.5t89 -33.5h239q56 0 89.5 33.5t33.5 89.5v399q0 56 -33.5 89.5t-89.5 33.5h-239q-56 0 -89 -33.5t-33 -89.5v-399z" />
    <glyph glyph-name="uni2117" unicode="&#x2117;" horiz-adv-x="1311" 
d="M655 443q-280 0 -434 154q-86 87 -128 189.5t-42 256.5v21q0 154 42 257t128 189q152 154 434 154q281 0 435 -154q86 -86 128 -189t42 -257v-21q0 -154 -42 -256.5t-128 -189.5q-156 -154 -435 -154zM150 982q0 -193 135 -319.5t333 -126.5h74q199 0 334 126.5
t135 319.5v143q0 193 -135.5 320t-333.5 127h-74q-198 0 -333 -127t-135 -320v-143zM374 707v666h278q169 0 244 -77q70 -70 70 -186v-12q0 -117 -70 -187q-76 -76 -244 -76h-89v-128h-189zM563 1009h136q32 0 51 17t19 45v66q0 28 -19 45t-51 17h-136v-190z" />
    <glyph glyph-name="trademark" unicode="&#x2122;" horiz-adv-x="1626" 
d="M717 907v731h212l158 -490l20 -79h3l18 79l160 490h210v-731h-146v428l5 143h-2l-31 -103l-143 -468h-147l-143 468l-30 103h-2l4 -143v-428h-146zM61 1497v141h590v-141h-219v-590h-150v590h-221z" />
    <glyph glyph-name="estimated" unicode="&#x212e;" horiz-adv-x="1308" 
d="M660 -26q-127 0 -233 41t-179 115q-77 75 -119 187t-42 236v20q0 124 41.5 235.5t118.5 186.5q72 74 178 115.5t234 41.5q246 0 400 -156q80 -80 121 -189.5t41 -226.5q0 -18 -6 -31h-807v-378q0 -55 33.5 -89t88.5 -34h256q49 0 78.5 29.5t29.5 78.5v205h312v-12
q-44 -126 -133 -215q-160 -160 -413 -160zM408 623h500v332q0 55 -34 89t-89 34h-255q-55 0 -88.5 -34t-33.5 -89v-332z" />
    <glyph glyph-name="arrowleft" unicode="&#x2190;" horiz-adv-x="1884" 
d="M635 1388l183 -184l-247 -247q-10 -10 -10 -26v-4h1200v-258h-1200v-4q0 -17 10 -27l247 -247l-183 -183l-512 512v156z" />
    <glyph glyph-name="arrowup" unicode="&#x2191;" horiz-adv-x="1280" 
d="M492 0v1200h-5q-16 0 -26 -10l-242 -242l-178 178l512 512h174l512 -512l-178 -178l-242 242q-10 10 -26 10h-5v-1200h-296z" />
    <glyph glyph-name="arrowright" unicode="&#x2192;" horiz-adv-x="1884" 
d="M1249 208l-183 183l247 247q10 10 10 27v4h-1200v258h1200v4q0 16 -10 26l-247 247l183 184l512 -512v-156z" />
    <glyph glyph-name="arrowdown" unicode="&#x2193;" horiz-adv-x="1280" 
d="M492 1638h296v-1200h5q17 0 26 11l242 241l178 -178l-512 -512h-174l-512 512l178 178l242 -241q9 -11 26 -11h5v1200z" />
    <glyph glyph-name="arrowboth" unicode="&#x2194;" horiz-adv-x="1963" 
d="M635 208l-512 512v156l512 512l183 -184l-247 -247q-10 -10 -10 -26v-4h841v4q0 16 -10 26l-247 247l183 184l512 -512v-156l-512 -512l-183 183l247 247q10 10 10 27v4h-841v-4q0 -17 10 -27l247 -247z" />
    <glyph glyph-name="arrowupdn" unicode="&#x2195;" horiz-adv-x="1239" 
d="M532 0l-481 481l178 178l211 -210q9 -11 27 -11h4v762h-4q-17 0 -27 -10l-211 -211l-178 178l481 481h175l481 -481l-178 -178l-211 211q-10 10 -27 10h-4v-762h4q18 0 27 11l211 210l178 -178l-481 -481h-175z" />
    <glyph glyph-name="uni2196" unicode="&#x2196;" horiz-adv-x="1559" 
d="M1205 178l-803 803l-2 -4q-1 -2 -3.5 -6t-4 -6.5t-3 -6.5t-1.5 -7v-348h-245v723l124 123h723v-244h-348q-9 0 -27 -12l-3 -2l803 -803z" />
    <glyph glyph-name="uni2197" unicode="&#x2197;" horiz-adv-x="1559" 
d="M353 178l-210 210l803 803l-3 2q-16 12 -27 12h-348v244h723l124 -123v-723h-245v348q0 4 -2 8.5t-5.5 10t-4.5 7.5l-2 4z" />
    <glyph glyph-name="uni2198" unicode="&#x2198;" horiz-adv-x="1559" 
d="M353 1460l803 -803l2 5q1 3 4.5 8t5.5 9t2 8v348h245v-723l-124 -123h-723v244h348q11 0 27 12l3 2l-803 803z" />
    <glyph glyph-name="uni2199" unicode="&#x2199;" horiz-adv-x="1559" 
d="M1205 1460l210 -210l-803 -803l3 -2q18 -12 27 -12h348v-244h-723l-124 123v723h245v-348q0 -4 2 -8t5.5 -9t4.5 -8l2 -5z" />
    <glyph glyph-name="minus" unicode="&#x2212;" horiz-adv-x="1200" 
d="M37 658v261h1126v-261h-1126z" />
    <glyph glyph-name="lozenge" unicode="&#x25ca;" horiz-adv-x="1176" 
d="M588 -26l-527 842l527 848l526 -848zM248 816l340 -534l340 534l-340 541z" />
    <glyph glyph-name="uni261D" unicode="&#x261d;" horiz-adv-x="813" 
d="M532 -10q-110 0 -155 39v86q0 20 -1 65.5t-1 67.5q0 36 -9 72t-18 56t-26 54q-48 90 -48 148t35 165q37 108 41 181l-26 -2q-51 -48 -99 -48q-25 0 -46.5 12.5t-28.5 37.5q30 43 77 88h-176v637h481v-467q79 -25 146 -68q16 -45 16 -117q4 -68 15 -108q35 -57 53 -103
q0 -63 -33 -329q-43 -404 -41 -449q-64 -18 -156 -18zM174 920q13 -25 51 -25q43 0 80 41q5 3 5 15.5t-5 21.5l17 8q11 -18 4 -41q60 6 123 23l22 47l21 -9l-23 -45q77 -55 121 -96l-12 -16q-40 37 -121 96q-63 -43 -97 -96q3 -20 13 -41q21 24 47 35q29 -12 86 -56
q9 -7 29.5 -21.5t31.5 -23.5l-12 -16q-14 9 -61 45q-61 43 -74 49q-37 -19 -55 -65q21 -33 94 -84q80 -59 98 -95l-16 -8q-14 25 -47 51q4 -32 0 -47l-21 4q9 37 -10 66l-23 16q-2 -21 -22 -69q-35 -80 -35 -129h-21q0 61 35 137q31 63 19 80q-54 38 -76 78q12 24 20 36
q-9 15 -10 19q-3 -11 -10 -33.5t-10 -34.5q-35 -101 -35 -159q0 -57 45 -138q18 -34 27.5 -56.5t18.5 -60t9 -75.5q0 -22 1 -67.5t1 -65.5v-76q44 -29 135 -29q71 0 136 15q2 79 41 434q32 294 32 323q-73 172 -256 291q-114 -9 -213 -45q-73 -75 -98 -108zM309 1133
q-2 -26 14 -41t50 -15q71 15 116 17q115 -75 191 -166q-2 11 -3 22t-1.5 24.5t-1.5 20.5q0 65 -12 107q-75 46 -177 72q-19 0 -82 -19q-63 -20 -94 -22zM367 879q21 30 57 57q-27 -7 -53 -10q0 -5 -0.5 -10.5t-1.5 -16t-2 -20.5zM442 217l13 16q30 -24 75 -24q34 0 52 14
l12 -16q-22 -19 -64 -19q-43 0 -88 29z" />
    <glyph glyph-name="uni261F" unicode="&#x261f;" horiz-adv-x="813" 
d="M532 -10q-110 0 -155 39v86q0 20 -1 65.5t-1 67.5q0 36 -9 72t-18 56t-26 54q-48 90 -48 148t35 165q37 108 41 181l-26 -2q-51 -48 -99 -48q-25 0 -46.5 12.5t-28.5 37.5q30 43 77 88h-176v637h481v-467q79 -25 146 -68q16 -45 16 -117q4 -68 15 -108q35 -57 53 -103
q0 -63 -33 -329q-43 -404 -41 -449q-64 -18 -156 -18zM72 1032h176l12 12q35 15 68 23q-24 10 -33.5 33.5t-3.5 52.5q21 -2 106 21q70 20 92 20l23 -6v440h-440v-596zM174 920q13 -25 51 -25q43 0 80 41q5 3 5 15.5t-5 21.5l17 8q11 -18 4 -41q60 6 123 23l22 47l21 -9
l-23 -45q77 -55 121 -96l-12 -16q-40 37 -121 96q-63 -43 -97 -96q3 -20 13 -41q21 24 47 35q29 -12 86 -56q9 -7 29.5 -21.5t31.5 -23.5l-12 -16q-14 9 -61 45q-61 43 -74 49q-37 -19 -55 -65q21 -33 94 -84q80 -59 98 -95l-16 -8q-14 25 -47 51q4 -32 0 -47l-21 4
q9 37 -10 66l-23 16q-2 -21 -22 -69q-35 -80 -35 -129h-21q0 61 35 137q31 63 19 80q-54 38 -76 78q12 24 20 36q-9 15 -10 19q-3 -11 -10 -33.5t-10 -34.5q-35 -101 -35 -159q0 -57 45 -138q18 -34 27.5 -56.5t18.5 -60t9 -75.5q0 -22 1 -67.5t1 -65.5v-76q44 -29 135 -29
q71 0 136 15q2 79 41 434q32 294 32 323q-73 172 -256 291q-114 -9 -213 -45q-73 -75 -98 -108zM309 1133q-2 -26 14 -41t50 -15q71 15 116 17q115 -75 191 -166q-2 11 -3 22t-1.5 24.5t-1.5 20.5q0 65 -12 107q-75 46 -177 72q-19 0 -82 -19q-63 -20 -94 -22zM367 879
q21 30 57 57q-27 -7 -53 -10q0 -5 -0.5 -10.5t-1.5 -16t-2 -20.5zM442 217l13 16q30 -24 75 -24q34 0 52 14l12 -16q-22 -19 -64 -19q-43 0 -88 29z" />
    <glyph glyph-name="uniF8FF" unicode="&#xf8ff;" horiz-adv-x="1835" 
d="M379 0v997l-236 -116l-139 432l283 196l268 129q363 -33 725 0l268 -129l283 -196l-139 -432l-236 116v-997h-1077zM29 1305l127 -396l243 121v-1010h372v1398q-80 33 -134 91.5t-74 108.5l-266 -127zM588 1616q9 -23 34 -54.5t65.5 -67.5t102 -60.5t128.5 -24.5
q69 0 131 24.5t101.5 60.5t63.5 67.5t33 54.5q-329 -31 -659 0zM1064 20h372v1010l243 -121l127 396l-268 186l-266 127q-20 -50 -74.5 -109t-133.5 -92v-1397z" />
    <glyph glyph-name="i.loclTRK" horiz-adv-x="553" 
d="M118 0v1126h317v-1126h-317zM101 1402v141q0 44 26 69.5t70 25.5h158q44 0 70 -25.5t26 -69.5v-141q0 -44 -26 -69.5t-70 -25.5h-158q-44 0 -70 25.5t-26 69.5z" />
    <glyph glyph-name="exclamdown.case" horiz-adv-x="586" 
d="M435 1133l17 -324v-809h-318v809l17 324h284zM118 1307v331h350v-331h-350z" />
    <glyph glyph-name="questiondown.case" horiz-adv-x="1356" 
d="M843 928q0 -129 -62 -222t-187 -133l-137 -43q-31 -10 -49 -36t-18 -61v-151q0 -61 36 -97.5t97 -36.5h295q61 0 97 36.5t36 97.5v39h323v-21q-6 -71 -40 -144.5t-93 -131.5q-69 -70 -189 -111t-281 -41q-156 0 -278 40.5t-194 113.5q-65 65 -98.5 147.5t-33.5 165.5v51
q0 131 82.5 241t211.5 150l118 37q47 14 47 67v186h317v-143zM507 1204v332h350v-332h-350z" />
    </font>
</defs>
</svg>
