<svg xmlns="http://www.w3.org/2000/svg">
<defs>
<font id="Virage-Regular" horiz-adv-x="1260" >
  <font-face 
    font-family="."
    font-weight="400"
    font-stretch="normal"
    units-per-em="2048"
    panose-1="0 0 0 0 0 0 0 0 0 0"
    ascent="1638"
    descent="-410"
    x-height="1106"
    cap-height="1638"
    bbox="-137 -553 2748 2564"
    underline-thickness="143"
    underline-position="-377"
    unicode-range="U+0020-FB02"
  />
<missing-glyph horiz-adv-x="813" 
d="M532 -10q-110 0 -155 39v86q0 20 -1 65.5t-1 67.5q0 36 -9 72t-18 56t-26 54q-48 90 -48 148t35 165q37 108 41 181l-26 -2q-51 -48 -99 -48q-25 0 -46.5 12.5t-28.5 37.5q30 43 77 88h-176v637h481v-467q79 -25 146 -68q16 -45 16 -117q4 -68 15 -108q35 -57 53 -103
q0 -63 -33 -329q-43 -404 -41 -449q-64 -18 -156 -18zM174 920q13 -25 51 -25q43 0 80 41q5 3 5 15.5t-5 21.5l17 8q11 -18 4 -41q60 6 123 23l22 47l21 -9l-23 -45q77 -55 121 -96l-12 -16q-40 37 -121 96q-63 -43 -97 -96q3 -20 13 -41q21 24 47 35q29 -12 86 -56
q9 -7 29.5 -21.5t31.5 -23.5l-12 -16q-14 9 -61 45q-61 43 -74 49q-37 -19 -55 -65q21 -33 94 -84q80 -59 98 -95l-16 -8q-14 25 -47 51q4 -32 0 -47l-21 4q9 37 -10 66l-23 16q-2 -21 -22 -69q-35 -80 -35 -129h-21q0 61 35 137q31 63 19 80q-54 38 -76 78q12 24 20 36
q-9 15 -10 19q-3 -11 -10 -33.5t-10 -34.5q-35 -101 -35 -159q0 -57 45 -138q18 -34 27.5 -56.5t18.5 -60t9 -75.5q0 -22 1 -67.5t1 -65.5v-76q44 -29 135 -29q71 0 136 15q2 79 41 434q32 294 32 323q-73 172 -256 291q-114 -9 -213 -45q-73 -75 -98 -108zM309 1133
q-2 -26 14 -41t50 -15q71 15 116 17q115 -75 191 -166q-2 11 -3 22t-1.5 24.5t-1.5 20.5q0 65 -12 107q-75 46 -177 72q-19 0 -82 -19q-63 -20 -94 -22zM367 879q21 30 57 57q-27 -7 -53 -10q0 -5 -0.5 -10.5t-1.5 -16t-2 -20.5zM442 217l13 16q30 -24 75 -24q34 0 52 14
l12 -16q-22 -19 -64 -19q-43 0 -88 29z" />
    <glyph glyph-name="fi" unicode="fi" horiz-adv-x="1407" 
d="M276 0v918h-235v188h235v176q0 174 105 279q98 98 287 98h145v-189h-252q-26 0 -42.5 -16.5t-16.5 -42.5v-305h352v-188h-352v-918h-226zM1028 1436v127q0 35 20.5 55t55.5 20h94q35 0 55.5 -20t20.5 -55v-127q0 -35 -20.5 -55.5t-55.5 -20.5h-94q-35 0 -55.5 20.5
t-20.5 55.5zM1038 0v1106h226v-1106h-226z" />
    <glyph glyph-name="fl" unicode="fl" horiz-adv-x="1427" 
d="M276 0v918h-235v188h235v176q0 174 105 279q98 98 287 98h145v-189h-252q-26 0 -42.5 -16.5t-16.5 -42.5v-305h352v-188h-352v-918h-226zM1049 0v1638h225v-1638h-225z" />
    <glyph glyph-name=".notdef" horiz-adv-x="813" 
d="M532 -10q-110 0 -155 39v86q0 20 -1 65.5t-1 67.5q0 36 -9 72t-18 56t-26 54q-48 90 -48 148t35 165q37 108 41 181l-26 -2q-51 -48 -99 -48q-25 0 -46.5 12.5t-28.5 37.5q30 43 77 88h-176v637h481v-467q79 -25 146 -68q16 -45 16 -117q4 -68 15 -108q35 -57 53 -103
q0 -63 -33 -329q-43 -404 -41 -449q-64 -18 -156 -18zM174 920q13 -25 51 -25q43 0 80 41q5 3 5 15.5t-5 21.5l17 8q11 -18 4 -41q60 6 123 23l22 47l21 -9l-23 -45q77 -55 121 -96l-12 -16q-40 37 -121 96q-63 -43 -97 -96q3 -20 13 -41q21 24 47 35q29 -12 86 -56
q9 -7 29.5 -21.5t31.5 -23.5l-12 -16q-14 9 -61 45q-61 43 -74 49q-37 -19 -55 -65q21 -33 94 -84q80 -59 98 -95l-16 -8q-14 25 -47 51q4 -32 0 -47l-21 4q9 37 -10 66l-23 16q-2 -21 -22 -69q-35 -80 -35 -129h-21q0 61 35 137q31 63 19 80q-54 38 -76 78q12 24 20 36
q-9 15 -10 19q-3 -11 -10 -33.5t-10 -34.5q-35 -101 -35 -159q0 -57 45 -138q18 -34 27.5 -56.5t18.5 -60t9 -75.5q0 -22 1 -67.5t1 -65.5v-76q44 -29 135 -29q71 0 136 15q2 79 41 434q32 294 32 323q-73 172 -256 291q-114 -9 -213 -45q-73 -75 -98 -108zM309 1133
q-2 -26 14 -41t50 -15q71 15 116 17q115 -75 191 -166q-2 11 -3 22t-1.5 24.5t-1.5 20.5q0 65 -12 107q-75 46 -177 72q-19 0 -82 -19q-63 -20 -94 -22zM367 879q21 30 57 57q-27 -7 -53 -10q0 -5 -0.5 -10.5t-1.5 -16t-2 -20.5zM442 217l13 16q30 -24 75 -24q34 0 52 14
l12 -16q-22 -19 -64 -19q-43 0 -88 29z" />
    <glyph glyph-name=".null" horiz-adv-x="0" 
 />
    <glyph glyph-name="nonmarkingreturn" horiz-adv-x="682" 
 />
    <glyph glyph-name="space" unicode=" " horiz-adv-x="471" 
 />
    <glyph glyph-name="exclam" unicode="!" horiz-adv-x="512" 
d="M156 463l-13 366v809h226v-809l-13 -366h-200zM133 0v258h246v-258h-246z" />
    <glyph glyph-name="quotedbl" unicode="&#x22;" horiz-adv-x="848" 
d="M168 1055l-35 325v258h234v-258l-35 -325h-164zM481 1380v258h234v-258l-35 -325h-164z" />
    <glyph glyph-name="numbersign" unicode="#" horiz-adv-x="1610" 
d="M268 0l81 461h-277v205h311l52 307h-363v205h397l80 460h225l-80 -460h344l80 460h225l-79 -460h274v-205h-308l-54 -307h362v-205h-396l-81 -461h-225l81 461h-343l-80 -461h-226zM608 666h342l55 307h-344z" />
    <glyph glyph-name="dollar" unicode="$" horiz-adv-x="1501" 
d="M684 -162v144q-278 18 -430 170q-67 67 -107 157t-45 189v20h226v-59q0 -123 71.5 -194.5t194.5 -71.5h90v539l-205 71q-174 61 -254 145t-80 215v21q0 84 34 165t100 146q146 146 405 162v143h133v-143q256 -18 406 -166q63 -63 105.5 -151t49.5 -179v-20h-225v39
q0 122 -71.5 194t-194.5 72h-70v-515l248 -87q159 -55 246.5 -148t87.5 -225v-20q0 -168 -131 -299q-158 -158 -451 -171v-143h-133zM371 1192q0 -55 22 -88.5t76 -50.5l215 -75v468h-88q-104 0 -164.5 -60.5t-60.5 -164.5v-29zM817 193h131q104 0 165 60.5t61 164.5v37
q0 61 -23.5 92.5t-81.5 52.5l-252 87v-494z" />
    <glyph glyph-name="percent" unicode="%" horiz-adv-x="1309" 
d="M449 922q-68 0 -129.5 24.5t-102.5 67.5q-50 48 -77 121.5t-27 146.5v21q0 71 27 143.5t77 122.5q42 42 103.5 66t128.5 24q68 0 129.5 -24t103.5 -66q50 -50 77 -122.5t27 -143.5v-21q0 -73 -27 -146.5t-77 -121.5q-41 -44 -102.5 -68t-130.5 -24zM113 578v178l1083 305
v-178zM311 1245q0 -59 39.5 -97t95.5 -38h7q56 0 95.5 38t39.5 97v90q0 59 -39.5 97t-95.5 38h-7q-56 0 -95.5 -38t-39.5 -97v-90zM522 340v20q0 71 27 143.5t78 123.5q42 42 103 66t128 24q142 0 234 -90q50 -51 77 -123.5t27 -143.5v-20q0 -73 -27 -146.5t-77 -121.5
q-89 -92 -234 -92q-68 0 -129 24.5t-102 67.5q-50 48 -77.5 121.5t-27.5 146.5zM721 307q0 -59 39.5 -99t95.5 -40h6q56 0 95.5 40t39.5 99v82q0 59 -39.5 99t-95.5 40h-6q-56 0 -95.5 -40t-39.5 -99v-82z" />
    <glyph glyph-name="ampersand" unicode="&#x26;" horiz-adv-x="1743" 
d="M754 -20q-339 0 -510 172q-131 131 -131 301v20q0 249 321 367l21 7q-120 63 -174 138t-54 178v21q0 84 34 165t99 146q166 164 469 164q306 0 476 -168q63 -64 105.5 -151.5t49.5 -178.5v-20h-225v39q0 122 -71.5 194t-194.5 72h-291q-104 0 -164.5 -60.5t-60.5 -164.5
v-29q0 -54 22 -87t76 -52l596 -209q149 -52 236 -137.5t87 -169.5v-17l170 170v-266l-159 -160v-59h180v-205h-406v137l-2 -2q-155 -155 -499 -155zM338 422q0 -107 60 -168t165 -61h381q138 0 207 69l104 105v88q0 61 -23 93t-81 52l-394 135l-315 -108q-58 -20 -81 -52.5
t-23 -93.5v-59z" />
    <glyph glyph-name="quotesingle" unicode="'" horiz-adv-x="500" 
d="M168 1055l-35 325v258h234v-258l-35 -325h-164z" />
    <glyph glyph-name="parenleft" unicode="(" horiz-adv-x="799" 
d="M459 -90q-165 138 -245.5 344.5t-80.5 519.5v82q0 313 80.5 519.5t245.5 344.5h258v-18q-170 -127 -259 -302.5t-89 -379.5v-410q0 -204 89 -379t259 -297v-24h-258z" />
    <glyph glyph-name="parenright" unicode=")" horiz-adv-x="799" 
d="M340 1720q165 -138 245.5 -344.5t80.5 -519.5v-82q0 -313 -80.5 -519.5t-245.5 -344.5h-258v18q170 127 259 303t89 379v410q0 204 -89.5 379t-258.5 297v24h258z" />
    <glyph glyph-name="asterisk" unicode="*" horiz-adv-x="987" 
d="M410 881l14 246l-217 -130l-84 146l247 117l-247 116l84 146l217 -132l-14 248h168l-15 -248l217 132l84 -146l-247 -116l247 -117l-84 -146l-217 130l15 -246h-168z" />
    <glyph glyph-name="plus" unicode="+" horiz-adv-x="1229" 
d="M512 223v463h-463v205h463v463h205v-463h463v-205h-463v-463h-205z" />
    <glyph glyph-name="comma" unicode="," horiz-adv-x="532" 
d="M205 -326l-4 4v322h-68v229q0 13 8 21t21 8h98q64 0 101.5 -37t37.5 -102v-144q0 -72 -23 -136t-61 -101q-48 -50 -110 -64z" />
    <glyph glyph-name="hyphen" unicode="-" horiz-adv-x="993" 
d="M143 682v188h707v-188h-707z" />
    <glyph glyph-name="period" unicode="." horiz-adv-x="512" 
d="M133 0v258h246v-258h-246z" />
    <glyph glyph-name="slash" unicode="/" horiz-adv-x="1255" 
d="M61 -90l883 1810h250l-883 -1810h-250z" />
    <glyph glyph-name="zero" unicode="0" horiz-adv-x="1544" 
d="M772 -20q-135 0 -248.5 48.5t-193.5 129.5q-107 107 -152 263.5t-45 387.5v20q0 231 45 388t152 264q80 80 194 129t248 49q135 0 248.5 -49t193.5 -129q107 -107 152 -264t45 -388v-20q0 -231 -45 -387.5t-152 -263.5q-80 -81 -193.5 -129.5t-248.5 -48.5zM379 541
q0 -161 93.5 -254.5t254.5 -93.5h90q161 0 254.5 93.5t93.5 254.5v557q0 161 -93.5 254.5t-254.5 93.5h-90q-161 0 -254.5 -93.5t-93.5 -254.5v-557z" />
    <glyph glyph-name="one" unicode="1" horiz-adv-x="625" 
d="M238 0v1413h-228v21l174 204h287v-1638h-233z" />
    <glyph glyph-name="two" unicode="2" horiz-adv-x="1346" 
d="M100 156q0 231 87 365t309 243l417 205q95 45 95 149v144q0 81 -51.5 132.5t-133.5 51.5h-321q-82 0 -133.5 -51.5t-51.5 -132.5v-54h-225v21q6 77 42.5 153.5t90.5 130.5q146 146 447 146q155 0 260.5 -37.5t183.5 -116.5q137 -137 137 -317v-21q0 -125 -85.5 -241
t-254.5 -199l-417 -205q-100 -48 -142.5 -120t-42.5 -181v-12h932v-209h-1143v156z" />
    <glyph glyph-name="three" unicode="3" horiz-adv-x="1409" 
d="M698 -20q-324 0 -477 153q-108 108 -129 277v20h225v-12q0 -104 60.5 -164.5t165.5 -60.5h282q109 0 177.5 68t68.5 177v92q0 91 -57 148t-148 57h-336v209h289q91 0 148 57t57 148v92q0 91 -57 148t-148 57h-268q-104 0 -164.5 -60.5t-60.5 -164.5v-13h-226v21
q23 170 129 276q154 154 469 154q147 0 254 -37t187 -117q131 -131 131 -299v-20q0 -184 -174 -320v-4q91 -59 156 -153.5t65 -202.5v-21q0 -83 -42 -178.5t-116 -169.5q-157 -157 -461 -157z" />
    <glyph glyph-name="four" unicode="4" horiz-adv-x="1411" 
d="M891 0v438h-819v226l729 974h323v-991h215v-209h-215v-438h-233zM317 647h574v350l10 439h-4l-580 -785v-4z" />
    <glyph glyph-name="five" unicode="5" horiz-adv-x="1399" 
d="M709 -20q-323 0 -478 153q-106 108 -129 277v20h226v-12q0 -104 60.5 -164.5t164.5 -60.5h283q109 0 177 68t68 177v170q0 109 -68 177.5t-177 68.5h-363q-44 0 -73 -29t-29 -73v-17h-224v903h1051v-208h-817v-459l90 53q123 43 262 43q280 0 436 -158q77 -76 117.5 -177
t40.5 -197v-21q0 -98 -40.5 -199t-117.5 -178q-157 -157 -460 -157z" />
    <glyph glyph-name="six" unicode="6" horiz-adv-x="1477" 
d="M774 -20q-290 0 -444 157q-197 194 -197 672v20q0 258 46 408.5t145 249.5q172 172 462 172q142 0 258 -40.5t189 -113.5q108 -106 129 -276v-21h-225v13q0 104 -60.5 164.5t-165.5 60.5h-194q-156 0 -252 -94.5t-96 -253.5v-244l94 86q62 51 152.5 82t197.5 31
q114 0 222 -43.5t190 -124.5q149 -151 149 -353v-20q0 -98 -39 -194.5t-116 -174.5q-81 -80 -187.5 -121.5t-257.5 -41.5zM387 479q0 -132 77.5 -209t209.5 -77h207q122 0 194 71.5t72 194.5v114q0 123 -72 195t-194 72h-207q-132 0 -209.5 -77.5t-77.5 -209.5v-74z" />
    <glyph glyph-name="seven" unicode="7" horiz-adv-x="1266" 
d="M270 0v20l631 1287l70 118v5h-899v208h1122v-208l-700 -1430h-224z" />
    <glyph glyph-name="eight" unicode="8" horiz-adv-x="1479" 
d="M739 -20q-312 0 -467 155q-62 63 -100.5 148.5t-38.5 171.5v20q0 104 58 193t169 151v4q-91 66 -147.5 157.5t-56.5 195.5v20q0 75 34.5 156t94.5 141q79 79 200 122.5t254 43.5t254.5 -43.5t200.5 -122.5q60 -60 94.5 -141t34.5 -156v-20q0 -104 -56.5 -195.5
t-148.5 -157.5v-4q111 -62 169.5 -151t58.5 -193v-20q0 -86 -39.5 -171.5t-102.5 -148.5q-155 -155 -465 -155zM379 377q0 -82 51.5 -133t132.5 -51h352q82 0 133.5 51t51.5 133v158q0 81 -51.5 132.5t-133.5 51.5h-352q-81 0 -132.5 -51.5t-51.5 -132.5v-158zM393 1110
q0 -82 51.5 -133t133.5 -51h323q82 0 133 51t51 133v150q0 81 -52 133.5t-134 52.5h-321q-82 0 -133.5 -51.5t-51.5 -132.5v-152z" />
    <glyph glyph-name="nine" unicode="9" horiz-adv-x="1477" 
d="M702 1659q292 0 445 -158q196 -193 196 -672v-20q0 -258 -45.5 -408t-144.5 -249q-170 -172 -463 -172q-141 0 -257 40t-189 113q-108 108 -129 277v20h225v-12q0 -104 60.5 -164.5t164.5 -60.5h195q156 0 252 94.5t96 253.5v243l-94 -86q-62 -50 -152.5 -81t-197.5 -31
q-115 0 -223 43t-189 125q-150 150 -150 352v20q0 97 39.5 194.5t116.5 174.5q164 164 444 164zM330 1065q0 -123 71.5 -194.5t194.5 -71.5h207q132 0 209.5 77t77.5 209v74q0 132 -77.5 209.5t-209.5 77.5h-207q-123 0 -194.5 -72t-71.5 -194v-115z" />
    <glyph glyph-name="colon" unicode=":" horiz-adv-x="512" 
d="M133 0v258h246v-258h-246zM133 745v259h246v-259h-246z" />
    <glyph glyph-name="semicolon" unicode=";" horiz-adv-x="512" 
d="M205 -326l-4 4v322h-68v229q0 13 8 21t21 8h98q64 0 101.5 -37t37.5 -102v-144q0 -72 -23 -136t-61 -101q-48 -50 -110 -64zM133 745v259h246v-259h-246z" />
    <glyph glyph-name="less" unicode="&#x3c;" horiz-adv-x="993" 
d="M850 983v-188l-498 -232v-4l498 -231v-189h-21l-686 328v188l686 328h21z" />
    <glyph glyph-name="equal" unicode="=" horiz-adv-x="1221" 
d="M49 979v188h1122v-188h-1122zM49 410v188h1122v-188h-1122z" />
    <glyph glyph-name="greater" unicode="&#x3e;" horiz-adv-x="993" 
d="M143 139v189l498 231v4l-498 232v188h21l686 -328v-188l-686 -328h-21z" />
    <glyph glyph-name="question" unicode="?" horiz-adv-x="1305" 
d="M530 612q0 120 57.5 204.5t174.5 121.5l174 55q38 13 60 46.5t22 76.5v133q0 94 -55.5 149.5t-149.5 55.5h-291q-94 0 -149.5 -55.5t-55.5 -149.5v-39h-225v21q5 71 40 147t97 138q145 143 433 143q149 0 263 -38t183 -108q67 -67 101 -151.5t34 -167.5v-20
q0 -136 -86.5 -249t-228.5 -157l-146 -45q-39 -12 -39 -61v-248h-213v198zM518 0v258h246v-258h-246z" />
    <glyph glyph-name="at" unicode="@" horiz-adv-x="2175" 
d="M1098 -20q-271 0 -454.5 52.5t-299.5 168.5q-111 111 -161 258t-50 340v20q0 406 215 623q108 108 280.5 162.5t448.5 54.5q532 0 762 -232q110 -109 156.5 -240.5t46.5 -297.5v-21q0 -280 -131 -411q-52 -52 -127.5 -82.5t-159.5 -30.5q-168 0 -252 131h-4l-22 -31
q-122 -100 -287 -100q-108 0 -201.5 35.5t-155.5 97.5q-65 65 -98 153t-33 169v20q0 81 33 169t98 153q62 62 155.5 97.5t201.5 35.5q173 0 287 -117h10v96h225v-628q0 -49 25 -72t80 -23h34q138 0 138 150v283q0 245 -143.5 388.5t-389.5 143.5h-475q-246 0 -389.5 -143.5
t-143.5 -388.5v-287q0 -246 143.5 -389.5t389.5 -143.5h625v-163h-377zM807 713q0 -85 50 -135t134 -50h180q85 0 135 50t50 135v192q0 85 -50 135t-135 50h-180q-84 0 -134 -50t-50 -135v-192z" />
    <glyph glyph-name="A" unicode="A" horiz-adv-x="1632" 
d="M72 0v20l596 1618h297l596 -1618v-20h-242l-142 383h-748l-142 -383h-215zM504 592h598l-207 584l-90 258h-4l-90 -258z" />
    <glyph glyph-name="B" unicode="B" horiz-adv-x="1522" 
d="M154 0v1638h741q107 0 203.5 -38t167.5 -109q127 -127 127 -295v-20q0 -101 -50.5 -186.5t-148.5 -139.5v-4q94 -51 154.5 -142t60.5 -206v-21q0 -85 -37 -175.5t-104 -158.5q-143 -143 -412 -143h-702zM387 209h592q85 0 134.5 50t49.5 134v156q0 85 -49.5 134.5
t-134.5 49.5h-592v-524zM387 942h580q84 0 134 50t50 134v119q0 85 -50 135t-134 50h-580v-488z" />
    <glyph glyph-name="C" unicode="C" horiz-adv-x="1686" 
d="M874 -20q-326 0 -518 192q-107 107 -165 269.5t-58 367.5v20q0 205 58 367.5t165 269.5q193 193 518 193q326 0 519 -193q151 -151 180 -389v-20h-225v20q0 171 -104.5 270t-282.5 99h-173q-187 0 -298 -111.5t-111 -298.5v-434q0 -187 111 -298t298 -111h173
q178 0 282.5 99t104.5 269v21h225v-21q-29 -237 -180 -389q-192 -192 -519 -192z" />
    <glyph glyph-name="D" unicode="D" horiz-adv-x="1655" 
d="M154 0v1638h614q167 0 306.5 -48.5t230.5 -137.5q104 -103 160.5 -265t56.5 -358v-20q0 -195 -55 -356t-158 -263q-94 -92 -234 -141t-307 -49h-614zM387 209h479q189 0 299.5 110.5t110.5 298.5v402q0 189 -110.5 299.5t-299.5 110.5h-479v-1221z" />
    <glyph glyph-name="E" unicode="E" horiz-adv-x="1309" 
d="M154 0v1638h1052v-208h-819v-494h770v-209h-770v-518h819v-209h-1052z" />
    <glyph glyph-name="F" unicode="F" horiz-adv-x="1227" 
d="M154 0v1638h970v-208h-737v-572h717v-209h-717v-649h-233z" />
    <glyph glyph-name="G" unicode="G" horiz-adv-x="1710" 
d="M874 -20q-326 0 -518 192q-113 114 -168 284.5t-55 352.5v20q0 183 55 353.5t168 283.5q193 193 518 193q326 0 519 -193q151 -151 180 -389v-20h-225v20q0 171 -104.5 270t-282.5 99h-173q-187 0 -298 -111.5t-111 -298.5v-434q0 -187 111 -298t298 -111h173
q178 0 282.5 99t104.5 269v82h-467v209h696v-141q0 -171 -49.5 -312.5t-134.5 -226.5q-192 -192 -519 -192z" />
    <glyph glyph-name="H" unicode="H" horiz-adv-x="1587" 
d="M154 0v1638h233v-694h813v694h234v-1638h-234v735h-813v-735h-233z" />
    <glyph glyph-name="I" unicode="I" horiz-adv-x="541" 
d="M154 0v1638h233v-1638h-233z" />
    <glyph glyph-name="J" unicode="J" 
d="M612 -20q-239 0 -376 137q-53 52 -88.5 124t-45.5 148v21h226v-37q0 -82 51 -133.5t133 -51.5h186q83 0 134 51t51 134v1057h-647v208h880v-1120q0 -146 -34 -238t-101 -159q-141 -141 -369 -141z" />
    <glyph glyph-name="K" unicode="K" horiz-adv-x="1577" 
d="M154 0v1638h233v-716h4l762 716h311v-20l-862 -770l903 -828v-20h-303l-811 768h-4v-768h-233z" />
    <glyph glyph-name="L" unicode="L" 
d="M154 0v1638h233v-1429h801v-209h-1034z" />
    <glyph glyph-name="M" unicode="M" horiz-adv-x="2015" 
d="M154 0v1638h270l582 -1364h4l581 1364h271v-1638h-226v582l6 637h-4l-518 -1219h-241l-519 1219h-4l6 -637v-582h-208z" />
    <glyph glyph-name="N" unicode="N" horiz-adv-x="1587" 
d="M154 0v1638h208l863 -1257h4l-4 952v305h209v-1638h-209l-863 1257h-4l4 -952v-305h-208z" />
    <glyph glyph-name="O" unicode="O" horiz-adv-x="1749" 
d="M874 -20q-326 0 -518 192q-107 107 -165 269.5t-58 367.5v20q0 205 58 367.5t165 269.5q193 193 518 193q326 0 519 -193q107 -107 165 -269.5t58 -367.5v-20q0 -205 -58 -367.5t-165 -269.5q-192 -192 -519 -192zM379 602q0 -187 111 -298t298 -111h173q187 0 298 111
t111 298v434q0 187 -111 298.5t-298 111.5h-173q-187 0 -298 -111.5t-111 -298.5v-434z" />
    <glyph glyph-name="P" unicode="P" horiz-adv-x="1481" 
d="M154 0v1638h622q137 0 250.5 -37.5t185.5 -109.5q75 -74 115.5 -183.5t40.5 -228.5v-20q0 -117 -40 -224.5t-111 -179.5q-152 -151 -441 -151h-389v-504h-233zM387 713h531q93 0 148.5 55.5t55.5 149.5v307q0 94 -55.5 149.5t-148.5 55.5h-531v-717z" />
    <glyph glyph-name="Q" unicode="Q" horiz-adv-x="1749" 
d="M874 -203v183q-326 0 -518 192q-107 107 -165 269.5t-58 367.5v20q0 205 58 367.5t165 269.5q193 193 518 193q326 0 519 -193q107 -107 165 -269.5t58 -367.5v-20q0 -205 -58 -367.5t-165 -269.5q-116 -116 -284 -162h384v-213h-619zM379 602q0 -187 111 -298t298 -111
h173q187 0 298 111t111 298v434q0 187 -111 298.5t-298 111.5h-173q-187 0 -298 -111.5t-111 -298.5v-434z" />
    <glyph glyph-name="R" unicode="R" horiz-adv-x="1489" 
d="M154 0v1638h673q232 0 377 -145q144 -143 144 -338v-20q0 -97 -40 -190t-110 -163q-79 -79 -190 -125l-74 -14l90 -108l373 -506v-29h-252l-433 625h-325v-625h-233zM387 829h531q83 0 133.5 51t50.5 134v231q0 83 -50.5 134t-133.5 51h-531v-601z" />
    <glyph glyph-name="S" unicode="S" horiz-adv-x="1501" 
d="M758 -20q-334 0 -504 172q-67 67 -107 157t-45 189v20h226v-59q0 -123 71.5 -194.5t194.5 -71.5h354q104 0 165 60.5t61 164.5v37q0 61 -23.5 92.5t-81.5 52.5l-590 203q-174 61 -254 145t-80 215v21q0 84 34 165t100 146q164 164 469 164t475 -168q63 -63 105.5 -151
t49.5 -179v-20h-225v39q0 122 -71.5 194t-194.5 72h-291q-104 0 -164.5 -60.5t-60.5 -164.5v-29q0 -55 22 -88.5t76 -50.5l596 -209q159 -55 246.5 -148t87.5 -225v-20q0 -168 -131 -299q-172 -172 -510 -172z" />
    <glyph glyph-name="T" unicode="T" horiz-adv-x="1417" 
d="M592 0v1430h-520v208h1274v-208h-521v-1430h-233z" />
    <glyph glyph-name="U" unicode="U" horiz-adv-x="1546" 
d="M782 -20q-156 0 -279.5 42.5t-201.5 120.5q-74 75 -116 187t-42 248v1060h234v-1183q0 -123 71.5 -195t194.5 -72h281q122 0 194 72t72 195v1183h213v-1060q0 -138 -38.5 -255t-113.5 -192q-151 -151 -469 -151z" />
    <glyph glyph-name="V" unicode="V" horiz-adv-x="1577" 
d="M668 0l-596 1618v20h241l484 -1349h4l489 1349h215v-20l-596 -1618h-241z" />
    <glyph glyph-name="W" unicode="W" horiz-adv-x="2644" 
d="M668 0l-596 1618v20h241l465 -1302h4l469 1302h168l465 -1302h4l469 1302h215v-20l-596 -1618h-202l-449 1221h-4l-451 -1221h-202z" />
    <glyph glyph-name="X" unicode="X" horiz-adv-x="1597" 
d="M92 0v20l557 799l-557 799v20h266l453 -682h4l453 682h237v-20l-557 -799l557 -799v-20h-266l-453 682h-4l-452 -682h-238z" />
    <glyph glyph-name="Y" unicode="Y" horiz-adv-x="1577" 
d="M672 0v697l-600 921v20h262l467 -735h4l465 735h235v-20l-600 -921v-697h-233z" />
    <glyph glyph-name="Z" unicode="Z" horiz-adv-x="1305" 
d="M102 0v227l856 1203l-2 4l-118 -4h-736v208h1100v-225l-856 -1204l2 -4l135 4h719v-209h-1100z" />
    <glyph glyph-name="bracketleft" unicode="[" horiz-adv-x="799" 
d="M154 -90v1810h563v-209h-328v-1392h328v-209h-563z" />
    <glyph glyph-name="backslash" unicode="\" horiz-adv-x="1255" 
d="M944 -90l-883 1810h250l883 -1810h-250z" />
    <glyph glyph-name="bracketright" unicode="]" horiz-adv-x="799" 
d="M645 1720v-1810h-563v209h328v1392h-328v209h563z" />
    <glyph glyph-name="asciicircum" unicode="^" horiz-adv-x="1274" 
d="M293 1274v20l248 344h192l248 -344v-20h-225l-117 192h-4l-123 -192h-219z" />
    <glyph glyph-name="underscore" unicode="_" horiz-adv-x="1245" 
d="M143 -188v188h959v-188h-959z" />
    <glyph glyph-name="grave" unicode="`" horiz-adv-x="1274" 
d="M758 1274h-209l-291 338v26h250l250 -338v-26z" />
    <glyph glyph-name="a" unicode="a" horiz-adv-x="1186" 
d="M514 -20q-100 0 -182.5 28.5t-134.5 81.5q-43 42 -69 100.5t-26 114.5v21q0 49 22.5 103t63.5 95q87 87 256 109l383 45v182q0 28 -16.5 45t-44.5 17h-354q-28 0 -45 -17t-17 -45v-78h-225v21q20 116 104 201q124 122 357 122q238 0 358 -118q109 -109 109 -322v-686
h-215v98l-125 -86q-93 -32 -199 -32zM338 242q0 -28 16.5 -45t44.5 -17h367q28 0 44.5 17t16.5 45v250l-430 -52q-27 -3 -43 -20.5t-16 -42.5v-135z" />
    <glyph glyph-name="b" unicode="b" horiz-adv-x="1325" 
d="M688 -20q-122 0 -225 49l-94 63l2 -92h-217v1638h225v-532l-10 -92l94 63q103 49 225 49q103 0 198 -35.5t163 -103.5q77 -77 120 -193t43 -231v-20q0 -115 -43 -231t-120 -193q-68 -68 -163 -103.5t-198 -35.5zM375 369q0 -83 50.5 -134t133.5 -51h227q83 0 134 51
t51 134v368q0 83 -51 134t-134 51h-227q-83 0 -133.5 -51t-50.5 -134v-368z" />
    <glyph glyph-name="c" unicode="c" horiz-adv-x="1233" 
d="M645 -20q-107 0 -205.5 35.5t-167.5 103.5q-75 75 -117 191.5t-42 232.5v20q0 116 42 232.5t117 191.5q69 68 167.5 103.5t205.5 35.5q222 0 365 -143q57 -58 95.5 -134.5t45.5 -152.5v-20h-225v61q0 83 -51 134t-134 51h-202q-85 0 -135 -50t-50 -135v-368
q0 -85 50 -135t135 -50h202q83 0 134 51t51 134v61h225v-20q-7 -76 -45.5 -152.5t-95.5 -134.5q-143 -143 -365 -143z" />
    <glyph glyph-name="d" unicode="d" horiz-adv-x="1325" 
d="M637 -20q-103 0 -198 35.5t-163 103.5q-77 77 -120 193t-43 231v20q0 115 43 231t120 193q68 68 163 103.5t198 35.5q122 0 225 -49l94 -63l-10 92v532h225v-1638h-217l2 92l-94 -63q-103 -49 -225 -49zM354 369q0 -83 51 -134t134 -51h227q83 0 133.5 51t50.5 134v368
q0 83 -50.5 134t-133.5 51h-227q-83 0 -134 -51t-51 -134v-368z" />
    <glyph glyph-name="e" unicode="e" horiz-adv-x="1249" 
d="M631 -20q-222 0 -363 141q-72 72 -113.5 183t-41.5 239v20q0 129 41 241t112 183q139 139 363 139q211 0 352 -141q156 -156 156 -430q0 -38 -4 -76h-789v-110q0 -83 50.5 -134t133.5 -51h215q70 0 113 43.5t43 112.5v6h215v-4q-38 -127 -131 -219q-143 -143 -352 -143z
M344 659h565v78q0 83 -50.5 134t-133.5 51h-197q-83 0 -133.5 -51t-50.5 -134v-78z" />
    <glyph glyph-name="f" unicode="f" horiz-adv-x="895" 
d="M276 0v918h-235v188h235v176q0 174 105 279q98 98 287 98h145v-189h-252q-26 0 -42.5 -16.5t-16.5 -42.5v-305h352v-188h-352v-918h-226z" />
    <glyph glyph-name="g" unicode="g" horiz-adv-x="1315" 
d="M664 -430q-236 0 -369 133q-103 103 -127 215v21h225v-41q0 -56 33.5 -89.5t89.5 -33.5h285q66 0 105.5 39.5t39.5 105.5v182l8 70l-92 -66q-107 -49 -221 -49q-106 0 -203.5 37t-165.5 107q-77 75 -118 177.5t-41 203.5v20q0 99 42 203.5t117 179.5q142 141 369 141
q118 0 221 -49l94 -63l-10 92h225v-1012q0 -256 -139 -395q-129 -129 -368 -129zM354 446q0 -86 49.5 -135t135.5 -49h227q86 0 135 49t49 135v291q0 86 -49 135.5t-135 49.5h-227q-86 0 -135.5 -49.5t-49.5 -135.5v-291z" />
    <glyph glyph-name="h" unicode="h" horiz-adv-x="1290" 
d="M154 0v1638h225v-645l108 76q98 57 222 57q93 0 178.5 -33t144.5 -92q125 -123 125 -348v-653h-225v758q0 74 -45 119t-119 45h-225q-74 0 -119 -45t-45 -119v-758h-225z" />
    <glyph glyph-name="i" unicode="i" horiz-adv-x="512" 
d="M143 0v1106h226v-1106h-226zM133 1436v127q0 35 20.5 55t55.5 20h94q35 0 55.5 -20t20.5 -55v-127q0 -35 -20.5 -55.5t-55.5 -20.5h-94q-35 0 -55.5 20.5t-20.5 55.5z" />
    <glyph glyph-name="j" unicode="j" horiz-adv-x="512" 
d="M-25 -410v205h66q46 0 74 28.5t28 74.5v1208h226v-1124q0 -172 -113 -285q-107 -107 -256 -107h-25zM133 1436v127q0 35 20.5 55t55.5 20h94q35 0 55.5 -20t20.5 -55v-127q0 -35 -20.5 -55.5t-55.5 -20.5h-94q-35 0 -55.5 20.5t-20.5 55.5z" />
    <glyph glyph-name="k" unicode="k" horiz-adv-x="1200" 
d="M154 0v1638h225v-970h4l498 438h258v-21l-574 -491l574 -574v-20h-271l-485 494h-4v-494h-225z" />
    <glyph glyph-name="l" unicode="l" horiz-adv-x="532" 
d="M154 0v1638h225v-1638h-225z" />
    <glyph glyph-name="m" unicode="m" horiz-adv-x="1976" 
d="M143 0v1106h226v-86l67 49q98 57 221 57q94 0 179.5 -33t144.5 -92l33 -40l71 53q136 112 310 112q93 0 178.5 -33t144.5 -92q125 -123 125 -348v-653h-225v758q0 74 -45 119t-119 45h-184q-74 0 -119 -45t-45 -119v-758h-225v758q0 74 -45.5 119t-118.5 45h-185
q-73 0 -118 -45t-45 -119v-758h-226z" />
    <glyph glyph-name="n" unicode="n" 
d="M143 0v1106h226v-107l88 70q96 57 221 57q94 0 179.5 -33t143.5 -92q125 -123 125 -348v-653h-225v758q0 74 -45 119t-119 45h-205q-73 0 -118 -45t-45 -119v-758h-226z" />
    <glyph glyph-name="o" unicode="o" horiz-adv-x="1274" 
d="M637 -20q-107 0 -202 35.5t-161 101.5q-74 74 -117.5 192.5t-43.5 233.5v20q0 115 43.5 233.5t117.5 192.5q66 66 161 101.5t202 35.5q106 0 201 -35.5t161 -101.5q75 -74 118.5 -192.5t43.5 -233.5v-20q0 -115 -43.5 -233.5t-118.5 -192.5q-66 -66 -161 -101.5
t-201 -35.5zM354 369q0 -85 50 -135t135 -50h196q85 0 135 50t50 135v368q0 85 -50 135t-135 50h-196q-85 0 -135 -50t-50 -135v-368z" />
    <glyph glyph-name="p" unicode="p" horiz-adv-x="1315" 
d="M143 -410v1516h226l-11 -92l95 63q103 49 221 49q105 0 200 -37t164 -106q78 -77 121 -191t43 -229v-20q0 -115 -43 -229t-121 -191q-69 -69 -164 -106t-200 -37q-118 0 -221 49l-95 63l11 -92v-410h-226zM365 369q0 -83 50.5 -134t133.5 -51h227q83 0 134 51t51 134v368
q0 83 -51 134t-134 51h-227q-83 0 -133.5 -51t-50.5 -134v-368z" />
    <glyph glyph-name="q" unicode="q" horiz-adv-x="1315" 
d="M946 -410v410l10 92l-94 -63q-103 -49 -221 -49q-105 0 -200.5 37t-164.5 106q-77 77 -120 191t-43 229v20q0 115 43 229t120 191q69 69 164.5 106t200.5 37q118 0 221 -49l94 -63l-10 92h225v-1516h-225zM354 369q0 -83 51 -134t134 -51h227q83 0 133.5 51t50.5 134v368
q0 83 -50.5 134t-133.5 51h-227q-83 0 -134 -51t-51 -134v-368z" />
    <glyph glyph-name="r" unicode="r" horiz-adv-x="915" 
d="M143 0v1106h226v-123l88 76q88 57 217 57h170v-188h-312q-73 0 -118 -45t-45 -119v-764h-226z" />
    <glyph glyph-name="s" unicode="s" horiz-adv-x="1104" 
d="M553 -20q-117 0 -210.5 32t-149.5 88q-45 45 -71.5 105.5t-29.5 122.5v4h201v-25q0 -55 33.5 -89t89.5 -34h299q38 0 61 23t23 61v39q0 61 -66 82l-381 131q-233 79 -233 260v29q0 115 86 201q118 116 340 116q112 0 202.5 -30t145.5 -84q78 -80 98 -228v-4h-200v19
q0 55 -34 89t-89 34h-252q-37 0 -60.5 -23.5t-23.5 -60.5v-39q0 -63 59 -84l408 -140q101 -34 157 -96.5t56 -142.5v-37q0 -54 -25 -108.5t-63 -92.5q-55 -55 -152 -86.5t-219 -31.5z" />
    <glyph glyph-name="t" unicode="t" horiz-adv-x="936" 
d="M668 0q-102 0 -170 21.5t-117 70.5q-105 105 -105 309v517h-235v188h235v369h226v-369h352v-188h-352v-607q0 -55 34 -89t89 -34h188v-188h-145z" />
    <glyph glyph-name="u" unicode="u" 
d="M1116 1106v-1106h-225v106l-88 -69q-98 -57 -221 -57q-93 0 -179 33t-145 91q-125 125 -125 349v653h225v-758q0 -74 45 -119t119 -45h205q73 0 118.5 45t45.5 119v758h225z" />
    <glyph glyph-name="v" unicode="v" horiz-adv-x="1214" 
d="M492 0l-400 1085v21h230l301 -848h4l303 848h192v-21l-399 -1085h-231z" />
    <glyph glyph-name="w" unicode="w" horiz-adv-x="2001" 
d="M492 0l-400 1085v21h230l282 -799h4l283 799h252l284 -799h5l284 799h193v-21l-400 -1085h-192l-313 854h-5l-315 -854h-192z" />
    <glyph glyph-name="x" unicode="x" horiz-adv-x="1145" 
d="M61 0v20l379 533l-379 532v21h238l283 -416h2l282 416h217v-21l-378 -532l378 -533v-20h-237l-283 416h-2l-282 -416h-218z" />
    <glyph glyph-name="y" unicode="y" horiz-adv-x="1214" 
d="M133 -410v189h262q56 0 72 47l62 174h-37l-400 1085v21h230l301 -848h4l303 848h192v-21l-438 -1191q-61 -164 -125 -228q-76 -76 -221 -76h-205z" />
    <glyph glyph-name="z" unicode="z" horiz-adv-x="1133" 
d="M127 0v154l631 768l-113 -4h-522v188h887v-154l-631 -768l113 4h518v-188h-883z" />
    <glyph glyph-name="braceleft" unicode="{" horiz-adv-x="799" 
d="M446 -90q-112 85 -143.5 221t31.5 275l104 227q13 28 0.5 48.5t-45.5 20.5h-280v226h280q33 0 46 21t-1 48l-104 228q-63 138 -31.5 274.5t143.5 220.5h271v-24l-187 -193q-54 -56 -24 -121l137 -299q37 -76 16 -156t-92 -110v-4q71 -30 92 -110t-16 -156l-137 -299
q-30 -65 24 -121l187 -193v-24h-271z" />
    <glyph glyph-name="bar" unicode="|" horiz-adv-x="532" 
d="M154 -410v2048h225v-2048h-225z" />
    <glyph glyph-name="braceright" unicode="}" horiz-adv-x="799" 
d="M352 1720q113 -84 144.5 -220.5t-31.5 -274.5l-105 -228q-13 -27 0 -48t46 -21h280v-226h-280q-34 0 -46.5 -20.5t0.5 -48.5l105 -227q63 -139 31.5 -275t-144.5 -221h-270v24l186 193q55 55 25 121l-137 299q-37 76 -16 156t91 110v4q-70 30 -91 110t16 156l137 299
q30 66 -25 121l-186 193v24h270z" />
    <glyph glyph-name="asciitilde" unicode="~" horiz-adv-x="1274" 
d="M836 1350q-35 0 -93 14l-153 41q-41 12 -68 12q-18 0 -29.5 -11t-11.5 -30v-16h-190v96q0 68 40 108t107 40q32 0 92 -15l154 -41q41 -12 68 -12q18 0 29.5 11t11.5 30v16h190v-96q0 -67 -39.5 -107t-107.5 -40z" />
    <glyph glyph-name="uni00A0" unicode="&#xa0;" horiz-adv-x="471" 
 />
    <glyph glyph-name="exclamdown" unicode="&#xa1;" horiz-adv-x="512" 
d="M356 643l13 -367v-808h-226v808l13 367h200zM133 848v258h246v-258h-246z" />
    <glyph glyph-name="cent" unicode="&#xa2;" horiz-adv-x="1233" 
d="M508 0v257q-157 29 -256 128q-76 75 -118 192t-42 232v20q0 116 42 232.5t118 191.5q96 98 256 129v256h225v-255q151 -29 256 -134q57 -57 95.5 -133.5t45.5 -152.5v-21h-225v62q0 82 -50.5 133t-133.5 51h-203q-84 0 -134 -50t-50 -134v-369q0 -85 50 -134.5t134 -49.5
h203q83 0 133.5 50.5t50.5 133.5v61h225v-20q-7 -76 -45 -152.5t-96 -134.5q-104 -104 -256 -133v-256h-225z" />
    <glyph glyph-name="sterling" unicode="&#xa3;" horiz-adv-x="1448" 
d="M123 0v215h174q43 0 67.5 24.5t24.5 67.5v213h-211v197h211v20q0 27 -20 47l-179 179q-88 88 -88 221v20q0 168 125 293q83 83 194.5 122.5t285.5 39.5q317 0 479 -162q72 -72 112.5 -162t47.5 -174v-20h-226v28q0 98 -97 186.5t-218 88.5h-201q-123 0 -194.5 -65
t-71.5 -162v-50q0 -53 39 -92q102 -102 158 -157q79 -80 79 -201h281v-197h-281v-135q0 -55 -16.5 -100.5t-44.5 -69.5h547v238h225v-453h-1202z" />
    <glyph glyph-name="currency" unicode="&#xa4;" horiz-adv-x="1485" 
d="M217 152l-145 143l243 244q-79 113 -79 254v20q0 141 83 260l-241 242l145 143l246 -246q123 76 272 76q148 0 275 -76l246 246l145 -143l-244 -244q84 -115 84 -258v-20q0 -140 -78 -254l244 -244l-145 -143l-246 245q-129 -82 -281 -82q-146 0 -280 80zM461 793
q0 -107 81 -185t195 -78h8q115 0 196 78t81 185v20q0 105 -81.5 182.5t-195.5 77.5h-8q-114 0 -195 -77.5t-81 -182.5v-20z" />
    <glyph glyph-name="yen" unicode="&#xa5;" horiz-adv-x="1577" 
d="M362 252v147h310v148h-310v147h310v3l-600 921v20h262l467 -735h4l465 735h235v-20l-600 -921v-3h318v-147h-318v-148h318v-147h-318v-252h-233v252h-310z" />
    <glyph glyph-name="brokenbar" unicode="&#xa6;" horiz-adv-x="532" 
d="M154 860v778h225v-778h-225zM154 -410v779h225v-779h-225z" />
    <glyph glyph-name="section" unicode="&#xa7;" horiz-adv-x="1487" 
d="M731 -430q-249 0 -362 115q-50 50 -74.5 113.5t-24.5 123.5v21h201v-23q0 -65 43 -107t109 -42h243q111 0 111 110v76q0 60 -59 94l-562 311q-136 76 -200 168t-64 215v21q0 78 26.5 148.5t76.5 119.5q72 72 214 103q-112 97 -112 200v21q0 110 90 201q101 100 336 100
q241 0 346 -107q93 -92 100 -219v-20h-202v71q0 34 -20 54t-54 20h-309q-34 0 -54 -20t-20 -54v-41q0 -42 45 -75l575 -400q148 -102 206.5 -192t58.5 -191v-22q0 -60 -23 -120.5t-61 -98.5q-77 -77 -203 -90q82 -85 82 -228v-4q0 -143 -96 -239q-113 -113 -363 -113z
M305 709q0 -51 19 -81t71 -59l461 -254h223q48 0 75.5 27.5t27.5 75.5v98q0 80 -78 133l-455 320h-162q-84 0 -133 -44.5t-49 -121.5v-94z" />
    <glyph glyph-name="dieresis" unicode="&#xa8;" horiz-adv-x="1274" 
d="M774 1360q-35 0 -55.5 20.5t-20.5 55.5v127q0 35 20.5 55t55.5 20h74q35 0 55.5 -20t20.5 -55v-127q0 -35 -20.5 -55.5t-55.5 -20.5h-74zM350 1436v127q0 35 20.5 55t55.5 20h74q35 0 55 -20t20 -55v-127q0 -35 -20 -55.5t-55 -20.5h-74q-35 0 -55.5 20.5t-20.5 55.5z
" />
    <glyph glyph-name="copyright" unicode="&#xa9;" horiz-adv-x="1290" 
d="M645 438q-258 0 -414 154q-85 85 -127.5 189.5t-42.5 256.5v21q0 152 42.5 256.5t127.5 189.5q154 154 414 154q262 0 414 -154q85 -85 127.5 -189.5t42.5 -256.5v-21q0 -152 -42.5 -256.5t-127.5 -189.5q-154 -154 -414 -154zM160 977q0 -193 135.5 -320t333.5 -127h33
q198 0 333 127t135 320v143q0 193 -135 320t-333 127h-33q-198 0 -333.5 -127t-135.5 -320v-143zM344 1038v21q0 71 24 135t68 106q82 82 217 82q63 0 120.5 -21t96.5 -61q69 -69 78 -178h-137v2q0 60 -45.5 101t-112.5 41h-4q-72 0 -120 -47t-48 -119v-103q0 -72 48 -120
t120 -48h4q67 0 112.5 42t45.5 102v2h137q-9 -111 -78 -180q-37 -38 -95.5 -59t-121.5 -21q-134 0 -217 80q-92 92 -92 243z" />
    <glyph glyph-name="ordfeminine" unicode="&#xaa;" horiz-adv-x="1274" 
d="M133 193v192h1008v-192h-1008zM123 838v20q0 50 22.5 103.5t63.5 95.5q87 87 256 108l383 45v183q0 28 -17 44.5t-45 16.5h-354q-28 0 -44.5 -16.5t-16.5 -44.5v-78h-226v20q22 118 105 201q123 123 356 123q240 0 359 -119q108 -109 108 -321v-687h-215v99l-125 -86
q-90 -33 -198 -33q-100 0 -182.5 29t-135.5 82q-42 42 -68 100.5t-26 114.5zM358 774q0 -28 17 -44.5t45 -16.5h366q28 0 45 16.5t17 44.5v250l-430 -51q-27 -3 -43.5 -21t-16.5 -43v-135z" />
    <glyph glyph-name="guillemotleft" unicode="&#xab;" horiz-adv-x="997" 
d="M752 98l-312 473v21l312 473h184v-21l-304 -462l304 -463v-21h-184zM61 571v21l312 473h184v-21l-304 -462l304 -463v-21h-184z" />
    <glyph glyph-name="uni00AD" unicode="&#xad;" horiz-adv-x="993" 
d="M143 682v188h707v-188h-707z" />
    <glyph glyph-name="registered" unicode="&#xae;" horiz-adv-x="1290" 
d="M645 438q-258 0 -414 154q-85 85 -127.5 189.5t-42.5 256.5v21q0 152 42.5 256.5t127.5 189.5q154 154 414 154q262 0 414 -154q85 -85 127.5 -189.5t42.5 -256.5v-21q0 -152 -42.5 -256.5t-127.5 -189.5q-154 -154 -414 -154zM160 977q0 -193 135.5 -320t333.5 -127h33
q198 0 333 127t135 320v143q0 193 -135 320t-333 127h-33q-198 0 -333.5 -127t-135.5 -320v-143zM391 705v641h248q151 0 221 -70q62 -62 62 -168v-21q0 -107 -62 -167q-34 -34 -83 -50l145 -165h-183l-119 145h-90v-145h-139zM530 993h187q28 0 44.5 17t16.5 45v86
q0 28 -16.5 44.5t-44.5 16.5h-187v-209z" />
    <glyph glyph-name="macron" unicode="&#xaf;" horiz-adv-x="1274" 
d="M342 1360v192h590v-192h-590z" />
    <glyph glyph-name="degree" unicode="&#xb0;" horiz-adv-x="1094" 
d="M547 795q-182 0 -307 127q-127 125 -127 307q0 180 127 307q125 127 307 127q180 0 307 -127t127 -307q0 -182 -127 -307q-127 -127 -307 -127zM358 1163q0 -50 36.5 -86.5t86.5 -36.5h131q51 0 87 36.5t36 86.5v131q0 51 -36 87t-87 36h-131q-50 0 -86.5 -36t-36.5 -87
v-131z" />
    <glyph glyph-name="acute" unicode="&#xb4;" horiz-adv-x="1274" 
d="M547 1274v26l250 338h250v-26l-291 -338h-209z" />
    <glyph glyph-name="paragraph" unicode="&#xb6;" horiz-adv-x="1337" 
d="M569 705q-189 0 -322.5 133.5t-133.5 322.5v21q0 189 133.5 322.5t322.5 133.5h287v-2048h-203v1115h-84zM981 -410v2048h203v-2048h-203z" />
    <glyph glyph-name="periodcentered" unicode="&#xb7;" horiz-adv-x="512" 
d="M133 571v258h246v-258h-246z" />
    <glyph glyph-name="cedilla" unicode="&#xb8;" horiz-adv-x="1233" 
d="M420 -410v166h244q20 0 20 21v41q0 20 -20 20h-154v172h225v-59h4q83 0 132 -48.5t49 -131.5t-49 -132t-132 -49h-319z" />
    <glyph glyph-name="ordmasculine" unicode="&#xba;" horiz-adv-x="1274" 
d="M133 193v192h1008v-192h-1008zM113 1075v21q0 114 43.5 232.5t117.5 193.5q66 66 161 101.5t202 35.5q106 0 201 -35.5t161 -101.5q75 -75 118.5 -193.5t43.5 -232.5v-21q0 -114 -43.5 -232.5t-118.5 -193.5q-66 -66 -161 -101.5t-201 -35.5q-107 0 -202 35.5t-161 101.5
q-74 75 -117.5 193.5t-43.5 232.5zM354 901q0 -85 50 -134.5t135 -49.5h196q85 0 135 49.5t50 134.5v369q0 84 -50 134t-135 50h-196q-85 0 -135 -50t-50 -134v-369z" />
    <glyph glyph-name="guillemotright" unicode="&#xbb;" horiz-adv-x="997" 
d="M246 1065l311 -473v-21l-311 -473h-185v21l305 463l-305 462v21h185zM440 98v21l305 463l-305 462v21h185l311 -473v-21l-311 -473h-185z" />
    <glyph glyph-name="questiondown" unicode="&#xbf;" horiz-adv-x="1305" 
d="M774 494q0 -120 -57.5 -204.5t-173.5 -121.5l-174 -55q-38 -13 -60 -46.5t-22 -76.5v-133q0 -94 55.5 -149.5t149.5 -55.5h290q94 0 149.5 55.5t55.5 149.5v39h225v-21q-5 -71 -40 -147t-97 -138q-143 -143 -432 -143q-301 0 -446 145q-67 67 -101.5 151.5t-34.5 168.5
v20q0 136 86.5 249t229.5 157l145 45q39 12 39 61v248h213v-198zM541 848v258h245v-258h-245z" />
    <glyph glyph-name="Agrave" unicode="&#xc0;" horiz-adv-x="1632" 
d="M72 0v20l596 1618h297l596 -1618v-20h-242l-142 383h-748l-142 -383h-215zM504 592h598l-207 584l-90 258h-4l-90 -258zM506 1837v203h20l600 -119v-184h-20z" />
    <glyph glyph-name="Aacute" unicode="&#xc1;" horiz-adv-x="1632" 
d="M72 0v20l596 1618h297l596 -1618v-20h-242l-142 383h-748l-142 -383h-215zM504 592h598l-207 584l-90 258h-4l-90 -258zM506 1737v184l600 119h20v-203l-600 -100h-20z" />
    <glyph glyph-name="Acircumflex" unicode="&#xc2;" horiz-adv-x="1632" 
d="M72 0v20l596 1618h297l596 -1618v-20h-242l-142 383h-748l-142 -383h-215zM453 1747v205l358 59h12l359 -59v-205h-15l-350 57l-350 -57h-14zM504 592h598l-207 584l-90 258h-4l-90 -258z" />
    <glyph glyph-name="Atilde" unicode="&#xc3;" horiz-adv-x="1632" 
d="M72 0v20l596 1618h297l596 -1618v-20h-242l-142 383h-748l-142 -383h-215zM457 1786v96q0 68 40 108t107 40q32 0 92 -15l154 -41q40 -12 68 -12q18 0 29 11t11 30v16h191v-96q0 -68 -40 -107.5t-108 -39.5q-34 0 -92 14l-153 41q-40 12 -68 12q-18 0 -29.5 -11
t-11.5 -30v-16h-190zM504 592h598l-207 584l-90 258h-4l-90 -258z" />
    <glyph glyph-name="Adieresis" unicode="&#xc4;" horiz-adv-x="1632" 
d="M72 0v20l596 1618h297l596 -1618v-20h-242l-142 383h-748l-142 -383h-215zM504 592h598l-207 584l-90 258h-4l-90 -258zM530 1812v127q0 36 20.5 56t55.5 20h74q35 0 55.5 -20t20.5 -56v-127q0 -35 -20.5 -55t-55.5 -20h-74q-35 0 -55.5 20t-20.5 55zM879 1812v127
q0 36 20 56t55 20h74q35 0 55.5 -20t20.5 -56v-127q0 -35 -20.5 -55t-55.5 -20h-74q-35 0 -55 20t-20 55z" />
    <glyph glyph-name="Aring" unicode="&#xc5;" horiz-adv-x="1632" 
d="M72 0v20l596 1618h297l596 -1618v-20h-242l-142 383h-748l-142 -383h-215zM504 592h598l-207 584l-90 258h-4l-90 -258zM516 1954q0 65 8 100t31 57q28 28 81 40t181 12t181 -12t81 -40q23 -22 31 -57t8 -100t-8 -100t-31 -58q-28 -28 -81 -39.5t-181 -11.5t-181 11.5
t-81 39.5q-23 23 -31 58t-8 100zM696 1944q0 -25 14.5 -39.5t39.5 -14.5h139q25 0 39 14.5t14 39.5v32q0 25 -14 39.5t-39 14.5h-139q-25 0 -39.5 -14.5t-14.5 -39.5v-32z" />
    <glyph glyph-name="AE" unicode="&#xc6;" horiz-adv-x="2271" 
d="M72 0v20l903 1618h1194v-208h-819v-494h770v-209h-770v-518h819v-209h-1053v375h-577l-209 -375h-258zM664 600h452v834h-4l-133 -258z" />
    <glyph glyph-name="Ccedilla" unicode="&#xc7;" horiz-adv-x="1686" 
d="M668 -410v166h243q21 0 21 21v41q0 20 -21 20h-153v149q-246 29 -402 185q-107 107 -165 269.5t-58 367.5v20q0 205 58 367.5t165 269.5q193 193 518 193q326 0 519 -193q151 -151 180 -389v-20h-225v20q0 171 -104.5 270t-282.5 99h-173q-187 0 -298 -111.5t-111 -298.5
v-434q0 -187 111 -298t298 -111h173q178 0 282.5 99t104.5 269v21h225v-21q-29 -237 -180 -389q-158 -158 -410 -186v-35h4q83 0 131.5 -48.5t48.5 -131.5t-48.5 -132t-131.5 -49h-319z" />
    <glyph glyph-name="Egrave" unicode="&#xc8;" horiz-adv-x="1309" 
d="M154 0v1638h1052v-208h-819v-494h770v-209h-770v-518h819v-209h-1052zM385 1837v203h21l600 -119v-184h-21z" />
    <glyph glyph-name="Eacute" unicode="&#xc9;" horiz-adv-x="1309" 
d="M154 0v1638h1052v-208h-819v-494h770v-209h-770v-518h819v-209h-1052zM385 1737v184l600 119h21v-203l-600 -100h-21z" />
    <glyph glyph-name="Ecircumflex" unicode="&#xca;" horiz-adv-x="1309" 
d="M154 0v1638h1052v-208h-819v-494h770v-209h-770v-518h819v-209h-1052zM332 1747v205l358 59h12l359 -59v-205h-14l-351 57l-350 -57h-14z" />
    <glyph glyph-name="Edieresis" unicode="&#xcb;" horiz-adv-x="1309" 
d="M154 0v1638h1052v-208h-819v-494h770v-209h-770v-518h819v-209h-1052zM410 1812v127q0 36 20 56t55 20h74q35 0 55.5 -20t20.5 -56v-127q0 -35 -20.5 -55t-55.5 -20h-74q-35 0 -55 20t-20 55zM758 1812v127q0 36 20 56t56 20h73q35 0 55.5 -20t20.5 -56v-127
q0 -35 -20.5 -55t-55.5 -20h-73q-36 0 -56 20t-20 55z" />
    <glyph glyph-name="Igrave" unicode="&#xcc;" horiz-adv-x="541" 
d="M154 0v1638h233v-1638h-233zM-39 1837v203h21l600 -119v-184h-21z" />
    <glyph glyph-name="Iacute" unicode="&#xcd;" horiz-adv-x="541" 
d="M154 0v1638h233v-1638h-233zM-39 1737v184l600 119h21v-203l-600 -100h-21z" />
    <glyph glyph-name="Icircumflex" unicode="&#xce;" horiz-adv-x="541" 
d="M154 0v1638h233v-1638h-233zM-92 1747v205l358 59h13l358 -59v-205h-14l-351 57l-350 -57h-14z" />
    <glyph glyph-name="Idieresis" unicode="&#xcf;" horiz-adv-x="541" 
d="M154 0v1638h233v-1638h-233zM-14 1812v127q0 36 20 56t55 20h74q35 0 55.5 -20t20.5 -56v-127q0 -35 -20.5 -55t-55.5 -20h-74q-35 0 -55 20t-20 55zM334 1812v127q0 36 20 56t56 20h73q35 0 55.5 -20t20.5 -56v-127q0 -35 -20.5 -55t-55.5 -20h-73q-36 0 -56 20t-20 55z
" />
    <glyph glyph-name="Eth" unicode="&#xd0;" horiz-adv-x="1655" 
d="M154 0v737h-154v185h154v716h614q167 0 306.5 -48.5t230.5 -137.5q104 -103 160.5 -265t56.5 -358v-20q0 -195 -55 -356t-158 -263q-94 -92 -234 -141t-307 -49h-614zM387 209h479q189 0 299.5 110.5t110.5 298.5v402q0 189 -110.5 299.5t-299.5 110.5h-479v-508h440
v-185h-440v-528z" />
    <glyph glyph-name="Ntilde" unicode="&#xd1;" horiz-adv-x="1587" 
d="M154 0v1638h208l863 -1257h4l-4 952v305h209v-1638h-209l-863 1257h-4l4 -952v-305h-208zM434 1786v96q0 68 40 108t108 40q30 0 92 -15l153 -41q40 -12 68 -12q19 0 30 11t11 30v16h190v-96q0 -67 -40 -107t-107 -40q-34 0 -92 14l-154 41q-39 12 -67 12q-19 0 -30 -11
t-11 -30v-16h-191z" />
    <glyph glyph-name="Ograve" unicode="&#xd2;" horiz-adv-x="1749" 
d="M874 -20q-326 0 -518 192q-107 107 -165 269.5t-58 367.5v20q0 205 58 367.5t165 269.5q193 193 518 193q326 0 519 -193q107 -107 165 -269.5t58 -367.5v-20q0 -205 -58 -367.5t-165 -269.5q-192 -192 -519 -192zM379 602q0 -187 111 -298t298 -111h173q187 0 298 111
t111 298v434q0 187 -111 298.5t-298 111.5h-173q-187 0 -298 -111.5t-111 -298.5v-434zM563 1837v203h21l600 -119v-184h-21z" />
    <glyph glyph-name="Oacute" unicode="&#xd3;" horiz-adv-x="1749" 
d="M874 -20q-326 0 -518 192q-107 107 -165 269.5t-58 367.5v20q0 205 58 367.5t165 269.5q193 193 518 193q326 0 519 -193q107 -107 165 -269.5t58 -367.5v-20q0 -205 -58 -367.5t-165 -269.5q-192 -192 -519 -192zM379 602q0 -187 111 -298t298 -111h173q187 0 298 111
t111 298v434q0 187 -111 298.5t-298 111.5h-173q-187 0 -298 -111.5t-111 -298.5v-434zM563 1737v184l600 119h21v-203l-600 -100h-21z" />
    <glyph glyph-name="Ocircumflex" unicode="&#xd4;" horiz-adv-x="1749" 
d="M874 -20q-326 0 -518 192q-107 107 -165 269.5t-58 367.5v20q0 205 58 367.5t165 269.5q193 193 518 193q326 0 519 -193q107 -107 165 -269.5t58 -367.5v-20q0 -205 -58 -367.5t-165 -269.5q-192 -192 -519 -192zM379 602q0 -187 111 -298t298 -111h173q187 0 298 111
t111 298v434q0 187 -111 298.5t-298 111.5h-173q-187 0 -298 -111.5t-111 -298.5v-434zM510 1747v205l358 59h13l358 -59v-205h-14l-351 57l-350 -57h-14z" />
    <glyph glyph-name="Otilde" unicode="&#xd5;" horiz-adv-x="1749" 
d="M874 -20q-326 0 -518 192q-107 107 -165 269.5t-58 367.5v20q0 205 58 367.5t165 269.5q193 193 518 193q326 0 519 -193q107 -107 165 -269.5t58 -367.5v-20q0 -205 -58 -367.5t-165 -269.5q-192 -192 -519 -192zM379 602q0 -187 111 -298t298 -111h173q187 0 298 111
t111 298v434q0 187 -111 298.5t-298 111.5h-173q-187 0 -298 -111.5t-111 -298.5v-434zM514 1786v96q0 68 40 108t108 40q30 0 92 -15l153 -41q41 -12 68 -12q18 0 29.5 11t11.5 30v16h190v-96q0 -67 -40 -107t-107 -40q-36 0 -92 14l-154 41q-41 12 -68 12q-18 0 -29 -11
t-11 -30v-16h-191z" />
    <glyph glyph-name="Odieresis" unicode="&#xd6;" horiz-adv-x="1749" 
d="M874 -20q-326 0 -518 192q-107 107 -165 269.5t-58 367.5v20q0 205 58 367.5t165 269.5q193 193 518 193q326 0 519 -193q107 -107 165 -269.5t58 -367.5v-20q0 -205 -58 -367.5t-165 -269.5q-192 -192 -519 -192zM379 602q0 -187 111 -298t298 -111h173q187 0 298 111
t111 298v434q0 187 -111 298.5t-298 111.5h-173q-187 0 -298 -111.5t-111 -298.5v-434zM588 1812v127q0 36 20 56t56 20h73q35 0 55.5 -20t20.5 -56v-127q0 -35 -20.5 -55t-55.5 -20h-73q-36 0 -56 20t-20 55zM936 1812v127q0 36 20.5 56t55.5 20h73q36 0 56 -20t20 -56
v-127q0 -35 -20 -55t-56 -20h-73q-35 0 -55.5 20t-20.5 55z" />
    <glyph glyph-name="multiply" unicode="&#xd7;" horiz-adv-x="1229" 
d="M260 129l-139 139l354 355l-354 354l139 139l354 -354l355 354l139 -139l-354 -354l354 -355l-139 -139l-355 354z" />
    <glyph glyph-name="Oslash" unicode="&#xd8;" horiz-adv-x="1749" 
d="M874 -20q-326 0 -518 192q-107 107 -165 269.5t-58 367.5v20q0 205 58 367.5t165 269.5q193 193 518 193q326 0 519 -193q107 -107 165 -269.5t58 -367.5v-20q0 -205 -58 -367.5t-165 -269.5q-192 -192 -519 -192zM379 606l965 592q-42 117 -142 182.5t-241 65.5h-173
q-187 0 -298 -111.5t-111 -298.5v-430zM404 443q41 -118 141.5 -184t242.5 -66h173q187 0 298 111t111 298v434z" />
    <glyph glyph-name="Ugrave" unicode="&#xd9;" horiz-adv-x="1546" 
d="M782 -20q-156 0 -279.5 42.5t-201.5 120.5q-74 75 -116 187t-42 248v1060h234v-1183q0 -123 71.5 -195t194.5 -72h281q122 0 194 72t72 195v1183h213v-1060q0 -138 -38.5 -255t-113.5 -192q-151 -151 -469 -151zM483 1837v203h21l600 -119v-184h-21z" />
    <glyph glyph-name="Uacute" unicode="&#xda;" horiz-adv-x="1546" 
d="M782 -20q-156 0 -279.5 42.5t-201.5 120.5q-74 75 -116 187t-42 248v1060h234v-1183q0 -123 71.5 -195t194.5 -72h281q122 0 194 72t72 195v1183h213v-1060q0 -138 -38.5 -255t-113.5 -192q-151 -151 -469 -151zM483 1737v184l600 119h21v-203l-600 -100h-21z" />
    <glyph glyph-name="Ucircumflex" unicode="&#xdb;" horiz-adv-x="1546" 
d="M782 -20q-156 0 -279.5 42.5t-201.5 120.5q-74 75 -116 187t-42 248v1060h234v-1183q0 -123 71.5 -195t194.5 -72h281q122 0 194 72t72 195v1183h213v-1060q0 -138 -38.5 -255t-113.5 -192q-151 -151 -469 -151zM430 1747v205l358 59h13l358 -59v-205h-14l-350 57
l-351 -57h-14z" />
    <glyph glyph-name="Udieresis" unicode="&#xdc;" horiz-adv-x="1546" 
d="M782 -20q-156 0 -279.5 42.5t-201.5 120.5q-74 75 -116 187t-42 248v1060h234v-1183q0 -123 71.5 -195t194.5 -72h281q122 0 194 72t72 195v1183h213v-1060q0 -138 -38.5 -255t-113.5 -192q-151 -151 -469 -151zM508 1812v127q0 36 20.5 56t55.5 20h73q36 0 56 -20
t20 -56v-127q0 -35 -20 -55t-56 -20h-73q-35 0 -55.5 20t-20.5 55zM856 1812v127q0 36 20.5 56t55.5 20h74q35 0 55 -20t20 -56v-127q0 -35 -20 -55t-55 -20h-74q-35 0 -55.5 20t-20.5 55z" />
    <glyph glyph-name="Yacute" unicode="&#xdd;" horiz-adv-x="1577" 
d="M672 0v697l-600 921v20h262l467 -735h4l465 735h235v-20l-600 -921v-697h-233zM477 1737v184l600 119h21v-203l-600 -100h-21z" />
    <glyph glyph-name="Thorn" unicode="&#xde;" horiz-adv-x="1481" 
d="M154 0v1638h233v-204h389q137 0 250.5 -38t185.5 -110q75 -74 115.5 -183.5t40.5 -228.5v-20q0 -117 -40 -224.5t-111 -178.5q-152 -152 -441 -152h-389v-299h-233zM387 508h531q93 0 148.5 55.5t55.5 149.5v307q0 94 -55.5 149.5t-148.5 55.5h-531v-717z" />
    <glyph glyph-name="germandbls" unicode="&#xdf;" horiz-adv-x="1544" 
d="M154 1106q10 254 147 391q162 162 477 162q306 0 486 -178q133 -134 133 -283v-20q0 -98 -56 -185.5t-161 -138.5v-4q129 -55 200.5 -156t71.5 -221v-20q0 -187 -125 -312q-161 -161 -522 -161h-303v215h530q85 0 135 49.5t50 134.5v168q0 84 -50 134t-135 50h-530v217
h475q85 0 134.5 50t49.5 135v127q0 84 -49.5 134t-134.5 50h-414q-84 0 -134 -50t-50 -134v-1670h-225v1516z" />
    <glyph glyph-name="agrave" unicode="&#xe0;" horiz-adv-x="1186" 
d="M514 -20q-100 0 -182.5 28.5t-134.5 81.5q-43 42 -69 100.5t-26 114.5v21q0 49 22.5 103t63.5 95q87 87 256 109l383 45v182q0 28 -16.5 45t-44.5 17h-354q-28 0 -45 -17t-17 -45v-78h-225v21q20 116 104 201q124 122 357 122q238 0 358 -118q109 -109 109 -322v-686
h-215v98l-125 -86q-93 -32 -199 -32zM205 1612v26h250l250 -338v-26h-209zM338 242q0 -28 16.5 -45t44.5 -17h367q28 0 44.5 17t16.5 45v250l-430 -52q-27 -3 -43 -20.5t-16 -42.5v-135z" />
    <glyph glyph-name="aacute" unicode="&#xe1;" horiz-adv-x="1186" 
d="M514 -20q-100 0 -182.5 28.5t-134.5 81.5q-43 42 -69 100.5t-26 114.5v21q0 49 22.5 103t63.5 95q87 87 256 109l383 45v182q0 28 -16.5 45t-44.5 17h-354q-28 0 -45 -17t-17 -45v-78h-225v21q20 116 104 201q124 122 357 122q238 0 358 -118q109 -109 109 -322v-686
h-215v98l-125 -86q-93 -32 -199 -32zM338 242q0 -28 16.5 -45t44.5 -17h367q28 0 44.5 17t16.5 45v250l-430 -52q-27 -3 -43 -20.5t-16 -42.5v-135zM494 1274v26l249 338h250v-26l-291 -338h-208z" />
    <glyph glyph-name="acircumflex" unicode="&#xe2;" horiz-adv-x="1186" 
d="M514 -20q-100 0 -182.5 28.5t-134.5 81.5q-43 42 -69 100.5t-26 114.5v21q0 49 22.5 103t63.5 95q87 87 256 109l383 45v182q0 28 -16.5 45t-44.5 17h-354q-28 0 -45 -17t-17 -45v-78h-225v21q20 116 104 201q124 122 357 122q238 0 358 -118q109 -109 109 -322v-686
h-215v98l-125 -86q-93 -32 -199 -32zM254 1274v20l248 344h192l248 -344v-20h-225l-117 192h-4l-123 -192h-219zM338 242q0 -28 16.5 -45t44.5 -17h367q28 0 44.5 17t16.5 45v250l-430 -52q-27 -3 -43 -20.5t-16 -42.5v-135z" />
    <glyph glyph-name="atilde" unicode="&#xe3;" horiz-adv-x="1186" 
d="M514 -20q-100 0 -182.5 28.5t-134.5 81.5q-43 42 -69 100.5t-26 114.5v21q0 49 22.5 103t63.5 95q87 87 256 109l383 45v182q0 28 -16.5 45t-44.5 17h-354q-28 0 -45 -17t-17 -45v-78h-225v21q20 116 104 201q124 122 357 122q238 0 358 -118q109 -109 109 -322v-686
h-215v98l-125 -86q-93 -32 -199 -32zM252 1360v96q0 68 40 108t107 40q31 0 93 -15l153 -41q41 -12 68 -12q18 0 29.5 11t11.5 30v16h190v-96q0 -67 -40 -107t-107 -40q-36 0 -92 14l-154 41q-41 12 -68 12q-18 0 -29.5 -11t-11.5 -30v-16h-190zM338 242q0 -28 16.5 -45
t44.5 -17h367q28 0 44.5 17t16.5 45v250l-430 -52q-27 -3 -43 -20.5t-16 -42.5v-135z" />
    <glyph glyph-name="adieresis" unicode="&#xe4;" horiz-adv-x="1186" 
d="M514 -20q-100 0 -182.5 28.5t-134.5 81.5q-43 42 -69 100.5t-26 114.5v21q0 49 22.5 103t63.5 95q87 87 256 109l383 45v182q0 28 -16.5 45t-44.5 17h-354q-28 0 -45 -17t-17 -45v-78h-225v21q20 116 104 201q124 122 357 122q238 0 358 -118q109 -109 109 -322v-686
h-215v98l-125 -86q-93 -32 -199 -32zM311 1436v127q0 35 20.5 55t55.5 20h74q35 0 55.5 -20t20.5 -55v-127q0 -35 -20.5 -55.5t-55.5 -20.5h-74q-35 0 -55.5 20.5t-20.5 55.5zM338 242q0 -28 16.5 -45t44.5 -17h367q28 0 44.5 17t16.5 45v250l-430 -52q-27 -3 -43 -20.5
t-16 -42.5v-135zM659 1436v127q0 35 20.5 55t55.5 20h74q35 0 55.5 -20t20.5 -55v-127q0 -35 -20.5 -55.5t-55.5 -20.5h-74q-35 0 -55.5 20.5t-20.5 55.5z" />
    <glyph glyph-name="aring" unicode="&#xe5;" horiz-adv-x="1186" 
d="M514 -20q-100 0 -182.5 28.5t-134.5 81.5q-43 42 -69 100.5t-26 114.5v21q0 49 22.5 103t63.5 95q87 87 256 109l383 45v182q0 28 -16.5 45t-44.5 17h-354q-28 0 -45 -17t-17 -45v-78h-225v21q20 116 104 201q124 122 357 122q238 0 358 -118q109 -109 109 -322v-686
h-215v98l-125 -86q-93 -32 -199 -32zM307 1456q0 103 49 152q28 27 78 39t164 12t164 -12t78 -39q49 -49 49 -152t-49 -151q-28 -28 -78 -40t-164 -12t-164 12t-78 40q-49 48 -49 151zM338 242q0 -28 16.5 -45t44.5 -17h367q28 0 44.5 17t16.5 45v250l-430 -52
q-27 -3 -43 -20.5t-16 -42.5v-135zM475 1440q0 -25 14.5 -39.5t38.5 -14.5h140q24 0 38.5 14.5t14.5 39.5v33q0 24 -14.5 38.5t-38.5 14.5h-140q-24 0 -38.5 -14.5t-14.5 -38.5v-33z" />
    <glyph glyph-name="ae" unicode="&#xe6;" horiz-adv-x="1962" 
d="M530 0q-120 0 -202 20t-131 70q-43 42 -69 101.5t-26 121.5v4q0 121 86 207q87 87 256 109l383 45v182q0 28 -16.5 45t-44.5 17h-354q-28 0 -45 -17t-17 -45v-78h-225v4q18 131 104 218q103 102 365 102h743q122 0 206.5 -27.5t150.5 -93.5q155 -156 155 -430
q0 -38 -4 -76h-788v-110q0 -83 50.5 -134t133.5 -51h215q69 0 112.5 43.5t43.5 112.5v6h215v-4q-40 -128 -131 -219q-67 -67 -153.5 -95t-215.5 -28h-797zM338 242q0 -28 16.5 -45t44.5 -17h367q28 0 44.5 17t16.5 45v249l-430 -51q-27 -3 -43 -20.5t-16 -42.5v-135z
M1057 659h565v78q0 83 -50.5 134t-133.5 51h-197q-83 0 -133.5 -51t-50.5 -134v-78z" />
    <glyph glyph-name="ccedilla" unicode="&#xe7;" horiz-adv-x="1233" 
d="M451 -410v166h243q21 0 21 21v41q0 20 -21 20h-153v151q-165 28 -269 130q-75 75 -117 191.5t-42 232.5v20q0 116 42 232.5t117 191.5q69 68 167.5 103.5t205.5 35.5q222 0 365 -143q57 -58 95.5 -134.5t45.5 -152.5v-20h-225v61q0 83 -51 134t-134 51h-202
q-85 0 -135 -50t-50 -135v-368q0 -85 50 -135t135 -50h202q83 0 134 51t51 134v61h225v-20q-7 -76 -45.5 -152.5t-95.5 -134.5q-99 -99 -244 -131v-41h4q83 0 131.5 -48.5t48.5 -131.5t-48.5 -132t-131.5 -49h-319z" />
    <glyph glyph-name="egrave" unicode="&#xe8;" horiz-adv-x="1249" 
d="M631 -20q-222 0 -363 141q-72 72 -113.5 183t-41.5 239v20q0 129 41 241t112 183q139 139 363 139q211 0 352 -141q156 -156 156 -430q0 -38 -4 -76h-789v-110q0 -83 50.5 -134t133.5 -51h215q70 0 113 43.5t43 112.5v6h215v-4q-38 -127 -131 -219q-143 -143 -352 -143z
M244 1612v26h250l249 -338v-26h-208zM344 659h565v78q0 83 -50.5 134t-133.5 51h-197q-83 0 -133.5 -51t-50.5 -134v-78z" />
    <glyph glyph-name="eacute" unicode="&#xe9;" horiz-adv-x="1249" 
d="M631 -20q-222 0 -363 141q-72 72 -113.5 183t-41.5 239v20q0 129 41 241t112 183q139 139 363 139q211 0 352 -141q156 -156 156 -430q0 -38 -4 -76h-789v-110q0 -83 50.5 -134t133.5 -51h215q70 0 113 43.5t43 112.5v6h215v-4q-38 -127 -131 -219q-143 -143 -352 -143z
M344 659h565v78q0 83 -50.5 134t-133.5 51h-197q-83 0 -133.5 -51t-50.5 -134v-78zM532 1274v26l250 338h250v-26l-291 -338h-209z" />
    <glyph glyph-name="ecircumflex" unicode="&#xea;" horiz-adv-x="1249" 
d="M631 -20q-222 0 -363 141q-72 72 -113.5 183t-41.5 239v20q0 129 41 241t112 183q139 139 363 139q211 0 352 -141q156 -156 156 -430q0 -38 -4 -76h-789v-110q0 -83 50.5 -134t133.5 -51h215q70 0 113 43.5t43 112.5v6h215v-4q-38 -127 -131 -219q-143 -143 -352 -143z
M293 1274v20l248 344h192l248 -344v-20h-225l-117 192h-4l-123 -192h-219zM344 659h565v78q0 83 -50.5 134t-133.5 51h-197q-83 0 -133.5 -51t-50.5 -134v-78z" />
    <glyph glyph-name="edieresis" unicode="&#xeb;" horiz-adv-x="1249" 
d="M631 -20q-222 0 -363 141q-72 72 -113.5 183t-41.5 239v20q0 129 41 241t112 183q139 139 363 139q211 0 352 -141q156 -156 156 -430q0 -38 -4 -76h-789v-110q0 -83 50.5 -134t133.5 -51h215q70 0 113 43.5t43 112.5v6h215v-4q-38 -127 -131 -219q-143 -143 -352 -143z
M344 659h565v78q0 83 -50.5 134t-133.5 51h-197q-83 0 -133.5 -51t-50.5 -134v-78zM350 1436v127q0 35 20.5 55t55.5 20h74q35 0 55 -20t20 -55v-127q0 -35 -20 -55.5t-55 -20.5h-74q-35 0 -55.5 20.5t-20.5 55.5zM698 1436v127q0 35 20.5 55t55.5 20h74q35 0 55.5 -20
t20.5 -55v-127q0 -35 -20.5 -55.5t-55.5 -20.5h-74q-35 0 -55.5 20.5t-20.5 55.5z" />
    <glyph glyph-name="igrave" unicode="&#xec;" horiz-adv-x="512" 
d="M143 0v1106h226v-1106h-226zM-137 1612v26h250l249 -338v-26h-208z" />
    <glyph glyph-name="iacute" unicode="&#xed;" horiz-adv-x="512" 
d="M143 0v1106h226v-1106h-226zM152 1274v26l249 338h250v-26l-291 -338h-208z" />
    <glyph glyph-name="icircumflex" unicode="&#xee;" horiz-adv-x="512" 
d="M143 0v1106h226v-1106h-226zM-88 1274v20l248 344h192l248 -344v-20h-225l-117 192h-4l-123 -192h-219z" />
    <glyph glyph-name="idieresis" unicode="&#xef;" horiz-adv-x="512" 
d="M143 0v1106h226v-1106h-226zM-31 1436v127q0 35 20.5 55t55.5 20h74q35 0 55.5 -20t20.5 -55v-127q0 -35 -20.5 -55.5t-55.5 -20.5h-74q-35 0 -55.5 20.5t-20.5 55.5zM317 1436v127q0 35 20.5 55t55.5 20h74q35 0 55.5 -20t20.5 -55v-127q0 -35 -20.5 -55.5t-55.5 -20.5
h-74q-35 0 -55.5 20.5t-20.5 55.5z" />
    <glyph glyph-name="eth" unicode="&#xf0;" horiz-adv-x="1274" 
d="M637 -20q-107 0 -202 35.5t-161 101.5q-74 74 -117.5 192.5t-43.5 233.5v20q0 115 43 231t120 193q68 68 163 103.5t198 35.5q122 0 225 -49l43 -26l-112 135l-103 129h-424v188h273l-101 125v10h240l104 -135h267v-188h-121q114 -150 173.5 -334.5t59.5 -376.5v-53
q0 -120 -43.5 -239.5t-118.5 -194.5q-66 -66 -161 -101.5t-201 -35.5zM354 369q0 -85 50 -135t135 -50h196q85 0 135 50t50 135v368q0 83 -51 134t-134 51h-196q-83 0 -134 -51t-51 -134v-368z" />
    <glyph glyph-name="ntilde" unicode="&#xf1;" 
d="M143 0v1106h226v-107l88 70q96 57 221 57q94 0 179.5 -33t143.5 -92q125 -123 125 -348v-653h-225v758q0 74 -45 119t-119 45h-205q-73 0 -118 -45t-45 -119v-758h-226zM285 1360v96q0 68 40 108t107 40q32 0 92 -15l154 -41q41 -12 67 -12q19 0 30 11t11 30v16h191v-96
q0 -68 -40 -107.5t-108 -39.5q-34 0 -92 14l-153 41q-41 12 -68 12q-18 0 -29.5 -11t-11.5 -30v-16h-190z" />
    <glyph glyph-name="ograve" unicode="&#xf2;" horiz-adv-x="1274" 
d="M637 -20q-107 0 -202 35.5t-161 101.5q-74 74 -117.5 192.5t-43.5 233.5v20q0 115 43.5 233.5t117.5 192.5q66 66 161 101.5t202 35.5q106 0 201 -35.5t161 -101.5q75 -74 118.5 -192.5t43.5 -233.5v-20q0 -115 -43.5 -233.5t-118.5 -192.5q-66 -66 -161 -101.5
t-201 -35.5zM244 1612v26h250l249 -338v-26h-208zM354 369q0 -85 50 -135t135 -50h196q85 0 135 50t50 135v368q0 85 -50 135t-135 50h-196q-85 0 -135 -50t-50 -135v-368z" />
    <glyph glyph-name="oacute" unicode="&#xf3;" horiz-adv-x="1274" 
d="M637 -20q-107 0 -202 35.5t-161 101.5q-74 74 -117.5 192.5t-43.5 233.5v20q0 115 43.5 233.5t117.5 192.5q66 66 161 101.5t202 35.5q106 0 201 -35.5t161 -101.5q75 -74 118.5 -192.5t43.5 -233.5v-20q0 -115 -43.5 -233.5t-118.5 -192.5q-66 -66 -161 -101.5
t-201 -35.5zM354 369q0 -85 50 -135t135 -50h196q85 0 135 50t50 135v368q0 85 -50 135t-135 50h-196q-85 0 -135 -50t-50 -135v-368zM532 1274v26l250 338h250v-26l-291 -338h-209z" />
    <glyph glyph-name="ocircumflex" unicode="&#xf4;" horiz-adv-x="1274" 
d="M637 -20q-107 0 -202 35.5t-161 101.5q-74 74 -117.5 192.5t-43.5 233.5v20q0 115 43.5 233.5t117.5 192.5q66 66 161 101.5t202 35.5q106 0 201 -35.5t161 -101.5q75 -74 118.5 -192.5t43.5 -233.5v-20q0 -115 -43.5 -233.5t-118.5 -192.5q-66 -66 -161 -101.5
t-201 -35.5zM293 1274v20l248 344h192l248 -344v-20h-225l-117 192h-4l-123 -192h-219zM354 369q0 -85 50 -135t135 -50h196q85 0 135 50t50 135v368q0 85 -50 135t-135 50h-196q-85 0 -135 -50t-50 -135v-368z" />
    <glyph glyph-name="otilde" unicode="&#xf5;" horiz-adv-x="1274" 
d="M637 -20q-107 0 -202 35.5t-161 101.5q-74 74 -117.5 192.5t-43.5 233.5v20q0 115 43.5 233.5t117.5 192.5q66 66 161 101.5t202 35.5q106 0 201 -35.5t161 -101.5q75 -74 118.5 -192.5t43.5 -233.5v-20q0 -115 -43.5 -233.5t-118.5 -192.5q-66 -66 -161 -101.5
t-201 -35.5zM291 1360v96q0 68 40 108t107 40q32 0 92 -15l154 -41q41 -12 68 -12q18 0 29.5 11t11.5 30v16h190v-96q0 -67 -39.5 -107t-107.5 -40q-35 0 -93 14l-153 41q-41 12 -68 12q-18 0 -29.5 -11t-11.5 -30v-16h-190zM354 369q0 -85 50 -135t135 -50h196q85 0 135 50
t50 135v368q0 85 -50 135t-135 50h-196q-85 0 -135 -50t-50 -135v-368z" />
    <glyph glyph-name="odieresis" unicode="&#xf6;" horiz-adv-x="1274" 
d="M637 -20q-107 0 -202 35.5t-161 101.5q-74 74 -117.5 192.5t-43.5 233.5v20q0 115 43.5 233.5t117.5 192.5q66 66 161 101.5t202 35.5q106 0 201 -35.5t161 -101.5q75 -74 118.5 -192.5t43.5 -233.5v-20q0 -115 -43.5 -233.5t-118.5 -192.5q-66 -66 -161 -101.5
t-201 -35.5zM350 1436v127q0 35 20.5 55t55.5 20h74q35 0 55 -20t20 -55v-127q0 -35 -20 -55.5t-55 -20.5h-74q-35 0 -55.5 20.5t-20.5 55.5zM354 369q0 -85 50 -135t135 -50h196q85 0 135 50t50 135v368q0 85 -50 135t-135 50h-196q-85 0 -135 -50t-50 -135v-368zM698 1436
v127q0 35 20.5 55t55.5 20h74q35 0 55.5 -20t20.5 -55v-127q0 -35 -20.5 -55.5t-55.5 -20.5h-74q-35 0 -55.5 20.5t-20.5 55.5z" />
    <glyph glyph-name="oslash" unicode="&#xf8;" horiz-adv-x="1274" 
d="M637 -20q-107 0 -202 35.5t-161 101.5q-74 74 -117.5 192.5t-43.5 233.5v20q0 115 43.5 233.5t117.5 192.5q66 66 161 101.5t202 35.5q106 0 201 -35.5t161 -101.5q75 -74 118.5 -192.5t43.5 -233.5v-20q0 -115 -43.5 -233.5t-118.5 -192.5q-66 -66 -161 -101.5
t-201 -35.5zM354 454l559 342q-17 60 -63 93t-115 33h-196q-85 0 -135 -50t-50 -135v-283zM361 310q17 -60 63 -93t115 -33h196q85 0 135 50t50 135v283z" />
    <glyph glyph-name="ugrave" unicode="&#xf9;" 
d="M1116 1106v-1106h-225v106l-88 -69q-98 -57 -221 -57q-93 0 -179 33t-145 91q-125 125 -125 349v653h225v-758q0 -74 45 -119t119 -45h205q73 0 118.5 45t45.5 119v758h225zM238 1612v26h249l250 -338v-26h-209z" />
    <glyph glyph-name="uacute" unicode="&#xfa;" 
d="M1116 1106v-1106h-225v106l-88 -69q-98 -57 -221 -57q-93 0 -179 33t-145 91q-125 125 -125 349v653h225v-758q0 -74 45 -119t119 -45h205q73 0 118.5 45t45.5 119v758h225zM526 1274v26l250 338h250v-26l-291 -338h-209z" />
    <glyph glyph-name="ucircumflex" unicode="&#xfb;" 
d="M1116 1106v-1106h-225v106l-88 -69q-98 -57 -221 -57q-93 0 -179 33t-145 91q-125 125 -125 349v653h225v-758q0 -74 45 -119t119 -45h205q73 0 118.5 45t45.5 119v758h225zM287 1274v20l248 344h192l248 -344v-20h-225l-117 192h-4l-123 -192h-219z" />
    <glyph glyph-name="udieresis" unicode="&#xfc;" 
d="M1116 1106v-1106h-225v106l-88 -69q-98 -57 -221 -57q-93 0 -179 33t-145 91q-125 125 -125 349v653h225v-758q0 -74 45 -119t119 -45h205q73 0 118.5 45t45.5 119v758h225zM344 1436v127q0 35 20.5 55t55.5 20h74q35 0 55 -20t20 -55v-127q0 -35 -20 -55.5t-55 -20.5
h-74q-35 0 -55.5 20.5t-20.5 55.5zM692 1436v127q0 35 20.5 55t55.5 20h74q35 0 55.5 -20t20.5 -55v-127q0 -35 -20.5 -55.5t-55.5 -20.5h-74q-35 0 -55.5 20.5t-20.5 55.5z" />
    <glyph glyph-name="yacute" unicode="&#xfd;" horiz-adv-x="1214" 
d="M133 -410v189h262q56 0 72 47l62 174h-37l-400 1085v21h230l301 -848h4l303 848h192v-21l-438 -1191q-61 -164 -125 -228q-76 -76 -221 -76h-205zM532 1274v26l250 338h250v-26l-291 -338h-209z" />
    <glyph glyph-name="thorn" unicode="&#xfe;" horiz-adv-x="1315" 
d="M143 -410v2048h226v-532l-11 -92l95 63q103 49 221 49q105 0 200 -37t164 -106q78 -77 121 -191t43 -229v-20q0 -115 -43 -229t-121 -191q-69 -69 -164 -106t-200 -37q-118 0 -221 49l-95 63l11 -92v-410h-226zM365 369q0 -83 50.5 -134t133.5 -51h227q83 0 134 51
t51 134v368q0 83 -51 134t-134 51h-227q-83 0 -133.5 -51t-50.5 -134v-368z" />
    <glyph glyph-name="ydieresis" unicode="&#xff;" horiz-adv-x="1214" 
d="M133 -410v189h262q56 0 72 47l62 174h-37l-400 1085v21h230l301 -848h4l303 848h192v-21l-438 -1191q-61 -164 -125 -228q-76 -76 -221 -76h-205zM350 1436v127q0 35 20.5 55t55.5 20h74q35 0 55 -20t20 -55v-127q0 -35 -20 -55.5t-55 -20.5h-74q-35 0 -55.5 20.5
t-20.5 55.5zM698 1436v127q0 35 20.5 55t55.5 20h74q35 0 55.5 -20t20.5 -55v-127q0 -35 -20.5 -55.5t-55.5 -20.5h-74q-35 0 -55.5 20.5t-20.5 55.5z" />
    <glyph glyph-name="Amacron" unicode="&#x100;" horiz-adv-x="1632" 
d="M72 0v20l596 1618h297l596 -1618v-20h-242l-142 383h-748l-142 -383h-215zM504 592h598l-207 584l-90 258h-4l-90 -258zM522 1786v192h590v-192h-590z" />
    <glyph glyph-name="amacron" unicode="&#x101;" horiz-adv-x="1186" 
d="M514 -20q-100 0 -182.5 28.5t-134.5 81.5q-43 42 -69 100.5t-26 114.5v21q0 49 22.5 103t63.5 95q87 87 256 109l383 45v182q0 28 -16.5 45t-44.5 17h-354q-28 0 -45 -17t-17 -45v-78h-225v21q20 116 104 201q124 122 357 122q238 0 358 -118q109 -109 109 -322v-686
h-215v98l-125 -86q-93 -32 -199 -32zM303 1360v192h590v-192h-590zM338 242q0 -28 16.5 -45t44.5 -17h367q28 0 44.5 17t16.5 45v250l-430 -52q-27 -3 -43 -20.5t-16 -42.5v-135z" />
    <glyph glyph-name="Abreve" unicode="&#x102;" horiz-adv-x="1632" 
d="M72 0v20l596 1618h297l596 -1618v-20h-242l-142 383h-748l-142 -383h-215zM453 1819v190h14q139 -90 350 -90t350 90h15v-190q-118 -74 -365 -74t-364 74zM504 592h598l-207 584l-90 258h-4l-90 -258z" />
    <glyph glyph-name="abreve" unicode="&#x103;" horiz-adv-x="1186" 
d="M514 -20q-100 0 -182.5 28.5t-134.5 81.5q-43 42 -69 100.5t-26 114.5v21q0 49 22.5 103t63.5 95q87 87 256 109l383 45v182q0 28 -16.5 45t-44.5 17h-354q-28 0 -45 -17t-17 -45v-78h-225v21q20 116 104 201q124 122 357 122q238 0 358 -118q109 -109 109 -322v-686
h-215v98l-125 -86q-93 -32 -199 -32zM281 1581v57h198v-96q0 -49 31 -80.5t82 -31.5h12q51 0 82 31.5t31 80.5v96h198v-57q0 -147 -85 -237.5t-232 -90.5t-232 90.5t-85 237.5zM338 242q0 -28 16.5 -45t44.5 -17h367q28 0 44.5 17t16.5 45v250l-430 -52q-27 -3 -43 -20.5
t-16 -42.5v-135z" />
    <glyph glyph-name="Aogonek" unicode="&#x104;" horiz-adv-x="1632" 
d="M72 0v20l596 1618h297l596 -1618v-20l-60 -90q-18 -27 -18 -64v-20q0 -49 47 -49h65v-187h-135q-94 0 -148.5 56t-54.5 147q0 82 52 156l34 51h-24l-142 383h-748l-142 -383h-215zM504 592h598l-207 584l-90 258h-4l-90 -258z" />
    <glyph glyph-name="aogonek" unicode="&#x105;" horiz-adv-x="1186" 
d="M514 -20q-100 0 -182.5 28.5t-134.5 81.5q-43 42 -69 100.5t-26 114.5v21q0 49 22.5 103t63.5 95q87 87 256 109l383 45v182q0 28 -16.5 45t-44.5 17h-354q-28 0 -45 -17t-17 -45v-78h-225v21q20 116 104 201q124 122 357 122q238 0 358 -118q109 -109 109 -322v-686
l-60 -90q-18 -27 -18 -64v-20q0 -49 47 -49h65v-187h-135q-94 0 -148 56t-54 147q0 83 51 156l35 51h2v98l-125 -86q-93 -32 -199 -32zM338 242q0 -28 16.5 -45t44.5 -17h367q28 0 44.5 17t16.5 45v250l-430 -52q-27 -3 -43 -20.5t-16 -42.5v-135z" />
    <glyph glyph-name="Cacute" unicode="&#x106;" horiz-adv-x="1686" 
d="M874 -20q-326 0 -518 192q-107 107 -165 269.5t-58 367.5v20q0 205 58 367.5t165 269.5q193 193 518 193q326 0 519 -193q151 -151 180 -389v-20h-225v20q0 171 -104.5 270t-282.5 99h-173q-187 0 -298 -111.5t-111 -298.5v-434q0 -187 111 -298t298 -111h173
q178 0 282.5 99t104.5 269v21h225v-21q-29 -237 -180 -389q-192 -192 -519 -192zM563 1737v184l600 119h21v-203l-600 -100h-21z" />
    <glyph glyph-name="cacute" unicode="&#x107;" horiz-adv-x="1233" 
d="M645 -20q-107 0 -205.5 35.5t-167.5 103.5q-75 75 -117 191.5t-42 232.5v20q0 116 42 232.5t117 191.5q69 68 167.5 103.5t205.5 35.5q222 0 365 -143q57 -58 95.5 -134.5t45.5 -152.5v-20h-225v61q0 83 -51 134t-134 51h-202q-85 0 -135 -50t-50 -135v-368
q0 -85 50 -135t135 -50h202q83 0 134 51t51 134v61h225v-20q-7 -76 -45.5 -152.5t-95.5 -134.5q-143 -143 -365 -143zM545 1274v26l250 338h249v-26l-290 -338h-209z" />
    <glyph glyph-name="Ccircumflex" unicode="&#x108;" horiz-adv-x="1686" 
d="M874 -20q-326 0 -518 192q-107 107 -165 269.5t-58 367.5v20q0 205 58 367.5t165 269.5q193 193 518 193q326 0 519 -193q151 -151 180 -389v-20h-225v20q0 171 -104.5 270t-282.5 99h-173q-187 0 -298 -111.5t-111 -298.5v-434q0 -187 111 -298t298 -111h173
q178 0 282.5 99t104.5 269v21h225v-21q-29 -237 -180 -389q-192 -192 -519 -192zM510 1747v205l358 59h13l358 -59v-205h-14l-351 57l-350 -57h-14z" />
    <glyph glyph-name="ccircumflex" unicode="&#x109;" horiz-adv-x="1233" 
d="M645 -20q-107 0 -205.5 35.5t-167.5 103.5q-75 75 -117 191.5t-42 232.5v20q0 116 42 232.5t117 191.5q69 68 167.5 103.5t205.5 35.5q222 0 365 -143q57 -58 95.5 -134.5t45.5 -152.5v-20h-225v61q0 83 -51 134t-134 51h-202q-85 0 -135 -50t-50 -135v-368
q0 -85 50 -135t135 -50h202q83 0 134 51t51 134v61h225v-20q-7 -76 -45.5 -152.5t-95.5 -134.5q-143 -143 -365 -143zM305 1274v20l248 344h192l248 -344v-20h-225l-117 192h-4l-123 -192h-219z" />
    <glyph glyph-name="Cdotaccent" unicode="&#x10a;" horiz-adv-x="1686" 
d="M874 -20q-326 0 -518 192q-107 107 -165 269.5t-58 367.5v20q0 205 58 367.5t165 269.5q193 193 518 193q326 0 519 -193q151 -151 180 -389v-20h-225v20q0 171 -104.5 270t-282.5 99h-173q-187 0 -298 -111.5t-111 -298.5v-434q0 -187 111 -298t298 -111h173
q178 0 282.5 99t104.5 269v21h225v-21q-29 -237 -180 -389q-192 -192 -519 -192zM752 1812v127q0 36 20 56t55 20h95q35 0 55 -20t20 -56v-127q0 -35 -20 -55t-55 -20h-95q-35 0 -55 20t-20 55z" />
    <glyph glyph-name="cdotaccent" unicode="&#x10b;" horiz-adv-x="1233" 
d="M645 -20q-107 0 -205.5 35.5t-167.5 103.5q-75 75 -117 191.5t-42 232.5v20q0 116 42 232.5t117 191.5q69 68 167.5 103.5t205.5 35.5q222 0 365 -143q57 -58 95.5 -134.5t45.5 -152.5v-20h-225v61q0 83 -51 134t-134 51h-202q-85 0 -135 -50t-50 -135v-368
q0 -85 50 -135t135 -50h202q83 0 134 51t51 134v61h225v-20q-7 -76 -45.5 -152.5t-95.5 -134.5q-143 -143 -365 -143zM526 1436v127q0 35 20.5 55t55.5 20h94q35 0 55.5 -20t20.5 -55v-127q0 -35 -20.5 -55.5t-55.5 -20.5h-94q-35 0 -55.5 20.5t-20.5 55.5z" />
    <glyph glyph-name="Ccaron" unicode="&#x10c;" horiz-adv-x="1686" 
d="M874 -20q-326 0 -518 192q-107 107 -165 269.5t-58 367.5v20q0 205 58 367.5t165 269.5q193 193 518 193q326 0 519 -193q151 -151 180 -389v-20h-225v20q0 171 -104.5 270t-282.5 99h-173q-187 0 -298 -111.5t-111 -298.5v-434q0 -187 111 -298t298 -111h173
q178 0 282.5 99t104.5 269v21h225v-21q-29 -237 -180 -389q-192 -192 -519 -192zM510 1804v205h14l350 -57l351 57h14v-205l-358 -59h-13z" />
    <glyph glyph-name="ccaron" unicode="&#x10d;" horiz-adv-x="1233" 
d="M645 -20q-107 0 -205.5 35.5t-167.5 103.5q-75 75 -117 191.5t-42 232.5v20q0 116 42 232.5t117 191.5q69 68 167.5 103.5t205.5 35.5q222 0 365 -143q57 -58 95.5 -134.5t45.5 -152.5v-20h-225v61q0 83 -51 134t-134 51h-202q-85 0 -135 -50t-50 -135v-368
q0 -85 50 -135t135 -50h202q83 0 134 51t51 134v61h225v-20q-7 -76 -45.5 -152.5t-95.5 -134.5q-143 -143 -365 -143zM305 1618v20h225l117 -192h4l123 192h219v-20l-248 -344h-192z" />
    <glyph glyph-name="Dcaron" unicode="&#x10e;" horiz-adv-x="1655" 
d="M154 0v1638h614q167 0 306.5 -48.5t230.5 -137.5q104 -103 160.5 -265t56.5 -358v-20q0 -195 -55 -356t-158 -263q-94 -92 -234 -141t-307 -49h-614zM373 1804v205h14l350 -57l350 57h15v-205l-359 -59h-12zM387 209h479q189 0 299.5 110.5t110.5 298.5v402
q0 189 -110.5 299.5t-299.5 110.5h-479v-1221z" />
    <glyph glyph-name="dcaron" unicode="&#x10f;" horiz-adv-x="1325" 
d="M637 -20q-103 0 -198 35.5t-163 103.5q-77 77 -120 193t-43 231v20q0 115 43 231t120 193q68 68 163 103.5t198 35.5q122 0 225 -49l94 -63l-10 92v532h225v-1638h-217l2 92l-94 -63q-103 -49 -225 -49zM354 369q0 -83 51 -134t134 -51h227q83 0 133.5 51t50.5 134v368
q0 83 -50.5 134t-133.5 51h-227q-83 0 -134 -51t-51 -134v-368zM1255 1274v364h275v-20l-141 -344h-134z" />
    <glyph glyph-name="Dcroat" unicode="&#x110;" horiz-adv-x="1655" 
d="M154 0v737h-154v185h154v716h614q167 0 306.5 -48.5t230.5 -137.5q104 -103 160.5 -265t56.5 -358v-20q0 -195 -55 -356t-158 -263q-94 -92 -234 -141t-307 -49h-614zM387 209h479q189 0 299.5 110.5t110.5 298.5v402q0 189 -110.5 299.5t-299.5 110.5h-479v-508h440
v-185h-440v-528z" />
    <glyph glyph-name="dcroat" unicode="&#x111;" horiz-adv-x="1325" 
d="M637 -20q-103 0 -198 35.5t-163 103.5q-77 77 -120 193t-43 231v20q0 115 43 231t120 193q68 68 163 103.5t198 35.5q122 0 225 -49l94 -63l-10 92v158h-260v192h260v182h225v-182h154v-192h-154v-1264h-217l2 92l-94 -63q-103 -49 -225 -49zM354 369q0 -83 51 -134
t134 -51h227q83 0 133.5 51t50.5 134v368q0 83 -50.5 134t-133.5 51h-227q-83 0 -134 -51t-51 -134v-368z" />
    <glyph glyph-name="Emacron" unicode="&#x112;" horiz-adv-x="1309" 
d="M154 0v1638h1052v-208h-819v-494h770v-209h-770v-518h819v-209h-1052zM401 1786v192h590v-192h-590z" />
    <glyph glyph-name="emacron" unicode="&#x113;" horiz-adv-x="1249" 
d="M631 -20q-222 0 -363 141q-72 72 -113.5 183t-41.5 239v20q0 129 41 241t112 183q139 139 363 139q211 0 352 -141q156 -156 156 -430q0 -38 -4 -76h-789v-110q0 -83 50.5 -134t133.5 -51h215q70 0 113 43.5t43 112.5v6h215v-4q-38 -127 -131 -219q-143 -143 -352 -143z
M342 1360v192h590v-192h-590zM344 659h565v78q0 83 -50.5 134t-133.5 51h-197q-83 0 -133.5 -51t-50.5 -134v-78z" />
    <glyph glyph-name="Ebreve" unicode="&#x114;" horiz-adv-x="1309" 
d="M154 0v1638h1052v-208h-819v-494h770v-209h-770v-518h819v-209h-1052zM332 1819v190h14q139 -90 350 -90t351 90h14v-190q-118 -74 -365 -74t-364 74z" />
    <glyph glyph-name="ebreve" unicode="&#x115;" horiz-adv-x="1249" 
d="M631 -20q-222 0 -363 141q-72 72 -113.5 183t-41.5 239v20q0 129 41 241t112 183q139 139 363 139q211 0 352 -141q156 -156 156 -430q0 -38 -4 -76h-789v-110q0 -83 50.5 -134t133.5 -51h215q70 0 113 43.5t43 112.5v6h215v-4q-38 -127 -131 -219q-143 -143 -352 -143z
M319 1581v57h199v-96q0 -49 31 -80.5t82 -31.5h12q51 0 82 31.5t31 80.5v96h198v-57q0 -147 -85 -237.5t-232 -90.5t-232.5 91t-85.5 237zM344 659h565v78q0 83 -50.5 134t-133.5 51h-197q-83 0 -133.5 -51t-50.5 -134v-78z" />
    <glyph glyph-name="Edotaccent" unicode="&#x116;" horiz-adv-x="1309" 
d="M154 0v1638h1052v-208h-819v-494h770v-209h-770v-518h819v-209h-1052zM573 1812v127q0 36 20.5 56t55.5 20h94q36 0 56 -20t20 -56v-127q0 -35 -20 -55t-56 -20h-94q-35 0 -55.5 20t-20.5 55z" />
    <glyph glyph-name="edotaccent" unicode="&#x117;" horiz-adv-x="1249" 
d="M631 -20q-222 0 -363 141q-72 72 -113.5 183t-41.5 239v20q0 129 41 241t112 183q139 139 363 139q211 0 352 -141q156 -156 156 -430q0 -38 -4 -76h-789v-110q0 -83 50.5 -134t133.5 -51h215q70 0 113 43.5t43 112.5v6h215v-4q-38 -127 -131 -219q-143 -143 -352 -143z
M344 659h565v78q0 83 -50.5 134t-133.5 51h-197q-83 0 -133.5 -51t-50.5 -134v-78zM514 1436v127q0 35 20.5 55t55.5 20h94q35 0 55.5 -20t20.5 -55v-127q0 -35 -20.5 -55.5t-55.5 -20.5h-94q-35 0 -55.5 20.5t-20.5 55.5z" />
    <glyph glyph-name="Eogonek" unicode="&#x118;" horiz-adv-x="1309" 
d="M154 0v1638h1052v-208h-819v-494h770v-209h-770v-518h819v-209l-59 -90q-19 -28 -19 -64v-20q0 -49 48 -49h65v-187h-135q-94 0 -148.5 56t-54.5 147q0 81 51 156l35 51h-835z" />
    <glyph glyph-name="eogonek" unicode="&#x119;" horiz-adv-x="1249" 
d="M680 -410q-94 0 -148.5 56t-54.5 147q0 81 51 156l25 36q-170 21 -285 136q-72 72 -113.5 183t-41.5 239v20q0 129 41 241t112 183q139 139 363 139q211 0 352 -141q156 -156 156 -430q0 -38 -4 -76h-789v-110q0 -83 50.5 -134t133.5 -51h215q70 0 113 43.5t43 112.5v6
h215v-4q-38 -127 -131 -219q-92 -92 -203 -123l-59 -90q-19 -28 -19 -64v-20q0 -49 48 -49h65v-187h-135zM344 659h565v78q0 83 -50.5 134t-133.5 51h-197q-83 0 -133.5 -51t-50.5 -134v-78z" />
    <glyph glyph-name="Ecaron" unicode="&#x11a;" horiz-adv-x="1309" 
d="M154 0v1638h1052v-208h-819v-494h770v-209h-770v-518h819v-209h-1052zM332 1804v205h14l350 -57l351 57h14v-205l-359 -59h-12z" />
    <glyph glyph-name="ecaron" unicode="&#x11b;" horiz-adv-x="1249" 
d="M631 -20q-222 0 -363 141q-72 72 -113.5 183t-41.5 239v20q0 129 41 241t112 183q139 139 363 139q211 0 352 -141q156 -156 156 -430q0 -38 -4 -76h-789v-110q0 -83 50.5 -134t133.5 -51h215q70 0 113 43.5t43 112.5v6h215v-4q-38 -127 -131 -219q-143 -143 -352 -143z
M293 1618v20h225l117 -192h4l123 192h219v-20l-248 -344h-192zM344 659h565v78q0 83 -50.5 134t-133.5 51h-197q-83 0 -133.5 -51t-50.5 -134v-78z" />
    <glyph glyph-name="Gcircumflex" unicode="&#x11c;" horiz-adv-x="1710" 
d="M874 -20q-326 0 -518 192q-113 114 -168 284.5t-55 352.5v20q0 183 55 353.5t168 283.5q193 193 518 193q326 0 519 -193q151 -151 180 -389v-20h-225v20q0 171 -104.5 270t-282.5 99h-173q-187 0 -298 -111.5t-111 -298.5v-434q0 -187 111 -298t298 -111h173
q178 0 282.5 99t104.5 269v82h-467v209h696v-141q0 -171 -49.5 -312.5t-134.5 -226.5q-192 -192 -519 -192zM487 1747v205l359 59h12l359 -59v-205h-15l-350 57l-350 -57h-15z" />
    <glyph glyph-name="gcircumflex" unicode="&#x11d;" horiz-adv-x="1315" 
d="M664 -430q-236 0 -369 133q-103 103 -127 215v21h225v-41q0 -56 33.5 -89.5t89.5 -33.5h285q66 0 105.5 39.5t39.5 105.5v182l8 70l-92 -66q-107 -49 -221 -49q-106 0 -203.5 37t-165.5 107q-77 75 -118 177.5t-41 203.5v20q0 99 42 203.5t117 179.5q142 141 369 141
q118 0 221 -49l94 -63l-10 92h225v-1012q0 -256 -139 -395q-129 -129 -368 -129zM334 1274v20l248 344h192l248 -344v-20h-225l-117 192h-4l-123 -192h-219zM354 446q0 -86 49.5 -135t135.5 -49h227q86 0 135 49t49 135v291q0 86 -49 135.5t-135 49.5h-227
q-86 0 -135.5 -49.5t-49.5 -135.5v-291z" />
    <glyph glyph-name="Gbreve" unicode="&#x11e;" horiz-adv-x="1710" 
d="M874 -20q-326 0 -518 192q-113 114 -168 284.5t-55 352.5v20q0 183 55 353.5t168 283.5q193 193 518 193q326 0 519 -193q151 -151 180 -389v-20h-225v20q0 171 -104.5 270t-282.5 99h-173q-187 0 -298 -111.5t-111 -298.5v-434q0 -187 111 -298t298 -111h173
q178 0 282.5 99t104.5 269v82h-467v209h696v-141q0 -171 -49.5 -312.5t-134.5 -226.5q-192 -192 -519 -192zM487 1819v190h15q139 -90 350 -90t350 90h15v-190q-118 -74 -365 -74t-365 74z" />
    <glyph glyph-name="gbreve" unicode="&#x11f;" horiz-adv-x="1315" 
d="M664 -430q-236 0 -369 133q-103 103 -127 215v21h225v-41q0 -56 33.5 -89.5t89.5 -33.5h285q66 0 105.5 39.5t39.5 105.5v182l8 70l-92 -66q-107 -49 -221 -49q-106 0 -203.5 37t-165.5 107q-77 75 -118 177.5t-41 203.5v20q0 99 42 203.5t117 179.5q142 141 369 141
q118 0 221 -49l94 -63l-10 92h225v-1012q0 -256 -139 -395q-129 -129 -368 -129zM354 446q0 -86 49.5 -135t135.5 -49h227q86 0 135 49t49 135v291q0 86 -49 135.5t-135 49.5h-227q-86 0 -135.5 -49.5t-49.5 -135.5v-291zM360 1581v57h199v-96q0 -49 31 -80.5t82 -31.5h12
q51 0 82 31.5t31 80.5v96h198v-57q0 -147 -85 -237.5t-232 -90.5t-232.5 91t-85.5 237z" />
    <glyph glyph-name="Gdotaccent" unicode="&#x120;" horiz-adv-x="1710" 
d="M874 -20q-326 0 -518 192q-113 114 -168 284.5t-55 352.5v20q0 183 55 353.5t168 283.5q193 193 518 193q326 0 519 -193q151 -151 180 -389v-20h-225v20q0 171 -104.5 270t-282.5 99h-173q-187 0 -298 -111.5t-111 -298.5v-434q0 -187 111 -298t298 -111h173
q178 0 282.5 99t104.5 269v82h-467v209h696v-141q0 -171 -49.5 -312.5t-134.5 -226.5q-192 -192 -519 -192zM729 1812v127q0 36 20.5 56t55.5 20h94q35 0 55.5 -20t20.5 -56v-127q0 -35 -20.5 -55t-55.5 -20h-94q-35 0 -55.5 20t-20.5 55z" />
    <glyph glyph-name="gdotaccent" unicode="&#x121;" horiz-adv-x="1315" 
d="M664 -430q-236 0 -369 133q-103 103 -127 215v21h225v-41q0 -56 33.5 -89.5t89.5 -33.5h285q66 0 105.5 39.5t39.5 105.5v182l8 70l-92 -66q-107 -49 -221 -49q-106 0 -203.5 37t-165.5 107q-77 75 -118 177.5t-41 203.5v20q0 99 42 203.5t117 179.5q142 141 369 141
q118 0 221 -49l94 -63l-10 92h225v-1012q0 -256 -139 -395q-129 -129 -368 -129zM354 446q0 -86 49.5 -135t135.5 -49h227q86 0 135 49t49 135v291q0 86 -49 135.5t-135 49.5h-227q-86 0 -135.5 -49.5t-49.5 -135.5v-291zM555 1436v127q0 35 20.5 55t55.5 20h94
q35 0 55.5 -20t20.5 -55v-127q0 -35 -20.5 -55.5t-55.5 -20.5h-94q-35 0 -55.5 20.5t-20.5 55.5z" />
    <glyph glyph-name="uni0122" unicode="&#x122;" horiz-adv-x="1710" 
d="M874 -20q-326 0 -518 192q-113 114 -168 284.5t-55 352.5v20q0 183 55 353.5t168 283.5q193 193 518 193q326 0 519 -193q151 -151 180 -389v-20h-225v20q0 171 -104.5 270t-282.5 99h-173q-187 0 -298 -111.5t-111 -298.5v-434q0 -187 111 -298t298 -111h173
q178 0 282.5 99t104.5 269v82h-467v209h696v-141q0 -171 -49.5 -312.5t-134.5 -226.5q-192 -192 -519 -192zM690 -430v20l21 258h282v-20l-155 -258h-148z" />
    <glyph glyph-name="uni0123" unicode="&#x123;" horiz-adv-x="1315" 
d="M664 -430q-236 0 -369 133q-103 103 -127 215v21h225v-41q0 -56 33.5 -89.5t89.5 -33.5h285q66 0 105.5 39.5t39.5 105.5v182l8 70l-92 -66q-107 -49 -221 -49q-106 0 -203.5 37t-165.5 107q-77 75 -118 177.5t-41 203.5v20q0 99 42 203.5t117 179.5q142 141 369 141
q118 0 221 -49l94 -63l-10 92h225v-1012q0 -256 -139 -395q-129 -129 -368 -129zM354 446q0 -86 49.5 -135t135.5 -49h227q86 0 135 49t49 135v291q0 86 -49 135.5t-135 49.5h-227q-86 0 -135.5 -49.5t-49.5 -135.5v-291zM543 1274v20l157 344h134v-20l-62 -344h-229z" />
    <glyph glyph-name="Hcircumflex" unicode="&#x124;" horiz-adv-x="1587" 
d="M154 0v1638h233v-694h813v694h234v-1638h-234v735h-813v-735h-233zM430 1747v205l358 59h13l358 -59v-205h-14l-350 57l-351 -57h-14z" />
    <glyph glyph-name="hcircumflex" unicode="&#x125;" horiz-adv-x="1290" 
d="M154 0v1638h225v-645l108 76q98 57 222 57q93 0 178.5 -33t144.5 -92q125 -123 125 -348v-653h-225v758q0 74 -45 119t-119 45h-225q-74 0 -119 -45t-45 -119v-758h-225zM160 1747v205l358 59h12l359 -59v-205h-15l-350 57l-350 -57h-14z" />
    <glyph glyph-name="Hbar" unicode="&#x126;" horiz-adv-x="1587" 
d="M154 0v1180h-129v204h129v254h233v-254h813v254h234v-254h129v-204h-129v-1180h-234v735h-813v-735h-233zM387 944h813v236h-813v-236z" />
    <glyph glyph-name="hbar" unicode="&#x127;" horiz-adv-x="1290" 
d="M154 0v1264h-146v192h146v182h225v-182h268v-192h-268v-271l108 76q98 57 222 57q93 0 178.5 -33t144.5 -92q125 -123 125 -348v-653h-225v758q0 74 -45 119t-119 45h-225q-74 0 -119 -45t-45 -119v-758h-225z" />
    <glyph glyph-name="Itilde" unicode="&#x128;" horiz-adv-x="541" 
d="M154 0v1638h233v-1638h-233zM-88 1786v96q0 68 40 108t107 40q31 0 93 -15l153 -41q41 -12 68 -12q18 0 29.5 11t11.5 30v16h190v-96q0 -67 -40 -107t-107 -40q-36 0 -92 14l-154 41q-41 12 -68 12q-18 0 -29.5 -11t-11.5 -30v-16h-190z" />
    <glyph glyph-name="itilde" unicode="&#x129;" horiz-adv-x="512" 
d="M143 0v1106h226v-1106h-226zM-90 1360v96q0 68 40 108t107 40q31 0 93 -15l153 -41q41 -12 68 -12q18 0 29.5 11t11.5 30v16h190v-96q0 -67 -40 -107t-107 -40q-35 0 -93 14l-153 41q-41 12 -68 12q-18 0 -29.5 -11t-11.5 -30v-16h-190z" />
    <glyph glyph-name="Imacron" unicode="&#x12a;" horiz-adv-x="541" 
d="M154 0v1638h233v-1638h-233zM-23 1786v192h590v-192h-590z" />
    <glyph glyph-name="imacron" unicode="&#x12b;" horiz-adv-x="512" 
d="M143 0v1106h226v-1106h-226zM-39 1360v192h590v-192h-590z" />
    <glyph glyph-name="Ibreve" unicode="&#x12c;" horiz-adv-x="541" 
d="M154 0v1638h233v-1638h-233zM-92 1819v190h14q139 -90 350 -90t351 90h14v-190q-118 -74 -365 -74q-246 0 -364 74z" />
    <glyph glyph-name="ibreve" unicode="&#x12d;" horiz-adv-x="512" 
d="M143 0v1106h226v-1106h-226zM-61 1581v57h198v-96q0 -49 31 -80.5t82 -31.5h12q51 0 82 31.5t31 80.5v96h198v-57q0 -147 -85 -237.5t-232 -90.5t-232 90.5t-85 237.5z" />
    <glyph glyph-name="Iogonek" unicode="&#x12e;" horiz-adv-x="541" 
d="M154 0v1638h233v-1638l-59 -90q-19 -27 -19 -64v-20q0 -49 47 -49h66v-187h-135q-94 0 -148.5 56t-54.5 147q0 83 51 156l35 51h-16z" />
    <glyph glyph-name="iogonek" unicode="&#x12f;" horiz-adv-x="512" 
d="M143 0v1106h226v-1106l-60 -90q-18 -27 -18 -64v-20q0 -49 47 -49h65v-187h-135q-94 0 -148 56t-54 147q0 83 51 156l35 51h-9zM133 1436v127q0 35 20.5 55t55.5 20h94q35 0 55.5 -20t20.5 -55v-127q0 -35 -20.5 -55.5t-55.5 -20.5h-94q-35 0 -55.5 20.5t-20.5 55.5z" />
    <glyph glyph-name="Idotaccent" unicode="&#x130;" horiz-adv-x="541" 
d="M154 0v1638h233v-1638h-233zM150 1812v127q0 36 20 56t55 20h94q36 0 56 -20t20 -56v-127q0 -35 -20 -55t-56 -20h-94q-35 0 -55 20t-20 55z" />
    <glyph glyph-name="dotlessi" unicode="&#x131;" horiz-adv-x="512" 
d="M143 0v1106h226v-1106h-226z" />
    <glyph glyph-name="IJ" unicode="&#x132;" horiz-adv-x="1800" 
d="M154 0v1638h233v-1638h-233zM643 389v21h225v-37q0 -82 51.5 -133.5t133.5 -51.5h186q83 0 133.5 51t50.5 134v1057h-647v208h881v-1120q0 -146 -34 -238t-101 -159q-141 -141 -369 -141q-240 0 -377 137q-53 53 -88.5 125t-44.5 147z" />
    <glyph glyph-name="ij" unicode="&#x133;" horiz-adv-x="1024" 
d="M143 0v1106h226v-1106h-226zM133 1436v127q0 35 20.5 55t55.5 20h94q35 0 55.5 -20t20.5 -55v-127q0 -35 -20.5 -55.5t-55.5 -20.5h-94q-35 0 -55.5 20.5t-20.5 55.5zM487 -410v205h66q46 0 74 28.5t28 74.5v1208h226v-1124q0 -172 -113 -285q-107 -107 -256 -107h-25z
M645 1436v127q0 35 20.5 55t55.5 20h94q35 0 55.5 -20t20.5 -55v-127q0 -35 -20.5 -55.5t-55.5 -20.5h-94q-35 0 -55.5 20.5t-20.5 55.5z" />
    <glyph glyph-name="Jcircumflex" unicode="&#x134;" 
d="M612 -20q-239 0 -376 137q-53 52 -88.5 124t-45.5 148v21h226v-37q0 -82 51 -133.5t133 -51.5h186q83 0 134 51t51 134v1057h-647v208h880v-1120q0 -146 -34 -238t-101 -159q-141 -141 -369 -141zM315 1747v205l359 59h12l358 -59v-205h-14l-350 57l-350 -57h-15z" />
    <glyph glyph-name="jcircumflex" unicode="&#x135;" horiz-adv-x="512" 
d="M-25 -410v205h66q46 0 74 28.5t28 74.5v1208h226v-1124q0 -172 -113 -285q-107 -107 -256 -107h-25zM-88 1274v20l248 344h192l248 -344v-20h-225l-117 192h-4l-123 -192h-219z" />
    <glyph glyph-name="uni0136" unicode="&#x136;" horiz-adv-x="1577" 
d="M154 0v1638h233v-716h4l762 716h311v-20l-862 -770l903 -828v-20h-303l-811 768h-4v-768h-233zM631 -430v20l20 258h283v-20l-156 -258h-147z" />
    <glyph glyph-name="uni0137" unicode="&#x137;" horiz-adv-x="1200" 
d="M154 0v1638h225v-970h4l498 438h258v-21l-574 -491l574 -574v-20h-271l-485 494h-4v-494h-225zM444 -430v20l21 258h283v-20l-156 -258h-148z" />
    <glyph glyph-name="Lacute" unicode="&#x139;" 
d="M154 0v1638h233v-1429h801v-209h-1034zM14 1737v184l600 119h21v-203l-600 -100h-21z" />
    <glyph glyph-name="lacute" unicode="&#x13a;" horiz-adv-x="532" 
d="M154 0v1638h225v-1638h-225zM-45 1737v184l600 119h20v-203l-600 -100h-20z" />
    <glyph glyph-name="uni013B" unicode="&#x13b;" 
d="M154 0v1638h233v-1429h801v-209h-1034zM522 -430v20l21 258h282v-20l-155 -258h-148z" />
    <glyph glyph-name="uni013C" unicode="&#x13c;" horiz-adv-x="532" 
d="M154 0v1638h225v-1638h-225zM104 -430v20l21 258h283v-20l-156 -258h-148z" />
    <glyph glyph-name="Lcaron" unicode="&#x13d;" 
d="M154 0v1638h233v-1429h801v-209h-1034zM586 1274v364h274v-20l-141 -344h-133z" />
    <glyph glyph-name="lcaron" unicode="&#x13e;" horiz-adv-x="532" 
d="M154 0v1638h225v-1638h-225zM465 1274v364h274v-20l-141 -344h-133z" />
    <glyph glyph-name="Ldot" unicode="&#x13f;" 
d="M154 0v1638h233v-1429h801v-209h-1034zM653 758v258h246v-258h-246z" />
    <glyph glyph-name="ldot" unicode="&#x140;" horiz-adv-x="768" 
d="M154 0v1638h225v-1638h-225zM481 696v299h205v-299h-205z" />
    <glyph glyph-name="Lslash" unicode="&#x141;" 
d="M154 0v683l-156 -62v208l156 63v746h233v-679l352 141v-209l-352 -141v-541h801v-209h-1034z" />
    <glyph glyph-name="lslash" unicode="&#x142;" horiz-adv-x="532" 
d="M154 0v683l-123 -58v202l123 58v753h225v-682l123 56v-203l-123 -58v-751h-225z" />
    <glyph glyph-name="Nacute" unicode="&#x143;" horiz-adv-x="1587" 
d="M154 0v1638h208l863 -1257h4l-4 952v305h209v-1638h-209l-863 1257h-4l4 -952v-305h-208zM483 1737v184l600 119h21v-203l-600 -100h-21z" />
    <glyph glyph-name="nacute" unicode="&#x144;" 
d="M143 0v1106h226v-107l88 70q96 57 221 57q94 0 179.5 -33t143.5 -92q125 -123 125 -348v-653h-225v758q0 74 -45 119t-119 45h-205q-73 0 -118 -45t-45 -119v-758h-226zM526 1274v26l250 338h250v-26l-291 -338h-209z" />
    <glyph glyph-name="uni0145" unicode="&#x145;" horiz-adv-x="1587" 
d="M154 0v1638h208l863 -1257h4l-4 952v305h209v-1638h-209l-863 1257h-4l4 -952v-305h-208zM633 -430v20l20 258h283v-20l-156 -258h-147z" />
    <glyph glyph-name="uni0146" unicode="&#x146;" 
d="M143 0v1106h226v-107l88 70q96 57 221 57q94 0 179.5 -33t143.5 -92q125 -123 125 -348v-653h-225v758q0 74 -45 119t-119 45h-205q-73 0 -118 -45t-45 -119v-758h-226zM473 -430v20l21 258h282v-20l-155 -258h-148z" />
    <glyph glyph-name="Ncaron" unicode="&#x147;" horiz-adv-x="1587" 
d="M154 0v1638h208l863 -1257h4l-4 952v305h209v-1638h-209l-863 1257h-4l4 -952v-305h-208zM430 1804v205h14l351 -57l350 57h14v-205l-358 -59h-13z" />
    <glyph glyph-name="ncaron" unicode="&#x148;" 
d="M143 0v1106h226v-107l88 70q96 57 221 57q94 0 179.5 -33t143.5 -92q125 -123 125 -348v-653h-225v758q0 74 -45 119t-119 45h-205q-73 0 -118 -45t-45 -119v-758h-226zM287 1618v20h225l117 -192h4l123 192h219v-20l-248 -344h-192z" />
    <glyph glyph-name="napostrophe" unicode="&#x149;" 
d="M143 0v1106h226v-107l88 70q96 57 221 57q94 0 179.5 -33t143.5 -92q125 -123 125 -348v-653h-225v758q0 74 -45 119t-119 45h-205q-73 0 -118 -45t-45 -119v-758h-226zM2 1274v364h274v-20l-141 -344h-133z" />
    <glyph glyph-name="Eng" unicode="&#x14a;" horiz-adv-x="1587" 
d="M154 0v1638h208l863 -1257h4l-4 952v305h209v-1679q0 -190 -93 -283q-86 -86 -241 -86h-60v205h82q48 0 75.5 27.5t27.5 75.5v102l-863 1257h-4l4 -952v-305h-208z" />
    <glyph glyph-name="eng" unicode="&#x14b;" 
d="M143 0v1106h226v-107l88 70q96 57 221 57q94 0 179.5 -33t143.5 -92q125 -123 125 -348v-673q0 -208 -94 -302q-88 -88 -239 -88h-60v205h86q82 0 82 82v881q0 74 -45 119t-119 45h-205q-73 0 -118 -45t-45 -119v-758h-226z" />
    <glyph glyph-name="Omacron" unicode="&#x14c;" horiz-adv-x="1749" 
d="M874 -20q-326 0 -518 192q-107 107 -165 269.5t-58 367.5v20q0 205 58 367.5t165 269.5q193 193 518 193q326 0 519 -193q107 -107 165 -269.5t58 -367.5v-20q0 -205 -58 -367.5t-165 -269.5q-192 -192 -519 -192zM379 602q0 -187 111 -298t298 -111h173q187 0 298 111
t111 298v434q0 187 -111 298.5t-298 111.5h-173q-187 0 -298 -111.5t-111 -298.5v-434zM580 1786v192h589v-192h-589z" />
    <glyph glyph-name="omacron" unicode="&#x14d;" horiz-adv-x="1274" 
d="M637 -20q-107 0 -202 35.5t-161 101.5q-74 74 -117.5 192.5t-43.5 233.5v20q0 115 43.5 233.5t117.5 192.5q66 66 161 101.5t202 35.5q106 0 201 -35.5t161 -101.5q75 -74 118.5 -192.5t43.5 -233.5v-20q0 -115 -43.5 -233.5t-118.5 -192.5q-66 -66 -161 -101.5
t-201 -35.5zM342 1360v192h590v-192h-590zM354 369q0 -85 50 -135t135 -50h196q85 0 135 50t50 135v368q0 85 -50 135t-135 50h-196q-85 0 -135 -50t-50 -135v-368z" />
    <glyph glyph-name="Obreve" unicode="&#x14e;" horiz-adv-x="1749" 
d="M874 -20q-326 0 -518 192q-107 107 -165 269.5t-58 367.5v20q0 205 58 367.5t165 269.5q193 193 518 193q326 0 519 -193q107 -107 165 -269.5t58 -367.5v-20q0 -205 -58 -367.5t-165 -269.5q-192 -192 -519 -192zM379 602q0 -187 111 -298t298 -111h173q187 0 298 111
t111 298v434q0 187 -111 298.5t-298 111.5h-173q-187 0 -298 -111.5t-111 -298.5v-434zM510 1819v190h14q139 -90 350 -90t351 90h14v-190q-118 -74 -365 -74q-246 0 -364 74z" />
    <glyph glyph-name="obreve" unicode="&#x14f;" horiz-adv-x="1274" 
d="M637 -20q-107 0 -202 35.5t-161 101.5q-74 74 -117.5 192.5t-43.5 233.5v20q0 115 43.5 233.5t117.5 192.5q66 66 161 101.5t202 35.5q106 0 201 -35.5t161 -101.5q75 -74 118.5 -192.5t43.5 -233.5v-20q0 -115 -43.5 -233.5t-118.5 -192.5q-66 -66 -161 -101.5
t-201 -35.5zM319 1581v57h199v-96q0 -49 31 -80.5t82 -31.5h12q51 0 82 31.5t31 80.5v96h198v-57q0 -147 -85 -237.5t-232 -90.5t-232.5 91t-85.5 237zM354 369q0 -85 50 -135t135 -50h196q85 0 135 50t50 135v368q0 85 -50 135t-135 50h-196q-85 0 -135 -50t-50 -135v-368z
" />
    <glyph glyph-name="Ohungarumlaut" unicode="&#x150;" horiz-adv-x="1749" 
d="M874 -20q-326 0 -518 192q-107 107 -165 269.5t-58 367.5v20q0 205 58 367.5t165 269.5q193 193 518 193q326 0 519 -193q107 -107 165 -269.5t58 -367.5v-20q0 -205 -58 -367.5t-165 -269.5q-192 -192 -519 -192zM379 602q0 -187 111 -298t298 -111h173q187 0 298 111
t111 298v434q0 187 -111 298.5t-298 111.5h-173q-187 0 -298 -111.5t-111 -298.5v-434zM606 1759v281h232v-21l-50 -260h-182zM961 1759v281h231v-21l-49 -260h-182z" />
    <glyph glyph-name="ohungarumlaut" unicode="&#x151;" horiz-adv-x="1274" 
d="M637 -20q-107 0 -202 35.5t-161 101.5q-74 74 -117.5 192.5t-43.5 233.5v20q0 115 43.5 233.5t117.5 192.5q66 66 161 101.5t202 35.5q106 0 201 -35.5t161 -101.5q75 -74 118.5 -192.5t43.5 -233.5v-20q0 -115 -43.5 -233.5t-118.5 -192.5q-66 -66 -161 -101.5
t-201 -35.5zM354 369q0 -85 50 -135t135 -50h196q85 0 135 50t50 135v368q0 85 -50 135t-135 50h-196q-85 0 -135 -50t-50 -135v-368zM360 1274v364h232v-26l-49 -338h-183zM715 1274v364h231v-26l-49 -338h-182z" />
    <glyph glyph-name="OE" unicode="&#x152;" horiz-adv-x="2423" 
d="M887 0q-167 0 -307 49t-234 141q-103 102 -158 264t-55 363v4q0 201 56.5 364.5t160.5 266.5q91 89 230.5 137.5t306.5 48.5h1433v-208h-819v-494h770v-209h-770v-518h819v-209h-1433zM379 618q0 -188 110.5 -298.5t298.5 -110.5h480v1221h-480q-188 0 -298.5 -110.5
t-110.5 -299.5v-402z" />
    <glyph glyph-name="oe" unicode="&#x153;" horiz-adv-x="2062" 
d="M625 0q-234 0 -351 117q-74 74 -117.5 192.5t-43.5 233.5v20q0 115 43.5 233.5t117.5 192.5q117 117 351 117h829q121 0 197 -27t143 -94q156 -156 156 -430q0 -38 -4 -76h-793v-110q0 -83 50.5 -134t133.5 -51h219q70 0 113 43.5t43 112.5v6h215v-4q-38 -127 -131 -219
q-69 -69 -145 -96t-195 -27h-831zM354 369q0 -85 50 -135t135 -50h200q85 0 135 50t50 135v368q0 85 -50 135t-135 50h-200q-85 0 -135 -50t-50 -135v-368zM1153 659h569v78q0 83 -50.5 134t-133.5 51h-201q-83 0 -133.5 -51t-50.5 -134v-78z" />
    <glyph glyph-name="Racute" unicode="&#x154;" horiz-adv-x="1489" 
d="M154 0v1638h673q232 0 377 -145q144 -143 144 -338v-20q0 -97 -40 -190t-110 -163q-79 -79 -190 -125l-74 -14l90 -108l373 -506v-29h-252l-433 625h-325v-625h-233zM383 1737v184l600 119h21v-203l-601 -100h-20zM387 829h531q83 0 133.5 51t50.5 134v231
q0 83 -50.5 134t-133.5 51h-531v-601z" />
    <glyph glyph-name="racute" unicode="&#x155;" horiz-adv-x="915" 
d="M143 0v1106h226v-123l88 76q88 57 217 57h170v-188h-312q-73 0 -118 -45t-45 -119v-764h-226zM397 1274v26l250 338h250v-26l-291 -338h-209z" />
    <glyph glyph-name="uni0156" unicode="&#x156;" horiz-adv-x="1489" 
d="M154 0v1638h673q232 0 377 -145q144 -143 144 -338v-20q0 -97 -40 -190t-110 -163q-79 -79 -190 -125l-74 -14l90 -108l373 -506v-29h-252l-433 625h-325v-625h-233zM387 829h531q83 0 133.5 51t50.5 134v231q0 83 -50.5 134t-133.5 51h-531v-601zM594 -430v20l20 258
h283v-20l-156 -258h-147z" />
    <glyph glyph-name="uni0157" unicode="&#x157;" horiz-adv-x="915" 
d="M143 0v1106h226v-123l88 76q88 57 217 57h170v-188h-312q-73 0 -118 -45t-45 -119v-764h-226zM207 -430v20l20 258h283v-20l-156 -258h-147z" />
    <glyph glyph-name="Rcaron" unicode="&#x158;" horiz-adv-x="1489" 
d="M154 0v1638h673q232 0 377 -145q144 -143 144 -338v-20q0 -97 -40 -190t-110 -163q-79 -79 -190 -125l-74 -14l90 -108l373 -506v-29h-252l-433 625h-325v-625h-233zM330 1804v205h14l350 -57l350 57h15v-205l-359 -59h-12zM387 829h531q83 0 133.5 51t50.5 134v231
q0 83 -50.5 134t-133.5 51h-531v-601z" />
    <glyph glyph-name="rcaron" unicode="&#x159;" horiz-adv-x="915" 
d="M143 0v1106h226v-123l88 76q88 57 217 57h170v-188h-312q-73 0 -118 -45t-45 -119v-764h-226zM158 1618v20h225l117 -192h4l123 192h219v-20l-248 -344h-192z" />
    <glyph glyph-name="Sacute" unicode="&#x15a;" horiz-adv-x="1501" 
d="M758 -20q-334 0 -504 172q-67 67 -107 157t-45 189v20h226v-59q0 -123 71.5 -194.5t194.5 -71.5h354q104 0 165 60.5t61 164.5v37q0 61 -23.5 92.5t-81.5 52.5l-590 203q-174 61 -254 145t-80 215v21q0 84 34 165t100 146q164 164 469 164t475 -168q63 -63 105.5 -151
t49.5 -179v-20h-225v39q0 122 -71.5 194t-194.5 72h-291q-104 0 -164.5 -60.5t-60.5 -164.5v-29q0 -55 22 -88.5t76 -50.5l596 -209q159 -55 246.5 -148t87.5 -225v-20q0 -168 -131 -299q-172 -172 -510 -172zM440 1737v184l600 119h21v-203l-600 -100h-21z" />
    <glyph glyph-name="sacute" unicode="&#x15b;" horiz-adv-x="1104" 
d="M553 -20q-117 0 -210.5 32t-149.5 88q-45 45 -71.5 105.5t-29.5 122.5v4h201v-25q0 -55 33.5 -89t89.5 -34h299q38 0 61 23t23 61v39q0 61 -66 82l-381 131q-233 79 -233 260v29q0 115 86 201q118 116 340 116q112 0 202.5 -30t145.5 -84q78 -80 98 -228v-4h-200v19
q0 55 -34 89t-89 34h-252q-37 0 -60.5 -23.5t-23.5 -60.5v-39q0 -63 59 -84l408 -140q101 -34 157 -96.5t56 -142.5v-37q0 -54 -25 -108.5t-63 -92.5q-55 -55 -152 -86.5t-219 -31.5zM449 1274v26l249 338h250v-26l-291 -338h-208z" />
    <glyph glyph-name="Scircumflex" unicode="&#x15c;" horiz-adv-x="1501" 
d="M758 -20q-334 0 -504 172q-67 67 -107 157t-45 189v20h226v-59q0 -123 71.5 -194.5t194.5 -71.5h354q104 0 165 60.5t61 164.5v37q0 61 -23.5 92.5t-81.5 52.5l-590 203q-174 61 -254 145t-80 215v21q0 84 34 165t100 146q164 164 469 164t475 -168q63 -63 105.5 -151
t49.5 -179v-20h-225v39q0 122 -71.5 194t-194.5 72h-291q-104 0 -164.5 -60.5t-60.5 -164.5v-29q0 -55 22 -88.5t76 -50.5l596 -209q159 -55 246.5 -148t87.5 -225v-20q0 -168 -131 -299q-172 -172 -510 -172zM387 1747v205l358 59h13l358 -59v-205h-14l-350 57l-351 -57
h-14z" />
    <glyph glyph-name="scircumflex" unicode="&#x15d;" horiz-adv-x="1104" 
d="M553 -20q-117 0 -210.5 32t-149.5 88q-45 45 -71.5 105.5t-29.5 122.5v4h201v-25q0 -55 33.5 -89t89.5 -34h299q38 0 61 23t23 61v39q0 61 -66 82l-381 131q-233 79 -233 260v29q0 115 86 201q118 116 340 116q112 0 202.5 -30t145.5 -84q78 -80 98 -228v-4h-200v19
q0 55 -34 89t-89 34h-252q-37 0 -60.5 -23.5t-23.5 -60.5v-39q0 -63 59 -84l408 -140q101 -34 157 -96.5t56 -142.5v-37q0 -54 -25 -108.5t-63 -92.5q-55 -55 -152 -86.5t-219 -31.5zM209 1274v20l248 344h192l248 -344v-20h-225l-117 192h-4l-123 -192h-219z" />
    <glyph glyph-name="Scedilla" unicode="&#x15e;" horiz-adv-x="1501" 
d="M551 -410v166h244q20 0 20 21v41q0 20 -20 20h-154v148q-248 26 -387 166q-67 67 -107 157t-45 189v20h226v-59q0 -123 71.5 -194.5t194.5 -71.5h354q104 0 165 60.5t61 164.5v37q0 61 -23.5 92.5t-81.5 52.5l-590 203q-174 61 -254 145t-80 215v21q0 84 34 165t100 146
q164 164 469 164t475 -168q63 -63 105.5 -151t49.5 -179v-20h-225v39q0 122 -71.5 194t-194.5 72h-291q-104 0 -164.5 -60.5t-60.5 -164.5v-29q0 -55 22 -88.5t76 -50.5l596 -209q159 -55 246.5 -148t87.5 -225v-20q0 -168 -131 -299q-145 -145 -402 -167v-34h4
q83 0 132 -48.5t49 -131.5t-49 -132t-132 -49h-319z" />
    <glyph glyph-name="scedilla" unicode="&#x15f;" horiz-adv-x="1104" 
d="M346 -410v166h244q20 0 20 21v41q0 20 -20 20h-154v151q-158 25 -243 111q-45 45 -71.5 105.5t-29.5 122.5v4h201v-25q0 -55 33.5 -89t89.5 -34h299q38 0 61 23t23 61v39q0 61 -66 82l-381 131q-233 79 -233 260v29q0 115 86 201q118 116 340 116q112 0 202.5 -30
t145.5 -84q78 -80 98 -228v-4h-200v19q0 55 -34 89t-89 34h-252q-37 0 -60.5 -23.5t-23.5 -60.5v-39q0 -63 59 -84l408 -140q101 -34 157 -96.5t56 -142.5v-37q0 -54 -25 -108.5t-63 -92.5q-87 -87 -262 -111v-36h4q82 0 131 -48.5t49 -131.5t-48.5 -132t-131.5 -49h-320z
" />
    <glyph glyph-name="Scaron" unicode="&#x160;" horiz-adv-x="1501" 
d="M758 -20q-334 0 -504 172q-67 67 -107 157t-45 189v20h226v-59q0 -123 71.5 -194.5t194.5 -71.5h354q104 0 165 60.5t61 164.5v37q0 61 -23.5 92.5t-81.5 52.5l-590 203q-174 61 -254 145t-80 215v21q0 84 34 165t100 146q164 164 469 164t475 -168q63 -63 105.5 -151
t49.5 -179v-20h-225v39q0 122 -71.5 194t-194.5 72h-291q-104 0 -164.5 -60.5t-60.5 -164.5v-29q0 -55 22 -88.5t76 -50.5l596 -209q159 -55 246.5 -148t87.5 -225v-20q0 -168 -131 -299q-172 -172 -510 -172zM387 1804v205h14l351 -57l350 57h14v-205l-358 -59h-13z" />
    <glyph glyph-name="scaron" unicode="&#x161;" horiz-adv-x="1104" 
d="M553 -20q-117 0 -210.5 32t-149.5 88q-45 45 -71.5 105.5t-29.5 122.5v4h201v-25q0 -55 33.5 -89t89.5 -34h299q38 0 61 23t23 61v39q0 61 -66 82l-381 131q-233 79 -233 260v29q0 115 86 201q118 116 340 116q112 0 202.5 -30t145.5 -84q78 -80 98 -228v-4h-200v19
q0 55 -34 89t-89 34h-252q-37 0 -60.5 -23.5t-23.5 -60.5v-39q0 -63 59 -84l408 -140q101 -34 157 -96.5t56 -142.5v-37q0 -54 -25 -108.5t-63 -92.5q-55 -55 -152 -86.5t-219 -31.5zM209 1618v20h225l117 -192h4l123 192h219v-20l-248 -344h-192z" />
    <glyph glyph-name="uni0162" unicode="&#x162;" horiz-adv-x="1417" 
d="M496 -410v166h243q21 0 21 21v41q0 20 -21 20h-153v172h6v1420h-520v208h1274v-208h-521v-1430h-14v-49h4q83 0 131.5 -48.5t48.5 -131.5t-48.5 -132t-131.5 -49h-319z" />
    <glyph glyph-name="uni0163" unicode="&#x163;" horiz-adv-x="936" 
d="M461 -410v166h244q20 0 20 21v41q0 20 -20 20h-154v171q-104 17 -170 83q-105 105 -105 309v517h-235v188h235v369h226v-369h352v-188h-352v-607q0 -55 34 -89t89 -34h188v-188h-37v-49h4q83 0 132 -48.5t49 -131.5t-49 -132t-132 -49h-319z" />
    <glyph glyph-name="Tcaron" unicode="&#x164;" horiz-adv-x="1417" 
d="M592 0v1430h-520v208h1274v-208h-521v-1430h-233zM344 1804v205h14l351 -57l350 57h14v-205l-358 -59h-13z" />
    <glyph glyph-name="tcaron" unicode="&#x165;" horiz-adv-x="936" 
d="M668 0q-102 0 -170 21.5t-117 70.5q-105 105 -105 309v517h-235v188h235v369h226v-369h352v-188h-352v-607q0 -55 34 -89t89 -34h188v-188h-145zM649 1274v364h275v-20l-142 -344h-133z" />
    <glyph glyph-name="Tbar" unicode="&#x166;" horiz-adv-x="1417" 
d="M592 0v737h-297v185h297v508h-520v208h1274v-208h-521v-508h297v-185h-297v-737h-233z" />
    <glyph glyph-name="tbar" unicode="&#x167;" horiz-adv-x="936" 
d="M668 0q-102 0 -170 21.5t-117 70.5q-105 105 -105 309v105h-231v192h231v220h-235v188h235v369h226v-369h352v-188h-352v-220h348v-192h-348v-195q0 -55 34 -89t89 -34h188v-188h-145z" />
    <glyph glyph-name="Utilde" unicode="&#x168;" horiz-adv-x="1546" 
d="M782 -20q-156 0 -279.5 42.5t-201.5 120.5q-74 75 -116 187t-42 248v1060h234v-1183q0 -123 71.5 -195t194.5 -72h281q122 0 194 72t72 195v1183h213v-1060q0 -138 -38.5 -255t-113.5 -192q-151 -151 -469 -151zM434 1786v96q0 68 40 108t108 40q30 0 92 -15l153 -41
q40 -12 68 -12q19 0 30 11t11 30v16h190v-96q0 -67 -40 -107t-107 -40q-34 0 -92 14l-154 41q-39 12 -67 12q-19 0 -30 -11t-11 -30v-16h-191z" />
    <glyph glyph-name="utilde" unicode="&#x169;" 
d="M1116 1106v-1106h-225v106l-88 -69q-98 -57 -221 -57q-93 0 -179 33t-145 91q-125 125 -125 349v653h225v-758q0 -74 45 -119t119 -45h205q73 0 118.5 45t45.5 119v758h225zM285 1360v96q0 68 40 108t107 40q32 0 92 -15l154 -41q41 -12 67 -12q19 0 30 11t11 30v16h191
v-96q0 -68 -40 -107.5t-108 -39.5q-34 0 -92 14l-153 41q-41 12 -68 12q-18 0 -29.5 -11t-11.5 -30v-16h-190z" />
    <glyph glyph-name="Umacron" unicode="&#x16a;" horiz-adv-x="1546" 
d="M782 -20q-156 0 -279.5 42.5t-201.5 120.5q-74 75 -116 187t-42 248v1060h234v-1183q0 -123 71.5 -195t194.5 -72h281q122 0 194 72t72 195v1183h213v-1060q0 -138 -38.5 -255t-113.5 -192q-151 -151 -469 -151zM500 1786v192h590v-192h-590z" />
    <glyph glyph-name="umacron" unicode="&#x16b;" 
d="M1116 1106v-1106h-225v106l-88 -69q-98 -57 -221 -57q-93 0 -179 33t-145 91q-125 125 -125 349v653h225v-758q0 -74 45 -119t119 -45h205q73 0 118.5 45t45.5 119v758h225zM336 1360v192h590v-192h-590z" />
    <glyph glyph-name="Ubreve" unicode="&#x16c;" horiz-adv-x="1546" 
d="M782 -20q-156 0 -279.5 42.5t-201.5 120.5q-74 75 -116 187t-42 248v1060h234v-1183q0 -123 71.5 -195t194.5 -72h281q122 0 194 72t72 195v1183h213v-1060q0 -138 -38.5 -255t-113.5 -192q-151 -151 -469 -151zM430 1819v190h14q140 -90 351 -90t350 90h14v-190
q-118 -74 -364 -74q-247 0 -365 74z" />
    <glyph glyph-name="ubreve" unicode="&#x16d;" 
d="M1116 1106v-1106h-225v106l-88 -69q-98 -57 -221 -57q-93 0 -179 33t-145 91q-125 125 -125 349v653h225v-758q0 -74 45 -119t119 -45h205q73 0 118.5 45t45.5 119v758h225zM313 1581v57h199v-96q0 -49 31 -80.5t82 -31.5h12q51 0 82 31.5t31 80.5v96h198v-57
q0 -146 -85.5 -237t-231.5 -91q-147 0 -232.5 91t-85.5 237z" />
    <glyph glyph-name="Uring" unicode="&#x16e;" horiz-adv-x="1546" 
d="M782 -20q-156 0 -279.5 42.5t-201.5 120.5q-74 75 -116 187t-42 248v1060h234v-1183q0 -123 71.5 -195t194.5 -72h281q122 0 194 72t72 195v1183h213v-1060q0 -138 -38.5 -255t-113.5 -192q-151 -151 -469 -151zM494 1954q0 65 8 100t30 57q28 28 81.5 40t181.5 12
t181 -12t81 -40q22 -22 30.5 -57.5t8.5 -99.5t-8.5 -99.5t-30.5 -58.5q-28 -28 -81 -39.5t-181 -11.5q-129 0 -182 11.5t-81 39.5q-22 23 -30 58t-8 100zM674 1944q0 -25 14 -39.5t39 -14.5h139q25 0 39.5 14.5t14.5 39.5v32q0 25 -14.5 39.5t-39.5 14.5h-139
q-25 0 -39 -14.5t-14 -39.5v-32z" />
    <glyph glyph-name="uring" unicode="&#x16f;" 
d="M1116 1106v-1106h-225v106l-88 -69q-98 -57 -221 -57q-93 0 -179 33t-145 91q-125 125 -125 349v653h225v-758q0 -74 45 -119t119 -45h205q73 0 118.5 45t45.5 119v758h225zM340 1456q0 103 49 152q28 27 78 39t164 12t164 -12t77 -39q50 -50 50 -152t-50 -151
q-27 -28 -77 -40t-164 -12t-164 12t-78 40q-49 48 -49 151zM508 1440q0 -25 14 -39.5t39 -14.5h139q25 0 39.5 14.5t14.5 39.5v33q0 24 -14.5 38.5t-39.5 14.5h-139q-25 0 -39 -14.5t-14 -38.5v-33z" />
    <glyph glyph-name="Uhungarumlaut" unicode="&#x170;" horiz-adv-x="1546" 
d="M782 -20q-156 0 -279.5 42.5t-201.5 120.5q-74 75 -116 187t-42 248v1060h234v-1183q0 -123 71.5 -195t194.5 -72h281q122 0 194 72t72 195v1183h213v-1060q0 -138 -38.5 -255t-113.5 -192q-151 -151 -469 -151zM526 1759v281h232v-21l-49 -260h-183zM881 1759v281h231
v-21l-49 -260h-182z" />
    <glyph glyph-name="uhungarumlaut" unicode="&#x171;" 
d="M1116 1106v-1106h-225v106l-88 -69q-98 -57 -221 -57q-93 0 -179 33t-145 91q-125 125 -125 349v653h225v-758q0 -74 45 -119t119 -45h205q73 0 118.5 45t45.5 119v758h225zM354 1274v364h232v-26l-49 -338h-183zM709 1274v364h231v-26l-49 -338h-182z" />
    <glyph glyph-name="Uogonek" unicode="&#x172;" horiz-adv-x="1546" 
d="M834 -410q-94 0 -148.5 56t-54.5 147q0 83 51 156l23 34q-264 20 -404 160q-74 75 -116 187t-42 248v1060h234v-1183q0 -123 71.5 -195t194.5 -72h281q122 0 194 72t72 195v1183h213v-1060q0 -138 -38.5 -255t-113.5 -192q-114 -114 -324 -142l-53 -79q-18 -27 -18 -64
v-20q0 -49 47 -49h66v-187h-135z" />
    <glyph glyph-name="uogonek" unicode="&#x173;" 
d="M1116 1106v-1106l-59 -90q-19 -27 -19 -64v-20q0 -49 47 -49h66v-187h-135q-94 0 -148.5 56t-54.5 147q0 83 51 156l35 51h-8v106l-88 -69q-98 -57 -221 -57q-93 0 -179 33t-145 91q-125 125 -125 349v653h225v-758q0 -74 45 -119t119 -45h205q73 0 118.5 45t45.5 119
v758h225z" />
    <glyph glyph-name="Wcircumflex" unicode="&#x174;" horiz-adv-x="2644" 
d="M668 0l-596 1618v20h241l465 -1302h4l469 1302h168l465 -1302h4l469 1302h215v-20l-596 -1618h-202l-449 1221h-4l-451 -1221h-202zM969 1747v205l358 59h12l359 -59v-205h-15l-350 57l-350 -57h-14z" />
    <glyph glyph-name="wcircumflex" unicode="&#x175;" horiz-adv-x="2001" 
d="M492 0l-400 1085v21h230l282 -799h4l283 799h252l284 -799h5l284 799h193v-21l-400 -1085h-192l-313 854h-5l-315 -854h-192zM676 1274v20l248 344h192l248 -344v-20h-225l-117 192h-4l-123 -192h-219z" />
    <glyph glyph-name="Ycircumflex" unicode="&#x176;" horiz-adv-x="1577" 
d="M672 0v697l-600 921v20h262l467 -735h4l465 735h235v-20l-600 -921v-697h-233zM424 1747v205l358 59h13l358 -59v-205h-14l-351 57l-350 -57h-14z" />
    <glyph glyph-name="ycircumflex" unicode="&#x177;" horiz-adv-x="1214" 
d="M133 -410v189h262q56 0 72 47l62 174h-37l-400 1085v21h230l301 -848h4l303 848h192v-21l-438 -1191q-61 -164 -125 -228q-76 -76 -221 -76h-205zM293 1274v20l248 344h192l248 -344v-20h-225l-117 192h-4l-123 -192h-219z" />
    <glyph glyph-name="Ydieresis" unicode="&#x178;" horiz-adv-x="1577" 
d="M672 0v697l-600 921v20h262l467 -735h4l465 735h235v-20l-600 -921v-697h-233zM502 1812v127q0 36 20 56t56 20h73q35 0 55.5 -20t20.5 -56v-127q0 -35 -20.5 -55t-55.5 -20h-73q-36 0 -56 20t-20 55zM850 1812v127q0 36 20.5 56t55.5 20h73q36 0 56 -20t20 -56v-127
q0 -35 -20 -55t-56 -20h-73q-35 0 -55.5 20t-20.5 55z" />
    <glyph glyph-name="Zacute" unicode="&#x179;" horiz-adv-x="1305" 
d="M102 0v227l856 1203l-2 4l-118 -4h-736v208h1100v-225l-856 -1204l2 -4l135 4h719v-209h-1100zM342 1737v184l600 119h21v-203l-601 -100h-20z" />
    <glyph glyph-name="zacute" unicode="&#x17a;" horiz-adv-x="1133" 
d="M127 0v154l631 768l-113 -4h-522v188h887v-154l-631 -768l113 4h518v-188h-883zM463 1274v26l250 338h250v-26l-291 -338h-209z" />
    <glyph glyph-name="Zdotaccent" unicode="&#x17b;" horiz-adv-x="1305" 
d="M102 0v227l856 1203l-2 4l-118 -4h-736v208h1100v-225l-856 -1204l2 -4l135 4h719v-209h-1100zM530 1812v127q0 36 20.5 56t55.5 20h94q36 0 56 -20t20 -56v-127q0 -35 -20 -55t-56 -20h-94q-35 0 -55.5 20t-20.5 55z" />
    <glyph glyph-name="zdotaccent" unicode="&#x17c;" horiz-adv-x="1133" 
d="M127 0v154l631 768l-113 -4h-522v188h887v-154l-631 -768l113 4h518v-188h-883zM444 1436v127q0 35 20.5 55t55.5 20h94q36 0 56 -20t20 -55v-127q0 -35 -20 -55.5t-56 -20.5h-94q-35 0 -55.5 20.5t-20.5 55.5z" />
    <glyph glyph-name="Zcaron" unicode="&#x17d;" horiz-adv-x="1305" 
d="M102 0v227l856 1203l-2 4l-118 -4h-736v208h1100v-225l-856 -1204l2 -4l135 4h719v-209h-1100zM289 1804v205h14l350 -57l351 57h14v-205l-359 -59h-12z" />
    <glyph glyph-name="zcaron" unicode="&#x17e;" horiz-adv-x="1133" 
d="M127 0v154l631 768l-113 -4h-522v188h887v-154l-631 -768l113 4h518v-188h-883zM223 1618v20h226l116 -192h4l123 192h219v-20l-247 -344h-193z" />
    <glyph glyph-name="florin" unicode="&#x192;" horiz-adv-x="1012" 
d="M61 0v205h215q43 0 70 26.5t27 69.5v453h-312v204h312v304q0 195 94 288q86 88 240 88h202v-204h-215q-43 0 -69.5 -27t-26.5 -70v-379h352v-204h-352v-377q0 -195 -94 -289q-88 -88 -240 -88h-203z" />
    <glyph glyph-name="uni01CD" unicode="&#x1cd;" horiz-adv-x="1632" 
d="M72 0v20l596 1618h297l596 -1618v-20h-242l-142 383h-748l-142 -383h-215zM453 1804v205h14l350 -57l350 57h15v-205l-359 -59h-12zM504 592h598l-207 584l-90 258h-4l-90 -258z" />
    <glyph glyph-name="uni01CE" unicode="&#x1ce;" horiz-adv-x="1186" 
d="M514 -20q-100 0 -182.5 28.5t-134.5 81.5q-43 42 -69 100.5t-26 114.5v21q0 49 22.5 103t63.5 95q87 87 256 109l383 45v182q0 28 -16.5 45t-44.5 17h-354q-28 0 -45 -17t-17 -45v-78h-225v21q20 116 104 201q124 122 357 122q238 0 358 -118q109 -109 109 -322v-686
h-215v98l-125 -86q-93 -32 -199 -32zM254 1618v20h225l117 -192h4l123 192h219v-20l-248 -344h-192zM338 242q0 -28 16.5 -45t44.5 -17h367q28 0 44.5 17t16.5 45v250l-430 -52q-27 -3 -43 -20.5t-16 -42.5v-135z" />
    <glyph glyph-name="uni01CF" unicode="&#x1cf;" horiz-adv-x="541" 
d="M154 0v1638h233v-1638h-233zM-92 1804v205h14l350 -57l351 57h14v-205l-358 -59h-13z" />
    <glyph glyph-name="uni01D0" unicode="&#x1d0;" horiz-adv-x="512" 
d="M143 0v1106h226v-1106h-226zM-88 1618v20h225l117 -192h4l123 192h219v-20l-248 -344h-192z" />
    <glyph glyph-name="uni01D1" unicode="&#x1d1;" horiz-adv-x="1749" 
d="M874 -20q-326 0 -518 192q-107 107 -165 269.5t-58 367.5v20q0 205 58 367.5t165 269.5q193 193 518 193q326 0 519 -193q107 -107 165 -269.5t58 -367.5v-20q0 -205 -58 -367.5t-165 -269.5q-192 -192 -519 -192zM379 602q0 -187 111 -298t298 -111h173q187 0 298 111
t111 298v434q0 187 -111 298.5t-298 111.5h-173q-187 0 -298 -111.5t-111 -298.5v-434zM510 1804v205h14l350 -57l351 57h14v-205l-358 -59h-13z" />
    <glyph glyph-name="uni01D2" unicode="&#x1d2;" horiz-adv-x="1274" 
d="M637 -20q-107 0 -202 35.5t-161 101.5q-74 74 -117.5 192.5t-43.5 233.5v20q0 115 43.5 233.5t117.5 192.5q66 66 161 101.5t202 35.5q106 0 201 -35.5t161 -101.5q75 -74 118.5 -192.5t43.5 -233.5v-20q0 -115 -43.5 -233.5t-118.5 -192.5q-66 -66 -161 -101.5
t-201 -35.5zM293 1618v20h225l117 -192h4l123 192h219v-20l-248 -344h-192zM354 369q0 -85 50 -135t135 -50h196q85 0 135 50t50 135v368q0 85 -50 135t-135 50h-196q-85 0 -135 -50t-50 -135v-368z" />
    <glyph glyph-name="uni01D3" unicode="&#x1d3;" horiz-adv-x="1546" 
d="M782 -20q-156 0 -279.5 42.5t-201.5 120.5q-74 75 -116 187t-42 248v1060h234v-1183q0 -123 71.5 -195t194.5 -72h281q122 0 194 72t72 195v1183h213v-1060q0 -138 -38.5 -255t-113.5 -192q-151 -151 -469 -151zM430 1804v205h14l351 -57l350 57h14v-205l-358 -59h-13z
" />
    <glyph glyph-name="uni01D4" unicode="&#x1d4;" 
d="M1116 1106v-1106h-225v106l-88 -69q-98 -57 -221 -57q-93 0 -179 33t-145 91q-125 125 -125 349v653h225v-758q0 -74 45 -119t119 -45h205q73 0 118.5 45t45.5 119v758h225zM287 1618v20h225l117 -192h4l123 192h219v-20l-248 -344h-192z" />
    <glyph glyph-name="uni01D5" unicode="&#x1d5;" horiz-adv-x="1546" 
d="M782 -20q-156 0 -279.5 42.5t-201.5 120.5q-74 75 -116 187t-42 248v1060h234v-1183q0 -123 71.5 -195t194.5 -72h281q122 0 194 72t72 195v1183h213v-1060q0 -138 -38.5 -255t-113.5 -192q-151 -151 -469 -151zM500 2163v192h590v-192h-590zM508 1812v127q0 36 20.5 56
t55.5 20h73q36 0 56 -20t20 -56v-127q0 -35 -20 -55t-56 -20h-73q-35 0 -55.5 20t-20.5 55zM856 1812v127q0 36 20.5 56t55.5 20h74q35 0 55 -20t20 -56v-127q0 -35 -20 -55t-55 -20h-74q-35 0 -55.5 20t-20.5 55z" />
    <glyph glyph-name="uni01D6" unicode="&#x1d6;" 
d="M1116 1106v-1106h-225v106l-88 -69q-98 -57 -221 -57q-93 0 -179 33t-145 91q-125 125 -125 349v653h225v-758q0 -74 45 -119t119 -45h205q73 0 118.5 45t45.5 119v758h225zM336 1786v192h590v-192h-590zM344 1436v127q0 35 20.5 55t55.5 20h74q35 0 55 -20t20 -55v-127
q0 -35 -20 -55.5t-55 -20.5h-74q-35 0 -55.5 20.5t-20.5 55.5zM692 1436v127q0 35 20.5 55t55.5 20h74q35 0 55.5 -20t20.5 -55v-127q0 -35 -20.5 -55.5t-55.5 -20.5h-74q-35 0 -55.5 20.5t-20.5 55.5z" />
    <glyph glyph-name="uni01D7" unicode="&#x1d7;" horiz-adv-x="1546" 
d="M782 -20q-156 0 -279.5 42.5t-201.5 120.5q-74 75 -116 187t-42 248v1060h234v-1183q0 -123 71.5 -195t194.5 -72h281q122 0 194 72t72 195v1183h213v-1060q0 -138 -38.5 -255t-113.5 -192q-151 -151 -469 -151zM483 2114v184l600 119h21v-203l-600 -100h-21zM508 1812
v127q0 36 20.5 56t55.5 20h73q36 0 56 -20t20 -56v-127q0 -35 -20 -55t-56 -20h-73q-35 0 -55.5 20t-20.5 55zM856 1812v127q0 36 20.5 56t55.5 20h74q35 0 55 -20t20 -56v-127q0 -35 -20 -55t-55 -20h-74q-35 0 -55.5 20t-20.5 55z" />
    <glyph glyph-name="uni01D8" unicode="&#x1d8;" 
d="M1116 1106v-1106h-225v106l-88 -69q-98 -57 -221 -57q-93 0 -179 33t-145 91q-125 125 -125 349v653h225v-758q0 -74 45 -119t119 -45h205q73 0 118.5 45t45.5 119v758h225zM319 1737v184l601 119h20v-203l-600 -100h-21zM344 1436v127q0 35 20.5 55t55.5 20h74
q35 0 55 -20t20 -55v-127q0 -35 -20 -55.5t-55 -20.5h-74q-35 0 -55.5 20.5t-20.5 55.5zM692 1436v127q0 35 20.5 55t55.5 20h74q35 0 55.5 -20t20.5 -55v-127q0 -35 -20.5 -55.5t-55.5 -20.5h-74q-35 0 -55.5 20.5t-20.5 55.5z" />
    <glyph glyph-name="uni01D9" unicode="&#x1d9;" horiz-adv-x="1546" 
d="M782 -20q-156 0 -279.5 42.5t-201.5 120.5q-74 75 -116 187t-42 248v1060h234v-1183q0 -123 71.5 -195t194.5 -72h281q122 0 194 72t72 195v1183h213v-1060q0 -138 -38.5 -255t-113.5 -192q-151 -151 -469 -151zM430 2181v205h14l351 -57l350 57h14v-205l-358 -59h-13z
M508 1812v127q0 36 20.5 56t55.5 20h73q36 0 56 -20t20 -56v-127q0 -35 -20 -55t-56 -20h-73q-35 0 -55.5 20t-20.5 55zM856 1812v127q0 36 20.5 56t55.5 20h74q35 0 55 -20t20 -56v-127q0 -35 -20 -55t-55 -20h-74q-35 0 -55.5 20t-20.5 55z" />
    <glyph glyph-name="uni01DA" unicode="&#x1da;" 
d="M1116 1106v-1106h-225v106l-88 -69q-98 -57 -221 -57q-93 0 -179 33t-145 91q-125 125 -125 349v653h225v-758q0 -74 45 -119t119 -45h205q73 0 118.5 45t45.5 119v758h225zM266 1804v205h15l350 -57l350 57h14v-205l-358 -59h-12zM344 1436v127q0 35 20.5 55t55.5 20h74
q35 0 55 -20t20 -55v-127q0 -35 -20 -55.5t-55 -20.5h-74q-35 0 -55.5 20.5t-20.5 55.5zM692 1436v127q0 35 20.5 55t55.5 20h74q35 0 55.5 -20t20.5 -55v-127q0 -35 -20.5 -55.5t-55.5 -20.5h-74q-35 0 -55.5 20.5t-20.5 55.5z" />
    <glyph glyph-name="uni01DB" unicode="&#x1db;" horiz-adv-x="1546" 
d="M782 -20q-156 0 -279.5 42.5t-201.5 120.5q-74 75 -116 187t-42 248v1060h234v-1183q0 -123 71.5 -195t194.5 -72h281q122 0 194 72t72 195v1183h213v-1060q0 -138 -38.5 -255t-113.5 -192q-151 -151 -469 -151zM483 2214v203h21l600 -119v-184h-21zM508 1812v127
q0 36 20.5 56t55.5 20h73q36 0 56 -20t20 -56v-127q0 -35 -20 -55t-56 -20h-73q-35 0 -55.5 20t-20.5 55zM856 1812v127q0 36 20.5 56t55.5 20h74q35 0 55 -20t20 -56v-127q0 -35 -20 -55t-55 -20h-74q-35 0 -55.5 20t-20.5 55z" />
    <glyph glyph-name="uni01DC" unicode="&#x1dc;" 
d="M1116 1106v-1106h-225v106l-88 -69q-98 -57 -221 -57q-93 0 -179 33t-145 91q-125 125 -125 349v653h225v-758q0 -74 45 -119t119 -45h205q73 0 118.5 45t45.5 119v758h225zM319 1837v203h21l600 -119v-184h-20zM344 1436v127q0 35 20.5 55t55.5 20h74q35 0 55 -20
t20 -55v-127q0 -35 -20 -55.5t-55 -20.5h-74q-35 0 -55.5 20.5t-20.5 55.5zM692 1436v127q0 35 20.5 55t55.5 20h74q35 0 55.5 -20t20.5 -55v-127q0 -35 -20.5 -55.5t-55.5 -20.5h-74q-35 0 -55.5 20.5t-20.5 55.5z" />
    <glyph glyph-name="Gcaron" unicode="&#x1e6;" horiz-adv-x="1710" 
d="M874 -20q-326 0 -518 192q-113 114 -168 284.5t-55 352.5v20q0 183 55 353.5t168 283.5q193 193 518 193q326 0 519 -193q151 -151 180 -389v-20h-225v20q0 171 -104.5 270t-282.5 99h-173q-187 0 -298 -111.5t-111 -298.5v-434q0 -187 111 -298t298 -111h173
q178 0 282.5 99t104.5 269v82h-467v209h696v-141q0 -171 -49.5 -312.5t-134.5 -226.5q-192 -192 -519 -192zM487 1804v205h15l350 -57l350 57h15v-205l-359 -59h-12z" />
    <glyph glyph-name="gcaron" unicode="&#x1e7;" horiz-adv-x="1315" 
d="M664 -430q-236 0 -369 133q-103 103 -127 215v21h225v-41q0 -56 33.5 -89.5t89.5 -33.5h285q66 0 105.5 39.5t39.5 105.5v182l8 70l-92 -66q-107 -49 -221 -49q-106 0 -203.5 37t-165.5 107q-77 75 -118 177.5t-41 203.5v20q0 99 42 203.5t117 179.5q142 141 369 141
q118 0 221 -49l94 -63l-10 92h225v-1012q0 -256 -139 -395q-129 -129 -368 -129zM334 1618v20h225l117 -192h4l123 192h219v-20l-248 -344h-192zM354 446q0 -86 49.5 -135t135.5 -49h227q86 0 135 49t49 135v291q0 86 -49 135.5t-135 49.5h-227q-86 0 -135.5 -49.5
t-49.5 -135.5v-291z" />
    <glyph glyph-name="uni01EA" unicode="&#x1ea;" horiz-adv-x="1749" 
d="M961 193q187 0 298 111t111 298v434q0 187 -111 298.5t-298 111.5h-173q-187 0 -298 -111.5t-111 -298.5v-434q0 -187 111 -298t298 -111h173zM133 809v20q0 205 58 367.5t165 269.5q193 193 518 193q326 0 519 -193q107 -107 165 -269.5t58 -367.5v-20
q0 -205 -58 -367.5t-165 -269.5q-135 -135 -340 -175l-58 -87q-18 -27 -18 -64v-20q0 -49 47 -49h66v-187h-136q-94 0 -148 56t-54 147q0 83 51 156l22 32q-292 14 -469 191q-107 107 -165 269.5t-58 367.5z" />
    <glyph glyph-name="uni01EB" unicode="&#x1eb;" horiz-adv-x="1274" 
d="M735 184q85 0 135 50t50 135v368q0 85 -50 135t-135 50h-196q-85 0 -135 -50t-50 -135v-368q0 -85 50 -135t135 -50h196zM113 543v20q0 115 43.5 233.5t117.5 192.5q66 66 161 101.5t202 35.5q106 0 201 -35.5t161 -101.5q75 -74 118.5 -192.5t43.5 -233.5v-20
q0 -115 -43.5 -233.5t-118.5 -192.5q-85 -85 -216 -119l-58 -88q-18 -27 -18 -64v-20q0 -49 47 -49h65v-187h-135q-94 0 -148.5 56t-54.5 147q0 81 51 156l25 36q-175 24 -283 132q-74 74 -117.5 192.5t-43.5 233.5z" />
    <glyph glyph-name="Aringacute" unicode="&#x1fa;" horiz-adv-x="1632" 
d="M72 0v20l596 1618h297l596 -1618v-20h-242l-142 383h-748l-142 -383h-215zM504 592h598l-207 584l-90 258h-4l-90 -258zM506 2261v184l600 119h20v-203l-600 -100h-20zM516 1954q0 65 8 100t31 57q28 28 81 40t181 12t181 -12t81 -40q23 -22 31 -57t8 -100t-8 -100
t-31 -58q-28 -28 -81 -39.5t-181 -11.5t-181 11.5t-81 39.5q-23 23 -31 58t-8 100zM696 1944q0 -25 14.5 -39.5t39.5 -14.5h139q25 0 39 14.5t14 39.5v32q0 25 -14 39.5t-39 14.5h-139q-25 0 -39.5 -14.5t-14.5 -39.5v-32z" />
    <glyph glyph-name="aringacute" unicode="&#x1fb;" horiz-adv-x="1186" 
d="M514 -20q-100 0 -182.5 28.5t-134.5 81.5q-43 42 -69 100.5t-26 114.5v21q0 49 22.5 103t63.5 95q87 87 256 109l383 45v182q0 28 -16.5 45t-44.5 17h-354q-28 0 -45 -17t-17 -45v-78h-225v21q20 116 104 201q124 122 357 122q238 0 358 -118q109 -109 109 -322v-686
h-215v98l-125 -86q-93 -32 -199 -32zM287 1757v185l600 118h20v-202l-600 -101h-20zM307 1456q0 103 49 152q28 27 78 39t164 12t164 -12t78 -39q49 -49 49 -152t-49 -151q-28 -28 -78 -40t-164 -12t-164 12t-78 40q-49 48 -49 151zM338 242q0 -28 16.5 -45t44.5 -17h367
q28 0 44.5 17t16.5 45v250l-430 -52q-27 -3 -43 -20.5t-16 -42.5v-135zM475 1440q0 -25 14.5 -39.5t38.5 -14.5h140q24 0 38.5 14.5t14.5 39.5v33q0 24 -14.5 38.5t-38.5 14.5h-140q-24 0 -38.5 -14.5t-14.5 -38.5v-33z" />
    <glyph glyph-name="AEacute" unicode="&#x1fc;" horiz-adv-x="2271" 
d="M72 0v20l903 1618h1194v-208h-819v-494h770v-209h-770v-518h819v-209h-1053v375h-577l-209 -375h-258zM664 600h452v834h-4l-133 -258zM1182 1737v184l600 119h20v-203l-600 -100h-20z" />
    <glyph glyph-name="aeacute" unicode="&#x1fd;" horiz-adv-x="1962" 
d="M530 0q-120 0 -202 20t-131 70q-43 42 -69 101.5t-26 121.5v4q0 121 86 207q87 87 256 109l383 45v182q0 28 -16.5 45t-44.5 17h-354q-28 0 -45 -17t-17 -45v-78h-225v4q18 131 104 218q103 102 365 102h743q122 0 206.5 -27.5t150.5 -93.5q155 -156 155 -430
q0 -38 -4 -76h-788v-110q0 -83 50.5 -134t133.5 -51h215q69 0 112.5 43.5t43.5 112.5v6h215v-4q-40 -128 -131 -219q-67 -67 -153.5 -95t-215.5 -28h-797zM338 242q0 -28 16.5 -45t44.5 -17h367q28 0 44.5 17t16.5 45v249l-430 -51q-27 -3 -43 -20.5t-16 -42.5v-135z
M856 1274v26l250 338h250v-26l-291 -338h-209zM1057 659h565v78q0 83 -50.5 134t-133.5 51h-197q-83 0 -133.5 -51t-50.5 -134v-78z" />
    <glyph glyph-name="Oslashacute" unicode="&#x1fe;" horiz-adv-x="1749" 
d="M874 -20q-326 0 -518 192q-107 107 -165 269.5t-58 367.5v20q0 205 58 367.5t165 269.5q193 193 518 193q326 0 519 -193q107 -107 165 -269.5t58 -367.5v-20q0 -205 -58 -367.5t-165 -269.5q-192 -192 -519 -192zM379 606l965 592q-42 117 -142 182.5t-241 65.5h-173
q-187 0 -298 -111.5t-111 -298.5v-430zM404 443q41 -118 141.5 -184t242.5 -66h173q187 0 298 111t111 298v434zM563 1737v184l600 119h21v-203l-600 -100h-21z" />
    <glyph glyph-name="oslashacute" unicode="&#x1ff;" horiz-adv-x="1274" 
d="M637 -20q-107 0 -202 35.5t-161 101.5q-74 74 -117.5 192.5t-43.5 233.5v20q0 115 43.5 233.5t117.5 192.5q66 66 161 101.5t202 35.5q106 0 201 -35.5t161 -101.5q75 -74 118.5 -192.5t43.5 -233.5v-20q0 -115 -43.5 -233.5t-118.5 -192.5q-66 -66 -161 -101.5
t-201 -35.5zM354 454l559 342q-17 60 -63 93t-115 33h-196q-85 0 -135 -50t-50 -135v-283zM361 310q17 -60 63 -93t115 -33h196q85 0 135 50t50 135v283zM532 1274v26l250 338h250v-26l-291 -338h-209z" />
    <glyph glyph-name="uni0218" unicode="&#x218;" horiz-adv-x="1501" 
d="M758 -20q-334 0 -504 172q-67 67 -107 157t-45 189v20h226v-59q0 -123 71.5 -194.5t194.5 -71.5h354q104 0 165 60.5t61 164.5v37q0 61 -23.5 92.5t-81.5 52.5l-590 203q-174 61 -254 145t-80 215v21q0 84 34 165t100 146q164 164 469 164t475 -168q63 -63 105.5 -151
t49.5 -179v-20h-225v39q0 122 -71.5 194t-194.5 72h-291q-104 0 -164.5 -60.5t-60.5 -164.5v-29q0 -55 22 -88.5t76 -50.5l596 -209q159 -55 246.5 -148t87.5 -225v-20q0 -168 -131 -299q-172 -172 -510 -172zM596 -430v20l20 258h283v-20l-156 -258h-147z" />
    <glyph glyph-name="uni0219" unicode="&#x219;" horiz-adv-x="1104" 
d="M553 -20q-117 0 -210.5 32t-149.5 88q-45 45 -71.5 105.5t-29.5 122.5v4h201v-25q0 -55 33.5 -89t89.5 -34h299q38 0 61 23t23 61v39q0 61 -66 82l-381 131q-233 79 -233 260v29q0 115 86 201q118 116 340 116q112 0 202.5 -30t145.5 -84q78 -80 98 -228v-4h-200v19
q0 55 -34 89t-89 34h-252q-37 0 -60.5 -23.5t-23.5 -60.5v-39q0 -63 59 -84l408 -140q101 -34 157 -96.5t56 -142.5v-37q0 -54 -25 -108.5t-63 -92.5q-55 -55 -152 -86.5t-219 -31.5zM391 -430v20l21 258h282v-20l-155 -258h-148z" />
    <glyph glyph-name="uni021A" unicode="&#x21a;" horiz-adv-x="1417" 
d="M592 0v1430h-520v208h1274v-208h-521v-1430h-233zM541 -430v20l20 258h283v-20l-156 -258h-147z" />
    <glyph glyph-name="uni021B" unicode="&#x21b;" horiz-adv-x="936" 
d="M668 0q-102 0 -170 21.5t-117 70.5q-105 105 -105 309v517h-235v188h235v369h226v-369h352v-188h-352v-607q0 -55 34 -89t89 -34h188v-188h-145zM506 -430v20l20 258h283v-20l-156 -258h-147z" />
    <glyph glyph-name="uni0232" unicode="&#x232;" horiz-adv-x="1577" 
d="M672 0v697l-600 921v20h262l467 -735h4l465 735h235v-20l-600 -921v-697h-233zM494 1786v192h589v-192h-589z" />
    <glyph glyph-name="uni0233" unicode="&#x233;" horiz-adv-x="1214" 
d="M133 -410v189h262q56 0 72 47l62 174h-37l-400 1085v21h230l301 -848h4l303 848h192v-21l-438 -1191q-61 -164 -125 -228q-76 -76 -221 -76h-205zM342 1360v192h590v-192h-590z" />
    <glyph glyph-name="uni0237" unicode="&#x237;" horiz-adv-x="512" 
d="M-25 -410v205h66q46 0 74 28.5t28 74.5v1208h226v-1124q0 -172 -113 -285q-107 -107 -256 -107h-25z" />
    <glyph glyph-name="circumflex" unicode="&#x2c6;" horiz-adv-x="1274" 
d="M293 1274v20l248 344h192l248 -344v-20h-225l-117 192h-4l-123 -192h-219z" />
    <glyph glyph-name="caron" unicode="&#x2c7;" horiz-adv-x="1274" 
d="M981 1638v-20l-248 -344h-192l-248 344v20h225l117 -192h4l123 192h219z" />
    <glyph glyph-name="breve" unicode="&#x2d8;" horiz-adv-x="1274" 
d="M651 1253q-146 0 -231.5 91t-85.5 237v57h198v-96q0 -49 31.5 -80.5t81.5 -31.5h12q51 0 82 31.5t31 80.5v96h199v-57q0 -146 -85.5 -237t-232.5 -91z" />
    <glyph glyph-name="dotaccent" unicode="&#x2d9;" horiz-adv-x="1274" 
d="M590 1360q-35 0 -55.5 20.5t-20.5 55.5v127q0 35 20.5 55t55.5 20h94q35 0 55.5 -20t20.5 -55v-127q0 -35 -20.5 -55.5t-55.5 -20.5h-94z" />
    <glyph glyph-name="ring" unicode="&#x2da;" horiz-adv-x="1274" 
d="M651 1253q-113 0 -163.5 12t-77.5 40q-50 49 -50 151t50 152q27 27 77.5 39t163.5 12q114 0 164 -12t78 -39q49 -49 49 -152t-49 -151q-28 -28 -78 -40t-164 -12zM528 1440q0 -25 14.5 -39.5t39.5 -14.5h139q25 0 39 14.5t14 39.5v33q0 24 -14 38.5t-39 14.5h-139
q-25 0 -39.5 -14.5t-14.5 -38.5v-33z" />
    <glyph glyph-name="ogonek" unicode="&#x2db;" horiz-adv-x="1274" 
d="M618 -410q-93 0 -147.5 56t-54.5 147q0 83 51 156l35 51h217l-60 -90q-18 -27 -18 -64v-20q0 -49 47 -49h66v-187h-136z" />
    <glyph glyph-name="tilde" unicode="&#x2dc;" horiz-adv-x="1274" 
d="M836 1350q-35 0 -93 14l-153 41q-41 12 -68 12q-18 0 -29.5 -11t-11.5 -30v-16h-190v96q0 68 40 108t107 40q32 0 92 -15l154 -41q41 -12 68 -12q18 0 29.5 11t11.5 30v16h190v-96q0 -67 -39.5 -107t-107.5 -40z" />
    <glyph glyph-name="hungarumlaut" unicode="&#x2dd;" horiz-adv-x="1274" 
d="M729 1274v364h232v-26l-50 -338h-182zM375 1274v364h231v-26l-49 -338h-182z" />
    <glyph glyph-name="Wgrave" unicode="&#x1e80;" horiz-adv-x="2644" 
d="M668 0l-596 1618v20h241l465 -1302h4l469 1302h168l465 -1302h4l469 1302h215v-20l-596 -1618h-202l-449 1221h-4l-451 -1221h-202zM1022 1837v203h20l600 -119v-184h-20z" />
    <glyph glyph-name="wgrave" unicode="&#x1e81;" horiz-adv-x="2001" 
d="M492 0l-400 1085v21h230l282 -799h4l283 799h252l284 -799h5l284 799h193v-21l-400 -1085h-192l-313 854h-5l-315 -854h-192zM627 1612v26h250l249 -338v-26h-208z" />
    <glyph glyph-name="Wacute" unicode="&#x1e82;" horiz-adv-x="2644" 
d="M668 0l-596 1618v20h241l465 -1302h4l469 1302h168l465 -1302h4l469 1302h215v-20l-596 -1618h-202l-449 1221h-4l-451 -1221h-202zM1022 1737v184l600 119h20v-203l-600 -100h-20z" />
    <glyph glyph-name="wacute" unicode="&#x1e83;" horiz-adv-x="2001" 
d="M492 0l-400 1085v21h230l282 -799h4l283 799h252l284 -799h5l284 799h193v-21l-400 -1085h-192l-313 854h-5l-315 -854h-192zM915 1274v26l250 338h250v-26l-291 -338h-209z" />
    <glyph glyph-name="Wdieresis" unicode="&#x1e84;" horiz-adv-x="2644" 
d="M668 0l-596 1618v20h241l465 -1302h4l469 1302h168l465 -1302h4l469 1302h215v-20l-596 -1618h-202l-449 1221h-4l-451 -1221h-202zM1047 1812v127q0 36 20 56t55 20h74q35 0 55.5 -20t20.5 -56v-127q0 -35 -20.5 -55t-55.5 -20h-74q-35 0 -55 20t-20 55zM1395 1812v127
q0 36 20 56t55 20h74q35 0 55.5 -20t20.5 -56v-127q0 -35 -20.5 -55t-55.5 -20h-74q-35 0 -55 20t-20 55z" />
    <glyph glyph-name="wdieresis" unicode="&#x1e85;" horiz-adv-x="2001" 
d="M492 0l-400 1085v21h230l282 -799h4l283 799h252l284 -799h5l284 799h193v-21l-400 -1085h-192l-313 854h-5l-315 -854h-192zM733 1436v127q0 35 20.5 55t55.5 20h74q35 0 55 -20t20 -55v-127q0 -35 -20 -55.5t-55 -20.5h-74q-35 0 -55.5 20.5t-20.5 55.5zM1081 1436v127
q0 35 20.5 55t55.5 20h74q35 0 55.5 -20t20.5 -55v-127q0 -35 -20.5 -55.5t-55.5 -20.5h-74q-35 0 -55.5 20.5t-20.5 55.5z" />
    <glyph glyph-name="uni1EA0" unicode="&#x1ea0;" horiz-adv-x="1632" 
d="M72 0v20l596 1618h297l596 -1618v-20h-242l-142 383h-748l-142 -383h-215zM504 592h598l-207 584l-90 258h-4l-90 -258zM666 -354v127q0 35 20 55t55 20h95q35 0 55 -20t20 -55v-127q0 -35 -20 -55.5t-55 -20.5h-95q-35 0 -55 20.5t-20 55.5z" />
    <glyph glyph-name="uni1EA1" unicode="&#x1ea1;" horiz-adv-x="1186" 
d="M514 -20q-100 0 -182.5 28.5t-134.5 81.5q-43 42 -69 100.5t-26 114.5v21q0 49 22.5 103t63.5 95q87 87 256 109l383 45v182q0 28 -16.5 45t-44.5 17h-354q-28 0 -45 -17t-17 -45v-78h-225v21q20 116 104 201q124 122 357 122q238 0 358 -118q109 -109 109 -322v-686
h-215v98l-125 -86q-93 -32 -199 -32zM338 242q0 -28 16.5 -45t44.5 -17h367q28 0 44.5 17t16.5 45v250l-430 -52q-27 -3 -43 -20.5t-16 -42.5v-135zM461 -354v127q0 35 20 55t56 20h94q35 0 55.5 -20t20.5 -55v-127q0 -35 -20.5 -55.5t-55.5 -20.5h-94q-36 0 -56 20.5
t-20 55.5z" />
    <glyph glyph-name="uni1EB8" unicode="&#x1eb8;" horiz-adv-x="1309" 
d="M154 0v1638h1052v-208h-819v-494h770v-209h-770v-518h819v-209h-1052zM547 -354v127q0 35 20 55t56 20h94q35 0 55.5 -20t20.5 -55v-127q0 -35 -20.5 -55.5t-55.5 -20.5h-94q-36 0 -56 20.5t-20 55.5z" />
    <glyph glyph-name="uni1EB9" unicode="&#x1eb9;" horiz-adv-x="1249" 
d="M631 -20q-222 0 -363 141q-72 72 -113.5 183t-41.5 239v20q0 129 41 241t112 183q139 139 363 139q211 0 352 -141q156 -156 156 -430q0 -38 -4 -76h-789v-110q0 -83 50.5 -134t133.5 -51h215q70 0 113 43.5t43 112.5v6h215v-4q-38 -127 -131 -219q-143 -143 -352 -143z
M344 659h565v78q0 83 -50.5 134t-133.5 51h-197q-83 0 -133.5 -51t-50.5 -134v-78zM500 -354v127q0 35 20 55t55 20h95q35 0 55 -20t20 -55v-127q0 -35 -20 -55.5t-55 -20.5h-95q-35 0 -55 20.5t-20 55.5z" />
    <glyph glyph-name="uni1EBC" unicode="&#x1ebc;" horiz-adv-x="1309" 
d="M154 0v1638h1052v-208h-819v-494h770v-209h-770v-518h819v-209h-1052zM336 1786v96q0 68 40 108t107 40q32 0 92 -15l154 -41q41 -12 68 -12q18 0 29.5 11t11.5 30v16h190v-96q0 -67 -40 -107t-107 -40q-35 0 -93 14l-153 41q-41 12 -68 12q-18 0 -29.5 -11t-11.5 -30
v-16h-190z" />
    <glyph glyph-name="uni1EBD" unicode="&#x1ebd;" horiz-adv-x="1249" 
d="M631 -20q-222 0 -363 141q-72 72 -113.5 183t-41.5 239v20q0 129 41 241t112 183q139 139 363 139q211 0 352 -141q156 -156 156 -430q0 -38 -4 -76h-789v-110q0 -83 50.5 -134t133.5 -51h215q70 0 113 43.5t43 112.5v6h215v-4q-38 -127 -131 -219q-143 -143 -352 -143z
M291 1360v96q0 68 40 108t107 40q32 0 92 -15l154 -41q41 -12 68 -12q18 0 29.5 11t11.5 30v16h190v-96q0 -67 -39.5 -107t-107.5 -40q-35 0 -93 14l-153 41q-41 12 -68 12q-18 0 -29.5 -11t-11.5 -30v-16h-190zM344 659h565v78q0 83 -50.5 134t-133.5 51h-197
q-83 0 -133.5 -51t-50.5 -134v-78z" />
    <glyph glyph-name="uni1ECA" unicode="&#x1eca;" horiz-adv-x="541" 
d="M154 0v1638h233v-1638h-233zM135 -354v127q0 35 20.5 55t55.5 20h94q35 0 55.5 -20t20.5 -55v-127q0 -35 -20.5 -55.5t-55.5 -20.5h-94q-35 0 -55.5 20.5t-20.5 55.5z" />
    <glyph glyph-name="uni1ECB" unicode="&#x1ecb;" horiz-adv-x="512" 
d="M143 0v1106h226v-1106h-226zM119 -354v127q0 35 20 55t56 20h94q35 0 55.5 -20t20.5 -55v-127q0 -35 -20.5 -55.5t-55.5 -20.5h-94q-36 0 -56 20.5t-20 55.5zM133 1436v127q0 35 20.5 55t55.5 20h94q35 0 55.5 -20t20.5 -55v-127q0 -35 -20.5 -55.5t-55.5 -20.5h-94
q-35 0 -55.5 20.5t-20.5 55.5z" />
    <glyph glyph-name="uni1ECC" unicode="&#x1ecc;" horiz-adv-x="1749" 
d="M874 -20q-326 0 -518 192q-107 107 -165 269.5t-58 367.5v20q0 205 58 367.5t165 269.5q193 193 518 193q326 0 519 -193q107 -107 165 -269.5t58 -367.5v-20q0 -205 -58 -367.5t-165 -269.5q-192 -192 -519 -192zM379 602q0 -187 111 -298t298 -111h173q187 0 298 111
t111 298v434q0 187 -111 298.5t-298 111.5h-173q-187 0 -298 -111.5t-111 -298.5v-434zM737 -354v127q0 35 20.5 55t55.5 20h94q35 0 55.5 -20t20.5 -55v-127q0 -35 -20.5 -55.5t-55.5 -20.5h-94q-35 0 -55.5 20.5t-20.5 55.5z" />
    <glyph glyph-name="uni1ECD" unicode="&#x1ecd;" horiz-adv-x="1274" 
d="M637 -20q-107 0 -202 35.5t-161 101.5q-74 74 -117.5 192.5t-43.5 233.5v20q0 115 43.5 233.5t117.5 192.5q66 66 161 101.5t202 35.5q106 0 201 -35.5t161 -101.5q75 -74 118.5 -192.5t43.5 -233.5v-20q0 -115 -43.5 -233.5t-118.5 -192.5q-66 -66 -161 -101.5
t-201 -35.5zM354 369q0 -85 50 -135t135 -50h196q85 0 135 50t50 135v368q0 85 -50 135t-135 50h-196q-85 0 -135 -50t-50 -135v-368zM500 -354v127q0 35 20 55t55 20h95q35 0 55 -20t20 -55v-127q0 -35 -20 -55.5t-55 -20.5h-95q-35 0 -55 20.5t-20 55.5z" />
    <glyph glyph-name="uni1EE4" unicode="&#x1ee4;" horiz-adv-x="1546" 
d="M782 -20q-156 0 -279.5 42.5t-201.5 120.5q-74 75 -116 187t-42 248v1060h234v-1183q0 -123 71.5 -195t194.5 -72h281q122 0 194 72t72 195v1183h213v-1060q0 -138 -38.5 -255t-113.5 -192q-151 -151 -469 -151zM645 -354v127q0 35 20.5 55t55.5 20h94q35 0 55.5 -20
t20.5 -55v-127q0 -35 -20.5 -55.5t-55.5 -20.5h-94q-35 0 -55.5 20.5t-20.5 55.5z" />
    <glyph glyph-name="uni1EE5" unicode="&#x1ee5;" 
d="M1116 1106v-1106h-225v106l-88 -69q-98 -57 -221 -57q-93 0 -179 33t-145 91q-125 125 -125 349v653h225v-758q0 -74 45 -119t119 -45h205q73 0 118.5 45t45.5 119v758h225zM494 -354v127q0 35 20 55t55 20h95q35 0 55 -20t20 -55v-127q0 -35 -20 -55.5t-55 -20.5h-95
q-35 0 -55 20.5t-20 55.5z" />
    <glyph glyph-name="Ygrave" unicode="&#x1ef2;" horiz-adv-x="1577" 
d="M672 0v697l-600 921v20h262l467 -735h4l465 735h235v-20l-600 -921v-697h-233zM477 1837v203h21l600 -119v-184h-21z" />
    <glyph glyph-name="ygrave" unicode="&#x1ef3;" horiz-adv-x="1214" 
d="M133 -410v189h262q56 0 72 47l62 174h-37l-400 1085v21h230l301 -848h4l303 848h192v-21l-438 -1191q-61 -164 -125 -228q-76 -76 -221 -76h-205zM244 1612v26h250l249 -338v-26h-208z" />
    <glyph glyph-name="uni1EF8" unicode="&#x1ef8;" horiz-adv-x="1577" 
d="M672 0v697l-600 921v20h262l467 -735h4l465 735h235v-20l-600 -921v-697h-233zM428 1786v96q0 68 40 108t107 40q31 0 93 -15l153 -41q40 -12 68 -12q18 0 29.5 11t11.5 30v16h190v-96q0 -67 -40 -107t-107 -40q-36 0 -92 14l-154 41q-41 12 -68 12q-18 0 -29.5 -11
t-11.5 -30v-16h-190z" />
    <glyph glyph-name="uni1EF9" unicode="&#x1ef9;" horiz-adv-x="1214" 
d="M133 -410v189h262q56 0 72 47l62 174h-37l-400 1085v21h230l301 -848h4l303 848h192v-21l-438 -1191q-61 -164 -125 -228q-76 -76 -221 -76h-205zM291 1360v96q0 68 40 108t107 40q32 0 92 -15l154 -41q41 -12 68 -12q18 0 29.5 11t11.5 30v16h190v-96q0 -67 -39.5 -107
t-107.5 -40q-35 0 -93 14l-153 41q-41 12 -68 12q-18 0 -29.5 -11t-11.5 -30v-16h-190z" />
    <glyph glyph-name="endash" unicode="&#x2013;" horiz-adv-x="1245" 
d="M143 682v188h959v-188h-959z" />
    <glyph glyph-name="emdash" unicode="&#x2014;" horiz-adv-x="1823" 
d="M143 682v188h1536v-188h-1536z" />
    <glyph glyph-name="quoteleft" unicode="&#x2018;" horiz-adv-x="532" 
d="M328 1638l4 -4v-321h67v-230q0 -12 -8 -20t-20 -8h-99q-64 0 -101.5 37.5t-37.5 101.5v143q0 73 23 136.5t61 101.5q51 51 111 63z" />
    <glyph glyph-name="quoteright" unicode="&#x2019;" horiz-adv-x="532" 
d="M205 1055l-4 4v321h-68v230q0 12 8 20t21 8h98q64 0 101.5 -37t37.5 -102v-143q0 -73 -23 -137t-61 -101q-49 -50 -110 -63z" />
    <glyph glyph-name="quotesinglbase" unicode="&#x201a;" horiz-adv-x="532" 
d="M205 -326l-4 4v322h-68v229q0 13 8 21t21 8h98q64 0 101.5 -37t37.5 -102v-144q0 -72 -23 -136t-61 -101q-48 -50 -110 -64z" />
    <glyph glyph-name="quotedblleft" unicode="&#x201c;" horiz-adv-x="901" 
d="M696 1638l4 -4v-321h68v-230q0 -12 -8 -20t-21 -8h-98q-65 0 -102 37.5t-37 101.5v143q0 73 23 136.5t61 101.5q51 51 110 63zM133 1194v143q0 73 23 136.5t61 101.5q51 51 111 63l4 -4v-321h67v-230q0 -12 -8 -20t-20 -8h-99q-64 0 -101.5 37.5t-37.5 101.5z" />
    <glyph glyph-name="quotedblright" unicode="&#x201d;" horiz-adv-x="901" 
d="M205 1055l-4 4v321h-68v230q0 12 8 20t21 8h98q64 0 101.5 -37t37.5 -102v-143q0 -73 -23 -137t-61 -101q-49 -50 -110 -63zM502 1380v230q0 12 8 20t20 8h99q65 0 102 -37t37 -102v-143q0 -73 -23 -136.5t-61 -101.5q-51 -51 -111 -63l-4 4v321h-67z" />
    <glyph glyph-name="quotedblbase" unicode="&#x201e;" horiz-adv-x="901" 
d="M573 -326l-4 4v322h-67v229q0 13 8 21t20 8h99q65 0 102 -37t37 -102v-144q0 -72 -23 -135.5t-61 -101.5q-50 -50 -111 -64zM133 0v229q0 13 8 21t21 8h98q64 0 101.5 -37t37.5 -102v-144q0 -72 -23 -136t-61 -101q-48 -50 -110 -64l-4 4v322h-68z" />
    <glyph glyph-name="dagger" unicode="&#x2020;" horiz-adv-x="1094" 
d="M434 133v932h-352v205h352v368h225v-368h353v-205h-353v-932h-225z" />
    <glyph glyph-name="daggerdbl" unicode="&#x2021;" horiz-adv-x="1094" 
d="M434 133v369h-352v205h352v358h-352v205h352v368h225v-368h353v-205h-353v-358h353v-205h-353v-369h-225z" />
    <glyph glyph-name="bullet" unicode="&#x2022;" horiz-adv-x="664" 
d="M332 508q-91 0 -155 64t-64 155t64 155t155 64t155 -64t64 -155t-64 -155t-155 -64z" />
    <glyph glyph-name="ellipsis" unicode="&#x2026;" horiz-adv-x="1331" 
d="M543 0v258h245v-258h-245zM133 0v258h246v-258h-246zM952 0v258h246v-258h-246z" />
    <glyph glyph-name="perthousand" unicode="&#x2030;" horiz-adv-x="2071" 
d="M449 922q-68 0 -129.5 24.5t-102.5 67.5q-50 48 -77 121.5t-27 146.5v21q0 71 27 143.5t77 122.5q42 42 103.5 66t128.5 24q68 0 129.5 -24t103.5 -66q50 -50 77 -122.5t27 -143.5v-21q0 -73 -27 -146.5t-77 -121.5q-41 -44 -102.5 -68t-130.5 -24zM113 578v178l1083 305
v-178zM311 1249q0 -59 39.5 -99t95.5 -40h7q56 0 95.5 40t39.5 99v82q0 59 -39.5 99t-95.5 40h-7q-56 0 -95.5 -40t-39.5 -99v-82zM522 340v20q0 71 27 143.5t78 123.5q42 42 103 66t128 24q142 0 234 -90q50 -51 77 -123.5t27 -143.5v-20q0 -73 -27 -146.5t-77 -121.5
q-89 -92 -234 -92q-68 0 -129 24.5t-102 67.5q-50 48 -77.5 121.5t-27.5 146.5zM721 307q0 -59 39.5 -99t95.5 -40h6q56 0 95.5 40t39.5 99v82q0 59 -39.5 99t-95.5 40h-6q-56 0 -95.5 -40t-39.5 -99v-82zM1284 340v20q0 71 27 143.5t78 123.5q42 42 103 66t128 24
q68 0 129.5 -24t103.5 -66q51 -51 78 -123.5t27 -143.5v-20q0 -73 -27.5 -146.5t-77.5 -121.5q-41 -44 -102.5 -68t-130.5 -24q-68 0 -129 24.5t-102 67.5q-50 48 -77.5 121.5t-27.5 146.5zM1483 307q0 -59 39.5 -99t95.5 -40h6q56 0 95.5 40t39.5 99v82q0 59 -39.5 99
t-95.5 40h-6q-56 0 -95.5 -40t-39.5 -99v-82z" />
    <glyph glyph-name="guilsinglleft" unicode="&#x2039;" horiz-adv-x="618" 
d="M373 98l-312 473v21l312 473h184v-21l-304 -462l304 -463v-21h-184z" />
    <glyph glyph-name="guilsinglright" unicode="&#x203a;" horiz-adv-x="618" 
d="M246 1065l311 -473v-21l-311 -473h-185v21l305 463l-305 462v21h185z" />
    <glyph glyph-name="fraction" unicode="&#x2044;" horiz-adv-x="1255" 
d="M61 -90l883 1810h250l-883 -1810h-250z" />
    <glyph glyph-name="Euro" unicode="&#x20ac;" horiz-adv-x="1686" 
d="M31 569v148h105q-3 45 -3 92v20q0 51 3 97h-105v147h126q51 245 199 393q193 193 518 193q326 0 519 -193q151 -151 180 -389v-20h-225v20q0 171 -104.5 270t-282.5 99h-173q-177 0 -287 -100.5t-121 -272.5h511v-147h-512v-209h512v-148h-511q10 -173 120 -274.5
t288 -101.5h173q178 0 282.5 99t104.5 269v21h225v-21q-29 -237 -180 -389q-192 -192 -519 -192q-326 0 -518 192q-151 151 -200 397h-125z" />
    <glyph glyph-name="uni2113" unicode="&#x2113;" horiz-adv-x="1077" 
d="M539 -20q-185 0 -299 114q-110 110 -125 301l-117 -63v225l115 64v571q0 108 34 200.5t93 151.5q113 115 299 115q184 0 299 -115q59 -60 93 -152.5t34 -199.5v-21q0 -165 -70 -278t-227 -199l-324 -175v-150q0 -83 50.5 -134t133.5 -51h23q76 0 125 51.5t49 133.5v100
h240v-23q0 -107 -34 -199.5t-93 -152.5q-116 -114 -299 -114zM344 748l254 141q127 70 127 233v148q0 82 -49 133t-125 51h-23q-82 0 -133 -51t-51 -133v-522z" />
    <glyph glyph-name="uni2116" unicode="&#x2116;" horiz-adv-x="2861" 
d="M154 0v1638h208l863 -1257h4l-4 952v305h209v-1638h-209l-863 1257h-4l4 -952v-305h-208zM1700 1075v21q0 114 43.5 232.5t118.5 193.5q66 66 161 101.5t201 35.5q107 0 202 -35.5t161 -101.5q74 -75 117.5 -193.5t43.5 -232.5v-21q0 -114 -43.5 -232.5t-117.5 -193.5
q-66 -66 -161 -101.5t-202 -35.5q-106 0 -201 35.5t-161 101.5q-75 75 -118.5 193.5t-43.5 232.5zM1720 193v192h1008v-192h-1008zM1942 901q0 -85 49.5 -134.5t134.5 -49.5h196q85 0 135 49.5t50 134.5v369q0 84 -50 134t-135 50h-196q-85 0 -134.5 -50t-49.5 -134v-369z
" />
    <glyph glyph-name="uni2117" unicode="&#x2117;" horiz-adv-x="1249" 
d="M625 438q-260 0 -414 154q-86 85 -128 189.5t-42 256.5v21q0 152 42 256.5t128 189.5q152 154 414 154q261 0 413 -154q86 -85 128 -189.5t42 -256.5v-21q0 -152 -42 -256.5t-128 -189.5q-154 -154 -413 -154zM139 977q0 -193 135.5 -320t333.5 -127h33q198 0 333.5 127
t135.5 320v143q0 193 -135.5 320t-333.5 127h-33q-198 0 -333.5 -127t-135.5 -320v-143zM371 705v641h247q152 0 222 -70q61 -61 61 -176v-4q0 -117 -61 -176q-69 -70 -222 -70h-108v-145h-139zM510 993h141q48 0 77.5 25.5t29.5 66.5v25q0 41 -29.5 66.5t-77.5 25.5h-141
v-209z" />
    <glyph glyph-name="trademark" unicode="&#x2122;" horiz-adv-x="1636" 
d="M719 907v731h123l233 -575l27 -72h2l26 72l232 575h121v-731h-101v445l4 96h-2l-41 -96l-178 -445h-127l-180 445l-39 96h-2l4 -96v-445h-102zM72 1538v100h571v-100h-233v-631h-105v631h-233z" />
    <glyph glyph-name="estimated" unicode="&#x212e;" horiz-adv-x="1249" 
d="M631 -20q-222 0 -363 141q-72 72 -113.5 183t-41.5 239v20q0 129 41 241t112 183q139 139 363 139q211 0 352 -141q156 -156 156 -420q0 -14 -4 -26h-789v-314q0 -83 51 -133.5t133 -50.5h215q70 0 113 43t43 113v149h215v-4q-38 -127 -131 -219q-143 -143 -352 -143z
M344 600h565v281q0 83 -50.5 133.5t-133.5 50.5h-197q-82 0 -133 -50.5t-51 -133.5v-281z" />
    <glyph glyph-name="arrowleft" unicode="&#x2190;" horiz-adv-x="1925" 
d="M645 1311l148 -148l-263 -262q-10 -10 -10 -27v-4h1262v-188h-1262v-4q0 -17 10 -27l263 -262l-148 -147l-502 501v66z" />
    <glyph glyph-name="arrowup" unicode="&#x2191;" horiz-adv-x="1229" 
d="M502 0v1282h-4q-17 0 -27 -10l-272 -273l-138 138l502 501h103l501 -501l-137 -138l-272 273q-10 10 -27 10h-4v-1282h-225z" />
    <glyph glyph-name="arrowright" unicode="&#x2192;" horiz-adv-x="1925" 
d="M1280 242l-147 147l262 262q10 10 10 27v4h-1262v188h1262v4q0 17 -10 27l-262 262l147 148l502 -502v-66z" />
    <glyph glyph-name="arrowdown" unicode="&#x2193;" horiz-adv-x="1229" 
d="M502 1638h225v-1282h4q18 0 27 11l272 272l137 -137l-501 -502h-103l-502 502l138 137l272 -272q9 -11 27 -11h4v1282z" />
    <glyph glyph-name="arrowboth" unicode="&#x2194;" horiz-adv-x="1980" 
d="M645 242l-502 501v66l502 502l148 -148l-263 -262q-10 -10 -10 -27v-4h940v4q0 17 -10 27l-262 262l147 148l502 -502v-66l-502 -501l-147 147l262 262q10 10 10 27v4h-940v-4q0 -17 10 -27l263 -262z" />
    <glyph glyph-name="arrowupdn" unicode="&#x2195;" horiz-adv-x="1229" 
d="M563 0l-502 502l138 137l272 -272q9 -11 27 -11h4v926h-4q-17 0 -27 -10l-272 -273l-138 138l502 501h103l501 -501l-137 -138l-272 273q-10 10 -27 10h-4v-926h4q18 0 27 11l272 272l137 -137l-501 -502h-103z" />
    <glyph glyph-name="uni2196" unicode="&#x2196;" horiz-adv-x="1681" 
d="M1296 205l-876 876l-2 -4q-1 -3 -4.5 -7.5t-5.5 -8.5t-2 -8v-400h-181v709l74 72h709v-179h-400q-14 0 -26 -12l-2 -2l876 -876z" />
    <glyph glyph-name="uni2197" unicode="&#x2197;" horiz-adv-x="1681" 
d="M385 205l-160 160l877 876l-2 2q-12 12 -27 12h-399v179h708l74 -72v-709h-180v400q0 4 -2 8t-5.5 8.5t-4.5 7.5l-2 4z" />
    <glyph glyph-name="uni2198" unicode="&#x2198;" horiz-adv-x="1681" 
d="M385 1434l877 -877l2 4q1 2 4.5 7.5t5.5 9.5t2 8v399h180v-709l-74 -71h-708v178h399q15 0 27 12l2 2l-877 877z" />
    <glyph glyph-name="uni2199" unicode="&#x2199;" horiz-adv-x="1681" 
d="M1296 1434l160 -160l-876 -877l2 -2q12 -12 26 -12h400v-178h-709l-74 71v709h181v-399q0 -4 2 -8t5.5 -9.5t4.5 -7.5l2 -4z" />
    <glyph glyph-name="minus" unicode="&#x2212;" horiz-adv-x="1221" 
d="M49 694v189h1122v-189h-1122z" />
    <glyph glyph-name="lozenge" unicode="&#x25ca;" horiz-adv-x="1196" 
d="M598 -20l-526 837l526 842l526 -842zM258 817l340 -532l340 532l-340 537z" />
    <glyph glyph-name="uni261D" unicode="&#x261d;" horiz-adv-x="813" 
d="M532 -10q-110 0 -155 39v86q0 20 -1 65.5t-1 67.5q0 36 -9 72t-18 56t-26 54q-48 90 -48 148t35 165q37 108 41 181l-26 -2q-51 -48 -99 -48q-25 0 -46.5 12.5t-28.5 37.5q30 43 77 88h-176v637h481v-467q79 -25 146 -68q16 -45 16 -117q4 -68 15 -108q35 -57 53 -103
q0 -63 -33 -329q-43 -404 -41 -449q-64 -18 -156 -18zM174 920q13 -25 51 -25q43 0 80 41q5 3 5 15.5t-5 21.5l17 8q11 -18 4 -41q60 6 123 23l22 47l21 -9l-23 -45q77 -55 121 -96l-12 -16q-40 37 -121 96q-63 -43 -97 -96q3 -20 13 -41q21 24 47 35q29 -12 86 -56
q9 -7 29.5 -21.5t31.5 -23.5l-12 -16q-14 9 -61 45q-61 43 -74 49q-37 -19 -55 -65q21 -33 94 -84q80 -59 98 -95l-16 -8q-14 25 -47 51q4 -32 0 -47l-21 4q9 37 -10 66l-23 16q-2 -21 -22 -69q-35 -80 -35 -129h-21q0 61 35 137q31 63 19 80q-54 38 -76 78q12 24 20 36
q-9 15 -10 19q-3 -11 -10 -33.5t-10 -34.5q-35 -101 -35 -159q0 -57 45 -138q18 -34 27.5 -56.5t18.5 -60t9 -75.5q0 -22 1 -67.5t1 -65.5v-76q44 -29 135 -29q71 0 136 15q2 79 41 434q32 294 32 323q-73 172 -256 291q-114 -9 -213 -45q-73 -75 -98 -108zM309 1133
q-2 -26 14 -41t50 -15q71 15 116 17q115 -75 191 -166q-2 11 -3 22t-1.5 24.5t-1.5 20.5q0 65 -12 107q-75 46 -177 72q-19 0 -82 -19q-63 -20 -94 -22zM367 879q21 30 57 57q-27 -7 -53 -10q0 -5 -0.5 -10.5t-1.5 -16t-2 -20.5zM442 217l13 16q30 -24 75 -24q34 0 52 14
l12 -16q-22 -19 -64 -19q-43 0 -88 29z" />
    <glyph glyph-name="uni261F" unicode="&#x261f;" horiz-adv-x="813" 
d="M532 -10q-110 0 -155 39v86q0 20 -1 65.5t-1 67.5q0 36 -9 72t-18 56t-26 54q-48 90 -48 148t35 165q37 108 41 181l-26 -2q-51 -48 -99 -48q-25 0 -46.5 12.5t-28.5 37.5q30 43 77 88h-176v637h481v-467q79 -25 146 -68q16 -45 16 -117q4 -68 15 -108q35 -57 53 -103
q0 -63 -33 -329q-43 -404 -41 -449q-64 -18 -156 -18zM72 1032h176l12 12q35 15 68 23q-24 10 -33.5 33.5t-3.5 52.5q21 -2 106 21q70 20 92 20l23 -6v440h-440v-596zM174 920q13 -25 51 -25q43 0 80 41q5 3 5 15.5t-5 21.5l17 8q11 -18 4 -41q60 6 123 23l22 47l21 -9
l-23 -45q77 -55 121 -96l-12 -16q-40 37 -121 96q-63 -43 -97 -96q3 -20 13 -41q21 24 47 35q29 -12 86 -56q9 -7 29.5 -21.5t31.5 -23.5l-12 -16q-14 9 -61 45q-61 43 -74 49q-37 -19 -55 -65q21 -33 94 -84q80 -59 98 -95l-16 -8q-14 25 -47 51q4 -32 0 -47l-21 4
q9 37 -10 66l-23 16q-2 -21 -22 -69q-35 -80 -35 -129h-21q0 61 35 137q31 63 19 80q-54 38 -76 78q12 24 20 36q-9 15 -10 19q-3 -11 -10 -33.5t-10 -34.5q-35 -101 -35 -159q0 -57 45 -138q18 -34 27.5 -56.5t18.5 -60t9 -75.5q0 -22 1 -67.5t1 -65.5v-76q44 -29 135 -29
q71 0 136 15q2 79 41 434q32 294 32 323q-73 172 -256 291q-114 -9 -213 -45q-73 -75 -98 -108zM309 1133q-2 -26 14 -41t50 -15q71 15 116 17q115 -75 191 -166q-2 11 -3 22t-1.5 24.5t-1.5 20.5q0 65 -12 107q-75 46 -177 72q-19 0 -82 -19q-63 -20 -94 -22zM367 879
q21 30 57 57q-27 -7 -53 -10q0 -5 -0.5 -10.5t-1.5 -16t-2 -20.5zM442 217l13 16q30 -24 75 -24q34 0 52 14l12 -16q-22 -19 -64 -19q-43 0 -88 29z" />
    <glyph glyph-name="uniF8FF" unicode="&#xf8ff;" horiz-adv-x="1835" 
d="M379 0v997l-236 -116l-139 432l283 196l268 129q363 -33 725 0l268 -129l283 -196l-139 -432l-236 116v-997h-1077zM29 1305l127 -396l243 121v-1010h416v1383q-97 26 -162.5 91t-89.5 124l-266 -127zM588 1616q9 -23 34 -54.5t65.5 -67.5t102 -60.5t128.5 -24.5
q69 0 131 24.5t101.5 60.5t63.5 67.5t33 54.5q-329 -31 -659 0zM1020 20h416v1010l243 -121l127 396l-268 186l-266 127q-24 -59 -89.5 -124t-162.5 -92v-1382z" />
    <glyph glyph-name="i.loclTRK" horiz-adv-x="512" 
d="M143 0v1106h226v-1106h-226zM133 1436v127q0 35 20.5 55t55.5 20h94q35 0 55.5 -20t20.5 -55v-127q0 -35 -20.5 -55.5t-55.5 -20.5h-94q-35 0 -55.5 20.5t-20.5 55.5z" />
    <glyph glyph-name="exclamdown.case" horiz-adv-x="512" 
d="M356 1176l13 -367v-809h-226v809l13 367h200zM133 1380v258h246v-258h-246z" />
    <glyph glyph-name="questiondown.case" horiz-adv-x="1305" 
d="M774 903q0 -120 -57.5 -204t-173.5 -121l-174 -56q-38 -12 -60 -45.5t-22 -77.5v-133q0 -94 55.5 -149.5t149.5 -55.5h290q94 0 149.5 55.5t55.5 149.5v39h225v-20q-5 -71 -40 -147t-97 -138q-143 -143 -432 -143q-301 0 -446 145q-67 66 -101.5 151t-34.5 169v20
q0 135 86.5 248.5t229.5 157.5l145 45q39 12 39 61v248h213v-199zM541 1257v259h245v-259h-245z" />
    </font>
</defs>
</svg>
